<svg width="25" height="25" viewBox="0 0 25 25" fill="none" xmlns="http://www.w3.org/2000/svg">
<g clip-path="url(#clip0_593_2997)">
<path d="M10.7399 12.15C7.97702 13.0956 5.31412 14.3115 2.78994 15.78C2.39357 16.0184 1.97071 16.2097 1.52994 16.35V16.35C1.4307 16.3676 1.32849 16.3559 1.23576 16.3164C1.14302 16.2769 1.06376 16.2114 1.00761 16.1277C0.95146 16.044 0.920842 15.9458 0.919481 15.845C0.91812 15.7442 0.946075 15.6452 0.999945 15.56V15.56C1.43034 14.9384 1.92654 14.3651 2.47994 13.85V13.85C2.68078 13.6628 2.94538 13.5591 3.21994 13.56H3.74994L8.29994 10.75L8.56994 10.43C9.00029 9.94028 9.56838 9.59177 10.1999 9.43002L10.7799 9.27002L10.7399 12.15Z" stroke="#1E1E1C" stroke-width="0.5" stroke-linejoin="round"/>
<path d="M14.6601 14.53L12.0801 23.6C12.0553 23.6883 12.0553 23.7817 12.0801 23.87V23.87C12.1147 24.0284 12.1914 24.1744 12.3021 24.2928C12.4128 24.4112 12.5534 24.4974 12.7091 24.5425C12.8648 24.5876 13.0298 24.5897 13.1866 24.5488C13.3434 24.5079 13.4863 24.4254 13.6001 24.31L13.6801 24.23L15.2701 20.82V20.37C15.2698 19.9563 15.423 19.5572 15.7001 19.25L16.2601 18.64V18.13C16.2549 17.9155 16.298 17.7025 16.3863 17.5069C16.4746 17.3113 16.6057 17.138 16.7701 17L17.2401 16.61C17.3652 16.5138 17.4657 16.3894 17.5335 16.2468C17.6013 16.1043 17.6344 15.9478 17.6301 15.79V15C17.6303 14.9125 17.6125 14.8259 17.5778 14.7455C17.5432 14.6651 17.4925 14.5927 17.4287 14.5327C17.365 14.4727 17.2896 14.4265 17.2073 14.3968C17.125 14.367 17.0374 14.3545 16.9501 14.36L14.6601 14.53Z" stroke="#1E1E1C" stroke-width="0.5" stroke-miterlimit="10"/>
<path d="M10.74 9.43002C10.74 9.43002 14.6 7.94001 15.16 6.89001H16.38L18.8 10.63C18.8886 10.7754 18.9304 10.9445 18.9197 11.1145C18.909 11.2844 18.8462 11.4469 18.74 11.58C18.4587 11.9499 18.0716 12.2254 17.63 12.37H14.53C14.0441 11.8766 13.4074 11.5595 12.7209 11.4689C12.0343 11.3784 11.3372 11.5195 10.74 11.87V9.43002Z" stroke="#1E1E1C" stroke-width="0.5" stroke-miterlimit="10"/>
<path d="M14.53 12.37L14.91 14.52L16.97 14.38L18.04 12.19" stroke="#1E1E1C" stroke-width="0.5" stroke-miterlimit="10"/>
<path d="M16.1499 6.87998C16.1499 6.87998 20.3699 3.71998 20.2999 0.419983C20.2999 0.419983 23.1399 5.41998 17.3999 8.20998" stroke="#1E1E1C" stroke-width="0.5" stroke-miterlimit="10"/>
<path d="M17.6299 8.79999C17.6299 8.79999 23.5099 7.92999 24.0699 2.92999C24.0699 2.92999 25.1899 8.10999 18.9499 10.98" stroke="#1E1E1C" stroke-width="0.5" stroke-miterlimit="10"/>
</g>
<defs>
<clipPath id="clip0_593_2997">
<rect width="25" height="25" fill="white"/>
</clipPath>
</defs>
</svg>
