<svg width="25" height="25" viewBox="0 0 25 25" fill="none" xmlns="http://www.w3.org/2000/svg">
<g clip-path="url(#clip0_593_3036)">
<path opacity="0.98" d="M20.9999 9.37C20.3504 9.37024 19.7135 9.55021 19.1599 9.89V5.49H13.4199C13.5559 5.1044 13.6269 4.69887 13.6299 4.29C13.6299 3.82512 13.5384 3.36479 13.3605 2.9353C13.1826 2.50581 12.9218 2.11556 12.5931 1.78684C12.2644 1.45812 11.8741 1.19737 11.4446 1.01947C11.0151 0.841565 10.5548 0.75 10.0899 0.75C9.62505 0.75 9.16472 0.841565 8.73523 1.01947C8.30574 1.19737 7.91549 1.45812 7.58677 1.78684C7.25805 2.11556 6.9973 2.50581 6.8194 2.9353C6.6415 3.36479 6.54993 3.82512 6.54993 4.29C6.55296 4.69887 6.62393 5.1044 6.75993 5.49H0.429932V10C0.883427 9.67587 1.40706 9.46341 1.95819 9.37993C2.50932 9.29644 3.07238 9.34429 3.60153 9.51957C4.13067 9.69485 4.61095 9.99261 5.00325 10.3886C5.39555 10.7846 5.6888 11.2677 5.8591 11.7984C6.02941 12.3292 6.07197 12.8927 5.98332 13.443C5.89467 13.9933 5.67731 14.5149 5.34894 14.9654C5.02057 15.4158 4.59047 15.7823 4.09365 16.0351C3.59684 16.2879 3.04735 16.4198 2.48993 16.42C1.74969 16.4201 1.02847 16.1856 0.429932 15.75V24.23H6.99993C6.68315 23.6923 6.51414 23.0805 6.51001 22.4564C6.50588 21.8324 6.66679 21.2184 6.97643 20.6766C7.28606 20.1348 7.73343 19.6844 8.27318 19.3712C8.81293 19.058 9.42588 18.893 10.0499 18.893C10.674 18.893 11.2869 19.058 11.8267 19.3712C12.3664 19.6844 12.8138 20.1348 13.1234 20.6766C13.4331 21.2184 13.594 21.8324 13.5899 22.4564C13.5857 23.0805 13.4167 23.6923 13.0999 24.23H19.1499V15.93C19.6163 16.2152 20.1423 16.3885 20.6869 16.4364C21.2314 16.4843 21.7796 16.4054 22.2886 16.2059C22.7975 16.0064 23.2534 15.6918 23.6204 15.2867C23.9874 14.8816 24.2556 14.397 24.404 13.8708C24.5524 13.3447 24.5769 12.7914 24.4756 12.2542C24.3743 11.717 24.15 11.2106 23.8203 10.7746C23.4905 10.3386 23.0643 9.98492 22.575 9.74123C22.0857 9.49753 21.5466 9.37047 20.9999 9.37V9.37Z" stroke="#1E1E1C" stroke-width="0.5" stroke-linecap="round" stroke-linejoin="round"/>
</g>
<defs>
<clipPath id="clip0_593_3036">
<rect width="25" height="25" fill="white"/>
</clipPath>
</defs>
</svg>
