<svg width="25" height="25" viewBox="0 0 25 25" fill="none" xmlns="http://www.w3.org/2000/svg">
<g clip-path="url(#clip0_593_3094)">
<path d="M6.6001 13.9399L14.8101 14.0599" stroke="#1E1E1C" stroke-width="0.5" stroke-miterlimit="10"/>
<path d="M10.74 12.5801C11.4028 12.5801 11.94 12.0428 11.94 11.3801C11.94 10.7173 11.4028 10.1801 10.74 10.1801C10.0773 10.1801 9.54004 10.7173 9.54004 11.3801C9.54004 12.0428 10.0773 12.5801 10.74 12.5801Z" stroke="#1E1E1C" stroke-width="0.5" stroke-miterlimit="10"/>
<path d="M20.9 5.37998C21.5627 5.37998 22.1 4.84272 22.1 4.17998C22.1 3.51724 21.5627 2.97998 20.9 2.97998C20.2372 2.97998 19.7 3.51724 19.7 4.17998C19.7 4.84272 20.2372 5.37998 20.9 5.37998Z" stroke="#1E1E1C" stroke-width="0.5" stroke-miterlimit="10"/>
<path d="M10.66 17.82C11.3227 17.82 11.86 17.2828 11.86 16.62C11.86 15.9573 11.3227 15.42 10.66 15.42C9.99722 15.42 9.45996 15.9573 9.45996 16.62C9.45996 17.2828 9.99722 17.82 10.66 17.82Z" stroke="#1E1E1C" stroke-width="0.5" stroke-miterlimit="10"/>
<path d="M12.7601 1.47995L1.46012 12.7799C1.0748 13.1661 0.858398 13.6894 0.858398 14.2349C0.858398 14.7805 1.0748 15.3038 1.46012 15.6899L9.34012 23.5699C9.52708 23.7682 9.75259 23.9261 10.0028 24.0341C10.253 24.142 10.5226 24.1977 10.7951 24.1977C11.0676 24.1977 11.3372 24.142 11.5874 24.0341C11.8377 23.9261 12.0632 23.7682 12.2501 23.5699L23.5401 12.2799C23.7327 12.0912 23.8852 11.8654 23.9883 11.6163C24.0914 11.3671 24.143 11.0996 24.1401 10.8299V1.63995C24.1401 1.42247 24.0537 1.2139 23.8999 1.06012C23.7462 0.906339 23.5376 0.819946 23.3201 0.819946L14.2001 0.879946C13.6607 0.886598 13.1447 1.10159 12.7601 1.47995V1.47995Z" stroke="#1E1E1C" stroke-width="0.5" stroke-miterlimit="10"/>
</g>
<defs>
<clipPath id="clip0_593_3094">
<rect width="25" height="25" fill="white"/>
</clipPath>
</defs>
</svg>
