<svg width="25" height="25" viewBox="0 0 25 25" fill="none" xmlns="http://www.w3.org/2000/svg">
<path d="M20.1201 24.44V5.69001C20.1201 4.33118 19.581 3.02786 18.6211 2.06608C17.6612 1.10431 16.3589 0.562656 15.0001 0.560007V0.560007C14.3256 0.558692 13.6574 0.690414 13.0339 0.947631C12.4103 1.20485 11.8436 1.58251 11.3662 2.05901C10.8888 2.5355 10.51 3.10148 10.2516 3.72453C9.99313 4.34758 9.86011 5.01548 9.86011 5.69001V7.47001" stroke="#1E1E1C" stroke-width="0.5" stroke-miterlimit="10"/>
<path d="M3.29007 12.87H16.4401V14C16.4428 14.3874 16.2936 14.7605 16.0243 15.039C15.7551 15.3176 15.3874 15.4795 15.0001 15.49H4.76007C4.56572 15.4887 4.37352 15.4491 4.19446 15.3735C4.0154 15.2979 3.85298 15.1878 3.71647 15.0495C3.57997 14.9111 3.47206 14.7472 3.3989 14.5671C3.32573 14.3871 3.28876 14.1944 3.29007 14V12.87Z" stroke="#1E1E1C" stroke-width="0.5" stroke-miterlimit="10"/>
<path d="M15.89 12.87C15.1 9.69001 12.74 7.39001 10 7.39001C7.26 7.39001 4.83 9.69001 4 12.87H15.89Z" stroke="#1E1E1C" stroke-width="0.5" stroke-miterlimit="10"/>
<path d="M6.07007 16.99V18.25" stroke="#1E1E1C" stroke-width="0.5" stroke-miterlimit="10"/>
<path d="M9.86011 16.99V18.25" stroke="#1E1E1C" stroke-width="0.5" stroke-miterlimit="10"/>
<path d="M13.6499 16.99V18.25" stroke="#1E1E1C" stroke-width="0.5" stroke-miterlimit="10"/>
<path d="M6.07007 19.75V21.02" stroke="#1E1E1C" stroke-width="0.5" stroke-miterlimit="10"/>
<path d="M9.86011 19.75V21.02" stroke="#1E1E1C" stroke-width="0.5" stroke-miterlimit="10"/>
<path d="M13.6499 19.75V21.02" stroke="#1E1E1C" stroke-width="0.5" stroke-miterlimit="10"/>
</svg>
