<svg width="25" height="25" viewBox="0 0 25 25" fill="none" xmlns="http://www.w3.org/2000/svg">
<path d="M21.1999 5.52002H3.7999C3.0267 5.52002 2.3999 6.14682 2.3999 6.92002V16.3C2.3999 17.0732 3.0267 17.7 3.7999 17.7H21.1999C21.9731 17.7 22.5999 17.0732 22.5999 16.3V6.92002C22.5999 6.14682 21.9731 5.52002 21.1999 5.52002Z" stroke="#1E1E1C" stroke-width="0.5" stroke-miterlimit="10"/>
<path d="M23.4801 19.48H1.4801C1.35891 19.4801 1.23911 19.4542 1.12873 19.4042C1.01835 19.3542 0.919937 19.2812 0.840098 19.19L0.350098 18.67H24.6101L24.1101 19.2C24.0301 19.2876 23.9328 19.3577 23.8244 19.4059C23.716 19.4541 23.5987 19.4793 23.4801 19.48Z" fill="#1E1E1C"/>
</svg>
