<svg width="25" height="25" viewBox="0 0 25 25" fill="none" xmlns="http://www.w3.org/2000/svg">
<path d="M16.87 0.340027H8.13C6.95363 0.340027 6 1.29366 6 2.47003V22.54C6 23.7164 6.95363 24.67 8.13 24.67H16.87C18.0464 24.67 19 23.7164 19 22.54V2.47003C19 1.29366 18.0464 0.340027 16.87 0.340027Z" stroke="#1E1E1C" stroke-width="0.5" stroke-miterlimit="10"/>
<path d="M17.5699 3.34998H7.42993V21.26H17.5699V3.34998Z" stroke="#1E1E1C" stroke-width="0.5" stroke-miterlimit="10"/>
<path d="M13.4499 1.37H11.3199C11.099 1.37 10.9199 1.54684 10.9199 1.765C10.9199 1.98315 11.099 2.16 11.3199 2.16H13.4499C13.6708 2.16 13.8499 1.98315 13.8499 1.765C13.8499 1.54684 13.6708 1.37 13.4499 1.37Z" fill="#1E1E1C"/>
<path d="M12.45 23.98C12.9912 23.98 13.43 23.5413 13.43 23C13.43 22.4588 12.9912 22.02 12.45 22.02C11.9087 22.02 11.47 22.4588 11.47 23C11.47 23.5413 11.9087 23.98 12.45 23.98Z" stroke="#1E1E1C" stroke-width="0.5" stroke-miterlimit="10"/>
</svg>
