<svg width="25" height="25" viewBox="0 0 25 25" fill="none" xmlns="http://www.w3.org/2000/svg">
<g clip-path="url(#clip0_593_3038)">
<path d="M3.0001 20.27C3.90815 19.7452 4.65782 18.9852 5.1701 18.07C5.30831 17.7352 5.54594 17.4508 5.8509 17.2553C6.15587 17.0598 6.51348 16.9625 6.87545 16.9767C7.23743 16.9909 7.58634 17.1158 7.87508 17.3345C8.16382 17.5533 8.37849 17.8554 8.4901 18.2C9.4201 20.53 11.6901 20.6 11.7201 22.03C11.7587 22.3485 11.711 22.6715 11.582 22.9653C11.453 23.2591 11.2474 23.5127 10.9868 23.6998C10.7261 23.8869 10.42 24.0004 10.1004 24.0286C9.78077 24.0568 9.45947 23.9986 9.1701 23.86C8.43219 23.4036 7.58496 23.1544 6.71745 23.1385C5.84993 23.1227 4.99417 23.3408 4.2401 23.77C2.4401 24.88 0.340096 21.72 3.0001 20.27Z" stroke="#1E1E1C" stroke-width="0.5" stroke-miterlimit="10"/>
<path d="M5.43934 16.1084C6.21983 15.8657 6.5573 14.7198 6.19311 13.549C5.82891 12.3783 4.90096 11.6261 4.12048 11.8689C3.33999 12.1116 3.00251 13.2575 3.36671 14.4283C3.7309 15.599 4.65885 16.3512 5.43934 16.1084Z" stroke="#1E1E1C" stroke-width="0.5" stroke-miterlimit="10"/>
<path d="M10.0942 14.6069C10.4903 13.4466 10.1844 12.2919 9.41083 12.0278C8.63729 11.7637 7.68908 12.4902 7.29295 13.6505C6.89681 14.8108 7.20276 15.9656 7.97631 16.2296C8.74985 16.4937 9.69806 15.7672 10.0942 14.6069Z" stroke="#1E1E1C" stroke-width="0.5" stroke-miterlimit="10"/>
<path d="M12.9177 17.6437C13.4214 16.7106 13.3293 15.684 12.7121 15.3508C12.0949 15.0177 11.1862 15.504 10.6825 16.4371C10.1788 17.3703 10.2709 18.3968 10.8881 18.73C11.5053 19.0631 12.414 18.5768 12.9177 17.6437Z" stroke="#1E1E1C" stroke-width="0.5" stroke-miterlimit="10"/>
<path d="M2.80867 18.4767C3.41077 18.1169 3.45794 17.0873 2.91402 16.1771C2.37011 15.2668 1.44108 14.8206 0.838977 15.1804C0.236877 15.5401 0.189711 16.5697 0.733628 17.48C1.27755 18.3902 2.20657 18.8365 2.80867 18.4767Z" stroke="#1E1E1C" stroke-width="0.5" stroke-miterlimit="10"/>
<path d="M14.35 9.38004C15.2588 8.85509 16.0059 8.09062 16.51 7.17004C16.6522 6.83959 16.8912 6.56 17.1955 6.36811C17.4998 6.17622 17.8551 6.08104 18.2146 6.09511C18.5741 6.10919 18.9209 6.23186 19.2092 6.44696C19.4976 6.66206 19.714 6.95949 19.83 7.30004C20.76 9.64004 23.04 9.71004 23.06 11.14C23.1072 11.4605 23.0661 11.7877 22.9411 12.0865C22.8161 12.3853 22.6119 12.6443 22.3506 12.8357C22.0893 13.027 21.7807 13.1435 21.4582 13.1724C21.1356 13.2014 20.8112 13.1418 20.52 13C19.7802 12.5438 18.9313 12.2947 18.0623 12.2788C17.1932 12.263 16.3359 12.481 15.58 12.91C13.83 14 11.74 10.83 14.35 9.38004Z" stroke="#1E1E1C" stroke-width="0.5" stroke-miterlimit="10"/>
<path d="M16.7675 5.15303C17.5441 4.90781 17.8754 3.7648 17.5075 2.60003C17.1397 1.43526 16.2121 0.689814 15.4355 0.935028C14.659 1.18024 14.3277 2.32326 14.6955 3.48803C15.0634 4.6528 15.991 5.39824 16.7675 5.15303Z" stroke="#1E1E1C" stroke-width="0.5" stroke-miterlimit="10"/>
<path d="M21.5014 3.70978C21.8976 2.54947 21.5916 1.39476 20.8181 1.13067C20.0445 0.866584 19.0963 1.59312 18.7002 2.75343C18.304 3.91375 18.61 5.06846 19.3835 5.33255C20.1571 5.59663 21.1053 4.8701 21.5014 3.70978Z" stroke="#1E1E1C" stroke-width="0.5" stroke-miterlimit="10"/>
<path d="M24.3061 6.74304C24.8098 5.80992 24.7178 4.78338 24.1005 4.45021C23.4833 4.11704 22.5746 4.60339 22.071 5.53651C21.5673 6.46963 21.6593 7.49616 22.2765 7.82934C22.8937 8.16251 23.8024 7.67616 24.3061 6.74304Z" stroke="#1E1E1C" stroke-width="0.5" stroke-miterlimit="10"/>
<path d="M14.2086 7.59095C14.8107 7.23118 14.8578 6.20161 14.3139 5.29134C13.77 4.38108 12.841 3.93483 12.2389 4.29461C11.6368 4.65439 11.5896 5.68396 12.1335 6.59422C12.6774 7.50448 13.6065 7.95073 14.2086 7.59095Z" stroke="#1E1E1C" stroke-width="0.5" stroke-miterlimit="10"/>
</g>
<defs>
<clipPath id="clip0_593_3038">
<rect width="25" height="25" fill="white"/>
</clipPath>
</defs>
</svg>
