<svg width="25" height="25" viewBox="0 0 25 25" fill="none" xmlns="http://www.w3.org/2000/svg">
<g clip-path="url(#clip0_593_3061)">
<path d="M0.399902 4.57001V0.640015H4.3299" stroke="#1E1E1C" stroke-width="0.5" stroke-linecap="round" stroke-linejoin="round"/>
<path d="M20.6699 0.640015H24.5999V4.57001" stroke="#1E1E1C" stroke-width="0.5" stroke-linecap="round" stroke-linejoin="round"/>
<path d="M24.5999 20.4301V24.3601H20.6699" stroke="#1E1E1C" stroke-width="0.5" stroke-linecap="round" stroke-linejoin="round"/>
<path d="M4.3299 24.3601H0.399902V20.4301" stroke="#1E1E1C" stroke-width="0.5" stroke-linecap="round" stroke-linejoin="round"/>
<path d="M2.98999 2.59998V22.4" stroke="#1E1E1C" stroke-width="0.5" stroke-linecap="round" stroke-linejoin="round"/>
<path d="M5.18994 2.59998V17.92" stroke="#1E1E1C" stroke-width="0.5" stroke-linecap="round" stroke-linejoin="round"/>
<path d="M11.0899 2.59998H8.41992V17.6H11.0899V2.59998Z" stroke="#1E1E1C" stroke-width="0.5" stroke-linecap="round" stroke-linejoin="round"/>
<path d="M13.1399 2.59998V17.92" stroke="#1E1E1C" stroke-width="0.5" stroke-linecap="round" stroke-linejoin="round"/>
<path d="M16.4399 2.59998V17.92" stroke="#1E1E1C" stroke-width="0.5" stroke-linecap="round" stroke-linejoin="round"/>
<path d="M15.1699 19.73V22.08" stroke="#1E1E1C" stroke-width="0.5" stroke-linecap="round" stroke-linejoin="round"/>
<path d="M18.8701 2.59998V17.92" stroke="#1E1E1C" stroke-width="0.5" stroke-linecap="round" stroke-linejoin="round"/>
<path d="M22.0901 2.59998V22.4" stroke="#1E1E1C" stroke-width="0.5" stroke-linecap="round" stroke-linejoin="round"/>
<path d="M7.54994 19.73H5.18994V22.09H7.54994V19.73Z" stroke="#1E1E1C" stroke-width="0.5" stroke-linecap="round" stroke-linejoin="round"/>
<path d="M12.66 19.73H10.3V22.09H12.66V19.73Z" stroke="#1E1E1C" stroke-width="0.5" stroke-linecap="round" stroke-linejoin="round"/>
<path d="M20.0499 19.73H17.6899V22.09H20.0499V19.73Z" stroke="#1E1E1C" stroke-width="0.5" stroke-linecap="round" stroke-linejoin="round"/>
</g>
<defs>
<clipPath id="clip0_593_3061">
<rect width="25" height="25" fill="white"/>
</clipPath>
</defs>
</svg>
