<svg width="25" height="25" viewBox="0 0 25 25" fill="none" xmlns="http://www.w3.org/2000/svg">
<g clip-path="url(#clip0_593_2983)">
<path d="M18.62 8.57001H6.37997C2.9779 8.57001 0.219971 11.3279 0.219971 14.73V14.74C0.219971 18.1421 2.9779 20.9 6.37997 20.9H18.62C22.022 20.9 24.78 18.1421 24.78 14.74V14.73C24.78 11.3279 22.022 8.57001 18.62 8.57001Z" stroke="#1E1E1C" stroke-width="0.5" stroke-miterlimit="10"/>
<path d="M9.12999 14.08H7.16999V12.12H5.44999V14.08H3.48999V15.8H5.44999V17.76H7.16999V15.8H9.12999V14.08Z" stroke="#1E1E1C" stroke-width="0.5" stroke-miterlimit="10"/>
<path d="M16.57 15.74C17.0174 15.74 17.38 15.3773 17.38 14.93C17.38 14.4826 17.0174 14.12 16.57 14.12C16.1227 14.12 15.76 14.4826 15.76 14.93C15.76 15.3773 16.1227 15.74 16.57 15.74Z" stroke="#1E1E1C" stroke-width="0.5" stroke-miterlimit="10"/>
<path d="M20.7099 15.74C21.1573 15.74 21.5199 15.3773 21.5199 14.93C21.5199 14.4826 21.1573 14.12 20.7099 14.12C20.2626 14.12 19.8999 14.4826 19.8999 14.93C19.8999 15.3773 20.2626 15.74 20.7099 15.74Z" stroke="#1E1E1C" stroke-width="0.5" stroke-miterlimit="10"/>
<path d="M18.6501 13.62C19.0974 13.62 19.4601 13.2574 19.4601 12.81C19.4601 12.3626 19.0974 12 18.6501 12C18.2027 12 17.8401 12.3626 17.8401 12.81C17.8401 13.2574 18.2027 13.62 18.6501 13.62Z" stroke="#1E1E1C" stroke-width="0.5" stroke-miterlimit="10"/>
<path d="M18.6501 17.76C19.0974 17.76 19.4601 17.3974 19.4601 16.95C19.4601 16.5027 19.0974 16.14 18.6501 16.14C18.2027 16.14 17.8401 16.5027 17.8401 16.95C17.8401 17.3974 18.2027 17.76 18.6501 17.76Z" stroke="#1E1E1C" stroke-width="0.5" stroke-miterlimit="10"/>
<path d="M11.4201 17.76H9.81006V18.47H11.4201V17.76Z" fill="#1E1E1C"/>
<path d="M15.09 17.76H13.48V18.47H15.09V17.76Z" fill="#1E1E1C"/>
<path d="M15.6701 6.20001H9.33008V8.57001H15.6701V6.20001Z" stroke="#1E1E1C" stroke-width="0.5" stroke-miterlimit="10"/>
<path d="M13.11 4.09998H11.71V6.19998H13.11V4.09998Z" fill="#1E1E1C"/>
</g>
<defs>
<clipPath id="clip0_593_2983">
<rect width="25" height="25" fill="white"/>
</clipPath>
</defs>
</svg>
