<svg width="130" height="88" viewBox="0 0 130 88" fill="none" xmlns="http://www.w3.org/2000/svg">
<g clip-path="url(#clip0_1498_1276)">
<path d="M119.663 87.7305C113.624 87.7305 110.042 84.6376 109.768 80.1828H115.542C115.542 81.6677 116.364 83.6445 119.937 83.7675C122.413 83.7675 123.783 82.2825 123.783 81.1664C123.509 79.4356 121.307 79.3126 119.114 78.9343C116.638 78.5749 114.72 78.0736 113.34 77.4588C111.421 76.4657 110.316 74.3565 110.316 72.1338C110.316 68.1708 113.624 65.0779 119.389 65.0779C124.889 65.0779 128.461 67.9249 128.726 72.2567H123.235C123.235 71.1501 122.961 69.2868 119.663 69.2868C117.461 69.2868 116.09 69.6557 115.816 71.2636C115.816 73.4958 120.485 73.3728 124.057 74.2335C127.356 75.1037 129.558 77.2034 129.558 80.1828C129.558 85.6307 125.163 87.7305 119.663 87.7305Z" fill="black"/>
<path d="M14.4375 51.18L33.3959 40.1611L43.565 57.6211H18.0099" fill="black"/>
<path d="M54.3047 87.0742V65.0365V87.0742Z" fill="black"/>
<path d="M54.3047 87.0742V65.0365" stroke="black" stroke-width="6"/>
<path d="M5.63873 76.3818C5.63873 79.8435 8.663 82.6904 11.9519 82.6904C15.5338 82.6904 18.2745 79.8435 18.2745 76.3818C18.2745 73.043 15.5338 70.0731 11.9519 70.0731C8.663 70.0731 5.63873 73.043 5.63873 76.3818ZM11.6778 87.7695C5.63873 87.7695 0.421875 82.6904 0.421875 76.3818C0.421875 70.0731 5.63873 65.117 11.6778 65.117C14.1539 65.117 16.356 65.7412 18.2745 67.0938V65.3629H23.7749V87.2682H18.2745V85.9063C16.63 87.1453 14.1539 87.7695 11.6778 87.7695Z" fill="black"/>
<path d="M85.0567 57.6152L58.6797 11.5727L77.6379 0.430996L110.612 57.6152" fill="black"/>
<path d="M30.92 76.3818C30.92 79.8435 33.6702 82.6904 37.2426 82.6904C40.5315 82.6904 43.5652 79.8435 43.5652 76.3818C43.5652 73.043 40.5315 70.0731 37.2426 70.0731C33.6702 70.0731 30.92 73.043 30.92 76.3818ZM36.9685 87.7695C30.6459 87.7695 25.7031 82.6904 25.7031 76.3818C25.7031 70.0731 30.6459 65.117 36.9685 65.117C39.4352 65.117 41.6372 65.7412 43.5652 67.0938V57.8152H49.0561V87.2682H43.5652V85.9063C41.6372 87.1453 39.4352 87.7695 36.9685 87.7695Z" fill="black"/>
<path d="M36.6973 31.5003L55.9297 20.6138L77.0901 57.6145H57.026V63.0625H51.5351V57.6145" fill="black"/>
<path d="M125.994 63.2344C124.615 63.2344 123.244 61.9953 123.244 60.5104C123.244 59.0255 124.615 57.7864 125.994 57.7864C127.639 57.7864 128.745 59.0255 128.745 60.5104C128.745 61.9953 127.639 63.2344 125.994 63.2344ZM125.994 58.1648C124.615 58.1648 123.792 59.2714 123.792 60.5104C123.792 61.7494 124.615 62.8655 125.994 62.8655C127.365 62.8655 128.187 61.7494 128.187 60.5104C128.187 59.2714 127.365 58.1648 125.994 58.1648Z" fill="black"/>
<path d="M126.561 62.0059L126.013 60.7668H125.465V62.0059H125.049V59.036H126.287C126.561 59.036 127.109 59.4143 127.109 59.9061C127.109 60.398 126.835 60.6439 126.561 60.7668L127.109 62.0059H126.561ZM126.013 59.4143H125.465V60.398H126.013C126.561 60.398 126.561 60.275 126.561 59.9061C126.561 59.6508 126.561 59.4143 126.013 59.4143Z" fill="black"/>
<path d="M89.7032 76.3818C89.7032 79.8435 92.4534 82.6904 96.0258 82.6904C99.3241 82.6904 102.339 79.8435 102.339 76.3818C102.339 73.043 99.3241 70.0731 96.0258 70.0731C92.4534 70.0731 89.7032 73.043 89.7032 76.3818ZM95.7423 87.7695C89.4291 87.7695 84.4863 82.6904 84.4863 76.3818C84.4863 70.0731 89.4291 65.117 95.7423 65.117C98.2184 65.117 100.42 65.7412 102.339 67.0938V65.3629H107.565V87.2682H102.339V85.9063C100.42 87.1453 98.2184 87.7695 95.7423 87.7695Z" fill="black"/>
<path d="M64.4415 76.3818C64.4415 79.8435 67.4657 82.6904 70.7641 82.6904C74.3365 82.6904 77.0867 79.8435 77.0867 76.3818C77.0867 73.043 74.3365 70.0731 70.7641 70.0731C67.4657 70.0731 64.4415 73.043 64.4415 76.3818ZM77.0867 57.8152H82.5776V87.2682H77.0867V85.9063C75.4328 87.1453 73.2307 87.7695 70.7641 87.7695C64.4415 87.7695 59.2246 82.6904 59.2246 76.3818C59.2246 70.0731 64.4415 65.117 70.7641 65.117C73.2307 65.117 75.4328 65.7412 77.0867 67.0938V57.8152Z" fill="black"/>
</g>
<defs>
<clipPath id="clip0_1498_1276">
<rect width="130" height="88" fill="white"/>
</clipPath>
</defs>
</svg>
