<svg width="40" height="40" viewBox="0 0 40 40" fill="none" xmlns="http://www.w3.org/2000/svg">
<path d="M29.1953 20.9259C29.1797 18.2618 30.3867 16.254 32.8242 14.7736C31.4609 12.8204 29.3984 11.7462 26.6797 11.5392C24.1055 11.3361 21.2891 13.0392 20.2578 13.0392C19.168 13.0392 16.6758 11.6095 14.7148 11.6095C10.668 11.672 6.36719 14.8361 6.36719 21.2736C6.36719 23.1759 6.71484 25.1408 7.41016 27.1642C8.33984 29.8283 11.6914 36.3556 15.1875 36.2501C17.0156 36.2072 18.3086 34.9533 20.6875 34.9533C22.9961 34.9533 24.1914 36.2501 26.2305 36.2501C29.7578 36.1993 32.7891 30.2658 33.6719 27.5939C28.9414 25.3634 29.1953 21.0626 29.1953 20.9259ZM25.0898 9.01184C27.0703 6.66028 26.8906 4.51965 26.832 3.75012C25.082 3.85168 23.0586 4.94153 21.9062 6.28137C20.6367 7.71887 19.8906 9.49622 20.0508 11.5001C21.9414 11.6447 23.668 10.672 25.0898 9.01184Z" fill="#898888"/>
</svg>
