<svg width="120" height="22" viewBox="0 0 120 22" fill="none" xmlns="http://www.w3.org/2000/svg">
<g clip-path="url(#clip0_449_427)">
<path d="M27.479 10.628C27.479 10.628 30.651 9.111 30.651 6.128C30.651 2.714 28.471 0.001 23.248 0.001H0V21.198H23.248C28.471 21.198 30.651 18.485 30.651 15.071C30.651 12.084 27.479 10.628 27.479 10.628ZM23.968 15.733H6.156V13.299H23.968V15.733ZM23.968 7.916H6.156V5.484H23.968V7.916ZM32.624 6.2C32.624 3.024 35.682 0.117 38.519 0.117H60.056V5.603H39.24V7.916H60.055L60.057 13.398H39.24V15.71H60.055V21.196H38.519C35.682 21.196 32.624 18.292 32.624 15.114V6.2ZM69.914 7.9L82.014 0H91.996L76.078 10.62L91.933 21.196H81.949L69.914 13.296L69.912 21.196H63.035V0H69.912L69.914 7.9ZM112.945 0H97.216C92.995 0 90.184 2.759 90.184 5.968V15.214C90.184 18.425 92.996 21.181 97.216 21.181H112.945C117.167 21.181 119.98 18.425 119.98 15.214V5.968C119.98 2.759 117.167 0 112.945 0ZM113.484 15.668H96.68V5.515H113.485V15.668H113.484Z" fill="#898888"/>
</g>
<defs>
<clipPath id="clip0_449_427">
<rect width="119.98" height="21.198" fill="white"/>
</clipPath>
</defs>
</svg>
