<svg width="96" height="32" viewBox="0 0 96 32" fill="none" xmlns="http://www.w3.org/2000/svg">
<g clip-path="url(#clip0_565_539)">
<path d="M99.189 0H2.81102C1.25854 0 0 1.28575 0 2.87179V29.1282C0 30.7143 1.25854 32 2.81102 32H99.189C100.741 32 102 30.7143 102 29.1282V2.87179C102 1.28575 100.741 0 99.189 0Z" fill="#221F1F"/>
<path d="M14.2683 7.2417C14.0997 7.43181 14 7.72693 14 8.10989V21.7704C14 22.1534 14.0997 22.4478 14.2683 22.6379L21.4856 14.9395L14.2683 7.2417Z" fill="#00E3FF"/>
<path d="M14.3116 7.19727L14.2686 7.24253C14.2829 7.22652 14.3032 7.21955 14.3182 7.20423L14.3116 7.19727Z" fill="#00E3FF"/>
<path d="M14.3123 22.683L14.3188 22.676C14.3032 22.6614 14.2829 22.6544 14.2686 22.6377L14.3123 22.683Z" fill="#00E3FF"/>
<path d="M26.7647 14.0482L23.931 12.3311H23.9304L21.4854 14.9391L23.9304 17.5485L23.8757 17.5821L23.9304 17.5491L26.764 15.832C27.5741 15.3413 27.5741 14.5389 26.7647 14.0482Z" fill="#FFE000"/>
<path d="M21.4859 14.9395L14.2686 22.6379C14.2827 22.6544 14.3027 22.6612 14.3181 22.6756C14.5883 22.9337 15.0021 22.9605 15.4718 22.6756L23.8768 17.5825L23.9315 17.5488L21.4859 14.9395Z" fill="#FF3A44"/>
<path d="M21.4859 14.9399L23.9309 12.3312L23.9315 12.3305L15.4718 7.2037C15.0021 6.91888 14.5871 6.94565 14.3175 7.2037C14.3027 7.2188 14.2827 7.22566 14.2686 7.24144L21.4859 14.9399Z" fill="#00F076"/>
<path d="M42.972 16.7686C41.6099 16.7686 40.5 17.8728 40.5 19.3958C40.5 20.9084 41.6099 22.023 42.972 22.023C44.3342 22.023 45.4441 20.9084 45.4441 19.3958C45.4441 17.8735 44.3342 16.7686 42.972 16.7686ZM42.972 20.988C42.2257 20.988 41.5822 20.3312 41.5822 19.3958C41.5822 18.4507 42.2257 17.8035 42.972 17.8035C43.7184 17.8035 44.3618 18.45 44.3618 19.3958C44.3625 20.3312 43.7184 20.988 42.972 20.988Z" fill="white"/>
<path d="M48.3656 16.769C47.0035 16.769 45.8936 17.8733 45.8936 19.3963C45.8936 20.9089 47.0035 22.0235 48.3656 22.0235C49.7277 22.0235 50.8376 20.9089 50.8376 19.3963C50.8383 17.874 49.7277 16.769 48.3656 16.769ZM48.3656 20.9885C47.6192 20.9885 46.9758 20.3317 46.9758 19.3963C46.9758 18.4512 47.6199 17.804 48.3656 17.804C49.1113 17.804 49.7554 18.4505 49.7554 19.3963C49.756 20.3317 49.112 20.9885 48.3656 20.9885Z" fill="white"/>
<path d="M71.9153 14.1421H70.835V21.8639H71.9153V14.1421Z" fill="white"/>
<path d="M36.5569 17.5761V18.69H39.0573C38.9826 19.3166 38.787 19.7744 38.4878 20.0928C38.1243 20.4806 37.5549 20.9088 36.5569 20.9088C35.0178 20.9088 33.814 19.5856 33.814 17.9433C33.814 16.3009 35.0172 14.9777 36.5569 14.9777C37.3876 14.9777 37.9937 15.3263 38.4415 15.7738L39.1782 14.988C38.5535 14.3511 37.7228 13.8638 36.5569 13.8638C34.4484 13.8638 32.6758 15.6949 32.6758 17.9439C32.6758 20.193 34.4484 22.0241 36.5569 22.0241C37.6951 22.0241 38.5535 21.626 39.2252 20.88C39.9156 20.1436 40.1305 19.1086 40.1305 18.2727C40.1305 18.0139 40.1118 17.7751 40.0745 17.5761H36.5569Z" fill="white"/>
<path d="M74.5694 16.7549C73.787 16.7549 72.9769 17.1228 72.6417 17.9374L73.601 18.3643C73.8056 17.9374 74.1878 17.7981 74.588 17.7981C75.1465 17.7981 75.7147 18.1557 75.7243 18.7912V18.8708C75.5287 18.7514 75.1099 18.5729 74.5977 18.5729C73.5637 18.5729 72.5117 19.179 72.5117 20.3114C72.5117 21.3443 73.3591 22.01 74.3094 22.01C75.0359 22.01 75.4361 21.6621 75.6877 21.2551H75.725V21.8508H76.768V18.89C76.7673 17.5194 75.808 16.7549 74.5694 16.7549ZM74.4388 20.9867C74.0849 20.9867 73.5914 20.798 73.5914 20.3313C73.5914 19.7356 74.2059 19.507 74.7367 19.507C75.2115 19.507 75.4354 19.6162 75.7237 19.7651C75.6407 20.4802 75.0629 20.9867 74.4388 20.9867Z" fill="white"/>
<path d="M79.329 20.2717H79.2917L78.0067 16.9238H76.8428L78.7705 21.6032L77.6715 24.2057H78.7981L81.7695 16.9238H80.5676L79.329 20.2717Z" fill="white"/>
<path d="M54.9865 17.3562H54.9486C54.706 17.0481 54.2395 16.7694 53.6521 16.7694C52.4206 16.7694 51.292 17.9238 51.292 19.4062C51.292 20.8791 52.4206 22.0232 53.6521 22.0232C54.2395 22.0232 54.706 21.7445 54.9486 21.4261H54.9859V21.8043C54.9859 22.809 54.4821 23.3464 53.6707 23.3464C53.0086 23.3464 52.5981 22.8392 52.4302 22.411L51.4882 22.8289C51.7585 23.5255 52.4772 24.3814 53.6714 24.3814C54.9402 24.3814 56.0128 23.5852 56.0128 21.645V16.9279H54.9865V17.3562ZM53.7447 20.9882C52.9984 20.9882 52.3736 20.3218 52.3736 19.4062C52.3736 18.4811 52.999 17.8044 53.7447 17.8044C54.4815 17.8044 55.0599 18.4811 55.0599 19.4062C55.0605 20.3218 54.4821 20.9882 53.7447 20.9882Z" fill="white"/>
<path d="M67.8636 14.1421H65.2744V21.8639H66.3547V18.9381H67.8636C69.0616 18.9381 70.2384 18.0129 70.2384 16.5401C70.2384 15.0672 69.0616 14.1421 67.8636 14.1421ZM67.8919 17.8633H66.3547V15.2162H67.8912C68.6994 15.2162 69.1581 15.93 69.1581 16.5394C69.1581 17.1386 68.6994 17.8633 67.8919 17.8633Z" fill="white"/>
<path d="M57.841 14.1421H56.7588V21.8639H57.841V14.1421Z" fill="white"/>
<path d="M62.7945 18.4409C62.5893 17.8541 61.9645 16.769 60.686 16.769C59.4172 16.769 58.3633 17.8335 58.3633 19.3963C58.3633 20.8691 59.4082 22.0235 60.8076 22.0235C61.9362 22.0235 62.5893 21.2871 62.8602 20.8595L62.0205 20.2624C61.7406 20.7003 61.3584 20.9885 60.8076 20.9885C60.2569 20.9885 59.8657 20.7195 59.6135 20.1924L62.9065 18.7395L62.7945 18.4409ZM59.4359 19.3167C59.4076 18.3016 60.1726 17.7841 60.7234 17.7841C61.1525 17.7841 61.5167 18.0127 61.6377 18.3414L59.4359 19.3167Z" fill="white"/>
<path d="M32.8965 10.5559L33.4196 10.4111C33.4592 10.6263 33.5647 10.8414 33.7362 11.0566C33.9097 11.2717 34.1387 11.3793 34.4233 11.3793C34.7136 11.3793 34.9426 11.2998 35.1104 11.141C35.2782 10.9822 35.3621 10.7902 35.3621 10.5649C35.3621 10.3217 35.2735 10.1286 35.0963 9.98588C34.9191 9.84113 34.6778 9.76873 34.3724 9.76873H34.1095V9.259C34.3621 9.259 34.5553 9.2439 34.6891 9.21377C34.823 9.18158 34.9408 9.10217 35.0426 8.97548C35.1463 8.84679 35.1981 8.70102 35.1981 8.53815C35.1981 8.34514 35.1274 8.17725 34.986 8.03449C34.8465 7.89173 34.6571 7.82035 34.4177 7.82035C34.2084 7.82035 34.0294 7.87665 33.8805 7.98925C33.7335 8.09984 33.6317 8.24762 33.5751 8.4326C33.5185 8.61557 33.4902 8.75229 33.4902 8.84281L32.9643 8.71612C33.0944 7.77712 33.5807 7.30762 34.4233 7.30762C34.8286 7.30762 35.15 7.42826 35.3876 7.66955C35.6251 7.90882 35.7438 8.18931 35.7438 8.51104C35.7438 8.92325 35.561 9.24294 35.1952 9.47011C35.4064 9.53249 35.5827 9.66015 35.724 9.85314C35.8673 10.0442 35.9389 10.2734 35.9389 10.5408C35.9389 10.9208 35.8004 11.2396 35.5233 11.4969C35.2481 11.7523 34.8824 11.88 34.4262 11.88C33.642 11.88 33.1321 11.4386 32.8965 10.5559ZM38.5176 11.4094C38.3291 11.5803 38.1472 11.701 37.9719 11.7714C37.7985 11.8418 37.6119 11.877 37.412 11.877C37.0822 11.877 36.8286 11.7915 36.6514 11.6206C36.4742 11.4477 36.3856 11.2275 36.3856 10.96C36.3856 10.8032 36.4187 10.6605 36.4846 10.5318C36.5525 10.4011 36.6401 10.2965 36.7476 10.2181C36.8569 10.1397 36.9795 10.0804 37.1152 10.0402C37.2151 10.012 37.3659 9.98485 37.5676 9.9587C37.9785 9.90647 38.281 9.84415 38.4752 9.77174C38.4771 9.69735 38.4781 9.65006 38.4781 9.62995C38.4781 9.40882 38.43 9.25296 38.3339 9.1625C38.2038 9.03985 38.0106 8.9785 37.7542 8.9785C37.5148 8.9785 37.3376 9.02373 37.2226 9.11425C37.1095 9.20272 37.0257 9.36057 36.971 9.58774L36.4733 9.5154C36.5186 9.28816 36.593 9.10519 36.6967 8.96642C36.8004 8.82572 36.9503 8.71811 37.1463 8.64371C37.3423 8.56732 37.5695 8.52909 37.8277 8.52909C38.0841 8.52909 38.2924 8.56128 38.4526 8.62566C38.6129 8.68997 38.7307 8.77143 38.806 8.86992C38.8814 8.96642 38.9343 9.08913 38.9644 9.23793C38.9814 9.33037 38.9898 9.49729 38.9898 9.73853V10.4624C38.9898 10.9671 39.0002 11.2868 39.0209 11.4215C39.0436 11.5543 39.0869 11.6819 39.151 11.8046H38.6194C38.5667 11.6919 38.5327 11.5602 38.5176 11.4094ZM38.4752 10.197C38.2905 10.2774 38.0134 10.3458 37.6439 10.4021C37.4347 10.4342 37.2867 10.4705 37.2 10.5106C37.1133 10.5509 37.0464 10.6102 36.9992 10.6886C36.9521 10.7651 36.9286 10.8505 36.9286 10.945C36.9286 11.0898 36.9795 11.2104 37.0813 11.3069C37.1849 11.4034 37.3357 11.4516 37.5336 11.4516C37.7297 11.4516 37.9041 11.4064 38.0568 11.316C38.2094 11.2234 38.3216 11.0978 38.3932 10.939C38.4479 10.8163 38.4752 10.6353 38.4752 10.3961V10.197ZM39.7844 8.6015H40.9578C41.2462 8.6015 41.4601 8.62765 41.5996 8.67995C41.7411 8.73019 41.8617 8.82366 41.9616 8.96045C42.0634 9.09716 42.1143 9.26099 42.1143 9.45206C42.1143 9.60483 42.0841 9.73853 42.0238 9.85314C41.9654 9.96577 41.8768 10.0603 41.758 10.1367C41.8994 10.187 42.0163 10.2815 42.1087 10.4202C42.2029 10.5569 42.25 10.7198 42.25 10.9088C42.2312 11.2124 42.1294 11.4376 41.9446 11.5844C41.7599 11.7312 41.4913 11.8046 41.1388 11.8046H39.7844V8.6015ZM40.2934 9.94971H40.8362C41.053 9.94971 41.2019 9.93763 41.283 9.91347C41.364 9.88938 41.4366 9.84113 41.5007 9.76873C41.5648 9.69433 41.5968 9.60586 41.5968 9.50333C41.5968 9.33442 41.5403 9.21679 41.4272 9.15042C41.316 9.08405 41.1247 9.0509 40.8532 9.0509H40.2934V9.94971ZM40.2934 11.3582H40.9635C41.2519 11.3582 41.4498 11.323 41.5572 11.2526C41.6647 11.1802 41.7212 11.0566 41.7269 10.8817C41.7269 10.7791 41.6958 10.6846 41.6336 10.5981C41.5714 10.5097 41.4903 10.4544 41.3904 10.4323C41.2905 10.4081 41.1303 10.3961 40.9098 10.3961H40.2934V11.3582ZM44.7495 11.4094C44.5611 11.5803 44.3792 11.701 44.2038 11.7714C44.0304 11.8418 43.8438 11.877 43.644 11.877C43.3141 11.877 43.0605 11.7915 42.8834 11.6206C42.7062 11.4477 42.6176 11.2275 42.6176 10.96C42.6176 10.8032 42.6505 10.6605 42.7166 10.5318C42.7844 10.4011 42.8721 10.2965 42.9795 10.2181C43.0888 10.1397 43.2114 10.0804 43.3471 10.0402C43.447 10.012 43.5978 9.98485 43.7995 9.9587C44.2105 9.90647 44.513 9.84415 44.7071 9.77174C44.7091 9.69735 44.71 9.65006 44.71 9.62995C44.71 9.40882 44.6619 9.25296 44.5658 9.1625C44.4357 9.03985 44.2425 8.9785 43.9861 8.9785C43.7467 8.9785 43.5695 9.02373 43.4546 9.11425C43.3415 9.20272 43.2576 9.36057 43.2029 9.58774L42.7052 9.5154C42.7505 9.28816 42.8249 9.10519 42.9286 8.96642C43.0323 8.82572 43.1821 8.71811 43.3782 8.64371C43.5742 8.56732 43.8014 8.52909 44.0596 8.52909C44.316 8.52909 44.5243 8.56128 44.6845 8.62566C44.8448 8.68997 44.9626 8.77143 45.038 8.86992C45.1134 8.96642 45.1661 9.08913 45.1963 9.23793C45.2133 9.33037 45.2217 9.49729 45.2217 9.73853V10.4624C45.2217 10.9671 45.2321 11.2868 45.2529 11.4215C45.2755 11.5543 45.3188 11.6819 45.3829 11.8046H44.8514C44.7986 11.6919 44.7646 11.5602 44.7495 11.4094ZM44.7071 10.197C44.5224 10.2774 44.2453 10.3458 43.8758 10.4021C43.6666 10.4342 43.5187 10.4705 43.4319 10.5106C43.3452 10.5509 43.2783 10.6102 43.2312 10.6886C43.184 10.7651 43.1605 10.8505 43.1605 10.945C43.1605 11.0898 43.2114 11.2104 43.3131 11.3069C43.4169 11.4034 43.5676 11.4516 43.7656 11.4516C43.9616 11.4516 44.136 11.4064 44.2886 11.316C44.4413 11.2234 44.5535 11.0978 44.6252 10.939C44.6798 10.8163 44.7071 10.6353 44.7071 10.3961V10.197ZM46.0163 8.6015H46.5252V9.93461H47.9362V8.6015H48.4452V11.8046H47.9362V10.384H46.5252V11.8046H46.0163V8.6015ZM48.94 8.6015H51.3801V9.0509H50.4131V11.8046H49.907V9.0509H48.94V8.6015ZM53.7581 11.4094C53.5697 11.5803 53.3877 11.701 53.2124 11.7714C53.039 11.8418 52.8524 11.877 52.6526 11.877C52.3227 11.877 52.0691 11.7915 51.8919 11.6206C51.7147 11.4477 51.6261 11.2275 51.6261 10.96C51.6261 10.8032 51.6591 10.6605 51.7252 10.5318C51.793 10.4011 51.8807 10.2965 51.9881 10.2181C52.0974 10.1397 52.2199 10.0804 52.3556 10.0402C52.4556 10.012 52.6064 9.98485 52.8081 9.9587C53.219 9.90647 53.5215 9.84415 53.7157 9.77174C53.7176 9.69735 53.7185 9.65006 53.7185 9.62995C53.7185 9.40882 53.6705 9.25296 53.5744 9.1625C53.4443 9.03985 53.251 8.9785 52.9947 8.9785C52.7553 8.9785 52.5781 9.02373 52.4631 9.11425C52.35 9.20272 52.2661 9.36057 52.2115 9.58774L51.7138 9.5154C51.7591 9.28816 51.8335 9.10519 51.9372 8.96642C52.0409 8.82572 52.1907 8.71811 52.3868 8.64371C52.5828 8.56732 52.81 8.52909 53.0682 8.52909C53.3246 8.52909 53.5329 8.56128 53.6931 8.62566C53.8533 8.68997 53.9712 8.77143 54.0466 8.86992C54.122 8.96642 54.1747 9.08913 54.2049 9.23793C54.2218 9.33037 54.2303 9.49729 54.2303 9.73853V10.4624C54.2303 10.9671 54.2407 11.2868 54.2615 11.4215C54.284 11.5543 54.3274 11.6819 54.3915 11.8046H53.8599C53.8071 11.6919 53.7732 11.5602 53.7581 11.4094ZM53.7157 10.197C53.531 10.2774 53.2539 10.3458 52.8844 10.4021C52.6752 10.4342 52.5272 10.4705 52.4405 10.5106C52.3538 10.5509 52.2869 10.6102 52.2398 10.6886C52.1926 10.7651 52.169 10.8505 52.169 10.945C52.169 11.0898 52.2199 11.2104 52.3217 11.3069C52.4254 11.4034 52.5762 11.4516 52.7741 11.4516C52.9702 11.4516 53.1445 11.4064 53.2972 11.316C53.4499 11.2234 53.5621 11.0978 53.6337 10.939C53.6884 10.8163 53.7157 10.6353 53.7157 10.3961V10.197ZM56.8374 8.6015V9.98588C56.9994 9.98588 57.1135 9.95273 57.1795 9.88636C57.2454 9.81999 57.3416 9.62693 57.4678 9.30724C57.5866 9.00362 57.6931 8.80959 57.7874 8.72518C57.8798 8.64275 58.0268 8.6015 58.2285 8.6015H58.4151V9.0509L58.2766 9.04788C58.1408 9.04788 58.0541 9.06902 58.0164 9.11123C57.9769 9.15543 57.9165 9.28713 57.8354 9.50634C57.7601 9.71547 57.6903 9.86021 57.6262 9.94065C57.5621 10.0211 57.4622 10.0945 57.3265 10.1608C57.5471 10.2231 57.762 10.4403 57.9712 10.8123L58.531 11.8046H57.9712L57.4254 10.8123C57.3143 10.6112 57.2172 10.4795 57.1342 10.4172C57.0513 10.3548 56.9523 10.3237 56.8374 10.3237V11.8046H56.3171V10.3237C56.204 10.3237 56.106 10.3548 56.023 10.4172C55.94 10.4775 55.843 10.6092 55.7318 10.8123L55.1861 11.8046H54.6262L55.1832 10.8123C55.3943 10.4403 55.6102 10.2231 55.8307 10.1608C55.6799 10.0864 55.5744 10.006 55.514 9.91951C55.4537 9.83104 55.3633 9.62192 55.2426 9.29221C55.2011 9.18158 55.1569 9.11322 55.1097 9.08707C55.0607 9.06092 54.9881 9.04788 54.892 9.04788C54.8674 9.04788 54.8175 9.04891 54.7421 9.0509V8.6015H54.8128C55.0089 8.6015 55.1464 8.61461 55.2256 8.64069C55.3067 8.66485 55.3783 8.71811 55.4405 8.80053C55.5046 8.88097 55.5876 9.04987 55.6894 9.30724C55.8137 9.62295 55.908 9.81498 55.9721 9.88334C56.0381 9.9517 56.1531 9.98588 56.3171 9.98588V8.6015H56.8374ZM58.8958 8.6015H59.4047V11.0445L60.8157 8.6015H61.3642V11.8046H60.8553V9.37663L59.4443 11.8046H58.8958V8.6015ZM61.8563 8.6015H64.2964V9.0509H63.3294V11.8046H62.8233V9.0509H61.8563V8.6015ZM64.7828 8.6015H65.2917V11.0445L66.7027 8.6015H67.2512V11.8046H66.7422V9.37663L65.3313 11.8046H64.7828V8.6015ZM69.632 8.6015H70.8055C71.0938 8.6015 71.3078 8.62765 71.4474 8.67995C71.589 8.73019 71.7093 8.82366 71.809 8.96045C71.9113 9.09716 71.9621 9.26099 71.9621 9.45206C71.9621 9.60483 71.9319 9.73853 71.8714 9.85314C71.8129 9.96577 71.7241 10.0603 71.6057 10.1367C71.7472 10.187 71.8637 10.2815 71.9564 10.4202C72.0503 10.5569 72.0979 10.7198 72.0979 10.9088C72.0786 11.2124 71.9769 11.4376 71.7923 11.5844C71.6076 11.7312 71.3387 11.8046 70.9864 11.8046H69.632V8.6015ZM70.1409 9.94971H70.6839C70.9006 9.94971 71.0495 9.93763 71.1306 9.91347C71.2117 9.88938 71.284 9.84113 71.3483 9.76873C71.4127 9.69433 71.4442 9.60586 71.4442 9.50333C71.4442 9.33442 71.3882 9.21679 71.2748 9.15042C71.1636 9.08405 70.9722 9.0509 70.7008 9.0509H70.1409V9.94971ZM70.1409 11.3582H70.8111C71.0995 11.3582 71.2975 11.323 71.4049 11.2526C71.5124 11.1802 71.569 11.0566 71.5748 10.8817C71.5748 10.7791 71.5433 10.6846 71.4815 10.5981C71.4191 10.5097 71.338 10.4544 71.238 10.4323C71.1381 10.4081 70.9779 10.3961 70.7573 10.3961H70.1409V11.3582Z" fill="white"/>
</g>
<defs>
<clipPath id="clip0_565_539">
<rect width="96" height="32" rx="16" fill="white"/>
</clipPath>
</defs>
</svg>
