<svg width="117" height="116" viewBox="0 0 117 116" fill="none" xmlns="http://www.w3.org/2000/svg">
<g clip-path="url(#clip0_423_353)">
<path d="M96.3338 49.583L96.5635 62.5646H96.4505L92.6514 49.583H86.4241V65.9357H90.544L90.3143 52.502H90.4273L94.4926 65.9357H100.454V49.583H96.3338ZM17.8324 49.583L14.7188 66.1057H19.2179L21.5149 51.0732H21.6097L23.8519 66.1057H28.3146L25.2374 49.583H17.8324ZM43.0115 49.583L40.9588 62.1848H40.8458L38.7749 49.583H31.9752L31.6507 66.1057H35.8289L35.942 51.2432H35.9784L38.7712 66.1057H43.0042L45.797 51.2432H45.9101L46.0231 66.1057H50.2014L49.8039 49.583H43.0115ZM7.68935 61.4144C7.86071 61.7906 7.80238 62.3548 7.74769 62.6189C7.63466 63.1831 7.2336 63.7293 6.13252 63.7293C5.0679 63.7293 4.46267 63.1252 4.46267 62.2427V60.6403H0V61.9027C0 65.6138 2.9423 66.7061 6.07783 66.7061C9.07847 66.7061 11.5832 65.6716 11.9843 62.9589C12.214 61.5265 12.0426 60.5861 11.9843 60.2461C11.2041 56.7592 4.84549 55.7826 4.40798 53.8403C4.34914 53.5478 4.34914 53.2466 4.40798 52.9541C4.521 52.4079 4.90018 51.8437 5.90647 51.8437C6.91276 51.8437 7.4633 52.4477 7.4633 53.3303V54.3286H11.6416V53.1783C11.6416 49.5794 8.35656 49.0332 6.0195 49.0332C3.05532 49.0332 0.608877 50.0134 0.171361 52.6683C0.0205662 53.4046 0.0405143 54.1653 0.229696 54.8928C0.893263 58.3037 6.85807 59.302 7.693 61.4108L7.68935 61.4144ZM61.9049 61.4144C62.0763 61.7906 62.018 62.3006 61.9633 62.6189C61.8502 63.1831 61.4492 63.7293 60.3481 63.7293C59.2835 63.7293 58.6782 63.1252 58.6782 62.2427V60.6403H54.2156V61.9027C54.2156 65.5559 57.1032 66.67 60.2351 66.67C63.2357 66.67 65.6858 65.6716 66.0832 62.901C66.3129 61.4686 66.1415 60.5825 66.0832 60.1882C65.4196 56.7592 59.1158 55.7248 58.6782 53.8403C58.6194 53.5478 58.6194 53.2466 58.6782 52.9541C58.773 52.4079 59.1704 51.8437 60.1767 51.8437C61.1247 51.8437 61.7336 52.4477 61.7336 53.3303V54.3286H65.8535V53.1783C65.8535 49.5794 62.6268 49.0332 60.2898 49.0332C57.3256 49.0332 54.9338 49.9556 54.4963 52.6683C54.3833 53.3845 54.3833 54.0609 54.5328 54.8928C55.2182 58.3037 61.0664 59.2441 61.9013 61.4108L61.9049 61.4144ZM75.9383 63.6208C77.1159 63.6208 77.4368 62.8467 77.5534 62.4163C77.6118 62.2463 77.6118 61.9642 77.6118 61.7942V49.5866H81.8447V61.4723C81.8447 61.7942 81.8447 62.4127 81.7864 62.5646C81.5202 65.6717 79.0519 66.67 75.993 66.67C72.934 66.67 70.4875 65.6717 70.1995 62.5646C70.1995 62.4127 70.1412 61.7906 70.1412 61.4723V49.5866H74.3741V61.7942C74.3741 62.022 74.3741 62.2463 74.4325 62.4163C74.4325 62.8503 74.7752 63.6208 75.931 63.6208H75.9383ZM110.71 63.4508C111.946 63.4508 112.325 62.6767 112.438 62.2463C112.496 62.0763 112.496 61.7942 112.496 61.6423V59.2514H110.768V56.8207H116.675V61.248C116.675 61.588 116.675 61.7942 116.616 62.3584C116.332 65.3931 113.711 66.4457 110.768 66.4457C107.804 66.4457 105.204 65.3895 104.92 62.3584C104.862 61.7942 104.862 61.5844 104.862 61.248V54.2779C104.862 54.0139 104.92 53.4496 104.92 53.1856C105.299 50.0785 107.808 49.0802 110.768 49.0802C113.711 49.0802 116.274 50.0785 116.616 53.1856C116.675 53.6739 116.675 54.2779 116.675 54.2779V54.8422H112.496V53.9018C112.496 53.9018 112.496 53.5075 112.438 53.2796C112.38 52.9034 112.041 52.0751 110.768 52.0751C109.532 52.0751 109.211 52.8492 109.098 53.2796C109.04 53.5075 109.04 53.7896 109.04 54.0718V61.6459C109.04 61.852 109.04 62.0799 109.098 62.2499C109.098 62.684 109.536 63.4544 110.714 63.4544L110.71 63.4508Z" fill="#898888"/>
</g>
<defs>
<clipPath id="clip0_423_353">
<rect width="116.671" height="115.746" fill="white"/>
</clipPath>
</defs>
</svg>
