<svg width="36" height="37" viewBox="0 0 36 37" fill="none" xmlns="http://www.w3.org/2000/svg">
<g clip-path="url(#clip0_1459_1108)">
<path d="M18 37H17.4026L21.1523 26.6724H26.2496C27.1519 26.6724 28.0485 25.9012 28.3477 25.1311L32.4022 13.8762C32.9996 12.0273 31.9511 10.486 30.1523 10.486H23.0974L13.9511 36.5375C5.84775 34.5326 0 27.2875 0 18.5012C0 10.0224 5.5485 2.92762 13.2008 0.615125L9.74925 10.4849L3.9015 26.6724H7.65112L12.4504 12.9477H15.2977L10.4985 26.6724H14.2481L18.7481 13.875C19.3455 12.0262 18.4489 10.4849 16.4981 10.4849H13.4978L17.2474 0H17.9977C27.9 0 35.9977 8.32269 35.9977 18.5C35.9977 28.6773 27.9 37 17.9977 37H18ZM28.9507 12.7974H26.0977L22.0489 24.0523H24.9019L28.9507 12.7974Z" fill="#898888"/>
</g>
<defs>
<clipPath id="clip0_1459_1108">
<rect width="36" height="37" fill="white"/>
</clipPath>
</defs>
</svg>
