<svg width="103" height="28" viewBox="0 0 103 28" fill="none" xmlns="http://www.w3.org/2000/svg">
<path fill-rule="evenodd" clip-rule="evenodd" d="M20.4329 2.19588C19.1021 1.78848 18.1393 3.27695 18.927 4.1449C22.429 6.02306 24.7926 9.70798 24.7926 13.9071C24.7926 20.0382 19.7847 25.0344 13.6221 25.0344H13.5171C7.40648 24.9813 2.45169 20.0027 2.45169 13.9071C2.45169 9.77939 4.74529 6.14706 8.14166 4.23347C8.85933 3.22381 8.03663 2.0193 6.89886 2.14274C2.78427 4.48145 0 8.87546 0 13.9066C0 21.3307 6.05811 27.408 13.5166 27.4606H13.6216C21.1156 27.4606 27.2432 21.3661 27.2432 13.9066C27.2437 8.91088 24.495 4.53459 20.4329 2.19588ZM33.0568 20.6576H35.7004V8.25494H33.0568V20.6576Z" fill="#898888"/>
<path fill-rule="evenodd" clip-rule="evenodd" d="M13.5164 3.70319C13.5339 3.70319 13.5339 3.7209 13.5514 3.7209C14.5666 3.7209 15.3899 2.87011 15.3899 1.86045C15.3899 1.61611 15.3424 1.37415 15.2501 1.1484C15.1577 0.922648 15.0223 0.717526 14.8516 0.544752C14.6808 0.371979 14.4781 0.234943 14.255 0.141472C14.0319 0.0480018 13.7928 -7.26482e-05 13.5514 8.24006e-08H13.5164C13.0352 0.0102665 12.5771 0.210681 12.24 0.558368C11.903 0.906055 11.7138 1.37341 11.7129 1.86045C11.7129 2.87011 12.5181 3.68492 13.5164 3.70319ZM44.3315 8.25606H38.3434V20.6581H40.9871V10.6833H44.0339C45.5924 10.6833 46.6601 11.4633 46.6251 13.2877V20.6581H49.2688V12.5266C49.2688 9.81539 47.0277 8.25606 44.3315 8.25606ZM13.5164 6.60873C13.3254 6.60821 13.1361 6.64591 12.9596 6.71964C12.783 6.79337 12.6226 6.90168 12.4875 7.03836C12.3525 7.17503 12.2454 7.33737 12.1726 7.51604C12.0997 7.69471 12.0625 7.8862 12.063 8.07948V20.8187C12.063 21.6152 12.7112 22.2717 13.5164 22.2717C14.3041 22.2717 14.9698 21.6152 14.9698 20.8187V8.07893C14.9678 7.68954 14.814 7.31669 14.5418 7.04139C14.2697 6.7661 13.9012 6.61062 13.5164 6.60873ZM70.0343 7.93778C66.8474 8.07948 64.7994 10.2233 64.4844 14.3157C64.2738 17.4349 65.9372 20.6941 70.0343 20.9775C70.1218 20.9958 70.2093 20.9958 70.3144 20.9958C72.1704 21.013 73.4307 20.8541 74.6565 20.3924L74.6915 18.0537C73.0806 18.7102 71.3996 18.9217 70.0343 18.6571C68.4058 18.3554 67.25 17.3458 67.3025 15.6093H75.0941C76.1094 11.0027 73.7107 7.95494 70.0343 7.93778ZM72.9586 13.4123H67.1275V13.3769C67.1275 11.5518 68.4403 10.0816 70.0343 10.0816C71.6441 10.0816 72.9586 11.5518 72.9586 13.3769V13.4123ZM88.9263 20.6587H91.5694V8.25606H88.9263V20.6587ZM82.5175 13.4831C78.0879 12.7215 79.2087 8.92917 85.9489 10.7016V8.5046C84.076 7.90235 81.0641 7.74293 79.4532 8.5046C76.1274 10.1525 76.3719 15.3082 81.8868 15.8744C85.4763 16.3178 84.8987 20.4993 77.3357 18.0366V20.4639C79.7163 21.1375 82.6926 21.4209 84.7586 20.4639C86.124 19.6131 86.6496 18.4617 86.6666 17.3275C86.7202 15.3436 85.4243 13.926 82.5175 13.4831ZM99.291 8.25606H93.6005V10.7016H96.6479V20.6587H99.291V10.7016H102.338V8.25606H99.291ZM57.3229 8.34463C56.9553 8.29149 56.5527 8.27433 56.1326 8.27433H51.983V20.677H56.1852C56.5877 20.677 56.9723 20.6587 57.3229 20.6056C61.6831 20.1278 62.6628 16.8852 62.6453 14.6699C62.6284 11.2507 60.8774 8.7703 57.3229 8.34463ZM57.3229 18.2143C56.9373 18.3028 56.5002 18.356 55.9915 18.356H54.5906V10.5776H55.9571C56.4647 10.5776 56.9198 10.6308 57.3224 10.737C59.1259 11.1981 60.0191 12.6506 60.0361 14.5991C60.0536 15.8744 59.529 17.6995 57.3229 18.2143Z" fill="#898888"/>
</svg>
