<svg width="92" height="60" viewBox="0 0 92 60" fill="none" xmlns="http://www.w3.org/2000/svg">
<g clip-path="url(#clip0_1498_1262)">
<path d="M64.6541 1.82041C67.9957 0.197885 69.6517 0.410807 69.6889 2.05541C69.7336 4.19183 69.4142 7.03286 69.1838 9.08855C67.9437 20.2616 65.8718 29.3914 65.7159 40.8632C71.174 26.8939 75.7484 17.1848 81.6447 5.22692C83.5162 1.41664 84.7117 2.12883 86.2488 1.45335C92.2342 -1.1822 92.4571 0.432886 91.6772 3.65587C88.7737 15.5932 81.3401 53.1785 80.2041 58.9659C79.8773 60.6404 78.0358 59.9306 77.5604 59.2758C75.4292 56.3612 73.0232 56.3156 73.2904 54.3775C74.6271 44.7285 79.4391 20.5193 80.6942 14.8149C74.3002 27.7741 67.6689 43.9746 64.2603 53.1603C63.5399 55.1109 62.2255 54.9677 61.4088 53.5406C60.2577 51.5357 58.0225 50.5121 57.651 48.143C56.4852 40.6108 58.9879 26.2537 59.3367 17.1708C55.8541 27.0928 50.0097 46.3561 47.4477 55.0594C46.3933 58.6605 42.8733 58.073 43.8089 54.5632C47.7 39.9573 56.0842 14.1248 59.7081 4.83779C60.5625 2.6499 62.7975 2.72331 64.6541 1.82041Z" fill="black"/>
<path d="M43.4306 0.028541C42.3019 -0.243035 39.027 1.50425 37.0145 1.84924C36.3759 1.95936 35.7669 2.62738 35.5515 3.1047C32.3286 10.4242 29.4399 17.4015 26.9373 23.7577C23.7367 24.298 19.9941 25.0095 15.8058 25.9396C18.8058 18.3316 21.8357 10.8278 24.7912 3.61114C26.2467 0.0578034 22.415 -0.279865 20.9297 3.31749C18.9988 7.9941 15.3824 16.7562 11.3797 26.9689C8.43896 27.6817 5.3201 28.4966 2.06001 29.4276C-0.308984 30.1037 -0.4054 30.7277 0.619416 32.1322C1.18375 32.9142 2.34966 32.8354 2.88427 33.3926C4.26557 34.8368 5.10473 36.5641 7.57745 36.8256C5.3719 42.6583 3.16639 48.6733 1.16881 54.465C-0.0861763 58.1004 3.48571 58.8441 4.85962 54.9971C7.07256 48.7957 9.40435 42.5194 11.8029 36.2616C13.8005 35.8027 18.6348 34.7734 23.0978 33.816C19.5557 43.4143 17.2238 50.7037 16.3402 54.2519C16.1769 54.9346 16.4516 55.3134 16.6001 55.5917C17.7956 57.3118 18.9319 57.3822 20.4691 59.509C20.885 60.089 22.2812 60.4018 22.7563 58.9738C26.0386 49.1722 29.4175 39.9755 32.5661 31.731C33.873 31.4483 36.227 30.8867 37.6677 28.7613C40.2296 24.9892 40.9647 25.7542 41.5813 24.6075C42.3536 23.1678 41.8411 21.8162 39.1084 22.1502C39.1084 22.1502 38.0762 22.2228 36.1677 22.4379C39.1975 14.7257 41.8485 8.18443 43.7571 3.19967C44.4108 1.51156 44.4925 0.27817 43.4306 0.028541Z" fill="black"/>
<path d="M38.9614 50.0482C39.6669 51.8108 41.8724 51.2771 41.0332 49.1496C40.1791 46.9823 38.0554 40.4579 37.4983 38.356C36.7409 35.5237 40.0232 36.2983 38.3598 38.1499C36.9341 39.7421 35.9834 40.3801 33.3472 43.4078C30.8001 46.3304 31.4907 50.1231 34.2161 50.9608C37.2904 51.9063 40.001 48.5572 41.6792 46.1C43.3055 43.7207 41.7311 42.325 40.0901 43.7317C39.0355 44.6361 37.8176 46.0251 36.5849 46.774C35.5824 47.3767 34.7952 46.7292 36.1319 44.91C37.684 42.8038 39.4216 41.0389 40.7137 39.0485C43.35 34.9923 38.1369 32.6542 35.8942 35.2889C34.6912 36.6934 34.9957 38.0722 35.3224 39.2556C35.8498 41.1511 37.8103 47.202 38.9614 50.0482Z" fill="black"/>
</g>
<defs>
<clipPath id="clip0_1498_1262">
<rect width="92" height="60" fill="white"/>
</clipPath>
</defs>
</svg>
