<svg width="79" height="23" viewBox="0 0 79 23" fill="none" xmlns="http://www.w3.org/2000/svg">
<g clip-path="url(#clip0_1459_1150)">
<path d="M0.0400391 16.2531V0.373413H2.95561V16.2531H0.0400391Z" fill="#898888"/>
<path d="M10.4172 4.7323C6.67938 4.7323 4.09277 7.48213 4.09277 10.6296C4.09277 14.1423 6.90671 16.5622 10.4462 16.5622C13.8054 16.5622 16.7205 14.1868 16.7205 10.622C16.7205 7.62428 14.305 4.7323 10.4172 4.7323ZM10.3829 7.42322C12.3389 7.42322 13.7788 8.88014 13.7788 10.6397C13.7788 12.5053 12.1913 13.8663 10.4357 13.8663C8.36115 13.8663 7.05561 12.293 7.05561 10.6447C7.05561 8.83804 8.52959 7.42322 10.3829 7.42322Z" fill="#898888"/>
<path d="M24.0451 4.7323C20.3073 4.7323 17.7207 7.48213 17.7207 10.6296C17.7207 14.1423 20.5346 16.5622 24.0742 16.5622C27.4334 16.5622 30.3484 14.1868 30.3484 10.622C30.3484 8.52273 29.3983 7.59129 29.3983 7.59129L30.2063 7.32616V5.06225H26.0657C26.0657 5.06225 25.1681 4.7323 24.0451 4.7323ZM24.0108 7.42322C25.9669 7.42322 27.4067 8.88014 27.4067 10.6397C27.4067 12.5053 25.8193 13.8663 24.0636 13.8663C21.9891 13.8663 20.6835 12.293 20.6835 10.6447C20.6835 8.83804 22.1575 7.42322 24.0108 7.42322Z" fill="#898888"/>
<path d="M27.3862 17.0286C27.3862 18.8942 25.7987 20.2652 24.0431 20.2652C21.9686 20.2652 20.6577 18.6768 20.6577 17.0286H17.7002C17.7002 20.5413 20.5141 22.9612 24.0536 22.9612C27.4129 22.9612 30.3279 20.5934 30.3279 17.0286H27.3862Z" fill="#898888"/>
<path d="M31.5156 16.2524V5.06226H34.4312V16.2524H31.5156Z" fill="#898888"/>
<path d="M37.2617 16.253V7.56934H35.6982V5.06287H37.2617V1.62659H40.1772V5.06287H41.7829V7.56934H40.1772V16.253H37.2617Z" fill="#898888"/>
<path d="M34.8985 1.8844C34.8985 2.90456 34.0341 3.73157 32.9678 3.73157C31.9015 3.73157 31.0371 2.90456 31.0371 1.8844C31.0371 0.864237 31.9015 0.0372314 32.9678 0.0372314C34.0341 0.0372314 34.8985 0.864237 34.8985 1.8844Z" fill="#898888"/>
<path d="M48.3367 4.72461C44.5812 4.72461 42.1602 7.47588 42.1602 10.7305C42.1602 14.0939 44.5892 16.5697 48.3974 16.5697C51.9498 16.5697 53.6972 14.4473 53.6972 14.4473L51.7484 12.5801C51.7484 12.5801 50.277 14.0986 48.4344 14.0986C46.8984 14.0986 45.6703 13.2783 45.2418 11.774H54.3257V11.0059C54.3257 7.94107 52.4718 4.72461 48.3367 4.72461ZM48.2443 7.18054C49.5872 7.18054 50.9607 7.868 51.2678 9.51014H45.1626C45.4044 8.35582 46.4598 7.18054 48.2443 7.18054Z" fill="#898888"/>
<path d="M61.6165 16.5716C57.8504 16.5716 55.2842 13.8271 55.2842 10.591C55.2842 7.2514 58.1844 4.72302 61.6044 4.72302C64.9105 4.72302 66.6028 6.9562 66.6028 6.9562L64.5692 8.89327C64.5692 8.89327 63.3911 7.4369 61.5906 7.4369C59.595 7.4369 58.2305 8.89757 58.2305 10.6338C58.2305 12.4671 59.682 13.8737 61.5681 13.8737C63.3976 13.8737 64.5663 12.4197 64.5663 12.4197L66.6203 14.3557C66.6203 14.3557 64.9445 16.5716 61.6165 16.5716Z" fill="#898888"/>
<path d="M67.6807 16.2613V0.33313H70.596V6.18522C70.596 6.18522 71.7122 4.72343 74.1405 4.72343C77.1931 4.72343 78.9616 6.89471 78.9616 9.67174V16.2613H76.0463V10.0933C76.0463 8.22768 74.8324 7.45367 73.4876 7.45367C71.9553 7.45367 70.596 8.288 70.596 10.2377V16.2613H67.6807Z" fill="#898888"/>
</g>
<defs>
<clipPath id="clip0_1459_1150">
<rect width="79" height="23" fill="white"/>
</clipPath>
</defs>
</svg>
