<svg width="34" height="34" viewBox="0 0 34 34" fill="none" xmlns="http://www.w3.org/2000/svg">
<g clip-path="url(#clip0_558_3066)">
<path d="M32.1235 34.0001C33.1597 34.0001 34 33.16 34 32.1236V1.87651C34 0.840039 33.1597 0 32.1235 0H1.87651C0.839906 0 0 0.840039 0 1.87651V32.1236C0 33.16 0.839906 34.0001 1.87651 34.0001H32.1235Z" fill="#395185"/>
<path d="M23.4602 33.9997V20.8331H27.8798L28.5415 15.7019H23.4602V12.4256C23.4602 10.94 23.8728 9.92757 26.0033 9.92757L28.7205 9.92637V5.33704C28.2503 5.27448 26.6375 5.13477 24.7611 5.13477C20.8434 5.13477 18.1614 7.52605 18.1614 11.9176V15.7019H13.7305V20.8331H18.1614V33.9997H23.4602Z" fill="white"/>
</g>
<defs>
<clipPath id="clip0_558_3066">
<rect width="34" height="34" fill="white"/>
</clipPath>
</defs>
</svg>
