<svg width="107" height="59" viewBox="0 0 107 59" fill="none" xmlns="http://www.w3.org/2000/svg">
<g clip-path="url(#clip0_1498_1310)">
<path d="M0.355469 58.3184H2.73743V53.5857C2.73743 52.7428 2.73743 51.703 3.16884 51.0939C3.59809 50.4317 4.36901 50.2164 4.79934 50.2164C6.80612 50.2164 6.80612 52.5838 6.80612 53.4061V58.3184H9.18699V52.9408C9.18699 52.1683 9.18699 50.5031 8.27443 49.4103C7.45161 48.4051 6.14224 48.0264 5.28374 48.0264C3.77758 48.0264 2.95368 48.8541 2.56011 49.2307V48.3672H0.355469V58.3184Z" fill="black"/>
<path fill-rule="evenodd" clip-rule="evenodd" d="M20.0197 54.4109C20.0878 54.0895 20.1624 53.6762 20.1624 53.2109C20.1624 50.7029 18.173 47.973 15.0201 47.973C11.9559 47.973 9.78906 50.5579 9.78906 53.3711C9.78906 56.2741 12.0824 58.6426 15.0385 58.6426C17.3674 58.6426 19.265 56.9774 19.8391 55.1834H17.3296C16.883 56.0079 16.0959 56.4548 15.0385 56.4548C13.3366 56.4548 12.4046 55.0568 12.2964 54.4109H20.0197ZM12.2251 52.4925C12.6727 50.6455 14.1605 50.1619 15.0385 50.1619C16.2213 50.1619 17.4561 50.8966 17.7253 52.4925H12.2251Z" fill="black"/>
<path d="M23.221 58.3184H24.6872L26.5696 51.8653H26.6042L28.4693 58.3184H29.9376L33.5738 48.3672H31.0308L29.2013 54.4459H29.1667L27.5524 48.3672H25.656L24.0254 54.4459H23.9898L22.1809 48.3672H19.6367L23.221 58.3184Z" fill="black"/>
<path fill-rule="evenodd" clip-rule="evenodd" d="M38.1836 58.3191H40.3677V57.118C40.957 57.7824 41.8025 58.6426 43.7195 58.6426C47.3546 58.6426 48.6629 55.2905 48.6629 53.2986C48.6629 50.6661 46.6929 48.0271 43.6655 48.0271C42.5539 48.0271 41.3884 48.4415 40.5645 49.2671V45.0527H38.1836V58.3191ZM40.4207 53.2109C40.4207 51.7589 41.5495 50.2171 43.3768 50.2171C44.8829 50.2171 46.281 51.3802 46.281 53.3191C46.281 55.2527 44.9727 56.4559 43.4135 56.4559C42.0166 56.4559 40.4207 55.4161 40.4207 53.2109Z" fill="black"/>
<path fill-rule="evenodd" clip-rule="evenodd" d="M59.785 48.3679H57.5977V49.6263H57.562C57.4896 49.4813 56.2883 48.026 54.2664 48.026C51.5082 48.026 49.2852 50.2322 49.2852 53.2824C49.2852 56.5976 51.5612 58.6426 54.1237 58.6426C55.3758 58.6426 56.8462 57.9771 57.5977 57.0856V58.3191H59.785V48.3679ZM57.5285 53.3191C57.5285 55.165 56.2721 56.4548 54.6232 56.4548C52.9224 56.4548 51.6671 55.0741 51.6671 53.3895C51.6671 51.9017 52.6705 50.2171 54.6232 50.2171C56.0396 50.2171 57.5285 51.2558 57.5285 53.3191Z" fill="black"/>
<path d="M63.4347 45.052H61.0527V58.3184H63.4347V45.052Z" fill="black"/>
<path fill-rule="evenodd" clip-rule="evenodd" d="M74.6472 48.3679H72.462V49.6263H72.4253C72.3528 49.4813 71.1516 48.026 69.1297 48.026C66.3682 48.026 64.1484 50.2322 64.1484 53.2824C64.1484 56.5976 66.4244 58.6426 68.9859 58.6426C70.239 58.6426 71.7073 57.9771 72.462 57.0856V58.3191H74.6472V48.3679ZM72.3896 53.3191C72.3896 55.165 71.1365 56.4548 69.4876 56.4548C67.7846 56.4548 66.5315 55.0741 66.5315 53.3895C66.5315 51.9017 67.5349 50.2171 69.4876 50.2171C70.9029 50.2171 72.3896 51.2558 72.3896 53.3191Z" fill="black"/>
<path d="M75.918 58.3184H78.2988V53.5857C78.2988 52.7428 78.2988 51.703 78.7303 51.0939C79.1595 50.4317 79.9326 50.2164 80.3608 50.2164C82.3664 50.2164 82.3664 52.5838 82.3664 53.4061V58.3184H84.7506V52.9408C84.7506 52.1683 84.7506 50.5031 83.8348 49.4103C83.0109 48.4051 81.7047 48.0264 80.8441 48.0264C79.3379 48.0264 78.5162 48.8541 78.1204 49.2307V48.3672H75.918V58.3184Z" fill="black"/>
<path d="M93.214 55.0752C92.5858 56.0793 91.7998 56.4559 91.0115 56.4559C89.2178 56.4559 88.0187 55.0395 88.0187 53.3365C88.0187 51.2926 89.4524 50.2171 90.9023 50.2171C92.3717 50.2171 92.9286 51.1671 93.214 51.668H95.903C94.8813 48.6016 92.1555 48.0271 90.9023 48.0271C88.1614 48.0271 85.6367 50.2538 85.6367 53.2986C85.6367 56.5987 88.3744 58.6426 90.9218 58.6426C93.2508 58.6426 95.0943 57.2977 95.903 55.0752H93.214Z" fill="black"/>
<path fill-rule="evenodd" clip-rule="evenodd" d="M106.5 54.4109C106.57 54.0895 106.642 53.6762 106.642 53.2109C106.642 50.7029 104.654 47.973 101.502 47.973C98.4374 47.973 96.2695 50.5579 96.2695 53.3711C96.2695 56.2741 98.5628 58.6426 101.519 58.6426C103.847 58.6426 105.748 56.9774 106.32 55.1834H103.812C103.364 56.0079 102.577 56.4548 101.519 56.4548C99.816 56.4548 98.885 55.0568 98.7802 54.4109H106.5ZM98.7066 52.4925C99.1553 50.6455 100.641 50.1619 101.519 50.1619C102.703 50.1619 103.938 50.8966 104.206 52.4925H98.7066Z" fill="black"/>
<path fill-rule="evenodd" clip-rule="evenodd" d="M40.9056 25.336L37.7214 30.839L20.0962 29.8468L21.8607 26.7815L40.9056 25.336ZM53.6469 7.80112L55.2439 13.8744L30.2349 12.2297L31.9984 9.16551L53.6469 7.80112ZM37.0672 0.356964L51.7061 0.367783L52.8111 4.52049L35.3059 3.42118L37.0672 0.356964ZM35.7806 34.2614L33.2386 38.6348L15.0273 38.6543L16.7908 35.5912L35.7806 34.2614ZM67.7538 22.4622L63.3456 30.1087H67.544C69.4891 30.1087 72.975 29.137 74.0476 26.365C75.0413 23.7887 73.2151 22.4589 71.9403 22.4589L67.7538 22.4622ZM71.9576 15.1479L75.6197 15.1252C78.0568 15.1122 80.5988 13.9966 81.5287 11.7331C82.3861 9.63294 81.2335 7.84439 79.7057 7.85089L76.1636 7.84656L71.9576 15.1479ZM55.3812 13.8744L59.079 7.45488L71.5943 6.65095L72.0311 5.87191L60.4543 5.06149L63.1618 0.356964L84.6308 0.355885C91.2328 0.355885 96.1167 2.71789 94.2181 9.66432C93.6472 11.7688 90.9635 17.0663 83.0932 19.2854C84.7637 19.4845 88.9243 21.3293 88.2075 26.1118C86.9338 34.5925 75.9614 38.6294 69.8578 38.6316L44.5115 38.6435L43.2627 33.7366L56.5381 32.7996L56.989 32.0227L42.5902 31.1452L41.0386 25.3284L61.5269 24.1317L61.9724 23.3613L25.1639 21.0372L26.9274 17.9741L66.5482 15.4L66.9969 14.6285L55.3812 13.8744Z" fill="black"/>
</g>
<defs>
<clipPath id="clip0_1498_1310">
<rect width="107" height="59" fill="white"/>
</clipPath>
</defs>
</svg>
