<svg width="110" height="22" viewBox="0 0 110 22" fill="none" xmlns="http://www.w3.org/2000/svg">
<g clip-path="url(#clip0_425_1122)">
<path d="M76.7383 5.04408V0.382631C82.806 0.291104 83.0516 0.210587 85.0577 0.262338C88.1412 0.34024 90.0007 1.22194 91.3379 2.57724C92.6268 3.88354 93.649 5.87568 93.6016 8.76713C93.5736 10.432 92.5464 16.5565 85.1078 16.9387C84.2355 17.0166 82.2328 16.9479 80.9608 16.9777L82.2183 12.1951C85.1654 12.4409 87.5036 11.5101 87.628 8.71786C87.7643 5.5832 84.9884 4.58796 82.2192 5.07877L76.7383 5.04408Z" fill="#898888"/>
<path d="M82.2157 21.4858L76.7383 21.485V4.05078L82.2157 4.08629V21.4858Z" fill="#898888"/>
<path d="M101.904 7.81561L106.4 9.41852C109.393 10.6011 110.029 13.0008 110 15.0675C109.934 19.8611 106.113 21.6582 103.067 21.9177C99.6034 22.2119 96.9223 21.6312 96.0211 21.4846V16.268C98.7625 17.1014 101.952 17.0682 103.03 16.6479C103.844 16.3299 104.463 15.8442 104.414 15.2067C104.387 14.8608 104.353 14.4209 103.323 13.9802L99.1766 12.4747C96.5142 11.5151 95.4869 8.98483 95.5979 6.73091C95.8233 2.17708 99.4578 -0.127767 103.087 0.0054643C104.206 0.0460669 105.714 0.0197784 107.908 0.323403V5.49163C105.45 4.91948 104.298 4.92884 103.03 5.08657C101.611 5.26192 100.975 5.99607 101.004 6.78032C101.019 7.17781 101.415 7.61356 101.904 7.80859" fill="#898888"/>
<path d="M25.0161 8.24677H30.9145L30.9128 0.402344H36.3911V21.4893H30.9145V13.0236H25.0161L25.0153 21.4893H19.5312V0.402344H25.0153L25.0161 8.24677Z" fill="#898888"/>
<path d="M47.0324 0.402344H41.5508V21.4893H47.0324V0.402344Z" fill="#898888"/>
<path d="M71.5255 0.402344H66.043V21.4893H71.5255V0.402344Z" fill="#898888"/>
<path d="M57.6728 16.7016H63.3247V21.4876L52.1895 21.4893V0.402344H57.6728V16.7016Z" fill="#898888"/>
<path d="M0 5.04408V0.382631C6.06842 0.291104 6.31331 0.210587 8.32026 0.262338C11.4027 0.34024 13.2624 1.22194 14.6004 2.57724C15.8884 3.88354 16.9115 5.87568 16.8641 8.76713C16.8352 10.432 15.808 16.5565 8.36935 16.9387C7.49801 17.0166 5.55775 16.9479 4.28587 16.9777L5.48322 12.1951C8.43109 12.4409 10.7676 11.5101 10.8894 8.71786C11.0257 5.5832 8.24904 4.58796 5.48075 5.07877L0 5.04408Z" fill="#898888"/>
<path d="M5.48584 21.4872L0 21.4864V4.41406L5.48075 4.44888L5.48584 21.4872Z" fill="#898888"/>
</g>
<defs>
<clipPath id="clip0_425_1122">
<rect width="110" height="22" fill="white"/>
</clipPath>
</defs>
</svg>
