<svg width="25" height="25" viewBox="0 0 25 25" fill="none" xmlns="http://www.w3.org/2000/svg">
<g clip-path="url(#clip0_593_2856)">
<path d="M0 12.4446C0 19.3175 5.57154 24.889 12.4445 24.889C19.3174 24.889 24.8889 19.3175 24.8889 12.4446C24.8889 5.57164 19.3174 9.91821e-05 12.4445 9.91821e-05C5.57154 9.91821e-05 0 5.57164 0 12.4446Z" fill="url(#paint0_linear_593_2856)"/>
<path d="M8.42383 13.354L9.90029 17.4407C9.90029 17.4407 10.0848 17.8229 10.2826 17.8229C10.4803 17.8229 13.4201 14.7645 13.4201 14.7645L16.6894 8.44998L8.47656 12.2993L8.42383 13.354Z" fill="#C8DAEA"/>
<path d="M10.3812 14.4021L10.0977 17.4143C10.0977 17.4143 9.97909 18.3371 10.9019 17.4143C11.8247 16.4915 12.7079 15.7797 12.7079 15.7797" fill="#A9C6D8"/>
<path d="M8.45039 13.5001L5.41363 12.5105C5.41363 12.5105 5.05115 12.3634 5.16758 12.0294C5.19163 11.9606 5.24004 11.902 5.38505 11.8009C6.0581 11.3319 17.8405 7.09688 17.8405 7.09688C17.8405 7.09688 18.1732 6.98488 18.3699 7.05934C18.4598 7.0934 18.5171 7.13189 18.5654 7.27237C18.583 7.32352 18.5932 7.43225 18.5918 7.54045C18.5907 7.61849 18.5812 7.69073 18.5743 7.80411C18.5026 8.96207 16.3554 17.6034 16.3554 17.6034C16.3554 17.6034 16.2269 18.1091 15.7666 18.1263C15.5987 18.1326 15.3949 18.0985 15.1513 17.889C14.248 17.1119 11.1256 15.0136 10.4358 14.5522C10.3968 14.5262 10.3858 14.4924 10.3792 14.4594C10.3695 14.4109 10.4214 14.3503 10.4214 14.3503C10.4214 14.3503 15.8581 9.51754 16.0028 9.01048C16.014 8.97114 15.9719 8.95174 15.9149 8.96872C15.5538 9.1016 9.29398 13.0543 8.60321 13.4909C8.56281 13.5164 8.44955 13.5 8.44955 13.5" fill="white"/>
</g>
<defs>
<linearGradient id="paint0_linear_593_2856" x1="12.4445" y1="24.8889" x2="12.4445" y2="-6.27947e-06" gradientUnits="userSpaceOnUse">
<stop stop-color="#1D93D2"/>
<stop offset="1" stop-color="#38B0E3"/>
</linearGradient>
<clipPath id="clip0_593_2856">
<rect width="24.8889" height="24.8889" fill="white"/>
</clipPath>
</defs>
</svg>
