<svg width="25" height="25" viewBox="0 0 25 25" fill="none" xmlns="http://www.w3.org/2000/svg">
<path d="M12.25 0C5.48516 0 0 5.48516 0 12.25C0 19.0148 5.48516 24.5 12.25 24.5C19.0148 24.5 24.5 19.0148 24.5 12.25C24.5 5.48516 19.0148 0 12.25 0ZM18.1371 9.23398C18.1453 9.3625 18.1453 9.49648 18.1453 9.62773C18.1453 13.6418 15.0883 18.2656 9.50195 18.2656C7.7793 18.2656 6.18242 17.7652 4.83711 16.9039C5.0832 16.9312 5.31836 16.9422 5.56992 16.9422C6.9918 16.9422 8.29883 16.4609 9.34062 15.6461C8.00625 15.6188 6.88516 14.7438 6.50234 13.5406C6.96992 13.609 7.39102 13.609 7.87227 13.4859C7.18519 13.3463 6.56763 12.9732 6.1245 12.4299C5.68137 11.8866 5.44 11.2066 5.44141 10.5055V10.4672C5.84336 10.6941 6.31641 10.8336 6.81133 10.8527C6.39527 10.5755 6.05406 10.1998 5.81796 9.75907C5.58186 9.31834 5.45815 8.82616 5.45781 8.32617C5.45781 7.76016 5.60547 7.24336 5.8707 6.79492C6.63333 7.73373 7.58497 8.50156 8.66377 9.0485C9.74257 9.59544 10.9244 9.90925 12.1324 9.96953C11.7031 7.90508 13.2453 6.23438 15.0992 6.23438C15.9742 6.23438 16.7617 6.60078 17.3168 7.19141C18.0031 7.06289 18.6594 6.80586 19.2445 6.46133C19.0176 7.16406 18.5418 7.75742 17.9102 8.13203C18.5227 8.06641 19.1133 7.89688 19.6602 7.65898C19.2473 8.26602 18.7305 8.80469 18.1371 9.23398Z" fill="#5BACE3"/>
</svg>
