<svg width="25" height="25" viewBox="0 0 25 25" fill="none" xmlns="http://www.w3.org/2000/svg">
<g clip-path="url(#clip0_593_2851)">
<path fill-rule="evenodd" clip-rule="evenodd" d="M13.8833 8.70411C14.3679 8.80736 14.7393 8.9915 15.0566 9.28861C15.4649 9.67419 15.6888 10.1409 15.7871 10.8113C15.8536 11.2484 15.8264 11.4203 15.6714 11.5628C15.5264 11.6954 15.2583 11.7003 15.0959 11.5751C14.9779 11.4866 14.9409 11.3933 14.9139 11.1403C14.882 10.8037 14.8229 10.5681 14.722 10.3495C14.5056 9.88536 14.1242 9.64464 13.4799 9.56608C13.1773 9.52914 13.0863 9.49492 12.9879 9.37942C12.8082 9.16572 12.8773 8.81942 13.1256 8.69167C13.2191 8.645 13.2584 8.64014 13.4651 8.65239C13.5932 8.65978 13.7826 8.68194 13.8833 8.70411ZM13.3595 6.84969C14.8526 7.06825 16.0086 7.76086 16.7664 8.88572C17.192 9.51942 17.4576 10.2636 17.5486 11.0618C17.5805 11.354 17.5805 11.887 17.5461 11.9754C17.514 12.0589 17.4107 12.1718 17.3223 12.2185C17.2264 12.2677 17.0222 12.2626 16.9091 12.2037C16.7197 12.1079 16.6631 11.9556 16.6631 11.543C16.6631 10.907 16.4982 10.2363 16.213 9.71561C15.8882 9.12119 15.4159 8.63003 14.8404 8.28858C14.3459 7.99381 13.6154 7.77525 12.9488 7.72119C12.7077 7.70156 12.5749 7.65236 12.4839 7.54678C12.3437 7.38714 12.3289 7.17092 12.447 6.99164C12.5747 6.79331 12.7715 6.76122 13.3595 6.84969ZM7.56661 5.33439C7.65275 5.36394 7.78556 5.43258 7.86178 5.48178C8.32903 5.79133 9.63025 7.45403 10.0559 8.28411C10.2993 8.75817 10.3806 9.10933 10.3044 9.36969C10.2256 9.64969 10.0954 9.79708 9.51222 10.2661C9.2785 10.4551 9.05956 10.6491 9.02514 10.7009C8.93667 10.8286 8.8653 11.0791 8.8653 11.256C8.86783 11.6661 9.13344 12.4104 9.48267 12.9827C9.75314 13.4272 10.2377 13.9969 10.7174 14.4342C11.2807 14.9501 11.7775 15.3012 12.3385 15.5787C13.0593 15.9373 13.4995 16.0281 13.8217 15.8783C13.9028 15.8414 13.9889 15.7924 14.0159 15.7702C14.0404 15.7481 14.23 15.5173 14.4365 15.2618C14.8349 14.7607 14.9259 14.6796 15.1991 14.5863C15.546 14.4684 15.9001 14.5003 16.2569 14.6821C16.5276 14.8221 17.1179 15.1881 17.499 15.4533C18.0009 15.8044 19.0732 16.6789 19.2185 16.8533C19.4742 17.1677 19.5185 17.5704 19.3464 18.0151C19.1644 18.4841 18.4561 19.3634 17.9616 19.7392C17.514 20.0781 17.1967 20.2082 16.7784 20.2279C16.4341 20.245 16.2913 20.2156 15.8511 20.0338C12.3978 18.6118 9.64036 16.4899 7.45111 13.5744C6.30739 12.0517 5.43647 10.4724 4.84128 8.83419C4.49439 7.87889 4.47728 7.46375 4.76253 6.97492C4.88561 6.76861 5.40944 6.25781 5.79075 5.97294C6.42542 5.50142 6.71806 5.327 6.95178 5.27781C7.11161 5.24339 7.38967 5.27042 7.56661 5.33439ZM13.1898 5.06917C14.036 5.17475 14.7196 5.37853 15.47 5.74467C16.2079 6.10575 16.6802 6.44719 17.305 7.06844C17.8904 7.65547 18.2152 8.09997 18.5595 8.79006C19.0392 9.75275 19.3122 10.8974 19.3589 12.1573C19.3762 12.587 19.3638 12.6828 19.2654 12.8057C19.0785 13.0439 18.6676 13.0046 18.5274 12.7369C18.4831 12.6484 18.4709 12.5724 18.4561 12.2284C18.4314 11.7003 18.3946 11.3591 18.3208 10.9513C18.0304 9.35239 17.263 8.07528 16.038 7.15906C15.0171 6.39275 13.9619 6.01942 12.5796 5.93833C12.1121 5.91131 12.0311 5.89419 11.9253 5.81311C11.7285 5.65833 11.7186 5.29492 11.908 5.12536C12.0237 5.01978 12.1048 5.005 12.5057 5.01725C12.7151 5.02483 13.0225 5.04953 13.1898 5.06917ZM12.4444 0C19.3173 0 24.8889 5.57161 24.8889 12.4444C24.8889 19.3173 19.3173 24.8889 12.4444 24.8889C5.57161 24.8889 0 19.3173 0 12.4444C0 5.57161 5.57161 0 12.4444 0Z" fill="#7F4DA0"/>
</g>
<defs>
<clipPath id="clip0_593_2851">
<rect width="24.8889" height="24.8889" fill="white"/>
</clipPath>
</defs>
</svg>
