<svg width="92" height="30" viewBox="0 0 92 30" fill="none" xmlns="http://www.w3.org/2000/svg">
<g clip-path="url(#clip0_449_403)">
<path d="M62.7927 25.482C62.6169 25.5153 62.307 25.5723 62.0313 25.5723C61.0861 25.5723 60.5508 25.1832 60.5508 24.1228C60.5508 23.0216 61.262 22.6325 62.1568 22.6325C62.4326 22.6325 62.6169 22.6818 62.7587 22.7227V23.2429C62.6542 23.2141 62.3619 23.1649 62.1444 23.1649C61.6254 23.1649 61.2155 23.2429 61.2155 24.1024C61.2155 24.9503 61.6424 25.0443 62.111 25.0443C62.3619 25.0443 62.5666 24.995 62.7927 24.9503V25.482Z" fill="#898888"/>
<path d="M65.454 24.0985C65.454 23.337 65.199 23.1035 64.7846 23.1035C64.3624 23.1035 64.1075 23.378 64.0944 24.0985C64.082 24.8191 64.35 25.0975 64.7722 25.0975C65.1906 25.0975 65.454 24.86 65.454 24.0985ZM63.4297 24.1024C63.4297 23.0132 63.9689 22.6325 64.7807 22.6325C65.5919 22.6325 66.1187 23.0382 66.1187 24.1024C66.1187 25.1627 65.588 25.5723 64.7722 25.5723C63.9611 25.5723 63.4297 25.1754 63.4297 24.1024Z" fill="#898888"/>
<path d="M67.7552 24.0492C68.065 24.0492 68.3409 23.9589 68.3409 23.5949C68.3409 23.2346 68.1239 23.1732 67.7638 23.1732H67.5591V24.0492H67.7552ZM66.9277 22.6734H67.7389C68.6337 22.6734 69.0017 22.907 69.0017 23.5699C69.0017 24.1106 68.7174 24.254 68.3827 24.3525V24.4011L68.471 24.4178C68.7761 24.5285 68.956 25.0974 69.1442 25.4538V25.5312H68.4454C68.3075 25.1505 68.1611 24.5733 67.8683 24.4914H67.5591V25.5312H66.9277V22.6734Z" fill="#898888"/>
<path d="M70.52 24.1106H70.7501C71.1181 24.1106 71.3018 23.996 71.3018 23.6397C71.3018 23.2794 71.1181 23.177 70.7796 23.177H70.52V24.1106ZM69.8887 22.6734H70.6834C71.5449 22.6734 71.9626 22.866 71.9626 23.5987C71.9626 24.3321 71.4652 24.5445 70.8377 24.5445H70.52V25.5312H69.8887V22.6734Z" fill="#898888"/>
<path d="M74.5318 24.0985C74.5318 23.337 74.277 23.1035 73.863 23.1035C73.4402 23.1035 73.1854 23.378 73.1723 24.0985C73.1598 24.8191 73.4278 25.0975 73.8506 25.0975C74.2689 25.0975 74.5318 24.86 74.5318 24.0985ZM72.5078 24.1024C72.5078 23.0132 73.0474 22.6325 73.8586 22.6325C74.6698 22.6325 75.197 23.0382 75.197 24.1024C75.197 25.1627 74.6662 25.5723 73.8506 25.5723C73.0394 25.5723 72.5078 25.1754 72.5078 24.1024Z" fill="#898888"/>
<path d="M76.8312 24.0492C77.1415 24.0492 77.4168 23.9589 77.4168 23.5949C77.4168 23.2346 77.1999 23.1732 76.8399 23.1732H76.6355V24.0492H76.8312ZM76.0039 22.6734H76.8151C77.7103 22.6734 78.0783 22.907 78.0783 23.5699C78.0783 24.1106 77.7935 24.254 77.4591 24.3525V24.4011L77.5475 24.4178C77.8527 24.5285 78.0323 25.0974 78.2207 25.4538V25.5312H77.5219C77.3839 25.1505 77.2371 24.5733 76.9443 24.4914H76.6355V25.5312H76.0039V22.6734Z" fill="#898888"/>
<path d="M80.4127 24.4792L80.1199 23.4924L80.0863 23.3325H80.0447L80.0111 23.4924L79.7059 24.4792H80.4127ZM78.7188 25.466L79.7607 22.6529H80.3791L81.4707 25.466V25.5312H80.772L80.5295 24.8926H79.6139L79.4 25.5312H78.7188V25.466Z" fill="#898888"/>
<path d="M82.5465 23.1648L81.7266 23.1853V22.6734H84.0025V23.1853L83.1781 23.1648V25.5312H82.5465V23.1648Z" fill="#898888"/>
<path d="M84.6719 25.5312V22.6734H85.3035V25.5312H84.6719Z" fill="#898888"/>
<path d="M88.076 24.0985C88.076 23.337 87.8212 23.1035 87.4072 23.1035C86.9851 23.1035 86.7296 23.378 86.7172 24.0985C86.7048 24.8191 86.972 25.0975 87.3948 25.0975C87.8124 25.0975 88.076 24.86 88.076 24.0985ZM86.0527 24.1024C86.0527 23.0132 86.5916 22.6325 87.4028 22.6325C88.214 22.6325 88.7412 23.0382 88.7412 24.1024C88.7412 25.1627 88.2104 25.5723 87.3948 25.5723C86.5836 25.5723 86.0527 25.1754 86.0527 24.1024Z" fill="#898888"/>
<path d="M89.5488 22.6734H90.1001L91.1793 24.1759L91.3297 24.4217H91.3677V22.6734H91.9992V25.5312H91.4597L90.3513 23.9712L90.2257 23.7625H90.1804V25.5312H89.5488V22.6734Z" fill="#898888"/>
<path d="M21.6951 3.24924L16.9648 20.1738H14.216L10.8724 7.88038L7.47945 20.1738H4.73029L0 3.24924H2.72429L6.09243 15.5428L9.48542 3.24924H12.1848L15.6027 15.5428L18.9711 3.24924H21.6951Z" fill="#898888"/>
<path d="M22.957 3.29792L25.6813 3.07968V7.22572L25.6317 8.77752H25.731C26.9939 8.3168 28.0096 8.09855 29.2479 8.09855C31.4522 8.09855 32.9379 9.06874 32.9379 12.7782V20.1738H30.2136V12.9963C30.2136 10.7658 29.0991 10.4749 27.8364 10.4749C27.0435 10.4749 26.3748 10.6448 25.6813 10.8387V20.1738H22.957V3.29792Z" fill="#898888"/>
<path d="M35.3142 8.26847H38.0385V20.1738H35.3142V8.26847ZM36.6763 3.46749C38.0882 3.46749 38.311 4.26769 38.311 5.16489C38.311 6.06203 38.0137 6.8866 36.6763 6.8866C35.339 6.8866 35.0664 6.06203 35.0664 5.16489C35.0664 4.26769 35.3142 3.46749 36.6763 3.46749Z" fill="#898888"/>
<path d="M40.3398 8.26847H42.1974L42.569 9.2383H42.7426C43.4605 8.63226 44.5995 8.09855 46.0858 8.09855C46.259 8.09855 46.4571 8.09855 46.6552 8.12293V10.7414C46.1603 10.6691 45.6401 10.5962 45.1198 10.5962C44.3766 10.5962 43.7825 10.7658 43.0641 11.0811V20.1738H40.3398V8.26847Z" fill="#898888"/>
<path d="M47.8203 20.1738V3.29792L50.5447 3.07968V20.1738H47.8203Z" fill="#898888"/>
<path d="M72.4849 14.2809C72.4849 12.0265 72.113 10.1837 69.9338 10.1837C67.7298 10.1837 67.1847 11.9536 67.1847 14.2809C67.1847 16.4389 67.6305 18.3062 69.8102 18.3062C71.9895 18.3062 72.4849 16.5362 72.4849 14.2809ZM69.909 8.09819C73.7726 8.09819 75.2592 10.3289 75.2592 14.2809C75.2592 17.9907 73.8719 20.416 69.8593 20.416C65.8474 20.416 64.4355 17.9907 64.4355 14.2809C64.4355 10.3289 66.0454 8.09819 69.909 8.09819Z" fill="#898888"/>
<path d="M84.6996 14.2809C84.6996 12.0265 84.328 10.1837 82.1492 10.1837C79.9449 10.1837 79.3994 11.9536 79.3994 14.2809C79.3994 16.4389 79.8456 18.3062 82.0251 18.3062C84.2046 18.3062 84.6996 16.5362 84.6996 14.2809ZM82.1244 8.09819C85.9876 8.09819 87.4743 10.3289 87.4743 14.2809C87.4743 17.9907 86.087 20.416 82.0747 20.416C78.0625 20.416 76.6504 17.9907 76.6504 14.2809C76.6504 10.3289 78.2604 8.09819 82.1244 8.09819Z" fill="#898888"/>
<path d="M89.2383 20.1738V3.29792L91.9625 3.07968V20.1738H89.2383Z" fill="#898888"/>
<path d="M55.4978 17.9657C56.2652 17.9894 56.6867 18.0138 57.479 18.0138C59.1626 18.0138 60.2778 17.1409 60.2778 13.6732C60.2778 11.2972 59.2868 10.6675 57.5038 10.6675C56.8102 10.6675 56.1664 10.7878 55.4978 11.0066V17.9657ZM52.7734 8.26647H54.8291L55.052 9.13937C55.8698 8.70296 57.3795 8.09691 58.7423 8.09691C61.2183 8.09691 63.0263 9.86694 63.0263 14.1096C63.0263 18.2806 61.1189 20.3417 57.9495 20.3417C56.7828 20.3417 55.4978 20.0993 55.4978 20.0993V25.5545L52.7734 25.8457V8.26647Z" fill="#898888"/>
<path d="M66.2597 0.95228C64.2225 -1.35875 57.7581 0.672632 50.544 5.56083V6.79266C56.8973 2.37132 62.4978 0.331293 64.1018 2.15087C66.1045 4.42272 61.1226 11.8538 52.9729 18.7395C44.8225 25.6256 36.5889 29.3592 34.5866 27.0873C33.5465 25.9072 34.3946 23.3356 36.5889 20.1729H35.3134C32.5963 24.1399 31.5778 27.4729 32.9728 29.0556C35.5161 31.941 45.0291 27.9935 54.2187 20.2299C63.4074 12.4663 68.8027 3.83748 66.2597 0.95228Z" fill="#898888"/>
</g>
<defs>
<clipPath id="clip0_449_403">
<rect width="92" height="30" fill="white"/>
</clipPath>
</defs>
</svg>
