<svg width="180" height="25" viewBox="0 0 180 25" fill="none" xmlns="http://www.w3.org/2000/svg">
<g clip-path="url(#clip0_1498_1251)">
<path d="M177.225 17.402H168.86C165.093 17.0299 163.758 13.6521 163.758 10.2615C163.758 7.13232 165.103 4.17087 168.86 3.74513H179.508V0.919922H169.111C164.646 0.919922 161.349 4.29178 161.021 9.04985C160.862 10.1227 160.931 11.0321 161.021 11.9313C161.511 16.7685 164.457 20.2281 169.111 20.2281H176.859C177.51 20.2281 177.478 21.3869 176.897 21.3869H161.797V24.2036L177.291 24.2173C180.865 24.2173 180.968 17.402 177.225 17.402Z" fill="black"/>
<path d="M149.888 0.919922V24.1968H147.098V0.919922H149.888Z" fill="black"/>
<path d="M124.539 22.1175C119.256 22.1175 115.027 18.1309 115.027 12.6908C115.027 7.26342 119.256 3.27849 124.539 3.27849C129.819 3.27849 134.103 7.26342 134.103 12.6908C134.103 18.1309 129.819 22.1175 124.539 22.1175ZM124.539 0.394531C117.71 0.394531 112.178 5.9019 112.178 12.6908C112.178 19.4839 117.71 25.0006 124.539 25.0006C131.368 25.0006 136.901 19.4839 136.901 12.6908C136.901 5.9019 131.368 0.394531 124.539 0.394531Z" fill="black"/>
<path d="M88.4512 24.1968V0.919922H107.033V3.80388H91.3V17.4029H97.3626V20.2281H91.3V24.1968H88.4512Z" fill="black"/>
<path d="M10.6483 17.4031H2.79665L2.79161 3.76662H10.6483C14.4063 4.19236 15.7504 7.1538 15.7504 10.2838C15.7504 13.6744 14.4156 17.0301 10.6483 17.4031ZM18.4865 9.07134C18.1602 4.31327 14.8622 0.941406 10.3968 0.941406H0V24.197H2.79161V20.2283H10.3968C15.0523 20.2283 17.9978 16.79 18.4865 11.9527C18.5782 11.0536 18.6463 10.1442 18.4865 9.07134Z" fill="black"/>
<path d="M69.6089 16.8017C68.597 17.2436 67.5751 17.3714 66.9241 17.4029H59.9186V3.76642H67.0216C67.0729 3.76897 67.1343 3.77408 67.1907 3.77749L67.1924 3.77493C67.1924 3.77493 70.2052 3.74343 71.7108 5.90789C71.7192 5.91896 71.7234 5.93003 71.731 5.94195C72.5123 6.96373 72.9135 8.34057 72.9135 10.1321V11.6256C72.9135 14.1485 71.6679 15.8617 69.6089 16.8017ZM71.5686 19.1646C74.3829 17.219 75.7085 15.3074 75.7085 10.4735C75.7085 7.41586 74.9414 5.02661 73.4703 3.36026C73.0162 2.84597 72.4383 2.4032 71.7747 2.0277C71.7394 2.00726 71.7049 1.98768 71.6696 1.96809C71.535 1.89487 71.3962 1.8259 71.2557 1.75778C71.2212 1.7416 71.1868 1.72457 71.1523 1.70839C71.0766 1.67348 70.9984 1.64113 70.921 1.60707C69.4591 0.991446 68.0234 0.924179 67.6028 0.919922H57.127V24.1968H59.9186V20.2281C60.366 20.2153 63.0172 20.2102 63.4344 20.2136C68.9907 20.2528 71.8765 21.6867 73.7563 24.1968H76.9104C75.8952 22.4947 74.6109 20.9995 71.5686 19.1646Z" fill="black"/>
<path d="M30.9923 17.4034L36.2769 5.47076L41.5388 17.4034H30.9923ZM36.2769 0L25.2266 24.1974H28.0182L29.7399 20.2286H42.7853L44.5357 24.1974H47.3273L36.2769 0Z" fill="black"/>
</g>
<defs>
<clipPath id="clip0_1498_1251">
<rect width="180" height="25" fill="white"/>
</clipPath>
</defs>
</svg>
