<svg width="153" height="54" viewBox="0 0 153 54" fill="none" xmlns="http://www.w3.org/2000/svg">
<path d="M17.8806 37.0045C15.1597 37.0045 13.8518 34.9071 14.5348 32.4808C15.9449 27.452 25.0055 20 31.18 20C35.6825 20 35.3398 24.0396 32.7002 27.4852L31.2412 29.1046C26.008 34.2536 21.1567 37.0045 17.8806 37.0045ZM39.9493 3.09375C32.0692 3.09682 23.3917 7.93043 17.9418 12.5082L18.3721 13.1335C26.8311 7.18793 38.5687 3.32202 41.8043 9.12089C43.513 12.1799 40.6127 18.358 36.5283 23.2407C37.505 21.0843 36.86 16.9441 31.1647 16.9441C21.6971 16.9441 3.05859 29.5194 3.05859 42.3892C3.05859 47.5443 6.62533 50.9077 12.5005 50.9077C28.2265 50.9077 49.5535 25.0613 49.5535 12.0798C49.5535 7.49414 46.9225 3.09375 39.9493 3.09375Z" fill="black"/>
<path d="M60.1969 37.0038C59.2814 37.0038 58.5194 36.6835 58.0427 36.0987C57.5457 35.4856 57.3976 34.6167 57.6332 33.7196C58.1565 31.7731 60.2489 30.244 62.4007 30.244H67.462L65.6535 37.0038H60.1969ZM74.7429 16.739C73.2955 14.9546 70.9522 14.1562 69.2753 14.1562H60.0782L58.517 19.9944H67.1908L68.0219 20.0821C68.0305 20.0821 68.8181 20.1742 69.2576 20.767C69.6125 21.2628 69.6645 21.9991 69.4093 22.965L68.9993 24.5015H63.5341C58.8303 24.5015 52.2727 27.8851 50.8107 33.3502C50.0836 36.0753 50.7207 38.436 52.1332 40.1707C53.5347 41.8926 56.1797 42.8431 59.0372 42.8431H64.0984H64.0953H70.5281L73.5452 31.5455L75.7662 23.2411C76.6383 19.976 75.6934 17.9019 74.7429 16.739Z" fill="black"/>
<path d="M137.921 14.1562C135.432 14.1562 133.12 14.8945 131.24 16.2917C129.342 17.7012 128.294 19.3949 127.67 21.731C126.316 26.7941 130.284 29.2376 133.473 30.9699C135.76 32.2119 137.738 33.2833 137.309 34.8702C137.007 36.0091 136.511 37.0056 133.697 37.0056H125.109L123.551 42.8431H133.057C135.606 42.8431 137.958 42.3111 139.854 40.8519C141.751 39.3877 142.823 37.348 143.486 34.8585C144.123 32.4893 143.694 30.2262 142.173 28.5374C140.905 27.1193 139.082 26.1344 137.476 25.2643C135.417 24.1536 133.476 23.1055 133.815 21.8353C134.022 21.0664 134.783 19.9944 136.446 19.9944H144.8L146.362 14.1562H137.921Z" fill="black"/>
<path d="M88.0786 14.1562C85.5909 14.1562 83.2793 14.8945 81.3986 16.2917C79.5002 17.7012 78.4531 19.3949 77.8227 21.731C76.4714 26.7941 80.4427 29.2376 83.6306 30.9699C85.9189 32.2119 87.892 33.2833 87.4679 34.8702C87.1625 36.0091 86.6686 37.0056 83.8552 37.0056H75.2682L73.707 42.8431H83.2126C85.7647 42.8431 88.1166 42.3111 90.0119 40.8519C91.9122 39.3877 92.982 37.348 93.6448 34.8585C94.2788 32.4893 93.8492 30.2262 92.3345 28.5374C91.067 27.1193 89.2408 26.1344 87.6313 25.2643C85.5755 24.1536 83.6367 23.1055 83.9764 21.8353C84.1802 21.0664 84.944 19.9944 86.6037 19.9944H94.9532L96.5175 14.1562H88.0786Z" fill="black"/>
<path d="M101.05 14.1562L93.5938 42.8431H99.8931L107.343 14.1562H101.05Z" fill="black"/>
<path d="M124.1 14.1562C113.01 14.1961 107.207 21.6015 105.365 28.5C103.182 36.6798 107.525 42.8438 115.467 42.8438H120.789L122.347 37.0062H117.027C114.054 37.0062 109.967 34.6609 111.614 28.5C112.923 23.6032 117.685 19.995 122.908 19.995H126.288L127.849 14.1569H124.1V14.1562Z" fill="black"/>
</svg>
