<svg width="88" height="13" viewBox="0 0 88 13" fill="none" xmlns="http://www.w3.org/2000/svg">
<path d="M0.000343829 7.27177e-06H10.8183C13.4103 7.27177e-06 14.7063 0.990007 14.7063 2.97001C14.7063 4.44601 13.8963 5.40001 12.2763 5.83201C13.2723 5.98801 13.9863 6.25201 14.4183 6.62401C15.0423 7.14001 15.3543 7.92001 15.3543 8.96401C15.3543 9.84001 15.1083 10.578 14.6163 11.178C14.1003 11.802 13.4283 12.216 12.6003 12.42C11.7843 12.612 10.8423 12.708 9.77434 12.708H0.000343829V7.27177e-06ZM4.59034 4.84201H9.09034C9.93034 4.84201 10.3503 4.50601 10.3503 3.83401C10.3503 3.18601 9.96034 2.86201 9.18034 2.86201H4.59034V4.84201ZM4.55434 7.59601V9.81001H9.36034C10.3443 9.81001 10.8363 9.42001 10.8363 8.64001C10.8363 7.94401 10.4523 7.59601 9.68434 7.59601H4.55434ZM31.8007 12.708H26.8507L26.1667 10.638H21.3067L20.6227 12.708H15.6187L21.1087 7.27177e-06H26.2927L31.8007 12.708ZM25.2127 7.83001L23.7187 3.52801L22.2607 7.83001H25.2127ZM46.9339 2.71801L38.8519 9.70201H46.9159V12.708H32.4439V10.026L40.8679 2.86201H33.1279V7.27177e-06H46.9339V2.71801ZM63.8808 12.708H58.9308L58.2468 10.638H53.3868L52.7028 12.708H47.6988L53.1888 7.27177e-06H58.3728L63.8808 12.708ZM57.2928 7.83001L55.7988 3.52801L54.3408 7.83001H57.2928ZM70.8015 8.60401H64.3755V5.45401H70.8015V8.60401ZM87.0202 12.708H81.9982L79.3702 8.08201H76.9582V12.708H72.3862V7.27177e-06H81.7462C82.8022 7.27177e-06 83.6782 0.108007 84.3742 0.324007C85.0702 0.540007 85.6522 1.01401 86.1202 1.74601C86.5522 2.44201 86.7682 3.20401 86.7682 4.03201C86.7682 4.24801 86.7562 4.45801 86.7322 4.66201C86.7082 4.86601 86.6362 5.13601 86.5162 5.47201C86.4082 5.79601 86.2522 6.09001 86.0482 6.35401C85.8562 6.61801 85.5682 6.87001 85.1842 7.11001C84.8122 7.35001 84.3682 7.52401 83.8522 7.63201L87.0202 12.708ZM76.9582 2.88001V5.22001H80.3782C81.1942 5.22001 81.7282 5.07001 81.9802 4.77001C82.1482 4.56601 82.2322 4.32601 82.2322 4.05001C82.2322 3.79801 82.1662 3.58201 82.0342 3.40201C81.7942 3.05401 81.3622 2.88001 80.7382 2.88001H76.9582Z" fill="#2D2323"/>
</svg>
