<svg width="25" height="25" viewBox="0 0 25 25" fill="none" xmlns="http://www.w3.org/2000/svg">
<g clip-path="url(#clip0_593_3100)">
<path d="M13.7599 11.85H22.0699C22.4572 11.849 22.8398 11.9356 23.1889 12.1033C23.538 12.271 23.8448 12.5155 24.0861 12.8184C24.3275 13.1213 24.4973 13.4749 24.5828 13.8527C24.6683 14.2304 24.6673 14.6226 24.5799 15L23.1199 22C22.9963 22.5679 22.6817 23.0763 22.2286 23.4403C21.7754 23.8043 21.2111 24.0018 20.6299 24H15.1699C14.5874 24.0023 14.0217 23.8051 13.5669 23.4412C13.1121 23.0774 12.7955 22.5687 12.6699 22L11.2499 15C11.1625 14.6226 11.1615 14.2304 11.247 13.8527C11.3325 13.4749 11.5023 13.1213 11.7437 12.8184C11.985 12.5155 12.2918 12.271 12.6409 12.1033C12.99 11.9356 13.3726 11.849 13.7599 11.85V11.85Z" stroke="#1E1E1C" stroke-width="0.5" stroke-miterlimit="10"/>
<path d="M15.2699 14.05H20.5599C20.8065 14.0481 21.0503 14.1021 21.2729 14.2081C21.4955 14.314 21.6912 14.4691 21.8453 14.6617C21.9993 14.8542 22.1077 15.0792 22.1622 15.3197C22.2166 15.5601 22.2159 15.8098 22.1599 16.05L21.2299 20.48C21.1522 20.8443 20.952 21.1711 20.6627 21.4058C20.3734 21.6405 20.0124 21.769 19.6399 21.77H16.1699C15.7947 21.769 15.4313 21.6394 15.1401 21.4028C14.8489 21.1662 14.6477 20.837 14.5699 20.47L13.6699 16C13.6225 15.7633 13.6283 15.5191 13.6868 15.285C13.7452 15.0508 13.855 14.8326 14.0081 14.646C14.1612 14.4595 14.3538 14.3092 14.572 14.2061C14.7902 14.1031 15.0286 14.0497 15.2699 14.05Z" stroke="#1E1E1C" stroke-width="0.5" stroke-miterlimit="10"/>
<path d="M20.58 9.25H15.25V11.85H20.58V9.25Z" stroke="#1E1E1C" stroke-width="0.5" stroke-miterlimit="10"/>
<path d="M19.8099 1.06995H16.0199C15.1473 1.06995 14.4399 1.77734 14.4399 2.64995V7.67995C14.4399 8.55256 15.1473 9.25995 16.0199 9.25995H19.8099C20.6826 9.25995 21.3899 8.55256 21.3899 7.67995V2.64995C21.3899 1.77734 20.6826 1.06995 19.8099 1.06995Z" stroke="#1E1E1C" stroke-width="0.5" stroke-miterlimit="10"/>
<path d="M19.5901 2.94995V6.23995" stroke="#1E1E1C" stroke-width="0.5" stroke-linecap="round" stroke-linejoin="round"/>
<path d="M7.81011 10.3C8.32706 10.7249 8.74323 11.2592 9.02857 11.8645C9.31391 12.4698 9.46131 13.1308 9.46011 13.8V23.93H0.360109V13.8C0.359486 13.1128 0.514868 12.4344 0.814543 11.816C1.11422 11.1976 1.55037 10.6553 2.09011 10.23" stroke="#1E1E1C" stroke-width="0.5" stroke-linecap="round" stroke-linejoin="round"/>
<path d="M5.00009 5.55C5.74991 5.56311 6.46458 5.87021 6.99017 6.40515C7.51576 6.94009 7.8102 7.66006 7.81009 8.41V13.61C7.81009 13.9548 7.67312 14.2854 7.42933 14.5292C7.18553 14.773 6.85487 14.91 6.51009 14.91H3.39009C3.04531 14.91 2.71465 14.773 2.47085 14.5292C2.22705 14.2854 2.09009 13.9548 2.09009 13.61V8.41C2.09003 8.03017 2.16563 7.65414 2.31247 7.30385C2.45932 6.95356 2.67447 6.63603 2.94536 6.36979C3.21626 6.10355 3.53747 5.89393 3.89025 5.75318C4.24304 5.61243 4.62032 5.54336 5.00009 5.55V5.55Z" stroke="#1E1E1C" stroke-width="0.5" stroke-linecap="round" stroke-linejoin="round"/>
<path d="M2.79004 15.88C3.42264 16.3291 4.17924 16.5704 4.95504 16.5704C5.73084 16.5704 6.48744 16.3291 7.12004 15.88" stroke="#1E1E1C" stroke-width="0.5" stroke-linecap="round" stroke-linejoin="round"/>
</g>
<defs>
<clipPath id="clip0_593_3100">
<rect width="25" height="25" fill="white"/>
</clipPath>
</defs>
</svg>
