<svg width="25" height="25" viewBox="0 0 25 25" fill="none" xmlns="http://www.w3.org/2000/svg">
<path d="M6.24003 3.69995H2.12003C1.51804 3.69995 1.03003 4.18796 1.03003 4.78995V20.7099C1.03003 21.3119 1.51804 21.7999 2.12003 21.7999H6.24003C6.84202 21.7999 7.33003 21.3119 7.33003 20.7099V4.78995C7.33003 4.18796 6.84202 3.69995 6.24003 3.69995Z" stroke="#1D1D1B" stroke-width="0.5" stroke-miterlimit="10"/>
<path d="M5.08004 5.18005H3.54004C2.98775 5.18005 2.54004 5.62777 2.54004 6.18005V14.1801C2.54004 14.7323 2.98775 15.1801 3.54004 15.1801H5.08004C5.63232 15.1801 6.08004 14.7323 6.08004 14.1801V6.18005C6.08004 5.62777 5.63232 5.18005 5.08004 5.18005Z" stroke="#1D1D1B" stroke-width="0.5" stroke-miterlimit="10"/>
<path d="M1.03003 17.52H7.33003" stroke="#1D1D1B" stroke-width="0.5" stroke-miterlimit="10"/>
<path d="M1.03003 19.48H7.33003" stroke="#1D1D1B" stroke-width="0.5" stroke-miterlimit="10"/>
<path d="M12.5401 3.69995H8.42008C7.81809 3.69995 7.33008 4.18796 7.33008 4.78995V20.7099C7.33008 21.3119 7.81809 21.7999 8.42008 21.7999H12.5401C13.1421 21.7999 13.6301 21.3119 13.6301 20.7099V4.78995C13.6301 4.18796 13.1421 3.69995 12.5401 3.69995Z" stroke="#1D1D1B" stroke-width="0.5" stroke-miterlimit="10"/>
<path d="M11.3801 5.18005H9.84009C9.2878 5.18005 8.84009 5.62777 8.84009 6.18005V14.1801C8.84009 14.7323 9.2878 15.1801 9.84009 15.1801H11.3801C11.9324 15.1801 12.3801 14.7323 12.3801 14.1801V6.18005C12.3801 5.62777 11.9324 5.18005 11.3801 5.18005Z" stroke="#1D1D1B" stroke-width="0.5" stroke-miterlimit="10"/>
<path d="M7.33008 17.52H13.6301" stroke="#1D1D1B" stroke-width="0.5" stroke-miterlimit="10"/>
<path d="M7.33008 19.48H13.6301" stroke="#1D1D1B" stroke-width="0.5" stroke-miterlimit="10"/>
<path d="M18.4025 3.22797L14.4278 4.31236C13.847 4.4708 13.5047 5.07005 13.6631 5.65081L17.8532 21.0095C18.0117 21.5903 18.6109 21.9326 19.1917 21.7742L23.1664 20.6898C23.7472 20.5313 24.0896 19.9321 23.9311 19.3513L19.741 3.99265C19.5825 3.41189 18.9833 3.06953 18.4025 3.22797Z" stroke="#1D1D1B" stroke-width="0.5" stroke-miterlimit="10"/>
<path d="M17.6729 4.96795L16.1872 5.37328C15.6543 5.51864 15.3403 6.0684 15.4856 6.60122L17.5912 14.3191C17.7366 14.852 18.2863 15.1661 18.8191 15.0207L20.3049 14.6154C20.8377 14.47 21.1518 13.9202 21.0064 13.3874L18.9008 5.66949C18.7554 5.13668 18.2057 4.82259 17.6729 4.96795Z" stroke="#1D1D1B" stroke-width="0.5" stroke-miterlimit="10"/>
<path d="M17.02 17.94L23.1 16.28" stroke="#1D1D1B" stroke-width="0.5" stroke-miterlimit="10"/>
<path d="M17.53 19.82L23.61 18.16" stroke="#1D1D1B" stroke-width="0.5" stroke-miterlimit="10"/>
</svg>
