<svg width="24" height="24" viewBox="0 0 24 24" fill="none" xmlns="http://www.w3.org/2000/svg">
<path d="M3.99951 16.001H9.61151L8.48851 19.368C8.28651 19.976 8.38851 20.65 8.76351 21.17C9.13851 21.69 9.74651 22.001 10.3875 22.001H11.9995C12.2965 22.001 12.5775 21.869 12.7685 21.641L17.4685 16.001H19.9995C21.1025 16.001 21.9995 15.104 21.9995 14.001V5.00098C21.9995 3.89798 21.1025 3.00098 19.9995 3.00098H6.69251C6.28562 3.00233 5.88873 3.12714 5.55429 3.3589C5.21986 3.59066 4.96364 3.91847 4.81951 4.29898L2.06251 11.65C2.02065 11.7623 1.99931 11.8811 1.99951 12.001V14.001C1.99951 15.104 2.89651 16.001 3.99951 16.001ZM19.9995 14.001H17.9995V5.00098H19.9995V14.001ZM3.99951 12.182L6.69251 5.00098H15.9995V14.639L11.5315 20.001H10.3855L11.9475 15.318C11.9982 15.1677 12.0124 15.0074 11.9888 14.8505C11.9652 14.6937 11.9045 14.5447 11.8118 14.4159C11.7192 14.2872 11.5971 14.1824 11.4559 14.1102C11.3146 14.0381 11.1581 14.0006 10.9995 14.001H3.99951V12.182Z" fill="#98BE2A"/>
</svg>
