<svg width="17" height="17" viewBox="0 0 17 17" fill="none" xmlns="http://www.w3.org/2000/svg">
<path d="M8.5 1.0625C7.029 1.0625 5.59104 1.4987 4.36795 2.31594C3.14486 3.13319 2.19158 4.29477 1.62865 5.65379C1.06572 7.01282 0.918435 8.50825 1.20541 9.95098C1.49239 11.3937 2.20074 12.719 3.2409 13.7591C4.28105 14.7993 5.60629 15.5076 7.04902 15.7946C8.49175 16.0816 9.98718 15.9343 11.3462 15.3714C12.7052 14.8084 13.8668 13.8551 14.6841 12.6321C15.5013 11.409 15.9375 9.971 15.9375 8.5C15.9375 6.52745 15.1539 4.63569 13.7591 3.24089C12.3643 1.84609 10.4726 1.0625 8.5 1.0625ZM8.5 14.875C7.23915 14.875 6.00661 14.5011 4.95824 13.8006C3.90988 13.1001 3.09278 12.1045 2.61027 10.9396C2.12776 9.77473 2.00152 8.49293 2.2475 7.2563C2.49348 6.01967 3.10064 4.88375 3.9922 3.99219C4.88376 3.10063 6.01967 2.49347 7.2563 2.24749C8.49293 2.00151 9.77473 2.12776 10.9396 2.61027C12.1045 3.09278 13.1001 3.90988 13.8006 4.95824C14.5011 6.0066 14.875 7.23914 14.875 8.5C14.875 10.1908 14.2034 11.8123 13.0078 13.0078C11.8123 14.2034 10.1908 14.875 8.5 14.875Z" fill="#98BE2A"/>
<path d="M7.96875 4.25H9.03125V10.0938H7.96875V4.25Z" fill="#98BE2A"/>
<path d="M8.5 11.6875C8.34239 11.6875 8.18833 11.7342 8.05728 11.8218C7.92624 11.9094 7.8241 12.0338 7.76378 12.1794C7.70347 12.325 7.68769 12.4853 7.71844 12.6398C7.74918 12.7944 7.82508 12.9364 7.93652 13.0479C8.04797 13.1593 8.18996 13.2352 8.34454 13.2659C8.49912 13.2967 8.65934 13.2809 8.80495 13.2206C8.95056 13.1603 9.07502 13.0581 9.16258 12.9271C9.25014 12.796 9.29688 12.642 9.29688 12.4844C9.29688 12.273 9.21292 12.0703 9.06348 11.9209C8.91403 11.7715 8.71135 11.6875 8.5 11.6875Z" fill="#98BE2A"/>
</svg>
