<svg width="49" height="49" viewBox="0 0 49 49" fill="none" xmlns="http://www.w3.org/2000/svg">
<path d="M6.125 24.5H24.5V27.5625H6.125V24.5Z" fill="black" fill-opacity="0.7"/>
<path d="M3.0625 16.8438H18.375V19.9062H3.0625V16.8438Z" fill="black" fill-opacity="0.7"/>
<path d="M45.813 25.4279L41.2192 14.7092C41.1013 14.4337 40.9051 14.1989 40.655 14.0339C40.4048 13.8689 40.1117 13.7811 39.812 13.7812H35.2183V10.7188C35.2183 10.3126 35.0569 9.92316 34.7698 9.63599C34.4826 9.34883 34.0931 9.1875 33.687 9.1875H9.18701V12.25H32.1558V31.4764C31.458 31.8815 30.8474 32.4208 30.3591 33.0631C29.8708 33.7054 29.5145 34.4381 29.3107 35.2188H19.6883C19.3156 33.7753 18.4293 32.5173 17.1954 31.6806C15.9616 30.8439 14.4649 30.486 12.986 30.6738C11.5071 30.8617 10.1475 31.5824 9.16201 32.701C8.17652 33.8196 7.63281 35.2592 7.63281 36.75C7.63281 38.2408 8.17652 39.6804 9.16201 40.799C10.1475 41.9176 11.5071 42.6383 12.986 42.8262C14.4649 43.014 15.9616 42.6561 17.1954 41.8194C18.4293 40.9827 19.3156 39.7247 19.6883 38.2812H29.3107C29.6438 39.5954 30.4056 40.761 31.4755 41.5936C32.5455 42.4262 33.8625 42.8783 35.2183 42.8783C36.574 42.8783 37.891 42.4262 38.961 41.5936C40.0309 40.761 40.7927 39.5954 41.1258 38.2812H44.4058C44.8119 38.2812 45.2013 38.1199 45.4885 37.8328C45.7757 37.5456 45.937 37.1561 45.937 36.75V26.0312C45.9371 25.8238 45.8949 25.6185 45.813 25.4279ZM13.7808 39.8125C13.175 39.8125 12.5829 39.6329 12.0793 39.2964C11.5757 38.9599 11.1832 38.4816 10.9514 37.922C10.7196 37.3624 10.6589 36.7466 10.7771 36.1525C10.8953 35.5585 11.1869 35.0128 11.6152 34.5845C12.0435 34.1562 12.5892 33.8645 13.1833 33.7463C13.7774 33.6282 14.3931 33.6888 14.9527 33.9206C15.5123 34.1524 15.9906 34.5449 16.3271 35.0486C16.6636 35.5522 16.8433 36.1443 16.8433 36.75C16.8424 37.562 16.5195 38.3405 15.9454 38.9146C15.3712 39.4888 14.5927 39.8117 13.7808 39.8125ZM35.2183 16.8438H38.8014L42.0844 24.5H35.2183V16.8438ZM35.2183 39.8125C34.6125 39.8125 34.0204 39.6329 33.5168 39.2964C33.0132 38.9599 32.6207 38.4816 32.3889 37.922C32.1571 37.3624 32.0964 36.7466 32.2146 36.1525C32.3328 35.5585 32.6244 35.0128 33.0527 34.5845C33.481 34.1562 34.0267 33.8645 34.6208 33.7463C35.2149 33.6282 35.8306 33.6888 36.3902 33.9206C36.9498 34.1524 37.4281 34.5449 37.7646 35.0486C38.1011 35.5522 38.2808 36.1443 38.2808 36.75C38.2799 37.562 37.957 38.3405 37.3829 38.9146C36.8087 39.4888 36.0302 39.8117 35.2183 39.8125ZM42.8745 35.2188H41.1258C40.7885 33.9071 40.0255 32.7445 38.9564 31.9132C37.8873 31.0818 36.5725 30.6288 35.2183 30.625V27.5625H42.8745V35.2188Z" fill="black" fill-opacity="0.7"/>
</svg>
