<svg width="25" height="24" viewBox="0 0 25 24" fill="none" xmlns="http://www.w3.org/2000/svg">
<path d="M12.0259 22.5L7.38357 20.0303C6.06014 19.3277 4.95341 18.2789 4.18216 16.9963C3.41092 15.7137 3.00427 14.2457 3.00586 12.75V3C3.00626 2.6023 3.16478 2.221 3.44662 1.93978C3.72846 1.65856 4.11061 1.5004 4.5092 1.5H19.5425C19.9411 1.5004 20.3233 1.65856 20.6051 1.93978C20.887 2.221 21.0455 2.6023 21.0459 3V12.75C21.0475 14.2457 20.6408 15.7137 19.8696 16.9963C19.0983 18.2789 17.9916 19.3277 16.6682 20.0303L12.0259 22.5ZM4.5092 3V12.75C4.50795 13.9739 4.84076 15.1749 5.4719 16.2243C6.10305 17.2737 7.0087 18.1318 8.09164 18.7065L12.0259 20.7997L15.9601 18.7073C17.0431 18.1325 17.9489 17.2743 18.58 16.2248C19.2112 15.1752 19.5439 13.974 19.5425 12.75V3H4.5092Z" fill="black"/>
<path d="M12.0254 18.9578V4.5H18.0387V12.6038C18.0387 13.5544 17.7799 14.4872 17.2901 15.3026C16.8003 16.118 16.0978 16.7853 15.2576 17.2335L12.0254 18.9578Z" fill="black"/>
</svg>
