<svg width="27" height="27" viewBox="0 0 27 27" fill="none" xmlns="http://www.w3.org/2000/svg">
<path d="M23.625 14.0625H16.875V15.1875H23.625V14.0625Z" fill="black"/>
<path d="M23.625 10.6875H13.5V11.8125H23.625V10.6875Z" fill="black"/>
<path d="M24.75 1.6875H2.25C1.01247 1.6875 0 2.69997 0 3.9375V18.5625C0 19.8 1.01247 20.8125 2.25 20.8125H4.5V25.3125L7.31247 22.5L10.1249 25.3125V20.8125H24.75C25.9875 20.8125 27 19.8 27 18.5625V3.9375C27 2.69997 25.9875 1.6875 24.75 1.6875ZM9 22.6124L7.31247 20.9249L5.62494 22.6124V18.225C6.18741 18.45 6.74994 18.5624 7.31247 18.5624C7.875 18.5624 8.43747 18.45 9 18.225V22.6124ZM7.31247 17.4375C5.73747 17.4375 4.5 16.2 4.5 14.625C4.5 13.05 5.73753 11.8126 7.31247 11.8126C8.88741 11.8126 10.1249 13.05 10.1249 14.625C10.1249 16.2 8.88747 17.4375 7.31247 17.4375ZM25.875 18.5624C25.875 19.2374 25.425 19.6874 24.75 19.6874H10.125V17.325C10.8 16.6499 11.25 15.6374 11.25 14.625C11.25 12.4875 9.45 10.6874 7.31247 10.6874C5.17494 10.6874 3.37494 12.4874 3.37494 14.625C3.37494 15.75 3.82494 16.65 4.49994 17.325V19.6874H2.25C1.575 19.6874 1.125 19.125 1.125 18.5624V3.9375C1.125 3.2625 1.575 2.8125 2.25 2.8125H24.75C25.425 2.8125 25.875 3.37497 25.875 3.9375V18.5624Z" fill="black"/>
<path d="M23.625 7.3125H3.375V8.4375H23.625V7.3125Z" fill="black"/>
</svg>
