<svg width="25" height="25" viewBox="0 0 25 25" fill="none" xmlns="http://www.w3.org/2000/svg">
<g clip-path="url(#clip0_593_3049)">
<path d="M24.007 0.99787C24.4252 1.41608 24.6602 1.98328 24.6602 2.57472C24.6602 3.16615 24.4252 3.73336 24.007 4.15157L23.3706 4.78796C23.1212 5.03739 22.7829 5.17751 22.4302 5.17751C22.0774 5.17751 21.7391 5.03739 21.4897 4.78796L20.2169 3.51517C19.9675 3.26575 19.8274 2.92746 19.8274 2.57472C19.8274 2.22198 19.9675 1.88369 20.2169 1.63426L20.8533 0.997869C21.2715 0.579663 21.8387 0.344717 22.4302 0.344717C23.0216 0.344717 23.5888 0.579664 24.007 0.99787V0.99787Z" stroke="#1E1E1C" stroke-width="0.5" stroke-linecap="round" stroke-linejoin="round"/>
<path d="M17.1801 14.68L7.7801 24.08C7.59435 24.2659 7.37378 24.4134 7.13098 24.5141C6.88818 24.6147 6.62793 24.6665 6.3651 24.6665C6.10227 24.6665 5.84201 24.6147 5.59922 24.5141C5.35642 24.4134 5.13584 24.2659 4.9501 24.08L0.950099 20.08C0.764146 19.8942 0.616628 19.6737 0.515979 19.4309C0.415331 19.1881 0.363525 18.9278 0.363525 18.665C0.363525 18.4021 0.415331 18.1419 0.515979 17.8991C0.616628 17.6563 0.764146 17.4357 0.950099 17.25L10.3501 7.84998" stroke="#1E1E1C" stroke-width="0.5" stroke-linecap="round" stroke-linejoin="round"/>
<path d="M10.3201 7.82C10.3201 7.82 11.5101 6.68 14.5501 6.49C15.3148 6.43903 16.0403 6.13264 16.6101 5.62L19.6101 2.88" stroke="#1E1E1C" stroke-width="0.5" stroke-linecap="round" stroke-linejoin="round"/>
<path d="M17.1799 14.66C17.1799 14.66 18.3899 13.5 18.5099 10.43C18.5538 9.66357 18.8612 8.93585 19.3799 8.37L22.1199 5.37" stroke="#1E1E1C" stroke-width="0.5" stroke-linecap="round" stroke-linejoin="round"/>
<path d="M17.46 14.13L15.18 11.85C15.3177 11.5365 15.3574 11.1888 15.2942 10.8524C15.2309 10.516 15.0676 10.2065 14.8255 9.96446C14.5835 9.7224 14.274 9.55906 13.9376 9.49581C13.6012 9.43256 13.2535 9.47235 12.94 9.60996L10.79 7.45996" stroke="#1E1E1C" stroke-width="0.5" stroke-linecap="round" stroke-linejoin="round"/>
<path d="M9.11011 9L11.3401 11.23C11.229 11.5343 11.2071 11.8639 11.2771 12.1802C11.347 12.4965 11.5058 12.7862 11.7349 13.0152C11.9639 13.2443 12.2536 13.4031 12.5699 13.473C12.8862 13.543 13.2158 13.5211 13.5201 13.41L16.0001 15.89" stroke="#1E1E1C" stroke-width="0.5" stroke-linecap="round" stroke-linejoin="round"/>
<path d="M6.92993 11.21L13.7899 18.07" stroke="#1E1E1C" stroke-width="0.5" stroke-linecap="round" stroke-linejoin="round"/>
<path d="M1.31006 16.83L8.04006 23.55" stroke="#1E1E1C" stroke-width="0.5" stroke-linecap="round" stroke-linejoin="round"/>
<path d="M6.77002 15.08L9.92002 18.23" stroke="#1E1E1C" stroke-width="0.5" stroke-linecap="round" stroke-linejoin="round"/>
<path d="M3.78003 15.97L4.57003 16.75" stroke="#1E1E1C" stroke-width="0.5" stroke-linecap="round" stroke-linejoin="round"/>
<path d="M5.3999 17.58L8.7299 20.92" stroke="#1E1E1C" stroke-width="0.5" stroke-linecap="round" stroke-linejoin="round"/>
</g>
<defs>
<clipPath id="clip0_593_3049">
<rect width="25" height="25" fill="white"/>
</clipPath>
</defs>
</svg>
