<svg width="24" height="23" viewBox="0 0 24 23" fill="none" xmlns="http://www.w3.org/2000/svg">
<g clip-path="url(#clip0_679_1436)">
<path d="M22.0597 5.34835C21.9596 5.24752 21.8404 5.16756 21.709 5.11312C21.5776 5.05868 21.4366 5.03085 21.2944 5.03125H20.5303V3.23438C20.5299 2.94854 20.416 2.6745 20.2134 2.47238C20.0109 2.27026 19.7362 2.15657 19.4497 2.15625H3.90045C3.05713 2.15626 2.24836 2.49053 1.65204 3.08552C1.05573 3.68052 0.720715 4.4875 0.720703 5.32895V17.6711C0.720715 18.5125 1.05573 19.3195 1.65204 19.9145C2.24836 20.5095 3.05713 20.8437 3.90045 20.8438H21.2518C21.5376 20.8432 21.8116 20.7299 22.014 20.5286C22.2164 20.3273 22.3309 20.0542 22.3323 19.7691L22.3748 6.11306C22.3757 5.97112 22.3483 5.83042 22.2942 5.69914C22.2401 5.56786 22.1604 5.44862 22.0597 5.34835ZM20.8928 19.4062H3.90045C3.43923 19.4062 2.99689 19.2234 2.67075 18.898C2.34462 18.5726 2.1614 18.1313 2.1614 17.6711V5.32895C2.1614 4.86874 2.34462 4.42739 2.67075 4.10198C2.99689 3.77656 3.43923 3.59375 3.90045 3.59375H19.0896V5.03125H3.96227V6.46875H20.9331L20.8928 19.4062Z" fill="black"/>
<path d="M17.6484 11.8594H19.0891V13.2969H17.6484V11.8594Z" fill="black"/>
</g>
<defs>
<clipPath id="clip0_679_1436">
<rect width="23.0511" height="23" fill="white"/>
</clipPath>
</defs>
</svg>
