<svg width="294" height="246" viewBox="0 0 294 246" fill="none" xmlns="http://www.w3.org/2000/svg">
<path d="M185.573 151.102L134.953 123.231L132.402 31.0596L264.086 107.12L185.573 151.102Z" fill="#D0D8DC"/>
<path d="M236.642 140.846L213.119 127.287C211.496 126.351 209.42 126.907 208.483 128.527L208.477 128.537C207.54 130.157 208.096 132.23 209.719 133.165L233.242 146.724C234.866 147.66 236.941 147.105 237.878 145.484L237.884 145.474C238.821 143.854 238.265 141.781 236.642 140.846Z" fill="#ECEFF0"/>
<path d="M134.951 123.231L113.634 133.828L32.9141 87.6978L132.4 31.0596L134.951 123.231Z" fill="#AEBEC4"/>
<path d="M185.573 151.102L164.5 162.906L113.637 133.828L134.954 123.231L185.573 151.102Z" fill="#D9E0E5"/>
<path d="M242.456 125.212L216.83 110.44C215.207 109.505 213.131 110.06 212.194 111.68L212.188 111.69C211.251 113.311 211.807 115.383 213.43 116.319L239.057 131.09C240.68 132.026 242.756 131.47 243.693 129.85L243.698 129.84C244.636 128.22 244.079 126.147 242.456 125.212Z" fill="#ECEFF0"/>
<path d="M200.769 139.868L178.933 127.339C177.302 126.403 175.221 126.964 174.284 128.592L174.278 128.602C173.341 130.23 173.903 132.308 175.534 133.244L197.37 145.773C199.001 146.709 201.082 146.147 202.019 144.519L202.025 144.51C202.962 142.882 202.4 140.803 200.769 139.868Z" fill="#ECEFF0"/>
<path d="M171.934 65.2931L144.521 49.492C142.898 48.5564 140.822 49.1116 139.885 50.7322L139.88 50.7418C138.942 52.3624 139.499 54.4347 141.122 55.3704L168.535 71.1715C170.158 72.1071 172.234 71.5519 173.171 69.9313L173.176 69.9217C174.114 68.3011 173.557 66.2288 171.934 65.2931Z" fill="#ECEFF0"/>
<path d="M117.612 54.3815L100.17 64.4357C98.5464 65.3714 97.9902 67.4436 98.9274 69.0643L98.9329 69.0738C99.8701 70.6945 101.946 71.2497 103.569 70.3141L121.012 60.2598C122.635 59.3241 123.191 57.2519 122.254 55.6313L122.249 55.6217C121.311 54.0011 119.236 53.4458 117.612 54.3815Z" fill="#D0D8DC"/>
<path d="M67.2882 103.118L49.8454 113.172C48.2222 114.108 47.666 116.18 48.6032 117.801L48.6087 117.81C49.5459 119.431 51.6215 119.986 53.2448 119.05L70.6876 108.996C72.3109 108.06 72.8671 105.988 71.9299 104.368L71.9243 104.358C70.9871 102.737 68.9115 102.182 67.2882 103.118Z" fill="#D0D8DC"/>
<path d="M95.3273 106.438L77.8845 116.492C76.2612 117.428 75.705 119.5 76.6422 121.121L76.6478 121.13C77.585 122.751 79.6606 123.306 81.2839 122.371L98.7267 112.316C100.35 111.381 100.906 109.309 99.9689 107.688L99.9634 107.678C99.0262 106.058 96.9506 105.502 95.3273 106.438Z" fill="#D0D8DC"/>
<path d="M97.0236 124.164L81.8571 132.906C80.2339 133.842 79.6777 135.914 80.6149 137.535L80.6204 137.545C81.5576 139.165 83.6333 139.72 85.2565 138.785L100.423 130.043C102.046 129.107 102.602 127.035 101.665 125.414L101.66 125.405C100.722 123.784 98.6468 123.229 97.0236 124.164Z" fill="#D0D8DC"/>
<path d="M64.0224 85.0563L46.4995 95.1105C44.8688 96.0462 44.3066 98.1245 45.2438 99.7525L45.2493 99.7622C46.1865 101.39 48.2682 101.952 49.8989 101.016L67.4218 90.9616C69.0525 90.0259 69.6147 87.9476 68.6775 86.3196L68.672 86.31C67.7348 84.6819 65.6531 84.1206 64.0224 85.0563Z" fill="#D0D8DC"/>
<g filter="url(#filter0_d_667_9534)">
<path d="M238.308 180.335L162.234 224.726L164.497 162.906L264.083 107.12L238.308 180.335Z" fill="#D9E0E5"/>
<path d="M162.235 224.725L59.5325 166.127L32.9141 87.6973L164.498 162.905L162.235 224.725Z" fill="#ECEFF0"/>
</g>
<path d="M235.741 171.223L219.365 180.663C218.182 181.345 217.776 182.855 218.459 184.036C219.142 185.217 220.655 185.622 221.838 184.94L238.215 175.5C239.398 174.818 239.803 173.308 239.12 172.127C238.437 170.946 236.924 170.541 235.741 171.223Z" fill="white"/>
<path d="M193.451 158.932L173.511 170.426C172.254 171.151 171.823 172.756 172.549 174.011C173.275 175.266 174.882 175.696 176.139 174.972L196.08 163.478C197.337 162.753 197.767 161.148 197.042 159.893C196.316 158.638 194.708 158.208 193.451 158.932Z" fill="white"/>
<path d="M221.689 142.666L201.749 154.16C200.492 154.884 200.061 156.489 200.787 157.744C201.513 159 203.12 159.43 204.378 158.705L224.318 147.211C225.575 146.487 226.006 144.882 225.28 143.626C224.554 142.371 222.946 141.941 221.689 142.666Z" fill="white"/>
<path d="M252.369 126.01L232.338 137.503C231.075 138.228 230.639 139.838 231.365 141.099C232.091 142.36 233.703 142.794 234.966 142.07L254.998 130.576C256.261 129.851 256.696 128.241 255.97 126.981C255.245 125.72 253.632 125.285 252.369 126.01Z" fill="white"/>
<path d="M191.93 172.23L172.134 183.64C170.951 184.322 170.546 185.832 171.229 187.013C171.912 188.194 173.424 188.599 174.607 187.917L194.404 176.507C195.586 175.825 195.992 174.315 195.309 173.134C194.626 171.952 193.113 171.548 191.93 172.23Z" fill="white"/>
<path d="M219.618 156.27L199.822 167.68C198.639 168.362 198.233 169.872 198.916 171.054C199.599 172.235 201.112 172.639 202.295 171.957L222.091 160.547C223.274 159.865 223.679 158.355 222.996 157.174C222.313 155.993 220.801 155.588 219.618 156.27Z" fill="white"/>
<path d="M246.649 140.691L226.853 152.101C225.67 152.783 225.265 154.293 225.948 155.474C226.631 156.655 228.143 157.06 229.326 156.378L249.122 144.967C250.305 144.286 250.711 142.775 250.028 141.594C249.345 140.413 247.832 140.009 246.649 140.691Z" fill="white"/>
<path d="M241.029 155.946L223.173 166.238C221.99 166.92 221.585 168.43 222.268 169.611C222.951 170.792 224.464 171.197 225.646 170.515L243.502 160.223C244.685 159.541 245.091 158.031 244.408 156.85C243.725 155.669 242.212 155.264 241.029 155.946Z" fill="white"/>
<path d="M120.468 147.709L94.7556 132.888C93.1323 131.952 91.0567 132.507 90.1195 134.128L90.1139 134.137C89.1768 135.758 89.7329 137.83 91.3562 138.766L117.069 153.587C118.692 154.523 120.768 153.967 121.705 152.347L121.711 152.337C122.648 150.717 122.092 148.644 120.468 147.709Z" fill="white"/>
<path d="M215.248 170.808L197.392 181.1C196.209 181.782 195.804 183.292 196.487 184.473C197.17 185.654 198.682 186.059 199.865 185.377L217.721 175.085C218.904 174.403 219.309 172.893 218.626 171.712C217.943 170.531 216.431 170.126 215.248 170.808Z" fill="white"/>
<path d="M158.386 169.567L132.674 154.746C131.05 153.81 128.975 154.366 128.037 155.986L128.032 155.996C127.095 157.616 127.651 159.689 129.274 160.624L154.987 175.445C156.61 176.381 158.686 175.826 159.623 174.205L159.629 174.196C160.566 172.575 160.01 170.503 158.386 169.567Z" fill="white"/>
<path d="M189.447 185.684L171.591 195.976C170.408 196.658 170.003 198.168 170.686 199.349C171.369 200.53 172.881 200.935 174.064 200.253L191.92 189.961C193.103 189.279 193.509 187.769 192.826 186.588C192.143 185.407 190.63 185.002 189.447 185.684Z" fill="white"/>
<path d="M81.5309 125.268L55.8181 110.447C54.1948 109.511 52.1192 110.067 51.182 111.687L51.1764 111.697C50.2393 113.318 50.7954 115.39 52.4187 116.325L78.1315 131.147C79.7548 132.082 81.8304 131.527 82.7676 129.906L82.7731 129.897C83.7103 128.276 83.1541 126.204 81.5309 125.268Z" fill="white"/>
<path d="M187.116 199.259L170.74 208.699C169.557 209.381 169.151 210.891 169.834 212.072C170.517 213.253 172.03 213.658 173.213 212.976L189.59 203.536C190.773 202.854 191.178 201.344 190.495 200.163C189.812 198.982 188.299 198.577 187.116 199.259Z" fill="white"/>
<path d="M211.995 184.919L195.618 194.359C194.436 195.041 194.03 196.551 194.713 197.732C195.396 198.913 196.909 199.318 198.092 198.636L214.468 189.196C215.651 188.514 216.057 187.004 215.374 185.823C214.691 184.642 213.178 184.238 211.995 184.919Z" fill="white"/>
<path d="M85.6832 141.097L59.9704 126.276C58.3472 125.341 56.2715 125.896 55.3343 127.516L55.3288 127.526C54.3916 129.147 54.9478 131.219 56.571 132.155L82.2838 146.976C83.9071 147.911 85.9827 147.356 86.9199 145.735L86.9255 145.726C87.8627 144.105 87.3065 142.033 85.6832 141.097Z" fill="white"/>
<path d="M121.636 161.828L95.9235 147.007C94.3003 146.071 92.2246 146.626 91.2874 148.247L91.2819 148.256C90.3447 149.877 90.9009 151.949 92.5241 152.885L118.237 167.706C119.86 168.642 121.936 168.087 122.873 166.466L122.879 166.456C123.816 164.836 123.26 162.763 121.636 161.828Z" fill="white"/>
<path d="M157.601 181.797L131.888 166.975C130.265 166.04 128.189 166.595 127.252 168.216L127.247 168.225C126.31 169.846 126.866 171.918 128.489 172.854L154.202 187.675C155.825 188.611 157.901 188.055 158.838 186.435L158.843 186.425C159.781 184.805 159.224 182.732 157.601 181.797Z" fill="white"/>
<path d="M158.108 196.683L132.277 181.862C130.646 180.926 128.564 181.488 127.627 183.116L127.622 183.125C126.685 184.753 127.247 186.832 128.877 187.767L154.708 202.589C156.339 203.524 158.421 202.963 159.358 201.335L159.363 201.325C160.301 199.697 159.738 197.619 158.108 196.683Z" fill="white"/>
<path d="M122.957 175.971L97.2438 161.15C95.6206 160.215 93.545 160.77 92.6078 162.39L92.6022 162.4C91.665 164.021 92.2212 166.093 93.8445 167.029L119.557 181.85C121.181 182.785 123.256 182.23 124.193 180.61L124.199 180.6C125.136 178.979 124.58 176.907 122.957 175.971Z" fill="white"/>
<path d="M90.359 157.175L64.6462 142.354C63.0229 141.419 60.9473 141.974 60.0101 143.595L60.0046 143.604C59.0674 145.225 59.6235 147.297 61.2468 148.233L86.9596 163.054C88.5829 163.989 90.6585 163.434 91.5957 161.814L91.6012 161.804C92.5384 160.183 91.9823 158.111 90.359 157.175Z" fill="white"/>
<path d="M91.7081 170.24L69.0017 157.152C67.3784 156.217 65.3028 156.772 64.3656 158.392L64.36 158.402C63.4228 160.023 63.979 162.095 65.6023 163.031L88.3087 176.119C89.9319 177.054 92.0076 176.499 92.9448 174.879L92.9503 174.869C93.8875 173.248 93.3313 171.176 91.7081 170.24Z" fill="white"/>
<path d="M123.728 188.7L101.482 175.878C99.8589 174.942 97.7832 175.497 96.846 177.118L96.8405 177.128C95.9033 178.748 96.4595 180.82 98.0827 181.756L120.328 194.579C121.951 195.514 124.027 194.959 124.964 193.338L124.97 193.329C125.907 191.708 125.351 189.636 123.728 188.7Z" fill="white"/>
<path d="M156.941 208.338L134.593 195.515C132.963 194.58 130.881 195.141 129.944 196.769L129.938 196.779C129.001 198.407 129.563 200.485 131.194 201.421L153.541 214.243C155.172 215.179 157.254 214.618 158.191 212.99L158.196 212.98C159.134 211.352 158.571 209.274 156.941 208.338Z" fill="white"/>
<path d="M119.46 73.0319L102.017 83.0861C100.394 84.0218 99.8379 86.094 100.775 87.7147L100.781 87.7242C101.718 89.3449 103.793 89.9001 105.417 88.9645L122.86 78.9102C124.483 77.9745 125.039 75.9023 124.102 74.2817L124.096 74.2721C123.159 72.6515 121.083 72.0962 119.46 73.0319Z" fill="#D0D8DC"/>
<path d="M93.2453 88.1432L75.8024 98.1974C74.1792 99.1331 73.623 101.205 74.5602 102.826L74.5658 102.836C75.5029 104.456 77.5786 105.011 79.2018 104.076L96.6447 94.0215C98.2679 93.0859 98.8241 91.0136 97.8869 89.393L97.8814 89.3834C96.9442 87.7628 94.8685 87.2075 93.2453 88.1432Z" fill="#D0D8DC"/>
<path d="M121.897 92.0748L104.375 102.129C102.744 103.065 102.182 105.143 103.119 106.771L103.124 106.781C104.062 108.409 106.143 108.97 107.774 108.034L125.297 97.9801C126.927 97.0445 127.49 94.9662 126.553 93.3381L126.547 93.3285C125.61 91.7004 123.528 91.1392 121.897 92.0748Z" fill="#D0D8DC"/>
<path d="M248.09 108.526L220.677 92.7244C219.054 91.7888 216.979 92.344 216.041 93.9646L216.036 93.9742C215.099 95.5949 215.655 97.6671 217.278 98.6028L244.691 114.404C246.314 115.34 248.39 114.784 249.327 113.164L249.333 113.154C250.27 111.533 249.714 109.461 248.09 108.526Z" fill="#ECEFF0"/>
<path d="M121.656 111.698L106.49 120.441C104.867 121.376 104.311 123.449 105.248 125.069L105.253 125.079C106.19 126.699 108.266 127.255 109.889 126.319L125.056 117.577C126.679 116.641 127.235 114.569 126.298 112.948L126.292 112.939C125.355 111.318 123.28 110.763 121.656 111.698Z" fill="#D0D8DC"/>
<path d="M90.7726 69.8492L73.3298 79.9035C71.7065 80.8392 71.1504 82.9114 72.0875 84.532L72.0931 84.5416C73.0303 86.1622 75.1059 86.7175 76.7292 85.7818L94.172 75.7276C95.7953 74.7919 96.3514 72.7197 95.4142 71.099L95.4087 71.0895C94.4715 69.4688 92.3959 68.9136 90.7726 69.8492Z" fill="#D0D8DC"/>
<path d="M209.879 86.4972L182.466 70.6961C180.843 69.7605 178.768 70.3157 177.83 71.9363L177.825 71.9459C176.888 73.5665 177.444 75.6388 179.067 76.5745L206.48 92.3756C208.103 93.3112 210.179 92.756 211.116 91.1354L211.122 91.1258C212.059 89.5052 211.503 87.4329 209.879 86.4972Z" fill="#ECEFF0"/>
<path d="M170.136 83.5212L144.509 68.7498C142.886 67.8142 140.811 68.3694 139.873 69.99L139.868 69.9996C138.931 71.6202 139.487 73.6925 141.11 74.6282L166.736 89.3995C168.36 90.3352 170.435 89.7799 171.373 88.1593L171.378 88.1497C172.315 86.5291 171.759 84.4568 170.136 83.5212Z" fill="#ECEFF0"/>
<path d="M168.939 101.822L145.416 88.2635C143.792 87.3278 141.717 87.8831 140.78 89.5037L140.774 89.5133C139.837 91.1339 140.393 93.2062 142.016 94.1418L165.539 107.701C167.162 108.636 169.238 108.081 170.175 106.46L170.181 106.451C171.118 104.83 170.562 102.758 168.939 101.822Z" fill="#ECEFF0"/>
<path d="M167.3 120.442L145.564 107.913C143.941 106.977 141.865 107.533 140.928 109.153L140.923 109.163C139.985 110.783 140.542 112.856 142.165 113.791L163.901 126.32C165.524 127.256 167.6 126.701 168.537 125.08L168.543 125.071C169.48 123.45 168.924 121.378 167.3 120.442Z" fill="#ECEFF0"/>
<path d="M203.025 121.464L179.502 107.905C177.878 106.969 175.803 107.525 174.866 109.145L174.86 109.155C173.923 110.776 174.479 112.848 176.102 113.783L199.625 127.342C201.248 128.278 203.324 127.723 204.261 126.102L204.267 126.092C205.204 124.472 204.648 122.4 203.025 121.464Z" fill="#ECEFF0"/>
<path d="M206.163 104.281L180.537 89.5096C178.914 88.5739 176.838 89.1292 175.901 90.7498L175.895 90.7594C174.958 92.38 175.514 94.4523 177.137 95.3879L202.764 110.159C204.387 111.095 206.463 110.54 207.4 108.919L207.405 108.909C208.343 107.289 207.786 105.217 206.163 104.281Z" fill="#ECEFF0"/>
<path d="M194.335 50.7585C190.087 18.1375 167.106 7.82859 153.852 5.12678C144.445 3.31775 134.7 4.99901 126.447 9.85494C113.448 17.3513 84.0789 34.3483 65.9895 45.2884C59.9941 48.8517 55.2752 54.2099 52.5028 60.6023C52.3143 61.0453 52.1368 61.4882 51.9593 61.9311C47.778 72.9155 48.4435 91.9056 54.5103 101.927L85.6205 151.511C85.5661 155.58 86.6492 159.584 88.7482 163.072C93.351 171.033 101.336 175.053 106.571 172.03C111.806 169.007 112.328 160.104 107.681 152.098C104.486 146.562 99.6728 142.952 95.2808 142.254L67.8195 97.0988C65.1656 92.8135 63.5229 87.9816 63.0156 82.9689C62.5084 77.9561 63.1498 72.8939 64.8915 68.1652C65.0356 67.7776 65.1909 67.3901 65.3573 67.0579C67.7581 61.5155 71.8437 56.8671 77.0361 53.7703C92.7521 44.2919 118.206 29.5205 129.474 23.0207C136.624 18.8098 145.069 17.3528 153.22 18.9237C164.71 21.2601 178.729 31.6908 182.423 59.9712L197.274 68.5417L194.335 50.7585Z" fill="#98BE2A"/>
<defs>
<filter id="filter0_d_667_9534" x="17.9141" y="76.6973" width="261.168" height="167.029" filterUnits="userSpaceOnUse" color-interpolation-filters="sRGB">
<feFlood flood-opacity="0" result="BackgroundImageFix"/>
<feColorMatrix in="SourceAlpha" type="matrix" values="0 0 0 0 0 0 0 0 0 0 0 0 0 0 0 0 0 0 127 0" result="hardAlpha"/>
<feOffset dy="4"/>
<feGaussianBlur stdDeviation="7.5"/>
<feComposite in2="hardAlpha" operator="out"/>
<feColorMatrix type="matrix" values="0 0 0 0 0 0 0 0 0 0 0 0 0 0 0 0 0 0 0.25 0"/>
<feBlend mode="normal" in2="BackgroundImageFix" result="effect1_dropShadow_667_9534"/>
<feBlend mode="normal" in="SourceGraphic" in2="effect1_dropShadow_667_9534" result="shape"/>
</filter>
</defs>
</svg>
