<svg width="10" height="10" viewBox="0 0 10 10" fill="none" xmlns="http://www.w3.org/2000/svg">
<path d="M8.12341 3.32882L4.99965 6.37382L1.8759 3.32882C1.82009 3.27431 1.74517 3.24379 1.66715 3.24379C1.58913 3.24379 1.51421 3.27431 1.4584 3.32882C1.43138 3.3553 1.40991 3.3869 1.39525 3.42178C1.3806 3.45666 1.37305 3.49411 1.37305 3.53195C1.37305 3.56978 1.3806 3.60723 1.39525 3.64211C1.40991 3.67699 1.43138 3.70859 1.4584 3.73507L4.78153 6.97507C4.83989 7.03196 4.91816 7.06379 4.99965 7.06379C5.08115 7.06379 5.15942 7.03196 5.21778 6.97507L8.54091 3.7357C8.56812 3.7092 8.58975 3.67752 8.60452 3.64252C8.61929 3.60753 8.6269 3.56993 8.6269 3.53195C8.6269 3.49396 8.61929 3.45636 8.60452 3.42137C8.58975 3.38638 8.56812 3.35469 8.54091 3.3282C8.4851 3.27368 8.41017 3.24316 8.33216 3.24316C8.25414 3.24316 8.17922 3.27368 8.12341 3.3282V3.32882Z" fill="black"/>
</svg>
