<svg width="49" height="49" viewBox="0 0 49 49" fill="none" xmlns="http://www.w3.org/2000/svg">
<path d="M24.5 40.3229C33.2383 40.3229 40.3229 33.2384 40.3229 24.5C40.3229 23.9375 40.2933 23.3822 40.2361 22.835C40.1606 22.1062 40.7078 21.4375 41.4407 21.4375C42.1216 21.4375 42.7096 21.9296 42.778 22.6074C42.8423 23.2301 42.875 23.861 42.875 24.5C42.875 34.6481 34.6481 42.875 24.5 42.875C14.3519 42.875 6.125 34.6481 6.125 24.5C6.125 14.3519 14.3519 6.12502 24.5 6.12502C29.2617 6.11854 33.8386 7.9669 37.2604 11.2782V8.42189C37.2604 8.08346 37.3949 7.7589 37.6342 7.51959C37.8735 7.28029 38.198 7.14585 38.5365 7.14585C38.8749 7.14585 39.1995 7.28029 39.4388 7.51959C39.6781 7.7589 39.8125 8.08346 39.8125 8.42189V15.0573C39.8125 15.7617 39.2408 16.3334 38.5365 16.3334H31.901C31.5626 16.3334 31.238 16.1989 30.9987 15.9596C30.7594 15.7203 30.625 15.3957 30.625 15.0573C30.625 14.7189 30.7594 14.3943 30.9987 14.155C31.238 13.9157 31.5626 13.7813 31.901 13.7813H36.1395C34.6592 12.1701 32.86 10.8844 30.8563 10.0057C28.8525 9.12703 26.688 8.67458 24.5 8.6771C15.7617 8.6771 8.67708 15.7617 8.67708 24.5C8.67708 33.2384 15.7617 40.3229 24.5 40.3229Z" fill="black" fill-opacity="0.7"/>
<path d="M20.0897 18.6715V31.2715H17.7497V20.6335H15.0857V18.6715H20.0897ZM33.8212 28.4095H31.5892V31.2715H29.3212V28.4095H22.4092V26.7895L28.6192 18.6715H31.1212L25.2712 26.4295H29.3932V23.8915H31.5892V26.4295H33.8212V28.4095Z" fill="black" fill-opacity="0.7"/>
</svg>
