<svg width="49" height="49" viewBox="0 0 49 49" fill="none" xmlns="http://www.w3.org/2000/svg">
<path d="M17.0487 27.7988L4 40.8478" stroke="black" stroke-opacity="0.7" stroke-width="3"/>
<path d="M21.2989 32.0469L8.25 45.0956" stroke="black" stroke-opacity="0.7" stroke-width="3"/>
<path d="M8.25117 45.0957C7.97217 45.3747 7.64095 45.5961 7.2764 45.7471C6.91186 45.8981 6.52114 45.9758 6.12656 45.9758C5.73198 45.9758 5.34126 45.8981 4.97672 45.7471C4.61218 45.5961 4.28095 45.3747 4.00195 45.0957" stroke="black" stroke-opacity="0.7" stroke-width="3" stroke-linecap="round" stroke-linejoin="round"/>
<path d="M4.00101 40.8477C3.4376 41.4111 3.12109 42.1753 3.12109 42.9721C3.12109 43.7689 3.4376 44.533 4.00101 45.0965" stroke="black" stroke-opacity="0.7" stroke-width="3" stroke-linecap="round" stroke-linejoin="round"/>
<path d="M46.0636 16.5534C46.0635 20.1391 44.6391 23.578 42.1036 26.1135C39.568 28.6489 36.1292 30.0734 32.5434 30.0734C28.9577 30.0733 25.5189 28.6489 22.9834 26.1134C20.4479 23.5779 19.0235 20.1391 19.0234 16.5534C19.0234 12.9676 20.4479 9.52876 22.9833 6.99324C25.5188 4.45772 28.9577 3.03325 32.5434 3.0332C36.1292 3.0332 39.5681 4.45765 42.1036 6.99317C44.6391 9.5287 46.0636 12.9676 46.0636 16.5534Z" stroke="black" stroke-opacity="0.7" stroke-width="3" stroke-linecap="round" stroke-linejoin="round"/>
<path d="M17.0508 27.7988L21.2998 32.0479" stroke="black" stroke-opacity="0.7" stroke-width="3" stroke-linecap="round" stroke-linejoin="round"/>
<path d="M19.1758 29.9223L22.9848 26.1133" stroke="black" stroke-opacity="0.7" stroke-width="3" stroke-linecap="round" stroke-linejoin="round"/>
<path d="M13.4219 31.4258L17.6711 35.6746" stroke="black" stroke-opacity="0.7" stroke-width="3" stroke-linecap="round" stroke-linejoin="round"/>
<path d="M40.0541 16.5527C40.0541 17.5391 39.8599 18.5158 39.4824 19.4271C39.1049 20.3384 38.5517 21.1665 37.8542 21.8639C37.1567 22.5614 36.3287 23.1147 35.4174 23.4921C34.5061 23.8696 33.5294 24.0639 32.543 24.0639" stroke="black" stroke-opacity="0.7" stroke-width="3" stroke-linecap="round" stroke-linejoin="round"/>
</svg>
