<svg width="21" height="25" viewBox="0 0 21 25" fill="none" xmlns="http://www.w3.org/2000/svg">
<path d="M15.5 13.75C16.9587 13.75 18.3576 14.3295 19.3891 15.3609C20.4205 16.3924 21 17.7913 21 19.25C21 20.7087 20.4205 22.1076 19.3891 23.1391C18.3576 24.1705 16.9587 24.75 15.5 24.75C14.0413 24.75 12.6424 24.1705 11.6109 23.1391C10.5795 22.1076 10 20.7087 10 19.25C10 17.7913 10.5795 16.3924 11.6109 15.3609C12.6424 14.3295 14.0413 13.75 15.5 13.75ZM10 1.51734e-08C10.96 -8.629e-05 11.8835 0.368002 12.5802 1.02844C13.2769 1.68888 13.6938 2.59137 13.745 3.55L13.75 3.75H19.25C19.44 3.75006 19.6229 3.82224 19.7618 3.95197C19.9006 4.0817 19.9851 4.2593 19.998 4.44888C20.011 4.63846 19.9515 4.82589 19.8316 4.9733C19.7117 5.12071 19.5402 5.2171 19.352 5.243L19.25 5.25H18.191L17.557 13.082C17.0774 12.9222 16.5806 12.8192 16.077 12.775L16.687 5.25H3.313L4.524 20.182C4.56973 20.7454 4.82587 21.271 5.24148 21.6542C5.65709 22.0374 6.2017 22.2501 6.767 22.25L9.733 22.251C10.02 22.802 10.384 23.307 10.81 23.751L6.767 23.75C5.82484 23.7501 4.91719 23.3955 4.22457 22.7568C3.53195 22.1181 3.10513 21.2421 3.029 20.303L1.808 5.25H0.75C0.568762 5.24999 0.393658 5.18436 0.25707 5.06523C0.120481 4.94611 0.0316483 4.78155 0.00699997 4.602L0 4.5C7.6429e-06 4.31876 0.0656429 4.14366 0.184767 4.00707C0.303892 3.87048 0.468446 3.78165 0.648 3.757L0.75 3.75H6.25C6.25 2.75544 6.64509 1.80161 7.34835 1.09835C8.05161 0.395088 9.00544 1.51734e-08 10 1.51734e-08ZM13.024 16.774C12.9303 16.8678 12.8776 16.9949 12.8776 17.1275C12.8776 17.2601 12.9303 17.3872 13.024 17.481L14.793 19.251L13.026 21.017C12.9321 21.1108 12.8793 21.238 12.8792 21.3706C12.8791 21.5033 12.9317 21.6306 13.0255 21.7245C13.1193 21.8184 13.2465 21.8712 13.3791 21.8713C13.5118 21.8714 13.6391 21.8188 13.733 21.725L15.5 19.958L17.27 21.727C17.3161 21.7748 17.3713 21.8128 17.4323 21.8391C17.4933 21.8653 17.5589 21.879 17.6253 21.8796C17.6917 21.8802 17.7575 21.8676 17.819 21.8424C17.8804 21.8173 17.9363 21.7801 17.9832 21.7332C18.0301 21.6863 18.0673 21.6304 18.0924 21.569C18.1176 21.5075 18.1302 21.4417 18.1296 21.3753C18.129 21.3089 18.1153 21.2433 18.0891 21.1823C18.0628 21.1213 18.0248 21.0661 17.977 21.02L16.208 19.25L17.979 17.48C18.0701 17.3857 18.1205 17.2594 18.1193 17.1283C18.1182 16.9972 18.0656 16.8718 17.9729 16.7791C17.8802 16.6864 17.7548 16.6338 17.6237 16.6327C17.4926 16.6315 17.3663 16.6819 17.272 16.773L15.501 18.543L13.731 16.773C13.6372 16.6793 13.5101 16.6266 13.3775 16.6266C13.2449 16.6266 13.1178 16.6793 13.024 16.773V16.774ZM10 1.5C9.42987 1.49993 8.88098 1.7163 8.46425 2.10537C8.04751 2.49444 7.79402 3.02721 7.755 3.596L7.75 3.75H12.25L12.245 3.596C12.206 3.02721 11.9525 2.49444 11.5358 2.10537C11.119 1.7163 10.5701 1.49993 10 1.5Z" fill="#A6A5A5"/>
</svg>
