<svg width="46" height="46" viewBox="0 0 46 46" fill="none" xmlns="http://www.w3.org/2000/svg">
<rect width="46" height="46" rx="5" fill="white"/>
<rect x="3" y="3" width="40" height="40" rx="6" fill="#74789F" fill-opacity="0.15"/>
<path d="M35.3952 16.5897C35.0073 15.6915 34.448 14.8776 33.7486 14.1936C33.0486 13.5074 32.2234 12.9622 31.3177 12.5875C30.3786 12.1974 29.3713 11.9977 28.3544 12C26.9277 12 25.5358 12.3907 24.3262 13.1286C24.0368 13.3051 23.7619 13.499 23.5014 13.7103C23.241 13.499 22.9661 13.3051 22.6767 13.1286C21.4671 12.3907 20.0751 12 18.6484 12C17.6211 12 16.6256 12.1968 15.6851 12.5875C14.7765 12.9637 13.9575 13.5048 13.2543 14.1936C12.554 14.8769 11.9946 15.6909 11.6077 16.5897C11.2055 17.5244 11 18.517 11 19.5385C11 20.5021 11.1968 21.5063 11.5875 22.5278C11.9145 23.3815 12.3833 24.267 12.9823 25.1612C13.9315 26.5763 15.2366 28.0522 16.8572 29.5483C19.5426 32.0283 22.2021 33.7415 22.315 33.811L23.0008 34.2508C23.3046 34.4447 23.6953 34.4447 23.9992 34.2508L24.685 33.811C24.7979 33.7386 27.4544 32.0283 30.1428 29.5483C31.7634 28.0522 33.0685 26.5763 34.0177 25.1612C34.6167 24.267 35.0884 23.3815 35.4125 22.5278C35.8032 21.5063 36 20.5021 36 19.5385C36.0029 18.517 35.7974 17.5244 35.3952 16.5897ZM23.5014 31.9618C23.5014 31.9618 13.1993 25.3609 13.1993 19.5385C13.1993 16.5897 15.6388 14.1993 18.6484 14.1993C20.7638 14.1993 22.5986 15.38 23.5014 17.1048C24.4043 15.38 26.239 14.1993 28.3544 14.1993C31.364 14.1993 33.8035 16.5897 33.8035 19.5385C33.8035 25.3609 23.5014 31.9618 23.5014 31.9618Z" fill="#74789F"/>
</svg>
