<svg width="45" height="45" viewBox="0 0 45 45" fill="none" xmlns="http://www.w3.org/2000/svg">
<rect width="45" height="45" rx="5" fill="white"/>
<path d="M34.4193 15.5085C34.047 14.6262 33.51 13.8267 32.8386 13.1547C32.1667 12.4808 31.3745 11.9452 30.505 11.5771C29.6035 11.1939 28.6365 10.9977 27.6602 11C26.2906 11 24.9544 11.3838 23.7931 12.1087C23.5153 12.2821 23.2514 12.4725 23.0014 12.68C22.7513 12.4725 22.4874 12.2821 22.2096 12.1087C21.0484 11.3838 19.7121 11 18.3425 11C17.3563 11 16.4006 11.1933 15.4977 11.5771C14.6254 11.9466 13.8392 12.4782 13.1641 13.1547C12.4918 13.826 11.9548 14.6256 11.5834 15.5085C11.1972 16.4266 11 17.4017 11 18.4051C11 19.3517 11.1889 20.3381 11.564 21.3416C11.8779 22.1802 12.3279 23.05 12.903 23.9284C13.8142 25.3184 15.0671 26.7682 16.6229 28.2379C19.2009 30.674 21.754 32.3568 21.8624 32.4251L22.5208 32.8572C22.8125 33.0476 23.1875 33.0476 23.4792 32.8572L24.1376 32.4251C24.246 32.354 26.7963 30.674 29.3771 28.2379C30.9328 26.7682 32.1858 25.3184 33.097 23.9284C33.672 23.05 34.1249 22.1802 34.436 21.3416C34.8111 20.3381 35 19.3517 35 18.4051C35.0027 17.4017 34.8055 16.4266 34.4193 15.5085ZM23.0014 30.6086C23.0014 30.6086 13.1114 24.1245 13.1114 18.4051C13.1114 15.5085 15.4533 13.1604 18.3425 13.1604C20.3733 13.1604 22.1346 14.3202 23.0014 16.0145C23.8681 14.3202 25.6295 13.1604 27.6602 13.1604C30.5495 13.1604 32.8914 15.5085 32.8914 18.4051C32.8914 24.1245 23.0014 30.6086 23.0014 30.6086Z" fill="#74789F"/>
</svg>
