<svg width="28" height="28" viewBox="0 0 28 28" fill="none" xmlns="http://www.w3.org/2000/svg">
<path fill-rule="evenodd" clip-rule="evenodd" d="M5.18525 4.66667C5.04795 4.66743 4.91649 4.72231 4.8194 4.8194C4.72231 4.91649 4.66743 5.04795 4.66667 5.18525C4.66667 15.2092 12.7907 23.3333 22.8147 23.3333C22.952 23.3326 23.0835 23.2777 23.1806 23.1806C23.2777 23.0835 23.3326 22.952 23.3333 22.8147V18.97C23.3326 18.8327 23.2777 18.7012 23.1806 18.6042C23.0835 18.5071 22.952 18.4522 22.8147 18.4514C21.3862 18.4514 19.9914 18.221 18.6982 17.794L18.6923 17.7917C18.6021 17.7621 18.5055 17.7582 18.4132 17.7803C18.3209 17.8024 18.2366 17.8498 18.1697 17.9171L15.4455 20.6412L15.0675 20.4476C11.8411 18.7944 9.19508 16.1613 7.55242 12.9319L7.35992 12.5545L10.0841 9.83033C10.1533 9.7625 10.2022 9.67678 10.2255 9.58273C10.2488 9.48868 10.2455 9.39002 10.2159 9.29775C9.77948 7.97065 9.55813 6.58227 9.56025 5.18525C9.55948 5.04795 9.5046 4.91649 9.40751 4.8194C9.31043 4.72231 9.17897 4.66743 9.04167 4.66667H5.18525ZM3.5 5.18525C3.50077 4.73853 3.67857 4.31033 3.99445 3.99445C4.31033 3.67857 4.73853 3.50077 5.18525 3.5H9.04167C9.48839 3.50077 9.91659 3.67857 10.2325 3.99445C10.5483 4.31033 10.7261 4.73853 10.7269 5.18525C10.7269 6.50008 10.9369 7.76067 11.3254 8.93608L11.3266 8.93958L11.3278 8.94367C11.5115 9.52758 11.3773 10.1862 10.9083 10.6552L8.7885 12.7756C10.271 15.4946 12.5057 17.7289 15.225 19.2109L17.3448 17.0917C17.5658 16.8705 17.8441 16.7154 18.1485 16.6439C18.4528 16.5724 18.7711 16.5872 19.0674 16.6868C20.2769 17.0837 21.5418 17.2853 22.8147 17.2842C23.2615 17.2849 23.6897 17.4627 24.0055 17.7786C24.3214 18.0945 24.4992 18.5227 24.5 18.9694V22.8147C24.4992 23.2615 24.3214 23.6897 24.0055 24.0055C23.6897 24.3214 23.2615 24.4992 22.8147 24.5C12.1462 24.5 3.5 15.8538 3.5 5.18525Z" fill="black"/>
</svg>
