<svg width="356" height="324" viewBox="0 0 356 324" fill="none" xmlns="http://www.w3.org/2000/svg">
<g filter="url(#filter0_d_1581_1125)">
<path d="M232.314 273.662H123.499C108.683 273.662 96.668 261.669 96.668 246.88V99.6562C96.668 84.8671 108.683 72.8739 123.499 72.8739H232.301C247.117 72.8739 259.132 84.8671 259.132 99.6562V246.88C259.145 261.682 247.13 273.662 232.314 273.662Z" fill="#D9E0E5"/>
</g>
<path d="M224.332 257.92H131.484C120.804 257.92 112.152 249.284 112.152 238.623V107.926C112.152 97.2654 120.804 88.6297 131.484 88.6297H224.332C235.012 88.6297 243.663 97.2654 243.663 107.926V238.61C243.676 249.271 235.012 257.92 224.332 257.92Z" fill="white"/>
<path d="M213.126 63.2192H187.957C186.674 63.2192 185.444 62.3961 185.222 61.1419C184.24 55.7332 179.502 51.644 173.809 51.644C168.115 51.644 163.377 55.7463 162.396 61.1419C162.173 62.3961 160.943 63.2192 159.66 63.2192H135.774C131.507 63.2192 128.039 66.6813 128.039 70.9403C128.039 75.1994 131.507 78.6615 135.774 78.6615H213.139C217.406 78.6615 220.874 75.1994 220.874 70.9403C220.861 66.6813 217.406 63.2192 213.126 63.2192ZM174.437 71.7503C170.785 71.7503 167.827 68.7978 167.827 65.1528C167.827 61.5078 170.785 58.5552 174.437 58.5552C178.088 58.5552 181.046 61.5078 181.046 65.1528C181.046 68.7978 178.088 71.7503 174.437 71.7503Z" fill="#98BE2A"/>
<path d="M177.553 181.823C175.661 181.823 174.716 180.353 174.716 177.414C174.716 175.591 175.115 173.95 175.912 172.492C176.732 171.011 178.008 169.37 179.74 167.57C181.495 165.747 182.805 164.14 183.671 162.75C184.56 161.361 185.004 159.8 185.004 158.068C185.004 156.313 184.434 154.866 183.295 153.727C182.156 152.588 180.663 152.018 178.817 152.018C176.994 152.018 175.308 152.554 173.759 153.625C171.138 155.447 169.612 156.359 169.179 156.359C167.652 156.359 166.889 155.493 166.889 153.761C166.889 152.029 168.017 150.355 170.272 148.737C172.528 147.119 175.206 146.31 178.305 146.31H179.638C183.078 146.31 185.972 147.358 188.319 149.455C190.666 151.528 191.84 154.194 191.84 157.453V158.102C191.84 162.204 189.835 166.123 185.824 169.86C182.93 172.549 181.256 174.201 180.8 174.816C180.367 175.408 180.014 176.559 179.74 178.268C179.49 179.954 179.353 180.82 179.33 180.866C178.988 181.504 178.396 181.823 177.553 181.823ZM178.852 187.36C180.333 187.36 181.073 188.226 181.073 189.958C181.119 190.14 181.142 190.277 181.142 190.368L181.21 191.085V191.222L181.073 192.316C181.073 193.159 180.709 193.888 179.979 194.503C179.25 195.096 178.362 195.392 177.313 195.392H176.767L175.81 195.255C174.192 195.255 173.383 194.367 173.383 192.589L173.28 191.769V190.778L173.417 189.752C173.417 189.114 173.668 188.545 174.169 188.043C174.693 187.519 175.377 187.257 176.22 187.257L177.04 187.155H177.484C178.031 187.292 178.487 187.36 178.852 187.36Z" fill="#98BE2A"/>
<defs>
<filter id="filter0_d_1581_1125" x="81.668" y="61.8739" width="192.465" height="230.789" filterUnits="userSpaceOnUse" color-interpolation-filters="sRGB">
<feFlood flood-opacity="0" result="BackgroundImageFix"/>
<feColorMatrix in="SourceAlpha" type="matrix" values="0 0 0 0 0 0 0 0 0 0 0 0 0 0 0 0 0 0 127 0" result="hardAlpha"/>
<feOffset dy="4"/>
<feGaussianBlur stdDeviation="7.5"/>
<feComposite in2="hardAlpha" operator="out"/>
<feColorMatrix type="matrix" values="0 0 0 0 0 0 0 0 0 0 0 0 0 0 0 0 0 0 0.25 0"/>
<feBlend mode="normal" in2="BackgroundImageFix" result="effect1_dropShadow_1581_1125"/>
<feBlend mode="normal" in="SourceGraphic" in2="effect1_dropShadow_1581_1125" result="shape"/>
</filter>
</defs>
</svg>
