<svg width="25" height="25" viewBox="0 0 25 25" fill="none" xmlns="http://www.w3.org/2000/svg">
<g clip-path="url(#clip0_593_3089)">
<path d="M2.19993 19.54V15.76L0.429932 12.68L2.19993 9.35998V5.57998L5.39993 4.38998L9.06993 0.47998L12.7099 1.66998L16.2899 0.47998L18.6599 3.32998L22.6799 5.45998V9.23998L24.5699 12.44L23.0399 15.87L23.1499 19.07L19.8399 20.85L16.6399 24.52L12.7099 23.8L9.18993 24.52L5.86993 21.44L2.19993 19.54Z" stroke="#1E1E1C" stroke-width="0.5" stroke-miterlimit="10"/>
<path d="M7.12988 17.41L17.3899 7.46997" stroke="#1E1E1C" stroke-width="0.5" stroke-miterlimit="10"/>
<path d="M9.07999 11.26C10.2343 11.26 11.17 10.3242 11.17 9.16996C11.17 8.01568 10.2343 7.07996 9.07999 7.07996C7.92572 7.07996 6.98999 8.01568 6.98999 9.16996C6.98999 10.3242 7.92572 11.26 9.07999 11.26Z" stroke="#1E1E1C" stroke-width="0.5" stroke-miterlimit="10"/>
<path d="M15.9201 18.31C17.0744 18.31 18.0101 17.3743 18.0101 16.22C18.0101 15.0657 17.0744 14.13 15.9201 14.13C14.7658 14.13 13.8301 15.0657 13.8301 16.22C13.8301 17.3743 14.7658 18.31 15.9201 18.31Z" stroke="#1E1E1C" stroke-width="0.5" stroke-miterlimit="10"/>
</g>
<defs>
<clipPath id="clip0_593_3089">
<rect width="25" height="25" fill="white"/>
</clipPath>
</defs>
</svg>
