<svg width="49" height="49" viewBox="0 0 49 49" fill="none" xmlns="http://www.w3.org/2000/svg">
<path d="M41.3437 18.3751C41.3464 15.5363 40.6315 12.7429 39.2655 10.2544C37.8995 7.76584 35.9267 5.66291 33.5304 4.14095C31.1341 2.619 28.392 1.72738 25.5588 1.54894C22.7256 1.3705 19.8933 1.91101 17.3249 3.12028C14.7566 4.32954 12.5355 6.16833 10.8681 8.46581C9.20066 10.7633 8.14094 13.4449 7.78739 16.2616C7.43385 19.0783 7.79793 21.9387 8.84583 24.577C9.89372 27.2153 11.5914 29.546 13.7812 31.3525V45.9376C13.7797 46.1989 13.8459 46.4562 13.9733 46.6843C14.1008 46.9124 14.2852 47.1036 14.5086 47.2392C14.7302 47.3785 14.9837 47.4586 15.2451 47.472C15.5065 47.4854 15.7669 47.4316 16.0016 47.3158L24.5 43.0474L32.9984 47.3158C33.2158 47.4118 33.4499 47.4638 33.6875 47.4689C34.0936 47.4689 34.4831 47.3075 34.7703 47.0204C35.0574 46.7332 35.2187 46.3437 35.2187 45.9376V31.3525C37.1343 29.7756 38.677 27.7942 39.736 25.5504C40.795 23.3067 41.3441 20.8562 41.3437 18.3751ZM10.7187 18.3751C10.7187 15.6494 11.527 12.985 13.0413 10.7187C14.5556 8.45235 16.7079 6.68597 19.2261 5.6429C21.7443 4.59983 24.5153 4.32692 27.1886 4.85867C29.8619 5.39042 32.3175 6.70296 34.2448 8.6303C36.1722 10.5576 37.4847 13.0132 38.0164 15.6865C38.5482 18.3598 38.2753 21.1308 37.2322 23.649C36.1891 26.1672 34.4228 28.3195 32.1564 29.8338C29.8901 31.3481 27.2257 32.1564 24.5 32.1564C20.8465 32.1513 17.3442 30.6977 14.7608 28.1143C12.1774 25.531 10.7238 22.0286 10.7187 18.3751ZM32.1562 43.4685L25.1891 39.9658C24.9741 39.8623 24.7386 39.8085 24.5 39.8085C24.2614 39.8085 24.0259 39.8623 23.8109 39.9658L16.8437 43.4685V33.3814C19.215 34.5897 21.8386 35.2197 24.5 35.2197C27.1614 35.2197 29.785 34.5897 32.1562 33.3814V43.4685Z" fill="black" fill-opacity="0.7"/>
<path d="M23.902 23.8205C23.5181 24.1994 22.9999 24.411 22.4605 24.4091C21.9211 24.4072 21.4044 24.1919 21.0232 23.8103L16.5777 19.3646C16.0162 18.8031 16.0264 17.8946 16.6083 17.3535C17.1596 16.8227 18.0375 16.8431 18.5683 17.3739L22.4626 21.2684L29.0265 14.7045C29.5778 14.1532 30.4659 14.1532 31.0172 14.7045L31.058 14.7453C31.6093 15.2965 31.6093 16.1949 31.0478 16.7461L23.902 23.8205Z" fill="black" fill-opacity="0.7"/>
</svg>
