<svg width="29" height="29" viewBox="0 0 29 29" fill="none" xmlns="http://www.w3.org/2000/svg">
<path d="M23.5398 14.9078L24.9105 7.3293C24.9223 7.26411 24.9203 7.19719 24.9047 7.13282C24.8891 7.06844 24.8602 7.00804 24.8199 6.95547C24.7761 6.90544 24.7221 6.8654 24.6616 6.83804C24.601 6.81068 24.5352 6.79664 24.4688 6.79687H5.81133L5.19961 3.38711C5.14379 3.07305 4.9793 2.78862 4.73493 2.5836C4.49056 2.37858 4.18187 2.26602 3.86289 2.26562H1.8125C1.69232 2.26562 1.57707 2.31336 1.49209 2.39834C1.40711 2.48332 1.35938 2.59857 1.35938 2.71875C1.35938 2.83893 1.40711 2.95418 1.49209 3.03916C1.57707 3.12413 1.69232 3.17187 1.8125 3.17187H3.86289C3.96857 3.17289 4.07057 3.21081 4.15124 3.27907C4.23192 3.34733 4.2862 3.44165 4.30469 3.5457L7.46523 20.9117C7.02092 21.2349 6.68496 21.6852 6.50164 22.2032C6.31832 22.7211 6.29624 23.2825 6.4383 23.8132C6.58037 24.344 6.87992 24.8193 7.29747 25.1764C7.71502 25.5335 8.23098 25.7557 8.77735 25.8138C9.32372 25.8719 9.87486 25.763 10.3581 25.5016C10.8414 25.2402 11.2341 24.8385 11.4846 24.3494C11.735 23.8603 11.8313 23.3069 11.7609 22.762C11.6906 22.217 11.4567 21.7062 11.0902 21.2969H18.816C18.4011 21.7608 18.1579 22.3531 18.127 22.9748C18.0962 23.5965 18.2797 24.2099 18.6467 24.7126C19.0138 25.2153 19.5422 25.5768 20.1438 25.7368C20.7453 25.8968 21.3835 25.8455 21.9518 25.5915C22.5201 25.3375 22.984 24.8962 23.266 24.3414C23.5481 23.7865 23.6312 23.1516 23.5015 22.5429C23.3718 21.9341 23.0372 21.3882 22.5534 20.9965C22.0697 20.6048 21.4662 20.3909 20.8438 20.3906H8.29219L7.62383 16.7656H21.3082C21.8389 16.7663 22.3529 16.5807 22.7608 16.2412C23.1686 15.9017 23.4443 15.4298 23.5398 14.9078ZM10.875 23.1094C10.875 23.4679 10.7687 23.8183 10.5695 24.1163C10.3704 24.4144 10.0873 24.6467 9.75611 24.7839C9.42492 24.9211 9.06049 24.957 8.7089 24.887C8.35731 24.8171 8.03435 24.6445 7.78087 24.391C7.52739 24.1375 7.35476 23.8146 7.28483 23.463C7.21489 23.1114 7.25078 22.7469 7.38797 22.4158C7.52515 22.0846 7.75747 21.8015 8.05553 21.6023C8.35359 21.4032 8.70402 21.2969 9.0625 21.2969C9.54321 21.2969 10.0042 21.4878 10.3441 21.8277C10.684 22.1677 10.875 22.6287 10.875 23.1094ZM22.6563 23.1094C22.6563 23.4679 22.5499 23.8183 22.3508 24.1163C22.1516 24.4144 21.8686 24.6467 21.5374 24.7839C21.2062 24.9211 20.8417 24.957 20.4902 24.887C20.1386 24.8171 19.8156 24.6445 19.5621 24.391C19.3086 24.1375 19.136 23.8146 19.0661 23.463C18.9961 23.1114 19.032 22.7469 19.1692 22.4158C19.3064 22.0846 19.5387 21.8015 19.8368 21.6023C20.1348 21.4032 20.4853 21.2969 20.8438 21.2969C21.3245 21.2969 21.7855 21.4878 22.1254 21.8277C22.4653 22.1677 22.6563 22.6287 22.6563 23.1094ZM5.98125 7.70312H23.925L22.6449 14.7379C22.5912 15.0529 22.4273 15.3387 22.1825 15.5441C21.9376 15.7495 21.6278 15.8612 21.3082 15.8594H7.46523L5.98125 7.70312Z" fill="black"/>
</svg>
