<svg width="25" height="25" viewBox="0 0 25 25" fill="none" xmlns="http://www.w3.org/2000/svg">
<g clip-path="url(#clip0_593_3077)">
<path opacity="0.98" d="M21.74 20.71V18.88H8.85005L0.800049 10.98V13.99L7.51005 20.71H7.48005L5.32005 24.54H7.57005L9.64005 20.71H19.6101L21.74 24.54H24.17L21.74 20.71Z" stroke="#1E1E1C" stroke-width="0.5" stroke-miterlimit="10"/>
<path d="M17.13 17.7601H10.21L12.46 14.9301H17.13C17.5039 14.9301 17.8626 15.0786 18.127 15.343C18.3914 15.6075 18.54 15.9661 18.54 16.3401C18.54 16.7149 18.3917 17.0746 18.1276 17.3406C17.8635 17.6066 17.5048 17.7574 17.13 17.7601V17.7601Z" stroke="#1E1E1C" stroke-width="0.5" stroke-miterlimit="10"/>
<path d="M11.9399 15.59L10.2199 17.75L4.87988 12.42L6.87988 10.59C7.06237 10.4297 7.29697 10.3413 7.53988 10.3413C7.78279 10.3413 8.01739 10.4297 8.19988 10.59L11.9199 14.31C12.0724 14.4874 12.1579 14.7126 12.1615 14.9464C12.1652 15.1803 12.0868 15.408 11.9399 15.59Z" stroke="#1E1E1C" stroke-width="0.5" stroke-miterlimit="10"/>
<path d="M2.59053 8.55584C2.80432 8.34205 3.09428 8.22194 3.39663 8.22194C3.69897 8.22194 3.98894 8.34205 4.20273 8.55584L6.50083 10.8539L4.88862 12.4661L2.59053 10.168C2.37673 9.95425 2.25663 9.66429 2.25663 9.36194C2.25663 9.05959 2.37673 8.76963 2.59053 8.55584V8.55584Z" stroke="#1E1E1C" stroke-width="0.5" stroke-miterlimit="10"/>
<path d="M6.46001 7.87998C7.39889 7.87998 8.16001 7.11886 8.16001 6.17998C8.16001 5.2411 7.39889 4.47998 6.46001 4.47998C5.52113 4.47998 4.76001 5.2411 4.76001 6.17998C4.76001 7.11886 5.52113 7.87998 6.46001 7.87998Z" stroke="#1E1E1C" stroke-width="0.5" stroke-miterlimit="10"/>
<path d="M20.72 4.10999C20.5999 3.0936 20.117 2.15469 19.3601 1.46578C18.6032 0.776862 17.6232 0.384218 16.6 0.359985C15.5762 0.382134 14.595 0.774065 13.8377 1.46337C13.0803 2.15267 12.5981 3.09277 12.48 4.10999H20.72Z" stroke="#1E1E1C" stroke-width="0.5" stroke-miterlimit="10"/>
<path d="M16.6001 12.68V4.15002" stroke="#1E1E1C" stroke-width="0.5" stroke-miterlimit="10"/>
<path d="M12.48 4.10999V5.48998" stroke="#1E1E1C" stroke-width="0.5" stroke-miterlimit="10"/>
<path d="M20.72 4.10999V5.48998" stroke="#1E1E1C" stroke-width="0.5" stroke-miterlimit="10"/>
<path d="M14.8501 4.22998V5.60998" stroke="#1E1E1C" stroke-width="0.5" stroke-miterlimit="10"/>
<path d="M18.3601 4.22998V5.60998" stroke="#1E1E1C" stroke-width="0.5" stroke-miterlimit="10"/>
</g>
<defs>
<clipPath id="clip0_593_3077">
<rect width="25" height="25" fill="white"/>
</clipPath>
</defs>
</svg>
