<svg width="25" height="25" viewBox="0 0 25 25" fill="none" xmlns="http://www.w3.org/2000/svg">
<g clip-path="url(#clip0_624_711)">
<path d="M6.60156 13.9399L14.8116 14.0599" stroke="#1E1E1C" stroke-miterlimit="10"/>
<path d="M10.7391 12.5801C11.4018 12.5801 11.9391 12.0428 11.9391 11.3801C11.9391 10.7173 11.4018 10.1801 10.7391 10.1801C10.0763 10.1801 9.53906 10.7173 9.53906 11.3801C9.53906 12.0428 10.0763 12.5801 10.7391 12.5801Z" stroke="#1E1E1C" stroke-miterlimit="10"/>
<path d="M20.8992 5.37998C21.562 5.37998 22.0992 4.84272 22.0992 4.17998C22.0992 3.51724 21.562 2.97998 20.8992 2.97998C20.2365 2.97998 19.6992 3.51724 19.6992 4.17998C19.6992 4.84272 20.2365 5.37998 20.8992 5.37998Z" stroke="#1E1E1C" stroke-miterlimit="10"/>
<path d="M10.6609 17.82C11.3237 17.82 11.8609 17.2828 11.8609 16.62C11.8609 15.9573 11.3237 15.42 10.6609 15.42C9.9982 15.42 9.46094 15.9573 9.46094 16.62C9.46094 17.2828 9.9982 17.82 10.6609 17.82Z" stroke="#1E1E1C" stroke-miterlimit="10"/>
<path d="M12.7611 1.47995L1.4611 12.7799C1.07577 13.1661 0.859375 13.6894 0.859375 14.2349C0.859375 14.7805 1.07577 15.3038 1.4611 15.6899L9.3411 23.5699C9.52806 23.7682 9.75356 23.9261 10.0038 24.0341C10.254 24.142 10.5236 24.1977 10.7961 24.1977C11.0686 24.1977 11.3382 24.142 11.5884 24.0341C11.8386 23.9261 12.0641 23.7682 12.2511 23.5699L23.5411 12.2799C23.7337 12.0912 23.8861 11.8654 23.9892 11.6163C24.0924 11.3671 24.144 11.0996 24.1411 10.8299V1.63995C24.1411 1.42247 24.0547 1.2139 23.9009 1.06012C23.7471 0.906339 23.5386 0.819946 23.3211 0.819946L14.2011 0.879946C13.6616 0.886598 13.1457 1.10159 12.7611 1.47995V1.47995Z" stroke="#1E1E1C" stroke-miterlimit="10"/>
</g>
<defs>
<clipPath id="clip0_624_711">
<rect width="25" height="25" fill="white"/>
</clipPath>
</defs>
</svg>
