<svg width="13" height="10" viewBox="0 0 13 10" fill="none" xmlns="http://www.w3.org/2000/svg">
<path d="M3.89433 7.64433L1.26933 5.01933C1.20069 4.94985 1.11894 4.89469 1.02882 4.85704C0.938696 4.81939 0.841999 4.8 0.74433 4.8C0.646661 4.8 0.549963 4.81939 0.459843 4.85704C0.369722 4.89469 0.287972 4.94985 0.21933 5.01933C0.14985 5.08797 0.0946861 5.16972 0.0570365 5.25984C0.0193868 5.34996 0 5.44666 0 5.54433C0 5.642 0.0193868 5.7387 0.0570365 5.82882C0.0946861 5.91894 0.14985 6.00069 0.21933 6.06933L3.36183 9.21183C3.65433 9.50433 4.12683 9.50433 4.41933 9.21183L12.3693 1.26933C12.4388 1.20069 12.494 1.11894 12.5316 1.02882C12.5693 0.938696 12.5887 0.841998 12.5887 0.744329C12.5887 0.646661 12.5693 0.549963 12.5316 0.459843C12.494 0.369722 12.4388 0.287972 12.3693 0.21933C12.3007 0.14985 12.2189 0.094686 12.1288 0.0570363C12.0387 0.0193866 11.942 0 11.8443 0C11.7467 0 11.65 0.0193866 11.5598 0.0570363C11.4697 0.094686 11.388 0.14985 11.3193 0.21933L3.89433 7.64433Z" fill="white"/>
</svg>
