<svg width="25" height="25" viewBox="0 0 25 25" fill="none" xmlns="http://www.w3.org/2000/svg">
<path d="M20.9201 0.369995H4.09006C3.38313 0.369995 2.81006 0.943071 2.81006 1.65V23.35C2.81006 24.0569 3.38313 24.63 4.09006 24.63H20.9201C21.627 24.63 22.2001 24.0569 22.2001 23.35V1.65C22.2001 0.943071 21.627 0.369995 20.9201 0.369995Z" stroke="#1E1E1C" stroke-width="0.5" stroke-miterlimit="10"/>
<path d="M2.83008 5.10999H22.1701" stroke="#1E1E1C" stroke-width="0.5" stroke-miterlimit="10"/>
<path d="M2.83008 6.59003H22.1701" stroke="#1E1E1C" stroke-width="0.5" stroke-miterlimit="10"/>
<path d="M5.41001 3.97999C6.04514 3.97999 6.56001 3.46512 6.56001 2.82999C6.56001 2.19487 6.04514 1.67999 5.41001 1.67999C4.77488 1.67999 4.26001 2.19487 4.26001 2.82999C4.26001 3.46512 4.77488 3.97999 5.41001 3.97999Z" stroke="#1E1E1C" stroke-width="0.5" stroke-miterlimit="10"/>
<path d="M8.67002 3.97999C9.30515 3.97999 9.82002 3.46512 9.82002 2.82999C9.82002 2.19487 9.30515 1.67999 8.67002 1.67999C8.03489 1.67999 7.52002 2.19487 7.52002 2.82999C7.52002 3.46512 8.03489 3.97999 8.67002 3.97999Z" stroke="#1E1E1C" stroke-width="0.5" stroke-miterlimit="10"/>
<path d="M11.93 3.97999C12.5652 3.97999 13.08 3.46512 13.08 2.82999C13.08 2.19487 12.5652 1.67999 11.93 1.67999C11.2949 1.67999 10.78 2.19487 10.78 2.82999C10.78 3.46512 11.2949 3.97999 11.93 3.97999Z" stroke="#1E1E1C" stroke-width="0.5" stroke-miterlimit="10"/>
<path d="M20.7399 2.83002H14.1699" stroke="#1E1E1C" stroke-width="0.5" stroke-miterlimit="10" stroke-linecap="round"/>
<path d="M12.3599 22.09C15.9111 22.09 18.7899 19.2112 18.7899 15.66C18.7899 12.1088 15.9111 9.22998 12.3599 9.22998C8.80874 9.22998 5.92993 12.1088 5.92993 15.66C5.92993 19.2112 8.80874 22.09 12.3599 22.09Z" stroke="#1E1E1C" stroke-width="0.5" stroke-miterlimit="10"/>
<path d="M12.2299 20.71C15.0135 20.71 17.2699 18.4535 17.2699 15.67C17.2699 12.8865 15.0135 10.63 12.2299 10.63C9.44643 10.63 7.18994 12.8865 7.18994 15.67C7.18994 18.4535 9.44643 20.71 12.2299 20.71Z" stroke="#1E1E1C" stroke-width="0.5" stroke-miterlimit="10"/>
<path d="M16.7799 13.43H14.1799C14.0384 13.4326 13.9036 13.4907 13.8045 13.5916C13.7054 13.6926 13.6499 13.8285 13.6499 13.97V16.88C13.6499 16.9496 13.6636 17.0185 13.6902 17.0828C13.7169 17.1471 13.7559 17.2055 13.8051 17.2548C13.8544 17.304 13.9128 17.343 13.9771 17.3696C14.0414 17.3963 14.1103 17.41 14.1799 17.41H16.9999" stroke="#1E1E1C" stroke-width="0.5" stroke-miterlimit="10"/>
</svg>
