<svg width="25" height="25" viewBox="0 0 25 25" fill="none" xmlns="http://www.w3.org/2000/svg">
<path d="M12.4002 23.44C18.4698 23.44 23.3902 18.5196 23.3902 12.45C23.3902 6.38035 18.4698 1.45996 12.4002 1.45996C6.33055 1.45996 1.41016 6.38035 1.41016 12.45C1.41016 18.5196 6.33055 23.44 12.4002 23.44Z" stroke="#1E1E1C" stroke-miterlimit="10"/>
<path d="M12.7892 6.84003L14.3792 10.07C14.4084 10.1335 14.453 10.1887 14.5088 10.2306C14.5647 10.2725 14.6302 10.2998 14.6992 10.31L18.2692 10.83C18.3481 10.8438 18.4216 10.8788 18.4821 10.9312C18.5425 10.9837 18.5875 11.0516 18.6121 11.1277C18.6368 11.2038 18.6403 11.2853 18.6222 11.3632C18.604 11.4411 18.565 11.5126 18.5092 11.57L15.9292 14.08C15.8796 14.129 15.8421 14.1888 15.8195 14.2547C15.7969 14.3207 15.79 14.3909 15.7992 14.46L16.4092 18C16.4212 18.0795 16.4112 18.1608 16.3802 18.235C16.3492 18.3092 16.2985 18.3735 16.2336 18.4209C16.1687 18.4683 16.092 18.497 16.0119 18.5039C15.9318 18.5108 15.8513 18.4956 15.7792 18.46L12.5892 16.78C12.5284 16.7508 12.4618 16.7356 12.3942 16.7356C12.3267 16.7356 12.2601 16.7508 12.1992 16.78L8.99924 18.47C8.9267 18.5038 8.84632 18.5172 8.76674 18.5087C8.68717 18.5002 8.61142 18.4702 8.54764 18.4218C8.48387 18.3735 8.43449 18.3087 8.40482 18.2343C8.37514 18.16 8.3663 18.079 8.37924 18L8.99924 14.46C9.00848 14.3909 9.00155 14.3207 8.97899 14.2547C8.95643 14.1888 8.91886 14.129 8.86924 14.08L6.27924 11.57C6.22335 11.512 6.18449 11.4397 6.16688 11.361C6.14927 11.2824 6.1536 11.2004 6.1794 11.1241C6.20519 11.0477 6.25146 10.9799 6.31315 10.9281C6.37484 10.8762 6.44959 10.8423 6.52924 10.83L10.0892 10.31C10.1583 10.2998 10.2238 10.2725 10.2796 10.2306C10.3355 10.1887 10.3801 10.1335 10.4092 10.07L11.9992 6.84003C12.0355 6.76617 12.0917 6.70396 12.1615 6.66045C12.2314 6.61694 12.312 6.59387 12.3942 6.59387C12.4765 6.59387 12.5571 6.61694 12.627 6.66045C12.6968 6.70396 12.753 6.76617 12.7892 6.84003V6.84003Z" stroke="#1E1E1C" stroke-miterlimit="10"/>
</svg>
