<svg width="24" height="22" viewBox="0 0 24 22" fill="none" xmlns="http://www.w3.org/2000/svg">
<g clip-path="url(#clip0_667_11859)">
<path d="M19.3441 21.0625H4.26136C4.00052 21.0625 3.78906 21.2715 3.78906 21.5293V21.5344C3.78906 21.7922 4.00052 22.0012 4.26136 22.0012H19.3441C19.605 22.0012 19.8164 21.7922 19.8164 21.5344V21.5293C19.8164 21.2715 19.605 21.0625 19.3441 21.0625Z" fill="#74789F"/>
<path d="M11.3301 5.03732L11.3301 21.2988C11.3301 21.5566 11.5415 21.7656 11.8024 21.7656H11.8075C12.0684 21.7656 12.2798 21.5566 12.2798 21.2988L12.2798 5.03732C12.2798 4.77952 12.0684 4.57051 11.8075 4.57051H11.8024C11.5415 4.57051 11.3301 4.77952 11.3301 5.03732Z" fill="#74789F"/>
<path d="M19.811 -0.021483L4.08997 4.77633C3.84074 4.8524 3.70106 5.11374 3.77802 5.36006L3.77953 5.36492C3.85649 5.61124 4.12094 5.74925 4.37017 5.67319L20.0912 0.875374C20.3404 0.799311 20.4801 0.537968 20.4032 0.291643L20.4016 0.28679C20.3247 0.0404655 20.0602 -0.0975453 19.811 -0.021483Z" fill="#74789F"/>
<path d="M11.803 5.60157C12.8322 5.60157 13.6665 4.47485 13.6665 3.08496C13.6665 1.69508 12.8322 0.568359 11.803 0.568359C10.7738 0.568359 9.93945 1.69508 9.93945 3.08496C9.93945 4.47485 10.7738 5.60157 11.803 5.60157Z" fill="#74789F"/>
<path d="M11.8022 4.50522C12.3919 4.50522 12.87 3.82373 12.87 2.98308C12.87 2.14242 12.3919 1.46094 11.8022 1.46094C11.2124 1.46094 10.7344 2.14242 10.7344 2.98308C10.7344 3.82373 11.2124 4.50522 11.8022 4.50522Z" fill="white"/>
<path d="M4.08428 6.69683L0.0573133 14.4577C-0.0617153 14.6871 0.0299733 14.9684 0.262076 15.0861L0.266621 15.0884C0.498723 15.206 0.783387 15.1154 0.902416 14.886L4.92938 7.12516C5.04841 6.89577 4.95671 6.61446 4.72461 6.49682L4.72006 6.49452C4.48796 6.37688 4.20331 6.46743 4.08428 6.69683Z" fill="#74789F"/>
<path d="M4.11886 7.14217L8.14581 14.903C8.26484 15.1324 8.5495 15.223 8.78161 15.1053L8.78615 15.103C9.01825 14.9854 9.10994 14.7041 8.99091 14.4747L4.96396 6.71383C4.84493 6.48444 4.56025 6.39383 4.32815 6.51147L4.32361 6.51377C4.0915 6.63141 3.99983 6.91277 4.11886 7.14217Z" fill="#74789F"/>
<path d="M4.53222 18.2345C5.5011 18.2421 6.44035 17.9048 7.1784 17.2844C7.91644 16.664 8.40398 15.8018 8.55187 14.8554C8.55681 14.7858 8.54719 14.716 8.52361 14.6503C8.50003 14.5846 8.46299 14.5244 8.41482 14.4734C8.36665 14.4225 8.30836 14.3819 8.24361 14.3542C8.17886 14.3265 8.10905 14.3123 8.0385 14.3125H0.995097C0.924547 14.3123 0.854705 14.3265 0.789956 14.3542C0.725207 14.3819 0.666922 14.4225 0.61875 14.4734C0.570578 14.5244 0.533569 14.5846 0.509991 14.6503C0.486412 14.716 0.476789 14.7858 0.481728 14.8554C0.628303 15.8079 1.11971 16.6755 1.86467 17.297C2.60962 17.9185 3.5575 18.2516 4.53222 18.2345Z" stroke="#74789F" stroke-width="1.28342" stroke-miterlimit="10"/>
<path d="M19.01 2.33943L14.9831 10.1002C14.8641 10.3296 14.9557 10.611 15.1878 10.7286L15.1924 10.7309C15.4245 10.8486 15.7092 10.758 15.8282 10.5286L19.8551 2.76775C19.9742 2.53836 19.8825 2.25702 19.6504 2.13938L19.6458 2.13706C19.4137 2.01942 19.1291 2.11004 19.01 2.33943Z" fill="#74789F"/>
<path d="M19.0466 2.7867L23.0735 10.5475C23.1926 10.7769 23.4772 10.8675 23.7093 10.7499L23.7139 10.7476C23.946 10.6299 24.0376 10.3486 23.9186 10.1192L19.8917 2.35837C19.7726 2.12898 19.488 2.03836 19.2559 2.156L19.2513 2.15832C19.0192 2.27596 18.9276 2.5573 19.0466 2.7867Z" fill="#74789F"/>
<path d="M19.4621 13.8773C20.4307 13.8857 21.3699 13.5487 22.1073 12.9279C22.8447 12.3072 23.3309 11.4445 23.4767 10.4981C23.4816 10.4285 23.472 10.3587 23.4484 10.293C23.4249 10.2273 23.3878 10.1671 23.3396 10.1161C23.2915 10.0652 23.2332 10.0246 23.1684 9.99695C23.1037 9.96926 23.0339 9.95503 22.9633 9.9552H15.9404C15.8699 9.95503 15.8 9.96926 15.7353 9.99695C15.6706 10.0246 15.6123 10.0652 15.5641 10.1161C15.5159 10.1671 15.4789 10.2273 15.4553 10.293C15.4317 10.3587 15.4221 10.4285 15.427 10.4981C15.5753 11.4471 16.0651 12.3114 16.8063 12.9322C17.5476 13.5529 18.4906 13.8885 19.4621 13.8773Z" stroke="#74789F" stroke-width="1.28342" stroke-miterlimit="10"/>
</g>
<defs>
<clipPath id="clip0_667_11859">
<rect width="24" height="22" fill="white"/>
</clipPath>
</defs>
</svg>
