<svg width="40" height="40" viewBox="0 0 40 40" fill="none" xmlns="http://www.w3.org/2000/svg">
<path d="M9.56797 19.84C11.998 19.84 13.968 17.8701 13.968 15.44C13.968 13.01 11.998 11.04 9.56797 11.04C7.13792 11.04 5.16797 13.01 5.16797 15.44C5.16797 17.8701 7.13792 19.84 9.56797 19.84Z" stroke="#1E1E1C" stroke-miterlimit="10"/>
<path d="M15.9032 25.312C15.7347 23.7737 14.9919 22.3555 13.8232 21.341C12.6545 20.3266 11.146 19.7905 9.59922 19.84C8.01669 19.7596 6.46478 20.297 5.27079 21.3387C4.0768 22.3805 3.33406 23.8452 3.19922 25.424V27.936C3.19922 28.2373 3.3189 28.5263 3.53195 28.7393C3.74499 28.9524 4.03393 29.072 4.33522 29.072H14.7672C14.9164 29.072 15.0641 29.0427 15.2019 28.9856C15.3398 28.9285 15.465 28.8448 15.5705 28.7393C15.676 28.6338 15.7597 28.5086 15.8167 28.3708C15.8738 28.2329 15.9032 28.0852 15.9032 27.936V25.312Z" stroke="#1E1E1C" stroke-miterlimit="10"/>
<path d="M20 12.528H37.888" stroke="#1E1E1C" stroke-miterlimit="10" stroke-linecap="round"/>
<path d="M20 20H30.432" stroke="#1E1E1C" stroke-miterlimit="10" stroke-linecap="round"/>
<path d="M20.2227 27.472H35.1987" stroke="#1E1E1C" stroke-miterlimit="10" stroke-linecap="round"/>
</svg>
