<svg width="34" height="36" viewBox="0 0 34 36" fill="none" xmlns="http://www.w3.org/2000/svg">
<path d="M8 21.4117C8 20.3072 8.89543 19.4117 10 19.4117H13.4375C14.5421 19.4117 15.4375 20.3072 15.4375 21.4117V24.8235C15.4375 25.9281 14.5421 26.8235 13.4375 26.8235H10C8.89543 26.8235 8 25.9281 8 24.8235V21.4117Z" fill="black"/>
<path d="M18.4375 21.4117C18.4375 20.3072 19.3329 19.4117 20.4375 19.4117H23.875C24.9796 19.4117 25.875 20.3072 25.875 21.4117V24.8235C25.875 25.9281 24.9796 26.8235 23.875 26.8235H20.4375C19.3329 26.8235 18.4375 25.9281 18.4375 24.8235V21.4117Z" fill="black"/>
<path d="M8 11C8 9.89543 8.89543 9 10 9H13.4375C14.5421 9 15.4375 9.89543 15.4375 11V14.4118C15.4375 15.5163 14.5421 16.4118 13.4375 16.4118H10C8.89543 16.4118 8 15.5163 8 14.4118V11Z" fill="black"/>
<path d="M20.733 8.87015C21.5141 8.0891 22.7804 8.0891 23.5614 8.87015L25.9921 11.3008C26.7732 12.0819 26.7732 13.3482 25.9921 14.1293L23.5796 16.5417C22.7986 17.3228 21.5322 17.3228 20.7512 16.5417L18.3205 14.1111C17.5395 13.33 17.5395 12.0637 18.3205 11.2826L20.733 8.87015Z" fill="black"/>
</svg>
