<svg width="40" height="42" viewBox="0 0 40 42" fill="none" xmlns="http://www.w3.org/2000/svg">
<path d="M11.4116 23.147H16.1616C16.99 23.147 17.6616 23.8185 17.6616 24.647V29.2944C17.6614 30.1227 16.9899 30.7944 16.1616 30.7944H11.4116C10.5833 30.7944 9.91184 30.1227 9.91162 29.2944V24.647C9.91162 23.8185 10.5832 23.147 11.4116 23.147Z" stroke="black"/>
<path d="M23.6914 23.147H28.4414C29.2698 23.147 29.9414 23.8185 29.9414 24.647V29.2944C29.9412 30.1227 29.2697 30.7944 28.4414 30.7944H23.6914C22.8631 30.7944 22.1916 30.1227 22.1914 29.2944V24.647C22.1914 23.8185 22.863 23.147 23.6914 23.147Z" stroke="black"/>
<path d="M11.4116 11H16.1616C16.99 11 17.6616 11.6716 17.6616 12.5V17.1475C17.6614 17.9757 16.9899 18.6475 16.1616 18.6475H11.4116C10.5833 18.6475 9.91184 17.9757 9.91162 17.1475V12.5C9.91162 11.6716 10.5832 11 11.4116 11Z" stroke="black"/>
<path d="M27.1208 10.4588L30.4679 13.7781C31.0559 14.3614 31.0561 15.3072 30.4679 15.8905L27.1422 19.1884C26.5541 19.7716 25.6003 19.7715 25.0121 19.1884L21.6649 15.8692C21.0767 15.2859 21.0768 14.3401 21.6649 13.7568L24.9906 10.4588C25.5788 9.87551 26.5325 9.87551 27.1208 10.4588Z" stroke="black"/>
</svg>
