<svg width="36" height="36" viewBox="0 0 36 36" fill="none" xmlns="http://www.w3.org/2000/svg">
<path d="M17.9984 18C19.9867 18 21.5984 16.3883 21.5984 14.4C21.5984 12.4118 19.9867 10.8 17.9984 10.8C16.0102 10.8 14.3984 12.4118 14.3984 14.4C14.3984 16.3883 16.0102 18 17.9984 18Z" stroke="#1E1E1C" stroke-width="0.79" stroke-miterlimit="10"/>
<path d="M23.4 22.2784C23.2877 21.0675 22.7098 19.9467 21.7873 19.1505C20.8647 18.3542 19.669 17.9442 18.45 18.0061C17.2185 17.9453 16.0118 18.3661 15.0872 19.1788C14.1625 19.9915 13.593 21.1319 13.5 22.3569V24.3203C13.5 24.5536 13.593 24.7773 13.7586 24.9422C13.9241 25.1072 14.1487 25.1999 14.3828 25.1999H22.5014C22.6187 25.2019 22.7352 25.1807 22.8441 25.1375C22.953 25.0942 23.0522 25.0297 23.1359 24.9479C23.2195 24.866 23.286 24.7683 23.3313 24.6605C23.3767 24.5528 23.4 24.4371 23.4 24.3203V22.2784Z" stroke="#1E1E1C" stroke-width="0.79" stroke-miterlimit="10"/>
<path d="M26.6023 2.69995H9.3961C8.1828 2.69995 7.19922 3.6674 7.19922 4.86081V30.2391C7.19922 31.4325 8.1828 32.3999 9.3961 32.3999H26.6023C27.8156 32.3999 28.7992 31.4325 28.7992 30.2391V4.86081C28.7992 3.6674 27.8156 2.69995 26.6023 2.69995Z" stroke="#1E1E1C" stroke-miterlimit="10"/>
<path d="M4.5 8.09998H9.9" stroke="#1E1E1C" stroke-miterlimit="10" stroke-linecap="round"/>
<path d="M4.5 18H9.9" stroke="#1E1E1C" stroke-miterlimit="10" stroke-linecap="round"/>
<path d="M4.5 27.9H9.9" stroke="#1E1E1C" stroke-miterlimit="10" stroke-linecap="round"/>
</svg>
