<svg width="37" height="37" viewBox="0 0 37 37" fill="none" xmlns="http://www.w3.org/2000/svg">
<path d="M18.3952 22.4212C22.2205 22.4212 25.3216 19.3201 25.3216 15.4948C25.3216 11.6694 22.2205 8.56836 18.3952 8.56836C14.5698 8.56836 11.4688 11.6694 11.4688 15.4948C11.4688 19.3201 14.5698 22.4212 18.3952 22.4212Z" stroke="#1E1E1C" stroke-miterlimit="10"/>
<path d="M18.5 34.6172C27.4013 34.6172 34.6172 27.4013 34.6172 18.5C34.6172 9.59873 27.4013 2.38281 18.5 2.38281C9.59873 2.38281 2.38281 9.59873 2.38281 18.5C2.38281 27.4013 9.59873 34.6172 18.5 34.6172Z" stroke="#1E1E1C" stroke-miterlimit="10"/>
<path d="M28.3714 31.0792C28.1108 28.645 26.936 26.4004 25.0845 24.7989C23.2329 23.1973 20.8426 22.3581 18.3963 22.4508C15.9209 22.3537 13.5031 23.2124 11.6435 24.8489C9.78379 26.4854 8.62471 28.7744 8.40625 31.242" stroke="#1E1E1C" stroke-miterlimit="10"/>
</svg>
