<svg width="36" height="36" viewBox="0 0 36 36" fill="none" xmlns="http://www.w3.org/2000/svg">
<path d="M27.7347 14.5946H8.26217C6.38501 14.5946 4.86328 16.2001 4.86328 18.1805V29.4952C4.86328 31.4756 6.38501 33.0811 8.26217 33.0811H27.7347C29.6118 33.0811 31.1336 31.4756 31.1336 29.4952V18.1805C31.1336 16.2001 29.6118 14.5946 27.7347 14.5946Z" stroke="#1E1E1C" stroke-miterlimit="10"/>
<path d="M12.6484 14.5945V9.62794C12.6484 8.10664 13.2635 6.64765 14.3583 5.57192C15.4531 4.4962 16.938 3.89186 18.4863 3.89186V3.89186C19.2534 3.89002 20.0134 4.03713 20.7225 4.32474C21.4317 4.61235 22.076 5.0348 22.6184 5.56781C23.1609 6.10082 23.5908 6.73389 23.8835 7.43066C24.1763 8.12743 24.326 8.87415 24.3241 9.62794V14.5945" stroke="#1E1E1C" stroke-width="0.97" stroke-miterlimit="10"/>
<path d="M18.0993 27.9072C19.2047 27.9072 20.1009 25.857 20.1009 23.328C20.1009 20.799 19.2047 18.7488 18.0993 18.7488C16.9938 18.7488 16.0977 20.799 16.0977 23.328C16.0977 25.857 16.9938 27.9072 18.0993 27.9072Z" fill="#1E1E1C"/>
</svg>
