<svg width="24" height="24" viewBox="0 0 24 24" fill="none" xmlns="http://www.w3.org/2000/svg">
<path d="M20.05 13H3.95C3.42533 13 3 13.4253 3 13.95V14.05C3 14.5747 3.42533 15 3.95 15H20.05C20.5747 15 21 14.5747 21 14.05V13.95C21 13.4253 20.5747 13 20.05 13Z" fill="white"/>
<path d="M20.05 20H3.95C3.42533 20 3 20.4253 3 20.95V21.05C3 21.5747 3.42533 22 3.95 22H20.05C20.5747 22 21 21.5747 21 21.05V20.95C21 20.4253 20.5747 20 20.05 20Z" fill="white"/>
<path d="M20.05 6H3.95C3.42533 6 3 6.42533 3 6.95V7.05C3 7.57467 3.42533 8 3.95 8H20.05C20.5747 8 21 7.57467 21 7.05V6.95C21 6.42533 20.5747 6 20.05 6Z" fill="white"/>
</svg>
