<svg width="25" height="25" viewBox="0 0 25 25" fill="none" xmlns="http://www.w3.org/2000/svg">
<path d="M20.8786 1.65002H3.69859C2.65478 1.65002 1.80859 2.49621 1.80859 3.54002V21.46C1.80859 22.5038 2.65478 23.35 3.69859 23.35H20.8786C21.9224 23.35 22.7686 22.5038 22.7686 21.46V3.54002C22.7686 2.49621 21.9224 1.65002 20.8786 1.65002Z" stroke="#1D1D1B" stroke-miterlimit="10" stroke-linecap="round"/>
<path d="M7.60938 7.46002H19.9794" stroke="#1D1D1B" stroke-miterlimit="10" stroke-linecap="round"/>
<path d="M7.60938 12.37H19.9794" stroke="#1D1D1B" stroke-miterlimit="10" stroke-linecap="round"/>
<path d="M7.60938 17.28H19.9794" stroke="#1D1D1B" stroke-miterlimit="10" stroke-linecap="round"/>
<path d="M5.38984 8.25997C5.83167 8.25997 6.18984 7.9018 6.18984 7.45997C6.18984 7.01815 5.83167 6.65997 5.38984 6.65997C4.94802 6.65997 4.58984 7.01815 4.58984 7.45997C4.58984 7.9018 4.94802 8.25997 5.38984 8.25997Z" fill="#1D1D1B"/>
<path d="M5.38984 13.17C5.83167 13.17 6.18984 12.8118 6.18984 12.37C6.18984 11.9282 5.83167 11.57 5.38984 11.57C4.94802 11.57 4.58984 11.9282 4.58984 12.37C4.58984 12.8118 4.94802 13.17 5.38984 13.17Z" fill="#1D1D1B"/>
<path d="M5.38984 18.08C5.83167 18.08 6.18984 17.7218 6.18984 17.28C6.18984 16.8382 5.83167 16.48 5.38984 16.48C4.94802 16.48 4.58984 16.8382 4.58984 17.28C4.58984 17.7218 4.94802 18.08 5.38984 18.08Z" fill="#1D1D1B"/>
</svg>
