<svg width="25" height="25" viewBox="0 0 25 25" fill="none" xmlns="http://www.w3.org/2000/svg">
<path d="M6.1 18.8401H4.15C3.8353 18.8414 3.52344 18.7805 3.23232 18.661C2.94119 18.5415 2.67654 18.3656 2.45355 18.1436C2.23055 17.9215 2.05361 17.6576 1.93288 17.367C1.81215 17.0764 1.75 16.7648 1.75 16.4501V5.67005C1.75 5.35535 1.81215 5.04374 1.93288 4.75312C2.05361 4.4625 2.23055 4.19858 2.45355 3.97652C2.67654 3.75446 2.94119 3.57862 3.23232 3.4591C3.52344 3.33958 3.8353 3.27873 4.15 3.28005H20.42C21.0548 3.28004 21.6637 3.53153 22.1135 3.97945C22.5633 4.42738 22.8174 5.03527 22.82 5.67005V16.4501C22.8174 17.0848 22.5633 17.6927 22.1135 18.1406C21.6637 18.5886 21.0548 18.8401 20.42 18.8401H10.7" stroke="#1D1D1B" stroke-miterlimit="10" stroke-linecap="round"/>
<path d="M10.7003 18.84L6.52032 23.05C6.48456 23.0883 6.43806 23.1148 6.38693 23.1263C6.33579 23.1377 6.2824 23.1334 6.23375 23.1139C6.1851 23.0944 6.14347 23.0607 6.11431 23.0172C6.08515 22.9737 6.06981 22.9224 6.07032 22.87V18.87" stroke="#1D1D1B" stroke-miterlimit="10" stroke-linecap="round"/>
</svg>
