<svg width="462" height="421" viewBox="0 0 462 421" fill="none" xmlns="http://www.w3.org/2000/svg">
<path d="M385.771 97.7806H76.248C70.901 97.7806 66.5664 102.113 66.5664 107.457V285.72C66.5664 291.064 70.901 295.396 76.248 295.396H385.771C391.118 295.396 395.453 291.064 395.453 285.72V107.457C395.453 102.113 391.118 97.7806 385.771 97.7806Z" stroke="#D9E0E5" stroke-width="6.87" stroke-miterlimit="10"/>
<path d="M387.761 102H74.2393C71.898 102 70 103.896 70 106.234V287.766C70 290.104 71.898 292 74.2393 292H387.761C390.102 292 392 290.104 392 287.766V106.234C392 103.896 390.102 102 387.761 102Z" fill="white" stroke="#AEBEC4" stroke-width="1.72" stroke-miterlimit="10"/>
<g filter="url(#filter0_d_1581_1131)">
<path d="M31.543 303.867H430.46C430.457 306.412 429.953 308.932 428.976 311.282C427.999 313.632 426.568 315.767 424.765 317.564C422.962 319.361 420.823 320.786 418.468 321.756C416.114 322.727 413.592 323.224 411.045 323.219H50.9572C48.4107 323.224 45.8883 322.727 43.5342 321.756C41.18 320.786 39.0403 319.361 37.2373 317.564C35.4343 315.767 34.0034 313.632 33.0263 311.282C32.0493 308.932 31.5452 306.412 31.543 303.867Z" fill="#D9E0E5"/>
</g>
<path d="M412.082 304.071L49.9216 304.071C49.9216 302.688 50.471 301.363 51.4489 300.386C52.4268 299.408 53.7531 298.859 55.1361 298.859L406.868 298.859C408.251 298.859 409.577 299.408 410.555 300.386C411.533 301.363 412.082 302.688 412.082 304.071Z" fill="#98BE2A"/>
<path d="M263.85 310.046H198.151L194.855 303.85H267.145L263.85 310.046Z" fill="#98BE2A"/>
<path d="M145.41 212.826V206.697L176.748 166.618H186.209L155.126 206.697L150.659 205.305H199.61V212.826H145.41ZM179.381 227.883V212.826L179.653 205.305V191.996H187.873V227.883H179.381Z" fill="#98BE2A"/>
<path d="M229.912 228.579C225.357 228.646 220.883 227.365 217.054 224.895C213.136 222.252 210.045 218.557 208.137 214.235C205.772 208.894 204.613 203.098 204.74 197.259C204.612 191.42 205.771 185.624 208.137 180.283C210.046 175.956 213.136 172.256 217.054 169.605C220.899 167.209 225.339 165.939 229.87 165.939C234.401 165.939 238.841 167.209 242.685 169.605C246.63 172.23 249.733 175.938 251.619 180.283C253.915 185.641 255.022 191.432 254.864 197.259C255.022 203.085 253.915 208.877 251.619 214.235C249.733 218.575 246.63 222.278 242.685 224.895C238.885 227.357 234.44 228.639 229.912 228.579ZM229.912 220.787C232.954 220.854 235.934 219.93 238.405 218.156C241.026 216.145 243.004 213.414 244.095 210.296C245.574 206.107 246.265 201.682 246.133 197.242C246.246 192.809 245.556 188.392 244.095 184.204C243.007 181.081 241.029 178.343 238.405 176.328C235.904 174.616 232.943 173.7 229.912 173.7C226.881 173.7 223.921 174.616 221.42 176.328C218.768 178.324 216.775 181.067 215.696 184.204C214.206 188.385 213.503 192.805 213.623 197.242C213.485 201.685 214.188 206.114 215.696 210.296C216.796 213.418 218.786 216.15 221.42 218.156C223.894 219.924 226.872 220.846 229.912 220.787Z" fill="#98BE2A"/>
<path d="M262.391 212.826V206.697L293.745 166.618H303.189L272.106 206.697L267.639 205.305H316.591V212.826H262.391ZM296.446 227.883V212.826L296.718 205.305V191.996H304.956V227.883H296.446Z" fill="#98BE2A"/>
<defs>
<filter id="filter0_d_1581_1131" x="16.543" y="292.867" width="428.918" height="49.3524" filterUnits="userSpaceOnUse" color-interpolation-filters="sRGB">
<feFlood flood-opacity="0" result="BackgroundImageFix"/>
<feColorMatrix in="SourceAlpha" type="matrix" values="0 0 0 0 0 0 0 0 0 0 0 0 0 0 0 0 0 0 127 0" result="hardAlpha"/>
<feOffset dy="4"/>
<feGaussianBlur stdDeviation="7.5"/>
<feComposite in2="hardAlpha" operator="out"/>
<feColorMatrix type="matrix" values="0 0 0 0 0 0 0 0 0 0 0 0 0 0 0 0 0 0 0.25 0"/>
<feBlend mode="normal" in2="BackgroundImageFix" result="effect1_dropShadow_1581_1131"/>
<feBlend mode="normal" in="SourceGraphic" in2="effect1_dropShadow_1581_1131" result="shape"/>
</filter>
</defs>
</svg>
