<svg width="25" height="25" viewBox="0 0 25 25" fill="none" xmlns="http://www.w3.org/2000/svg">
<path d="M5.53906 15.9999V11.1899C5.53906 9.33343 6.27656 7.55295 7.58931 6.24019C8.90207 4.92744 10.6825 4.18994 12.5391 4.18994V4.18994C13.4583 4.18994 14.3686 4.371 15.2178 4.72278C16.0671 5.07457 16.8388 5.59018 17.4888 6.24019C18.1388 6.8902 18.6544 7.66188 19.0062 8.51116C19.358 9.36044 19.5391 10.2707 19.5391 11.1899V15.9999" stroke="#1E1E1C" stroke-miterlimit="10" stroke-linecap="round"/>
<path d="M5.54047 16.26C4.7134 16.5835 4.00296 17.1486 3.50174 17.8817C3.00051 18.6148 2.73174 19.4819 2.73047 20.37H22.2705C22.2629 19.5197 22.0097 18.6898 21.5413 17.9801C21.0729 17.2704 20.4093 16.7113 19.6305 16.37" stroke="#1E1E1C" stroke-miterlimit="10" stroke-linecap="round"/>
<path d="M12.5316 23.41C13.3086 23.41 14.0539 23.1013 14.6034 22.5518C15.1529 22.0023 15.4616 21.2571 15.4616 20.48H9.60156C9.60156 21.2571 9.91026 22.0023 10.4597 22.5518C11.0092 23.1013 11.7545 23.41 12.5316 23.41V23.41Z" stroke="#1E1E1C" stroke-miterlimit="10" stroke-linecap="round"/>
<path d="M12.5206 4.35998C13.697 4.35998 14.6506 3.74213 14.6506 2.97998C14.6506 2.21782 13.697 1.59998 12.5206 1.59998C11.3443 1.59998 10.3906 2.21782 10.3906 2.97998C10.3906 3.74213 11.3443 4.35998 12.5206 4.35998Z" fill="#1E1E1C"/>
<path d="M10.53 2.47998L9.25 4.96998L11.57 4.20998" fill="#1E1E1C"/>
<path d="M14.5383 2.52002L15.8083 5.01002L13.4883 4.26002" fill="#1E1E1C"/>
</svg>
