<svg width="25" height="25" viewBox="0 0 25 25" fill="none" xmlns="http://www.w3.org/2000/svg">
<path d="M12.5 4.42999C13.2057 3.64561 14.0769 3.02786 15.0506 2.62144C16.0242 2.21502 17.0761 2.03008 18.13 2.07999C19.1929 2.14189 20.2191 2.49074 21.0996 3.08944C21.98 3.68813 22.6817 4.51427 23.13 5.47999C23.6702 6.86918 23.7405 8.3971 23.33 9.82999C22.9138 11.2525 22.2796 12.6018 21.45 13.83C19.0807 17.4011 16.0576 20.492 12.54 22.94" stroke="#1D1D1B" stroke-miterlimit="10" stroke-linecap="round"/>
<path d="M12.5 4.42999C11.7943 3.64561 10.9231 3.02786 9.94941 2.62144C8.97573 2.21502 7.92388 2.03008 6.86996 2.07999C5.80706 2.14189 4.78081 2.49074 3.90038 3.08944C3.01995 3.68813 2.31827 4.51427 1.86996 5.47999C1.32973 6.86918 1.25949 8.3971 1.66996 9.82999C2.08615 11.2525 2.72035 12.6018 3.54996 13.83C5.91928 17.4011 8.94236 20.492 12.46 22.94" stroke="#1D1D1B" stroke-miterlimit="10" stroke-linecap="round"/>
</svg>
