<svg width="20" height="11" viewBox="0 0 20 11" fill="none" xmlns="http://www.w3.org/2000/svg">
<path d="M18.226 0.231277L9.79184 8.45278L1.35771 0.231277C1.20702 0.0840892 1.00473 0.00168738 0.794081 0.00168738C0.583435 0.00168738 0.381146 0.0840892 0.230456 0.231277C0.157492 0.302767 0.0995266 0.388096 0.0599547 0.482269C0.0203828 0.576442 0 0.677565 0 0.779714C0 0.881864 0.0203828 0.982986 0.0599547 1.07716C0.0995266 1.17133 0.157492 1.25666 0.230456 1.32815L9.2029 10.0762C9.36047 10.2297 9.5718 10.3157 9.79184 10.3157C10.0119 10.3157 10.2232 10.2297 10.3808 10.0762L19.3532 1.32984C19.4267 1.2583 19.4851 1.17276 19.525 1.07827C19.5649 0.983786 19.5854 0.88227 19.5854 0.779714C19.5854 0.677158 19.5649 0.575641 19.525 0.481156C19.4851 0.386671 19.4267 0.301132 19.3532 0.229589C19.2025 0.082401 19.0002 0 18.7896 0C18.5789 0 18.3767 0.082401 18.226 0.229589V0.231277Z" fill="black"/>
</svg>
