<svg width="20" height="11" viewBox="0 0 20 11" fill="none" xmlns="http://www.w3.org/2000/svg">
<path d="M1.35997 10.0844L9.7941 1.8629L18.2282 10.0844C18.3789 10.2316 18.5812 10.314 18.7919 10.314C19.0025 10.314 19.2048 10.2316 19.3555 10.0844C19.4284 10.0129 19.4864 9.92758 19.526 9.8334C19.5656 9.73923 19.5859 9.63811 19.5859 9.53596C19.5859 9.43381 19.5656 9.33269 19.526 9.23852C19.4864 9.14434 19.4284 9.05901 19.3555 8.98752L10.383 0.239519C10.2255 0.0859338 10.0141 -2.3725e-05 9.7941 -2.37442e-05C9.57406 -2.37634e-05 9.36273 0.0859337 9.20516 0.239519L0.232716 8.98583C0.159237 9.05738 0.100834 9.14292 0.0609551 9.2374C0.0210782 9.33189 0.000534135 9.4334 0.000534126 9.53596C0.000534117 9.63851 0.0210782 9.74003 0.0609551 9.83452C0.100834 9.929 0.159237 10.0145 0.232716 10.0861C0.383406 10.2333 0.585695 10.3157 0.796343 10.3157C1.00699 10.3157 1.20928 10.2333 1.35997 10.0861L1.35997 10.0844Z" fill="black"/>
</svg>
