<svg width="24" height="24" viewBox="0 0 24 24" fill="none" xmlns="http://www.w3.org/2000/svg">
<path d="M11.9023 5.97986C11.309 5.97986 10.729 6.15581 10.2356 6.48545C9.74229 6.81509 9.35777 7.28363 9.13071 7.83181C8.90364 8.37999 8.84423 8.98319 8.95999 9.56513C9.07574 10.1471 9.36147 10.6816 9.78102 11.1012C10.2006 11.5207 10.7351 11.8065 11.3171 11.9222C11.899 12.038 12.5022 11.9786 13.0504 11.7515C13.5986 11.5244 14.0671 11.1399 14.3968 10.6466C14.7264 10.1532 14.9023 9.5732 14.9023 8.97986C14.9014 8.18449 14.5851 7.42195 14.0227 6.85954C13.4603 6.29713 12.6977 5.98076 11.9023 5.97986ZM11.9023 10.4799C11.6057 10.4799 11.3157 10.3919 11.069 10.2271C10.8223 10.0622 10.6301 9.82797 10.5165 9.55388C10.403 9.27979 10.3733 8.97819 10.4312 8.68722C10.489 8.39625 10.6319 8.12898 10.8417 7.9192C11.0515 7.70942 11.3187 7.56656 11.6097 7.50868C11.9007 7.4508 12.2023 7.48051 12.4764 7.59404C12.7505 7.70757 12.9847 7.89983 13.1495 8.1465C13.3144 8.39318 13.4023 8.68319 13.4023 8.97986C13.4019 9.37754 13.2437 9.75881 12.9625 10.04C12.6813 10.3212 12.3 10.4794 11.9023 10.4799Z" fill="#0B1245"/>
<path d="M17.6666 3.21072C16.2413 1.78574 14.3386 0.939248 12.3259 0.834611C10.3131 0.729973 8.33293 1.37461 6.76751 2.64411C5.20209 3.91361 4.16241 5.71798 3.84912 7.70896C3.53583 9.69994 3.97114 11.7364 5.07105 13.4253L10.7386 22.1259C10.8647 22.3195 11.0371 22.4786 11.2403 22.5887C11.4434 22.6988 11.6708 22.7565 11.9019 22.7565C12.1329 22.7565 12.3604 22.6988 12.5635 22.5887C12.7666 22.4786 12.9391 22.3195 13.0652 22.1259L18.7329 13.4253C19.7535 11.8586 20.2045 9.9887 20.0104 8.12901C19.8163 6.26932 18.9888 4.53287 17.6666 3.21072ZM17.4761 12.6065L11.9019 21.1636L6.32767 12.6065C4.62142 9.98721 4.98737 6.4819 7.19781 4.27136C7.81556 3.6536 8.54893 3.16357 9.35606 2.82924C10.1632 2.49491 11.0283 2.32283 11.9019 2.32283C12.7755 2.32283 13.6406 2.49491 14.4478 2.82924C15.2549 3.16357 15.9883 3.6536 16.606 4.27136C18.8164 6.4819 19.1823 9.98721 17.4761 12.6065Z" fill="#0B1245"/>
</svg>
