<svg width="25" height="25" viewBox="0 0 25 25" fill="none" xmlns="http://www.w3.org/2000/svg">
<g clip-path="url(#clip0_593_3029)">
<path d="M17.2199 1.65002C16.8985 2.66168 16.256 3.54094 15.3898 4.1545C14.5236 4.76806 13.4809 5.08246 12.4199 5.05002" stroke="#1E1E1C" stroke-width="0.5" stroke-miterlimit="10"/>
<path d="M12.3999 24.15C14.5697 24.2576 16.7448 24.174 18.8999 23.9L19.1999 10.48L20.5599 11.56L23.8799 8.16996L20.3499 3.16996L15.5599 0.829956C15.34 1.49798 14.9292 2.08696 14.3783 2.52414C13.8273 2.96132 13.1604 3.22755 12.4599 3.28996" stroke="#1E1E1C" stroke-width="0.5" stroke-miterlimit="10"/>
<path d="M19.1999 10.4801C19.1999 10.4801 18.7599 5.48005 20.3499 3.18005" stroke="#1E1E1C" stroke-width="0.5" stroke-miterlimit="10"/>
<path d="M7.78003 1.65002C8.10146 2.66168 8.74399 3.54094 9.61019 4.1545C10.4764 4.76806 11.519 5.08246 12.58 5.05002" stroke="#1E1E1C" stroke-width="0.5" stroke-miterlimit="10"/>
<path d="M12.6001 24.15C10.4303 24.2576 8.25524 24.174 6.10012 23.9L5.80012 10.48L4.44012 11.56L1.12012 8.16996L4.65012 3.16996L9.44012 0.829956C9.66005 1.49798 10.0709 2.08696 10.6218 2.52414C11.1727 2.96132 11.8396 3.22755 12.5401 3.28996" stroke="#1E1E1C" stroke-width="0.5" stroke-miterlimit="10"/>
<path d="M5.7999 10.4801C5.7999 10.4801 6.2399 5.48005 4.6499 3.18005" stroke="#1E1E1C" stroke-width="0.5" stroke-miterlimit="10"/>
</g>
<defs>
<clipPath id="clip0_593_3029">
<rect width="25" height="25" fill="white"/>
</clipPath>
</defs>
</svg>
