<svg width="30" height="30" viewBox="0 0 30 30" fill="none" xmlns="http://www.w3.org/2000/svg">
<path d="M15.0003 25.2C9.36029 25.2 4.80029 20.64 4.80029 15C4.80029 9.36005 9.36029 4.80005 15.0003 4.80005C20.6403 4.80005 25.2003 9.36005 25.2003 15C25.2003 20.64 20.6403 25.2 15.0003 25.2ZM15.0003 6.00005C10.0203 6.00005 6.00029 10.02 6.00029 15C6.00029 19.98 10.0203 24 15.0003 24C19.9803 24 24.0003 19.98 24.0003 15C24.0003 10.02 19.9803 6.00005 15.0003 6.00005Z" fill="black"/>
<path d="M11.8801 11.7599C12.0601 11.2799 12.2401 10.9199 12.6001 10.6199C12.9001 10.3199 13.2601 10.0799 13.7401 9.89991C14.2201 9.71991 14.7001 9.65991 15.2401 9.65991C15.6601 9.65991 16.0801 9.71991 16.4401 9.83991C16.8001 9.95991 17.1601 10.1399 17.4601 10.3799C17.7601 10.6199 18.0001 10.9199 18.1201 11.2799C18.3001 11.6399 18.3601 12.0599 18.3601 12.4799C18.3601 13.0799 18.2401 13.5599 18.0001 13.9799C17.7601 14.3999 17.4001 14.7599 17.0401 15.1799L16.2601 15.9599C16.0801 16.1399 15.9001 16.3199 15.8401 16.4999C15.7201 16.6799 15.6601 16.9199 15.6601 17.1599C15.6001 17.3999 15.6001 17.5799 15.6001 18.0599H14.6401C14.6401 17.5799 14.6401 17.3999 14.7001 17.0399C14.7601 16.7399 14.8801 16.4399 15.0001 16.1399C15.1201 15.8999 15.3001 15.6599 15.5401 15.4199C15.7801 15.1799 16.0801 14.9399 16.3801 14.5799C16.6801 14.2799 16.9201 13.9799 17.1001 13.6799C17.2801 13.3799 17.4001 12.9599 17.4001 12.5999C17.4001 12.2999 17.3401 11.9999 17.2201 11.7599C17.1001 11.5199 16.9201 11.2799 16.7401 11.0999C16.5601 10.9199 16.3201 10.7999 16.0201 10.6799C15.7201 10.5599 15.4801 10.4999 15.1801 10.4999C14.7601 10.4999 14.4001 10.5599 14.1001 10.7399C13.8001 10.8599 13.5001 11.0999 13.3201 11.3399C13.1401 11.5799 12.9601 11.8799 12.8401 12.2399C12.7201 12.5999 12.6001 12.7799 12.6001 13.1999H11.6401C11.6401 12.6599 11.7001 12.2399 11.8801 11.7599ZM15.6001 19.1999V20.3999H14.4001V19.1999H15.6001Z" fill="black"/>
</svg>
