<svg width="45" height="45" viewBox="0 0 45 45" fill="none" xmlns="http://www.w3.org/2000/svg">
<rect width="45" height="45" rx="5" fill="#0B1245"/>
<g clip-path="url(#clip0_667_11795)">
<path d="M35 22.4875C35 15.5938 29.4 10 22.5 10C15.6 10 10 15.5938 10 22.4875C10 26.2844 11.725 29.7062 14.425 32.0031C14.45 32.0281 14.475 32.0281 14.475 32.0531C14.7 32.2281 14.925 32.4031 15.175 32.5781C15.3 32.6531 15.4 32.7516 15.525 32.8516C17.5907 34.2521 20.0292 35.0006 22.525 35C25.0208 35.0006 27.4593 34.2521 29.525 32.8516C29.65 32.7766 29.75 32.6781 29.875 32.6016C30.1 32.4281 30.35 32.2531 30.575 32.0781C30.6 32.0531 30.625 32.0531 30.625 32.0281C33.275 29.7047 35 26.2844 35 22.4875ZM22.5 33.4266C20.15 33.4266 18 32.6766 16.225 31.4281C16.25 31.2281 16.3 31.0297 16.35 30.8297C16.499 30.2877 16.7174 29.7672 17 29.2812C17.275 28.8062 17.6 28.3813 18 28.0063C18.375 27.6313 18.825 27.2828 19.275 27.0078C19.75 26.7328 20.25 26.5328 20.8 26.3828C21.3543 26.2334 21.9259 26.1583 22.5 26.1594C24.2041 26.1473 25.8457 26.801 27.075 27.9813C27.65 28.5563 28.1 29.2313 28.425 30.0047C28.6 30.4547 28.725 30.9297 28.8 31.4281C26.955 32.7252 24.7554 33.423 22.5 33.4266ZM18.675 21.8641C18.4547 21.3597 18.3439 20.8144 18.35 20.2641C18.35 19.7156 18.45 19.1656 18.675 18.6656C18.9 18.1656 19.2 17.7172 19.575 17.3422C19.95 16.9672 20.4 16.6688 20.9 16.4437C21.4 16.2188 21.95 16.1187 22.5 16.1187C23.075 16.1187 23.6 16.2188 24.1 16.4437C24.6 16.6688 25.05 16.9688 25.425 17.3422C25.8 17.7172 26.1 18.1672 26.325 18.6656C26.55 19.1656 26.65 19.7156 26.65 20.2641C26.65 20.8391 26.55 21.3641 26.325 21.8625C26.1079 22.3551 25.8029 22.8041 25.425 23.1875C25.0415 23.5648 24.5925 23.8693 24.1 24.0859C23.0669 24.5105 21.9081 24.5105 20.875 24.0859C20.3825 23.8693 19.9335 23.5648 19.55 23.1875C19.1716 22.8097 18.8739 22.3589 18.675 21.8625V21.8641ZM30.275 30.1547C30.275 30.1047 30.25 30.0797 30.25 30.0297C30.0041 29.2475 29.6417 28.5069 29.175 27.8328C28.7078 27.1537 28.1337 26.5548 27.475 26.0594C26.9719 25.6809 26.4266 25.3621 25.85 25.1094C26.1123 24.9363 26.3554 24.7357 26.575 24.5109C26.9477 24.143 27.275 23.7317 27.55 23.2859C28.1037 22.3763 28.3896 21.3289 28.375 20.2641C28.3827 19.4758 28.2296 18.6943 27.925 17.9672C27.6243 17.2666 27.1914 16.6306 26.65 16.0938C26.1094 15.5625 25.4732 15.1384 24.775 14.8438C24.0467 14.5397 23.2642 14.3871 22.475 14.3953C21.6857 14.3876 20.9032 14.5407 20.175 14.8453C19.4707 15.1394 18.833 15.5725 18.3 16.1187C17.7688 16.6587 17.3447 17.2944 17.05 17.9922C16.7454 18.7193 16.5923 19.5008 16.6 20.2891C16.6 20.8391 16.675 21.3641 16.825 21.8625C16.975 22.3875 17.175 22.8625 17.45 23.3109C17.7 23.7609 18.05 24.1609 18.425 24.5359C18.65 24.7609 18.9 24.9594 19.175 25.1344C18.5966 25.3938 18.0511 25.7211 17.55 26.1094C16.9 26.6094 16.325 27.2078 15.85 27.8578C15.3785 28.5291 15.0157 29.2705 14.775 30.0547C14.75 30.1047 14.75 30.1547 14.75 30.1797C12.775 28.1812 11.55 25.4844 11.55 22.4875C11.55 16.4688 16.475 11.5484 22.5 11.5484C28.525 11.5484 33.45 16.4688 33.45 22.4875C33.4467 25.3624 32.3052 28.1191 30.275 30.1547Z" fill="white"/>
</g>
<defs>
<clipPath id="clip0_667_11795">
<rect width="25" height="25" fill="white" transform="translate(10 10)"/>
</clipPath>
</defs>
</svg>
