<svg width="45" height="45" viewBox="0 0 45 45" fill="none" xmlns="http://www.w3.org/2000/svg">
<rect width="45" height="45" rx="5" fill="#0B1245"/>
<path d="M15.9976 37C16.9295 37 17.6851 36.2445 17.6851 35.3125C17.6851 34.3805 16.9295 33.625 15.9976 33.625C15.0656 33.625 14.3101 34.3805 14.3101 35.3125C14.3101 36.2445 15.0656 37 15.9976 37Z" fill="white"/>
<path d="M26.25 37C27.182 37 27.9375 36.2445 27.9375 35.3125C27.9375 34.3805 27.182 33.625 26.25 33.625C25.318 33.625 24.5625 34.3805 24.5625 35.3125C24.5625 36.2445 25.318 37 26.25 37Z" fill="white"/>
<path d="M30.8099 17.0275C30.7401 16.9415 30.6521 16.8719 30.5522 16.824C30.4524 16.776 30.3432 16.7507 30.2324 16.75H14.6174L15.1049 18.25H29.2499L27.2474 27.25H15.9974L12.5699 16.3975C12.5328 16.2823 12.4684 16.1779 12.3822 16.093C12.296 16.0081 12.1906 15.9453 12.0749 15.91L8.99987 14.965C8.90532 14.9359 8.80597 14.9258 8.7075 14.9351C8.60902 14.9445 8.51335 14.9731 8.42595 15.0194C8.24943 15.113 8.1173 15.2728 8.05862 15.4637C7.99994 15.6547 8.01952 15.8611 8.11305 16.0377C8.20659 16.2142 8.36641 16.3463 8.55737 16.405L11.2499 17.23L14.6924 28.105L13.4624 29.11L13.3649 29.2075C13.0606 29.5581 12.8882 30.0039 12.8772 30.4679C12.8663 30.932 13.0175 31.3854 13.3049 31.75C13.5093 31.9986 13.7691 32.1959 14.0634 32.3261C14.3577 32.4564 14.6784 32.5159 14.9999 32.5H27.5174C27.7163 32.5 27.907 32.421 28.0477 32.2803C28.1884 32.1397 28.2674 31.9489 28.2674 31.75C28.2674 31.5511 28.1884 31.3603 28.0477 31.2197C27.907 31.079 27.7163 31 27.5174 31H14.8799C14.7935 30.997 14.7094 30.9719 14.6356 30.9269C14.5618 30.8819 14.5008 30.8187 14.4586 30.7433C14.4164 30.6679 14.3943 30.5829 14.3945 30.4965C14.3948 30.4101 14.4173 30.3252 14.4599 30.25L16.2674 28.75H27.8474C28.0207 28.7542 28.1902 28.6983 28.327 28.5916C28.4637 28.4849 28.5593 28.3342 28.5974 28.165L30.9749 17.665C30.9977 17.5532 30.9947 17.4376 30.9661 17.3272C30.9375 17.2167 30.8841 17.1142 30.8099 17.0275Z" fill="white"/>
<circle cx="30.5" cy="14.5" r="8.5" fill="#98BE2A"/>
<path d="M33.48 17.956V19H27.444V18.184L30.864 14.884C31.28 14.484 31.56 14.14 31.704 13.852C31.848 13.556 31.92 13.26 31.92 12.964C31.92 12.524 31.764 12.184 31.452 11.944C31.148 11.696 30.708 11.572 30.132 11.572C29.204 11.572 28.488 11.876 27.984 12.484L27.168 11.776C27.496 11.376 27.924 11.064 28.452 10.84C28.988 10.616 29.584 10.504 30.24 10.504C31.12 10.504 31.82 10.716 32.34 11.14C32.86 11.556 33.12 12.124 33.12 12.844C33.12 13.292 33.024 13.716 32.832 14.116C32.64 14.516 32.276 14.972 31.74 15.484L29.172 17.956H33.48Z" fill="black"/>
</svg>
