<svg width="46" height="46" viewBox="0 0 46 46" fill="none" xmlns="http://www.w3.org/2000/svg">
<rect width="46" height="46" rx="5" fill="white"/>
<g clip-path="url(#clip0_667_11857)">
<path d="M30.3441 33.0625H15.2614C15.0005 33.0625 14.7891 33.2715 14.7891 33.5293V33.5344C14.7891 33.7922 15.0005 34.0012 15.2614 34.0012H30.3441C30.605 34.0012 30.8164 33.7922 30.8164 33.5344V33.5293C30.8164 33.2715 30.605 33.0625 30.3441 33.0625Z" fill="#74789F"/>
<path d="M22.3301 17.0373V33.2988C22.3301 33.5566 22.5415 33.7656 22.8024 33.7656H22.8075C23.0684 33.7656 23.2798 33.5566 23.2798 33.2988V17.0373C23.2798 16.7795 23.0684 16.5705 22.8075 16.5705H22.8024C22.5415 16.5705 22.3301 16.7795 22.3301 17.0373Z" fill="#74789F"/>
<path d="M30.811 11.9785L15.09 16.7763C14.8407 16.8524 14.7011 17.1137 14.778 17.3601L14.7795 17.3649C14.8565 17.6112 15.1209 17.7493 15.3702 17.6732L31.0912 12.8754C31.3404 12.7993 31.4801 12.538 31.4032 12.2916L31.4016 12.2868C31.3247 12.0405 31.0602 11.9025 30.811 11.9785Z" fill="#74789F"/>
<path d="M22.803 17.6016C23.8322 17.6016 24.6665 16.4748 24.6665 15.085C24.6665 13.6951 23.8322 12.5684 22.803 12.5684C21.7738 12.5684 20.9395 13.6951 20.9395 15.085C20.9395 16.4748 21.7738 17.6016 22.803 17.6016Z" fill="#74789F"/>
<path d="M22.8022 16.5052C23.3919 16.5052 23.87 15.8237 23.87 14.9831C23.87 14.1424 23.3919 13.4609 22.8022 13.4609C22.2124 13.4609 21.7344 14.1424 21.7344 14.9831C21.7344 15.8237 22.2124 16.5052 22.8022 16.5052Z" fill="white"/>
<path d="M15.0843 18.6968L11.0573 26.4577C10.9383 26.6871 11.03 26.9684 11.2621 27.0861L11.2666 27.0884C11.4987 27.206 11.7834 27.1154 11.9024 26.886L15.9294 19.1252C16.0484 18.8958 15.9567 18.6145 15.7246 18.4968L15.7201 18.4945C15.488 18.3769 15.2033 18.4674 15.0843 18.6968Z" fill="#74789F"/>
<path d="M15.1189 19.1422L19.1458 26.903C19.2648 27.1324 19.5495 27.223 19.7816 27.1053L19.7862 27.103C20.0183 26.9854 20.1099 26.7041 19.9909 26.4747L15.964 18.7138C15.8449 18.4844 15.5603 18.3938 15.3282 18.5115L15.3236 18.5138C15.0915 18.6314 14.9998 18.9128 15.1189 19.1422Z" fill="#74789F"/>
<path d="M15.5322 30.2345C16.5011 30.2421 17.4404 29.9048 18.1784 29.2844C18.9164 28.664 19.404 27.8018 19.5519 26.8554C19.5568 26.7858 19.5472 26.716 19.5236 26.6503C19.5 26.5846 19.463 26.5244 19.4148 26.4734C19.3666 26.4225 19.3084 26.3819 19.2436 26.3542C19.1789 26.3265 19.1091 26.3123 19.0385 26.3125H11.9951C11.9245 26.3123 11.8547 26.3265 11.79 26.3542C11.7252 26.3819 11.6669 26.4225 11.6187 26.4734C11.5706 26.5244 11.5336 26.5846 11.51 26.6503C11.4864 26.716 11.4768 26.7858 11.4817 26.8554C11.6283 27.8079 12.1197 28.6755 12.8647 29.297C13.6096 29.9185 14.5575 30.2516 15.5322 30.2345Z" stroke="#74789F" stroke-width="1.28342" stroke-miterlimit="10"/>
<path d="M30.01 14.3394L25.9831 22.1002C25.8641 22.3296 25.9557 22.611 26.1878 22.7286L26.1924 22.7309C26.4245 22.8486 26.7092 22.758 26.8282 22.5286L30.8551 14.7678C30.9742 14.5384 30.8825 14.257 30.6504 14.1394L30.6458 14.1371C30.4137 14.0194 30.1291 14.11 30.01 14.3394Z" fill="#74789F"/>
<path d="M30.0466 14.7867L34.0735 22.5475C34.1926 22.7769 34.4772 22.8675 34.7093 22.7499L34.7139 22.7476C34.946 22.6299 35.0376 22.3486 34.9186 22.1192L30.8917 14.3584C30.7726 14.129 30.488 14.0384 30.2559 14.156L30.2513 14.1583C30.0192 14.276 29.9276 14.5573 30.0466 14.7867Z" fill="#74789F"/>
<path d="M30.4621 25.8773C31.4307 25.8857 32.3699 25.5487 33.1073 24.9279C33.8447 24.3072 34.3309 23.4445 34.4767 22.4981C34.4816 22.4285 34.472 22.3587 34.4484 22.293C34.4249 22.2273 34.3878 22.1671 34.3396 22.1161C34.2915 22.0652 34.2332 22.0246 34.1684 21.9969C34.1037 21.9693 34.0339 21.955 33.9633 21.9552H26.9404C26.8699 21.955 26.8 21.9693 26.7353 21.9969C26.6706 22.0246 26.6123 22.0652 26.5641 22.1161C26.5159 22.1671 26.4789 22.2273 26.4553 22.293C26.4317 22.3587 26.4221 22.4285 26.427 22.4981C26.5753 23.4471 27.0651 24.3114 27.8063 24.9322C28.5476 25.5529 29.4906 25.8885 30.4621 25.8773Z" stroke="#74789F" stroke-width="1.28342" stroke-miterlimit="10"/>
</g>
<defs>
<clipPath id="clip0_667_11857">
<rect width="24" height="22" fill="white" transform="translate(11 12)"/>
</clipPath>
</defs>
</svg>
