<svg width="25" height="25" viewBox="0 0 25 25" fill="none" xmlns="http://www.w3.org/2000/svg">
<path d="M11.0001 15.87H2.80012C1.87228 15.87 1.12012 16.6222 1.12012 17.55V20.93C1.12012 21.8578 1.87228 22.61 2.80012 22.61H11.0001C11.928 22.61 12.6801 21.8578 12.6801 20.93V17.55C12.6801 16.6222 11.928 15.87 11.0001 15.87Z" stroke="#1E1E1C" stroke-width="0.5" stroke-miterlimit="10"/>
<path d="M9.16004 8.58001H12.24V2.38001H3.57004C2.72464 2.35846 1.90509 2.67243 1.29048 3.25331C0.675874 3.83419 0.316192 4.63474 0.290039 5.48001C0.316192 6.32527 0.675874 7.12582 1.29048 7.7067C1.90509 8.28758 2.72464 8.60155 3.57004 8.58001H5.43004" stroke="#1E1E1C" stroke-width="0.5" stroke-miterlimit="10"/>
<path d="M14.57 7.61003L12.24 8.21003V2.84003L14.57 3.60003V7.61003Z" stroke="#1E1E1C" stroke-width="0.5" stroke-miterlimit="10"/>
<path d="M17.8101 7.22001L14.5701 7.46001V3.76001L17.8101 4.00001C18.8101 4.00001 19.6601 5.61001 19.6601 5.61001C19.6601 5.61001 18.8401 7.22001 17.8101 7.22001Z" stroke="#1E1E1C" stroke-width="0.5" stroke-miterlimit="10"/>
<path d="M19.6599 5.60999H24.7099" stroke="#1E1E1C" stroke-width="0.5" stroke-miterlimit="10" stroke-linecap="round"/>
<path d="M3.38995 15.87C3.38995 15.87 3.11995 11 5.24995 8.58002" stroke="#1E1E1C" stroke-width="0.5" stroke-miterlimit="10"/>
<path d="M7.44995 15.87C7.44995 15.87 7.67995 12 8.38995 11.38H9.15995C9.15995 11.38 8.22995 8.58002 9.15995 8.58002" stroke="#1E1E1C" stroke-width="0.5" stroke-linejoin="round"/>
</svg>
