<svg width="25" height="25" viewBox="0 0 25 25" fill="none" xmlns="http://www.w3.org/2000/svg">
<path d="M23.6099 9.52002H22.5099C22.2447 9.52002 21.9904 9.62538 21.8028 9.81291C21.6153 10.0004 21.5099 10.2548 21.5099 10.52V13.19H3.43994V10.52C3.44026 10.2632 3.3418 10.0162 3.16494 9.83002C2.98809 9.64386 2.7464 9.53286 2.48994 9.52002H1.38994C1.13349 9.53286 0.891797 9.64386 0.714942 9.83002C0.538087 10.0162 0.439621 10.2632 0.439942 10.52V15.4C0.439942 15.6652 0.545299 15.9196 0.732835 16.1071C0.920372 16.2947 1.17473 16.4 1.43994 16.4H2.52994V17.88C2.53254 18.1073 2.62398 18.3245 2.7847 18.4853C2.94542 18.646 3.16266 18.7374 3.38994 18.74H4.60994C4.83722 18.7374 5.05446 18.646 5.21518 18.4853C5.3759 18.3245 5.46734 18.1073 5.46994 17.88V16.4H19.5699V17.88C19.5699 18.1064 19.6592 18.3236 19.8183 18.4846C19.9774 18.6456 20.1936 18.7374 20.4199 18.74H21.6499C21.8763 18.7374 22.0925 18.6456 22.2516 18.4846C22.4107 18.3236 22.5 18.1064 22.4999 17.88V16.4H23.6099C23.8664 16.3872 24.1081 16.2762 24.2849 16.09C24.4618 15.9039 24.5603 15.6568 24.5599 15.4V10.52C24.5603 10.2632 24.4618 10.0162 24.2849 9.83002C24.1081 9.64386 23.8664 9.53286 23.6099 9.52002Z" stroke="#1E1E1C" stroke-width="0.5" stroke-miterlimit="10"/>
<path d="M21.5601 13.19H13.3001C13.1942 13.19 13.0893 13.169 12.9916 13.1282C12.8939 13.0873 12.8052 13.0275 12.7308 12.9522C12.6564 12.8768 12.5977 12.7874 12.5581 12.6892C12.5185 12.591 12.4987 12.4859 12.5001 12.38V6.38001C12.4987 6.27411 12.5185 6.16901 12.5581 6.07079C12.5977 5.97257 12.6564 5.8832 12.7308 5.80785C12.8052 5.7325 12.8939 5.67267 12.9916 5.63185C13.0893 5.59102 13.1942 5.57 13.3001 5.57001H21.8201C21.926 5.57 22.0308 5.59102 22.1285 5.63185C22.2263 5.67267 22.3149 5.7325 22.3893 5.80785C22.4637 5.8832 22.5225 5.97257 22.5621 6.07079C22.6017 6.16901 22.6214 6.27411 22.6201 6.38001V9.48001" stroke="#1E1E1C" stroke-width="0.5" stroke-miterlimit="10"/>
<path d="M2.37995 9.46998V6.34998C2.37862 6.24408 2.39834 6.13898 2.43795 6.04076C2.47756 5.94254 2.53628 5.85317 2.61069 5.77782C2.68511 5.70247 2.77375 5.64264 2.87147 5.60182C2.96919 5.56099 3.07404 5.53997 3.17995 5.53998H11.6999C11.8058 5.53997 11.9107 5.56099 12.0084 5.60182C12.1061 5.64264 12.1948 5.70247 12.2692 5.77782C12.3436 5.85317 12.4023 5.94254 12.4419 6.04076C12.4816 6.13898 12.5013 6.24408 12.4999 6.34998V12.35C12.5013 12.4559 12.4816 12.561 12.4419 12.6592C12.4023 12.7574 12.3436 12.8468 12.2692 12.9221C12.1948 12.9975 12.1061 13.0573 12.0084 13.0981C11.9107 13.139 11.8058 13.16 11.6999 13.16H3.43995" stroke="#1E1E1C" stroke-width="0.5" stroke-miterlimit="10"/>
<path d="M4.65991 15.51H20.3399" stroke="#1E1E1C" stroke-width="0.5" stroke-miterlimit="10" stroke-linecap="round"/>
</svg>
