<svg width="25" height="24" viewBox="0 0 25 24" fill="none" xmlns="http://www.w3.org/2000/svg">
<path d="M18.101 19C19.2117 19 20.1121 18.1046 20.1121 17C20.1121 15.8954 19.2117 15 18.101 15C16.9903 15 16.0898 15.8954 16.0898 17C16.0898 18.1046 16.9903 19 18.101 19Z" stroke="black" stroke-linecap="round" stroke-linejoin="round"/>
<path d="M5.0287 16V17C5.0287 17.5304 5.24059 18.0391 5.61775 18.4142C5.9949 18.7893 6.50644 19 7.03982 19C7.57321 19 8.08474 18.7893 8.4619 18.4142C8.83906 18.0391 9.05095 17.5304 9.05095 17V12H6.03426C5.23419 12 4.46688 12.3161 3.90114 12.8787C3.33541 13.4413 3.01758 14.2044 3.01758 15V16H13.0732C13.4459 14.9292 14.1159 13.9852 15.0057 13.2773C15.8955 12.5694 16.9687 12.1265 18.101 12V7C18.101 6.46957 17.8891 5.96086 17.512 5.58579C17.1348 5.21071 16.6233 5 16.0899 5H15.0843" stroke="black" stroke-linecap="round" stroke-linejoin="round"/>
<path d="M6.03516 9H9.05184" stroke="black" stroke-linecap="round" stroke-linejoin="round"/>
</svg>
