<svg width="25" height="23" viewBox="0 0 25 23" fill="none" xmlns="http://www.w3.org/2000/svg">
<path d="M22.7486 2.19356C23.448 2.87763 24.0073 3.69152 24.3952 4.58966C24.7974 5.52438 25.0029 6.51697 25 7.5385C25 8.50215 24.8032 9.50631 24.4125 10.5278C24.0884 11.3815 23.6167 12.267 23.0177 13.1612C22.0685 14.5763 20.7634 16.0522 19.1428 17.5483C16.4544 20.0283 13.7979 21.7386 13.685 21.811L12.9992 22.2508C12.6953 22.4447 12.3046 22.4447 12.0008 22.2508L11.315 21.811C11.2021 21.7415 8.54264 20.0283 5.85715 17.5483C4.2366 16.0522 2.93147 14.5763 1.98229 13.1612C1.38326 12.267 0.914457 11.3815 0.587452 10.5278C0.196782 9.50631 0 8.50215 0 7.5385C0 6.51697 0.205463 5.52438 0.607708 4.58966C0.994552 3.69094 1.55399 2.87686 2.25431 2.19356C2.95751 1.50482 3.77647 0.963672 4.68514 0.587472C5.62564 0.196802 6.62113 2.03405e-05 7.64844 2.03405e-05C9.07511 2.03405e-05 10.4671 0.39069 11.6767 1.12862C11.9661 1.30515 12.241 1.49903 12.5014 1.71029C12.7619 1.49903 13.0368 1.30515 13.3262 1.12862C14.5358 0.39069 15.9277 2.03405e-05 17.3544 2.03405e-05C18.3713 -0.00232025 19.3786 0.197361 20.3177 0.587472C21.2234 0.962198 22.0486 1.50744 22.7486 2.19356Z" fill="#74789F"/>
</svg>
