<svg width="16" height="10" viewBox="0 0 16 10" fill="none" xmlns="http://www.w3.org/2000/svg">
<path fill-rule="evenodd" clip-rule="evenodd" d="M0 4.99998C0 4.85266 0.0564376 4.71137 0.156897 4.6072C0.257357 4.50303 0.393609 4.4445 0.53568 4.4445H14.1702L10.7987 0.949453C10.6981 0.84515 10.6416 0.703684 10.6416 0.556177C10.6416 0.408669 10.6981 0.267204 10.7987 0.1629C10.8992 0.0585969 11.0357 3.47539e-09 11.1779 0C11.3202 -3.47539e-09 11.4566 0.0585969 11.5572 0.1629L15.8426 4.6067C15.8925 4.6583 15.9321 4.7196 15.9591 4.78708C15.9861 4.85457 16 4.92691 16 4.99998C16 5.07304 15.9861 5.14539 15.9591 5.21287C15.9321 5.28036 15.8925 5.34165 15.8426 5.39325L11.5572 9.83705C11.4566 9.94136 11.3202 9.99995 11.1779 9.99995C11.0357 9.99995 10.8992 9.94136 10.7987 9.83705C10.6981 9.73275 10.6416 9.59129 10.6416 9.44378C10.6416 9.29627 10.6981 9.15481 10.7987 9.0505L14.1702 5.55545H0.53568C0.393609 5.55545 0.257357 5.49693 0.156897 5.39276C0.0564376 5.28859 0 5.1473 0 4.99998Z" fill="black"/>
</svg>
