<svg width="34" height="36" viewBox="0 0 34 36" fill="none" xmlns="http://www.w3.org/2000/svg">
<path d="M10 19.9116H13.4375C14.2659 19.9116 14.9375 20.5832 14.9375 21.4116V24.8237C14.9373 25.652 14.2658 26.3237 13.4375 26.3237H10C9.17169 26.3237 8.50019 25.652 8.5 24.8237V21.4116C8.5 20.5832 9.17157 19.9116 10 19.9116Z" stroke="#98BE2A"/>
<path d="M20.4375 19.9116H23.875C24.7034 19.9116 25.375 20.5832 25.375 21.4116V24.8237C25.3748 25.652 24.7033 26.3237 23.875 26.3237H20.4375C19.6092 26.3237 18.9377 25.652 18.9375 24.8237V21.4116C18.9375 20.5832 19.6091 19.9116 20.4375 19.9116Z" stroke="#98BE2A"/>
<path d="M10 9.5H13.4375C14.2659 9.5 14.9375 10.1716 14.9375 11V14.4121C14.9373 15.2404 14.2658 15.9121 13.4375 15.9121H10C9.17169 15.9121 8.50019 15.2404 8.5 14.4121V11C8.5 10.1716 9.17157 9.5 10 9.5Z" stroke="#98BE2A"/>
<path d="M23.2081 9.22364L25.6388 11.6543C26.2246 12.2401 26.2246 13.1899 25.6388 13.7756L23.2261 16.1884C22.6403 16.7739 21.6905 16.7741 21.1048 16.1884L18.6741 13.7577C18.0884 13.172 18.0885 12.2222 18.6741 11.6364L21.0868 9.22364C21.6726 8.63785 22.6223 8.63785 23.2081 9.22364Z" stroke="#98BE2A"/>
</svg>
