<svg width="23" height="23" viewBox="0 0 23 23" fill="none" xmlns="http://www.w3.org/2000/svg">
<path d="M10.5801 16.56C7.2681 16.56 4.6001 13.892 4.6001 10.58C4.6001 7.26798 7.2681 4.59998 10.5801 4.59998C13.8921 4.59998 16.5601 7.26798 16.5601 10.58C16.5601 13.892 13.8921 16.56 10.5801 16.56ZM10.5801 5.51998C7.7741 5.51998 5.5201 7.77398 5.5201 10.58C5.5201 13.386 7.7741 15.64 10.5801 15.64C13.3861 15.64 15.6401 13.386 15.6401 10.58C15.6401 7.77398 13.3861 5.51998 10.5801 5.51998Z" fill="#8C8C8C"/>
<path d="M15.0337 14.3828L19.1645 18.5136L18.5141 19.1641L14.3833 15.0333L15.0337 14.3828Z" fill="#8C8C8C"/>
</svg>
