<svg width="27" height="27" viewBox="0 0 27 27" fill="none" xmlns="http://www.w3.org/2000/svg">
<path d="M9.99756 24C10.9295 24 11.6851 23.2445 11.6851 22.3125C11.6851 21.3805 10.9295 20.625 9.99756 20.625C9.06558 20.625 8.31006 21.3805 8.31006 22.3125C8.31006 23.2445 9.06558 24 9.99756 24Z" fill="white"/>
<path d="M20.25 24C21.182 24 21.9375 23.2445 21.9375 22.3125C21.9375 21.3805 21.182 20.625 20.25 20.625C19.318 20.625 18.5625 21.3805 18.5625 22.3125C18.5625 23.2445 19.318 24 20.25 24Z" fill="white"/>
<path d="M24.8099 4.02749C24.7401 3.94146 24.6521 3.87195 24.5522 3.82397C24.4524 3.77599 24.3432 3.75072 24.2324 3.74999H8.61737L9.10487 5.24999H23.2499L21.2474 14.25H9.99737L6.56987 3.39749C6.5328 3.28233 6.46842 3.17786 6.38222 3.09297C6.29603 3.00808 6.19058 2.9453 6.07487 2.90999L2.99987 1.96499C2.90532 1.93594 2.80597 1.92579 2.7075 1.93513C2.60902 1.94447 2.51335 1.97311 2.42595 2.01943C2.24943 2.11296 2.1173 2.27278 2.05862 2.46374C1.99994 2.6547 2.01952 2.86114 2.11305 3.03766C2.20659 3.21418 2.36641 3.34631 2.55737 3.40499L5.24987 4.22999L8.69237 15.105L7.46237 16.11L7.36487 16.2075C7.06062 16.5581 6.88817 17.0039 6.87722 17.4679C6.86627 17.932 7.0175 18.3854 7.30487 18.75C7.50929 18.9986 7.76905 19.1959 8.06337 19.3261C8.3577 19.4564 8.67841 19.5159 8.99987 19.5H21.5174C21.7163 19.5 21.907 19.421 22.0477 19.2803C22.1884 19.1397 22.2674 18.9489 22.2674 18.75C22.2674 18.5511 22.1884 18.3603 22.0477 18.2197C21.907 18.079 21.7163 18 21.5174 18H8.87987C8.7935 17.997 8.70936 17.9719 8.63556 17.9269C8.56177 17.8819 8.50081 17.8187 8.45859 17.7433C8.41637 17.6679 8.3943 17.5829 8.39453 17.4965C8.39475 17.4101 8.41726 17.3252 8.45987 17.25L10.2674 15.75H21.8474C22.0207 15.7542 22.1902 15.6983 22.327 15.5916C22.4637 15.4849 22.5593 15.3342 22.5974 15.165L24.9749 4.66499C24.9977 4.55318 24.9947 4.43764 24.9661 4.32716C24.9375 4.21669 24.8841 4.1142 24.8099 4.02749Z" fill="white"/>
</svg>
