<svg width="25" height="25" viewBox="0 0 25 25" fill="none" xmlns="http://www.w3.org/2000/svg">
<path d="M21.8592 4.69922H3.14922C2.07226 4.69922 1.19922 5.57226 1.19922 6.64922V18.2492C1.19922 19.3262 2.07226 20.1992 3.14922 20.1992H21.8592C22.9362 20.1992 23.8092 19.3262 23.8092 18.2492V6.64922C23.8092 5.57226 22.9362 4.69922 21.8592 4.69922Z" stroke="#1D1D1B" stroke-miterlimit="10"/>
<path d="M19.7681 17.96C20.8396 17.96 21.7081 17.0914 21.7081 16.02C21.7081 14.9485 20.8396 14.08 19.7681 14.08C18.6967 14.08 17.8281 14.9485 17.8281 16.02C17.8281 17.0914 18.6967 17.96 19.7681 17.96Z" stroke="#1D1D1B" stroke-miterlimit="10"/>
<path d="M17.7813 16.0008C17.7818 15.7261 17.8409 15.4546 17.9547 15.2046C18.0685 14.9545 18.2344 14.7316 18.4413 14.5508C18.0894 14.228 17.6288 14.0495 17.1513 14.0508C16.8344 14.0486 16.5218 14.1236 16.2404 14.2694C15.959 14.4152 15.7174 14.6273 15.5365 14.8875C15.3556 15.1477 15.2408 15.448 15.2021 15.7625C15.1634 16.077 15.2019 16.3962 15.3143 16.6925C15.4267 16.9888 15.6096 17.2532 15.8473 17.4629C16.0849 17.6726 16.37 17.8212 16.6779 17.8959C16.9859 17.9705 17.3074 17.969 17.6147 17.8915C17.9219 17.814 18.2056 17.6627 18.4413 17.4508C18.2349 17.2696 18.0694 17.0467 17.9556 16.7967C17.8418 16.5467 17.7824 16.2755 17.7813 16.0008V16.0008Z" stroke="#1D1D1B" stroke-miterlimit="10"/>
<path d="M1.19922 8.24023H23.7992" stroke="#1D1D1B" stroke-miterlimit="10"/>
<path d="M1.19922 10.6309H23.7992" stroke="#1D1D1B" stroke-miterlimit="10"/>
</svg>
