<svg width="36" height="36" viewBox="0 0 36 36" fill="none" xmlns="http://www.w3.org/2000/svg">
<path d="M17.9992 21.6C21.4786 21.6 24.2992 18.9809 24.2992 15.75C24.2992 12.5192 21.4786 9.90002 17.9992 9.90002C14.5198 9.90002 11.6992 12.5192 11.6992 15.75C11.6992 18.9809 14.5198 21.6 17.9992 21.6Z" stroke="#1E1E1C" stroke-miterlimit="10"/>
<path d="M18.0016 32.4C25.9545 32.4 32.4016 25.9529 32.4016 18C32.4016 10.0471 25.9545 3.59998 18.0016 3.59998C10.0487 3.59998 3.60156 10.0471 3.60156 18C3.60156 25.9529 10.0487 32.4 18.0016 32.4Z" stroke="#1E1E1C" stroke-miterlimit="10"/>
<path d="M26.1 28.6668C25.8767 26.6748 24.8706 24.8381 23.2847 23.5275C21.6989 22.217 19.6516 21.5302 17.5563 21.606C15.4363 21.5266 13.3654 22.2293 11.7726 23.5684C10.1798 24.9076 9.18711 26.7808 9 28.8" stroke="#1E1E1C" stroke-miterlimit="10"/>
</svg>
