<svg width="25" height="25" viewBox="0 0 25 25" fill="none" xmlns="http://www.w3.org/2000/svg">
<path d="M12.5017 23.49C18.5713 23.49 23.4917 18.5696 23.4917 12.5C23.4917 6.4304 18.5713 1.51001 12.5017 1.51001C6.43211 1.51001 1.51172 6.4304 1.51172 12.5C1.51172 18.5696 6.43211 23.49 12.5017 23.49Z" stroke="#1E1E1C" stroke-miterlimit="10"/>
<path d="M8.62228 7.85599H12.5843C13.4429 7.85599 14.0636 7.91199 14.4463 8.02399C14.8289 8.12666 15.1556 8.33199 15.4263 8.63999C15.8556 9.13466 16.0703 9.77399 16.0703 10.558C16.0703 11.258 15.8836 11.8553 15.5103 12.35C15.1929 12.7607 14.7916 13.022 14.3063 13.134C13.8209 13.2367 13.0976 13.288 12.1363 13.288H9.51828V17.74H8.62228V7.85599ZM9.51828 8.63999V12.462H12.9763C14.4323 12.462 15.1603 11.8227 15.1603 10.544C15.1603 10.1053 15.0669 9.73199 14.8803 9.42399C14.6749 9.08799 14.4136 8.87332 14.0963 8.77999C13.7789 8.68666 13.3683 8.63999 12.8643 8.63999H9.51828Z" fill="#1D1D1B"/>
</svg>
