<svg width="49" height="50" viewBox="0 0 49 50" fill="none" xmlns="http://www.w3.org/2000/svg">
<path d="M35.7097 26.0915C35.6905 22.7698 37.1669 20.2663 40.1484 18.4204C38.4809 15.9851 35.9581 14.6457 32.6326 14.3876C29.4839 14.1343 26.039 16.2579 24.7776 16.2579C23.4446 16.2579 20.3962 14.4753 17.9977 14.4753C13.0477 14.5532 7.78711 18.4983 7.78711 26.525C7.78711 28.8969 8.21235 31.3468 9.06283 33.8697C10.2 37.1914 14.2995 45.3301 18.5758 45.1986C20.8119 45.145 22.3934 43.5815 25.3032 43.5815C28.127 43.5815 29.5891 45.1986 32.0832 45.1986C36.3977 45.1352 40.1054 37.7369 41.1852 34.4055C35.3991 31.6244 35.7097 26.262 35.7097 26.0915ZM30.688 11.2364C33.1104 8.30432 32.8906 5.63528 32.819 4.67578C30.6784 4.80241 28.2034 6.16129 26.7939 7.83188C25.2411 9.62424 24.3285 11.8403 24.5244 14.3389C26.8369 14.5191 28.9488 13.3064 30.688 11.2364Z" fill="#898888"/>
</svg>
