<svg width="24" height="24" viewBox="0 0 24 24" fill="none" xmlns="http://www.w3.org/2000/svg">
<g clip-path="url(#clip0_593_2840)">
<path d="M23.8519 11.999C23.8519 5.37117 18.5121 -0.00146484 11.926 -0.00146484C5.3369 2.58972e-05 -0.00292969 5.37117 -0.00292969 12.0005C-0.00292969 17.9888 4.35898 22.953 10.0596 23.8534V15.468H7.03337V12.0005H10.0626V9.35443C10.0626 6.3476 11.844 4.68692 14.5676 4.68692C15.8735 4.68692 17.2375 4.92096 17.2375 4.92096V7.87263H15.7333C14.253 7.87263 13.7909 8.79838 13.7909 9.74798V11.999H17.0974L16.5696 15.4665H13.7894V23.8519C19.49 22.9515 23.8519 17.9873 23.8519 11.999Z" fill="#3E77AA"/>
</g>
<defs>
<clipPath id="clip0_593_2840">
<rect width="23.8519" height="23.8519" fill="white"/>
</clipPath>
</defs>
</svg>
