<svg width="69" height="29" viewBox="0 0 69 29" fill="none" xmlns="http://www.w3.org/2000/svg">
<g clip-path="url(#clip0_449_395)">
<path d="M5.58195 25.4659C4.64344 25.4659 3.5871 25.4659 3.5871 25.4659V19.3714C3.5871 19.3714 4.61163 19.3714 5.58195 19.3714C6.94895 19.3714 7.58203 20.3826 7.58203 22.1923C7.58203 24.6772 6.82242 25.4659 5.58195 25.4659ZM3.5871 10.5292C3.5871 10.5292 4.59465 10.5292 5.53316 10.5292C6.53775 10.5292 7.35085 11.2626 7.35085 13.2832C7.35085 15.3251 6.41122 16.0315 5.53316 16.0315C4.56284 16.0315 3.5871 16.0315 3.5871 16.0315V10.5292ZM8.91067 17.4712V17.4545C9.70158 16.9037 10.9659 15.9565 10.9659 12.9121C10.9659 8.97872 8.89727 7.19727 6.10281 7.19727C5.15622 7.19727 0 7.19727 0 7.19727V28.796C0 28.796 3.40123 28.796 6.0709 28.796C9.51162 28.796 11.1871 26.2655 11.1871 22.4953C11.1871 18.9778 9.7963 18.0065 8.91067 17.4712Z" fill="#898888"/>
<path d="M17.7845 10.5292C17.7845 10.5292 18.7914 10.5292 19.7305 10.5292C20.7351 10.5292 21.5454 11.2626 21.5454 13.2832C21.5454 15.3251 20.6086 16.0315 19.7305 16.0315C18.7601 16.0315 17.7845 16.0315 17.7845 16.0315V10.5292ZM25.0963 21.5676C25.0963 18.876 24.2543 18.1199 23.1079 17.4712V17.4545C23.8989 16.9037 25.1522 15.9565 25.1522 12.9121C25.1522 8.97872 23.0946 7.19727 20.3002 7.19727C19.353 7.19727 14.1973 7.19727 14.1973 7.19727V28.796H17.782L17.7844 19.3714C17.7844 19.3714 18.76 19.3714 19.7298 19.3714C20.7502 19.3714 21.4795 20.2125 21.4795 22.1214V28.7961H25.0944L25.0963 21.5676H25.0963Z" fill="#898888"/>
<path d="M32.0898 5.2448C32.0898 3.62065 33.5927 3.41088 34.4231 3.41088C35.2536 3.41088 36.7507 3.61659 36.7507 5.2448L36.7494 16.0315H32.0873L32.0898 5.2448H32.0898ZM34.4231 0C32.9069 0 28.5078 0.341089 28.5078 4.70836V28.799H32.0943V19.3731H36.7511L36.7499 28.795H40.3394V4.70836C40.3394 0.33297 35.9347 0 34.4231 0H34.4231Z" fill="#898888"/>
<path d="M51.0816 7.19336V24.1962C51.0816 25.0615 50.3605 25.6395 49.2891 25.6395C48.2129 25.6395 47.5051 25.0605 47.5051 24.1962L47.5023 7.19336L43.9168 7.19793L43.916 24.7642C43.916 28.1088 47.3818 29.0007 49.293 29.0007C51.1868 29.0007 54.6676 28.1043 54.6676 24.7603V7.19336H51.0816" fill="#898888"/>
<path d="M65.4157 28.794L65.4144 11.7986C65.4144 10.9333 64.6937 10.3554 63.6229 10.3554C62.5467 10.3554 61.8377 10.935 61.8377 11.7986L61.8366 28.794L58.25 28.7968V11.2306C58.25 7.88598 61.7164 6.99414 63.6276 6.99414C65.5214 6.99414 69.001 7.89055 69.001 11.2346V28.7939H65.4157" fill="#898888"/>
</g>
<defs>
<clipPath id="clip0_449_395">
<rect width="69" height="29" fill="white"/>
</clipPath>
</defs>
</svg>
