<svg width="96" height="32" viewBox="0 0 96 32" fill="none" xmlns="http://www.w3.org/2000/svg">
<g clip-path="url(#clip0_565_559)">
<path d="M92.8004 0.400024H3.20039C1.65399 0.400024 0.400391 1.65363 0.400391 3.20002V28.8C0.400391 30.3464 1.65399 31.6 3.20039 31.6H92.8004C94.3468 31.6 95.6004 30.3464 95.6004 28.8V3.20002C95.6004 1.65363 94.3468 0.400024 92.8004 0.400024Z" fill="#221F1F"/>
<path d="M23.3502 15.1301C23.3313 12.9611 25.078 11.9061 25.1581 11.8567C24.1686 10.374 22.6351 10.1714 22.0967 10.1557C20.809 10.0167 19.5598 10.9475 18.9036 10.9475C18.2343 10.9475 17.2237 10.1691 16.1354 10.1916C14.7341 10.214 13.4232 11.0477 12.7044 12.3419C11.221 14.9821 12.3275 18.8611 13.7491 20.9951C14.4599 22.0403 15.2915 23.2067 16.3783 23.1656C17.4427 23.1207 17.8399 22.4687 19.124 22.4687C20.3965 22.4687 20.7697 23.1656 21.8785 23.1394C23.0206 23.1207 23.7394 22.0896 24.4255 21.0354C25.2468 19.8376 25.5771 18.6578 25.5902 18.5972C25.5626 18.5889 23.372 17.7291 23.3502 15.1301Z" fill="white"/>
<path d="M21.2542 8.75152C21.8268 8.01578 22.2182 7.01537 22.1091 6C21.2812 6.03739 20.2452 6.58844 19.6487 7.30846C19.1211 7.94251 18.6498 8.98106 18.7712 9.95827C19.7017 10.0293 20.657 9.47603 21.2542 8.75152Z" fill="white"/>
<path d="M40.0969 22.5635H38.6348L37.8337 20.0472H35.0499L34.2867 22.5635H32.8633L35.6214 13.9966H37.3245L40.0969 22.5635ZM37.5927 18.9914L36.8681 16.754C36.7916 16.5259 36.6478 15.9873 36.4361 15.1404H36.4103C36.3259 15.5044 36.19 16.043 36.0033 16.754L35.2924 18.9914H37.5927Z" fill="white"/>
<path d="M47.1892 19.3986C47.1892 20.4494 46.9052 21.2798 46.3373 21.8892C45.8287 22.4321 45.1971 22.7032 44.4432 22.7032C43.6293 22.7032 43.0449 22.4107 42.6894 21.8263H42.6636V25.0801H41.291V18.4194C41.291 17.7592 41.2739 17.0811 41.2402 16.3859H42.4476L42.5242 17.3651H42.5499C43.0077 16.6276 43.7022 16.2593 44.6342 16.2593C45.3631 16.2593 45.9711 16.5468 46.4582 17.1233C46.946 17.6998 47.1892 18.458 47.1892 19.3986ZM45.7908 19.4487C45.7908 18.8471 45.6556 18.3515 45.3838 17.9616C45.087 17.5546 44.6886 17.3515 44.1893 17.3515C43.851 17.3515 43.5427 17.4645 43.268 17.6884C42.9927 17.9137 42.8124 18.2077 42.728 18.5725C42.6858 18.7427 42.6643 18.8815 42.6643 18.9909V20.0209C42.6643 20.4701 42.8024 20.8492 43.0778 21.1589C43.3532 21.4686 43.7115 21.6231 44.1514 21.6231C44.6686 21.6231 45.0705 21.4236 45.3588 21.0259C45.6463 20.6268 45.7908 20.1017 45.7908 19.4487Z" fill="white"/>
<path d="M54.2937 19.3986C54.2937 20.4494 54.0097 21.2798 53.4411 21.8892C52.9332 22.4321 52.3016 22.7032 51.5477 22.7032C50.7338 22.7032 50.1494 22.4107 49.7939 21.8263H49.7681V25.0801H48.3955V18.4194C48.3955 17.7592 48.3783 17.0811 48.3447 16.3859H49.5521L49.6286 17.3651H49.6544C50.1115 16.6276 50.806 16.2593 51.7387 16.2593C52.4669 16.2593 53.0749 16.5468 53.5634 17.1233C54.0498 17.6998 54.2937 18.458 54.2937 19.3986ZM52.8953 19.4487C52.8953 18.8471 52.7594 18.3515 52.4876 17.9616C52.1908 17.5546 51.7938 17.3515 51.2931 17.3515C50.9541 17.3515 50.6465 17.4645 50.3711 17.6884C50.0957 17.9137 49.9162 18.2077 49.8318 18.5725C49.7896 18.7427 49.7681 18.8815 49.7681 18.9909V20.0209C49.7681 20.4701 49.9062 20.8492 50.1801 21.1589C50.4555 21.4679 50.8139 21.6231 51.2552 21.6231C51.7723 21.6231 52.1743 21.4236 52.4626 21.0259C52.7515 20.6268 52.8953 20.1017 52.8953 19.4487Z" fill="white"/>
<path d="M62.2371 20.161C62.2371 20.8899 61.9839 21.4828 61.476 21.9406C60.9181 22.4406 60.1406 22.6909 59.1421 22.6909C58.22 22.6909 57.4812 22.5135 56.9219 22.1573L57.2402 21.0136C57.8424 21.3777 58.5041 21.5608 59.2244 21.5608C59.7415 21.5608 60.1435 21.4435 60.4324 21.2103C60.72 20.9771 60.8638 20.6646 60.8638 20.274C60.8638 19.9264 60.745 19.6331 60.5076 19.3957C60.2715 19.1582 59.8767 18.9372 59.3259 18.7333C57.826 18.174 57.0764 17.3543 57.0764 16.2771C57.0764 15.5725 57.3389 14.9953 57.8646 14.5461C58.3889 14.0962 59.0877 13.8716 59.9618 13.8716C60.7414 13.8716 61.3888 14.0075 61.9059 14.2786L61.5626 15.3973C61.0798 15.1348 60.534 15.0031 59.9232 15.0031C59.4404 15.0031 59.0634 15.1226 58.793 15.3594C58.5649 15.5711 58.4497 15.8293 58.4497 16.1347C58.4497 16.473 58.5806 16.7534 58.8431 16.9737C59.072 17.1769 59.4869 17.3972 60.0891 17.6346C60.8259 17.9315 61.3673 18.2784 61.7157 18.6761C62.064 19.0724 62.2371 19.5688 62.2371 20.161Z" fill="white"/>
<path d="M66.7753 17.4155H65.2625V20.4146C65.2625 21.1771 65.5293 21.5583 66.0636 21.5583C66.309 21.5583 66.5121 21.5369 66.673 21.4947L66.7109 22.5368C66.4406 22.6377 66.0844 22.6885 65.6437 22.6885C65.1016 22.6885 64.6781 22.5232 64.3727 22.1928C64.068 21.8616 63.9149 21.3073 63.9149 20.5276V17.414H63.0137V16.384H63.9149V15.2532L65.2632 14.8462V16.384H66.776L66.7753 17.4155Z" fill="white"/>
<path d="M73.6013 19.4237C73.6013 20.3735 73.3295 21.1525 72.7873 21.7626C72.2187 22.3899 71.4648 22.7032 70.5242 22.7032C69.6179 22.7032 68.8962 22.4028 68.3583 21.8012C67.8204 21.1997 67.5508 20.4408 67.5508 19.5259C67.5508 18.5689 67.8276 17.785 68.3834 17.1748C68.9377 16.5647 69.6859 16.2593 70.6265 16.2593C71.5327 16.2593 72.2623 16.5597 72.8123 17.162C73.3388 17.7463 73.6013 18.5002 73.6013 19.4237ZM72.1772 19.468C72.1772 18.8979 72.0556 18.4094 71.8088 18.0024C71.5213 17.5096 71.11 17.2635 70.5764 17.2635C70.0249 17.2635 69.6058 17.5103 69.3175 18.0024C69.0707 18.4108 68.9491 18.9072 68.9491 19.4938C68.9491 20.0631 69.0707 20.5524 69.3175 20.9586C69.6144 21.4515 70.0292 21.6975 70.5635 21.6975C71.0878 21.6975 71.4991 21.4465 71.7959 20.9458C72.0499 20.5309 72.1772 20.0374 72.1772 19.468Z" fill="white"/>
<path d="M78.0621 17.5932C77.9262 17.5682 77.7817 17.5553 77.6294 17.5553C77.1466 17.5553 76.7732 17.7377 76.5107 18.1025C76.2818 18.4244 76.1674 18.8314 76.1674 19.3221V22.563H74.7955L74.8083 18.3307C74.8083 17.619 74.7912 16.9702 74.7568 16.3858H75.9521L76.0021 17.5675H76.04C76.1845 17.1612 76.4134 16.8343 76.726 16.589C77.0314 16.368 77.3619 16.2578 77.7181 16.2578C77.8447 16.2578 77.9598 16.2671 78.0614 16.2828C78.0621 16.2843 78.0621 17.5932 78.0621 17.5932Z" fill="white"/>
<path d="M84.2 19.1826C84.2 19.4286 84.1842 19.636 84.1499 19.8049H80.0328C80.0485 20.415 80.2481 20.8821 80.63 21.2039C80.9769 21.4915 81.4254 21.636 81.9769 21.636C82.5863 21.636 83.1428 21.5387 83.6428 21.3434L83.8581 22.2962C83.2737 22.5508 82.5834 22.6781 81.7873 22.6781C80.8296 22.6781 80.0778 22.3963 79.5306 21.8327C78.9849 21.269 78.7109 20.513 78.7109 19.5638C78.7109 18.6325 78.9649 17.8564 79.4741 17.2377C80.007 16.5775 80.7273 16.2471 81.6343 16.2471C82.5248 16.2471 83.1986 16.5775 83.6564 17.2377C84.0183 17.7627 84.2 18.4115 84.2 19.1826ZM82.8917 18.8264C82.901 18.4194 82.8109 18.0682 82.6249 17.7713C82.3875 17.3894 82.0227 17.1991 81.5313 17.1991C81.0828 17.1991 80.7173 17.3851 80.439 17.7584C80.2102 18.0553 80.075 18.4115 80.0328 18.8256L82.8917 18.8264Z" fill="white"/>
<path d="M32.9883 10.421L33.5698 10.2701C33.6138 10.4943 33.7311 10.7186 33.9218 10.9428C34.1146 11.167 34.3692 11.2791 34.6856 11.2791C35.0084 11.2791 35.2629 11.1963 35.4495 11.0308C35.6359 10.8653 35.7292 10.6651 35.7292 10.4304C35.7292 10.1769 35.6307 9.97568 35.4337 9.8269C35.2368 9.67605 34.9685 9.60059 34.6291 9.60059H34.3367V9.06935C34.6175 9.06935 34.8323 9.05362 34.9811 9.02222C35.1299 8.98867 35.2609 8.90591 35.374 8.77387C35.4893 8.63976 35.5469 8.48783 35.5469 8.3181C35.5469 8.11694 35.4684 7.94196 35.3111 7.79319C35.1561 7.6444 34.9455 7.57001 34.6793 7.57001C34.4467 7.57001 34.2477 7.62869 34.0822 7.74603C33.9187 7.86129 33.8056 8.01531 33.7427 8.20809C33.6798 8.39878 33.6483 8.54126 33.6483 8.63561L33.0637 8.50357C33.2083 7.52496 33.7489 7.03564 34.6856 7.03564C35.1362 7.03564 35.4935 7.16138 35.7575 7.41284C36.0216 7.66221 36.1536 7.95454 36.1536 8.28984C36.1536 8.71944 35.9503 9.05262 35.5437 9.28937C35.7785 9.35439 35.9744 9.48743 36.1316 9.68857C36.2909 9.8877 36.3705 10.1265 36.3705 10.4053C36.3705 10.8013 36.2165 11.1335 35.9084 11.4017C35.6025 11.6678 35.1959 11.8009 34.6888 11.8009C33.8171 11.8009 33.2502 11.3409 32.9883 10.421ZM39.2371 11.3105C39.0276 11.4886 38.8254 11.6144 38.6305 11.6878C38.4377 11.7611 38.2303 11.7978 38.0081 11.7978C37.6414 11.7978 37.3595 11.7087 37.1626 11.5305C36.9656 11.3504 36.8671 11.1209 36.8671 10.8422C36.8671 10.6787 36.9038 10.5299 36.9771 10.3958C37.0525 10.2596 37.15 10.1506 37.2694 10.069C37.3909 9.9872 37.5272 9.9254 37.6781 9.88348C37.7891 9.85415 37.9568 9.82583 38.181 9.79858C38.6378 9.74414 38.9741 9.6792 39.19 9.60374C39.1921 9.5262 39.1932 9.47692 39.1932 9.45596C39.1932 9.2255 39.1397 9.06306 39.0329 8.96878C38.8882 8.84097 38.6734 8.77702 38.3885 8.77702C38.1223 8.77702 37.9253 8.82416 37.7975 8.9185C37.6718 9.0107 37.5786 9.17521 37.5178 9.41197L36.9646 9.33658C37.0149 9.09975 37.0976 8.90906 37.2128 8.76443C37.3281 8.6178 37.4947 8.50564 37.7127 8.42811C37.9306 8.3485 38.1831 8.30866 38.4702 8.30866C38.7552 8.30866 38.9867 8.3422 39.1648 8.4093C39.343 8.47632 39.474 8.56122 39.5577 8.66386C39.6416 8.76443 39.7003 8.89232 39.7338 9.04739C39.7526 9.14374 39.7621 9.3177 39.7621 9.56912V10.3235C39.7621 10.8495 39.7736 11.1827 39.7966 11.3231C39.8218 11.4615 39.87 11.5945 39.9413 11.7223H39.3503C39.2917 11.6049 39.2539 11.4677 39.2371 11.3105ZM39.19 10.0469C38.9847 10.1308 38.6766 10.202 38.2659 10.2606C38.0333 10.2942 37.8688 10.332 37.7723 10.3738C37.676 10.4157 37.6016 10.4776 37.5492 10.5593C37.4968 10.639 37.4706 10.728 37.4706 10.8265C37.4706 10.9774 37.5272 11.1031 37.6404 11.2037C37.7556 11.3042 37.9233 11.3545 38.1433 11.3545C38.3612 11.3545 38.5551 11.3074 38.7248 11.2131C38.8945 11.1167 39.0192 10.9857 39.0988 10.8202C39.1596 10.6924 39.19 10.5038 39.19 10.2544V10.0469ZM40.6454 8.38412H41.9498C42.2704 8.38412 42.5082 8.41137 42.6633 8.46587C42.8205 8.51823 42.9546 8.61565 43.0657 8.75821C43.1788 8.90069 43.2354 9.07143 43.2354 9.27056C43.2354 9.42978 43.2019 9.56912 43.1348 9.68857C43.0699 9.80594 42.9714 9.90444 42.8393 9.98405C42.9966 10.0365 43.1265 10.135 43.2292 10.2795C43.3339 10.422 43.3863 10.5917 43.3863 10.7887C43.3654 11.1052 43.2522 11.3399 43.0468 11.4929C42.8415 11.6458 42.5429 11.7223 42.151 11.7223H40.6454V8.38412ZM41.2112 9.78921H41.8146C42.0556 9.78921 42.2212 9.77662 42.3113 9.75144C42.4014 9.72633 42.4821 9.67605 42.5533 9.60059C42.6246 9.52305 42.6602 9.43085 42.6602 9.32399C42.6602 9.14796 42.5974 9.02536 42.4716 8.9562C42.348 8.88703 42.1353 8.85248 41.8335 8.85248H41.2112V9.78921ZM41.2112 11.2571H41.9561C42.2767 11.2571 42.4967 11.2204 42.6162 11.1471C42.7356 11.0716 42.7985 10.9428 42.8048 10.7605C42.8048 10.6536 42.7703 10.5551 42.7011 10.465C42.6319 10.3728 42.5418 10.3151 42.4307 10.2921C42.3197 10.2669 42.1415 10.2544 41.8964 10.2544H41.2112V11.2571ZM46.1649 11.3105C45.9554 11.4886 45.7532 11.6144 45.5583 11.6878C45.3656 11.7611 45.1581 11.7978 44.936 11.7978C44.5692 11.7978 44.2874 11.7087 44.0904 11.5305C43.8934 11.3504 43.795 11.1209 43.795 10.8422C43.795 10.6787 43.8316 10.5299 43.905 10.3958C43.9804 10.2596 44.0778 10.1506 44.1973 10.069C44.3188 9.9872 44.455 9.9254 44.6059 9.88348C44.7169 9.85415 44.8846 9.82583 45.1088 9.79858C45.5657 9.74414 45.902 9.6792 46.1178 9.60374C46.12 9.5262 46.121 9.47692 46.121 9.45596C46.121 9.2255 46.0675 9.06306 45.9607 8.96878C45.8161 8.84097 45.6013 8.77702 45.3163 8.77702C45.0502 8.77702 44.8532 8.82416 44.7254 8.9185C44.5996 9.0107 44.5064 9.17521 44.4456 9.41197L43.8924 9.33658C43.9427 9.09975 44.0254 8.90906 44.1407 8.76443C44.256 8.6178 44.4225 8.50564 44.6405 8.42811C44.8584 8.3485 45.1109 8.30866 45.398 8.30866C45.683 8.30866 45.9146 8.3422 46.0927 8.4093C46.2708 8.47632 46.4018 8.56122 46.4856 8.66386C46.5694 8.76443 46.6281 8.89232 46.6616 9.04739C46.6805 9.14374 46.6899 9.3177 46.6899 9.56912V10.3235C46.6899 10.8495 46.7014 11.1827 46.7245 11.3231C46.7496 11.4615 46.7978 11.5945 46.8691 11.7223H46.2782C46.2195 11.6049 46.1818 11.4677 46.1649 11.3105ZM46.1178 10.0469C45.9125 10.1308 45.6045 10.202 45.1937 10.2606C44.9611 10.2942 44.7966 10.332 44.7002 10.3738C44.6038 10.4157 44.5294 10.4776 44.477 10.5593C44.4246 10.639 44.3984 10.728 44.3984 10.8265C44.3984 10.9774 44.455 11.1031 44.5682 11.2037C44.6835 11.3042 44.8511 11.3545 45.0712 11.3545C45.289 11.3545 45.4829 11.3074 45.6526 11.2131C45.8223 11.1167 45.9471 10.9857 46.0267 10.8202C46.0874 10.6924 46.1178 10.5038 46.1178 10.2544V10.0469ZM47.5732 8.38412H48.139V9.77347H49.7075V8.38412H50.2733V11.7223H49.7075V10.2418H48.139V11.7223H47.5732V8.38412ZM50.8233 8.38412H53.536V8.85248H52.461V11.7223H51.8984V8.85248H50.8233V8.38412ZM56.1795 11.3105C55.97 11.4886 55.7677 11.6144 55.5729 11.6878C55.3801 11.7611 55.1726 11.7978 54.9505 11.7978C54.5838 11.7978 54.3019 11.7087 54.1049 11.5305C53.908 11.3504 53.8095 11.1209 53.8095 10.8422C53.8095 10.6787 53.8462 10.5299 53.9195 10.3958C53.9949 10.2596 54.0924 10.1506 54.2118 10.069C54.3334 9.9872 54.4696 9.9254 54.6204 9.88348C54.7315 9.85415 54.8992 9.82583 55.1234 9.79858C55.5802 9.74414 55.9165 9.6792 56.1324 9.60374C56.1345 9.5262 56.1355 9.47692 56.1355 9.45596C56.1355 9.2255 56.0821 9.06306 55.9752 8.96878C55.8306 8.84097 55.6158 8.77702 55.3309 8.77702C55.0647 8.77702 54.8677 8.82416 54.7399 8.9185C54.6141 9.0107 54.5209 9.17521 54.4601 9.41197L53.907 9.33658C53.9572 9.09975 54.04 8.90906 54.1552 8.76443C54.2705 8.6178 54.4371 8.50564 54.6551 8.42811C54.873 8.3485 55.1255 8.30866 55.4126 8.30866C55.6976 8.30866 55.9291 8.3422 56.1073 8.4093C56.2854 8.47632 56.4164 8.56122 56.5002 8.66386C56.584 8.76443 56.6427 8.89232 56.6762 9.04739C56.695 9.14374 56.7045 9.3177 56.7045 9.56912V10.3235C56.7045 10.8495 56.716 11.1827 56.7391 11.3231C56.7642 11.4615 56.8124 11.5945 56.8836 11.7223H56.2927C56.234 11.6049 56.1963 11.4677 56.1795 11.3105ZM56.1324 10.0469C55.927 10.1308 55.619 10.202 55.2083 10.2606C54.9756 10.2942 54.8111 10.332 54.7148 10.3738C54.6184 10.4157 54.544 10.4776 54.4916 10.5593C54.4392 10.639 54.413 10.728 54.413 10.8265C54.413 10.9774 54.4696 11.1031 54.5827 11.2037C54.698 11.3042 54.8656 11.3545 55.0857 11.3545C55.3036 11.3545 55.4974 11.3074 55.6672 11.2131C55.8369 11.1167 55.9616 10.9857 56.0413 10.8202C56.102 10.6924 56.1324 10.5038 56.1324 10.2544V10.0469ZM59.6026 8.38412V9.8269C59.7828 9.8269 59.9096 9.79235 59.9829 9.72319C60.0563 9.65402 60.1632 9.45281 60.3035 9.11964C60.4356 8.8032 60.5539 8.60099 60.6587 8.51301C60.7614 8.42711 60.9249 8.38412 61.1491 8.38412H61.3566V8.85248L61.2026 8.84933C61.0516 8.84933 60.9553 8.87136 60.9134 8.91535C60.8694 8.96142 60.8023 9.09868 60.7122 9.32714C60.6284 9.54508 60.5509 9.69593 60.4796 9.77976C60.4083 9.86359 60.2973 9.94006 60.1464 10.0092C60.3916 10.0742 60.6305 10.3005 60.8631 10.6882L61.4854 11.7223H60.8631L60.2564 10.6882C60.1328 10.4786 60.0249 10.3413 59.9327 10.2764C59.8405 10.2114 59.7304 10.179 59.6026 10.179V11.7223H59.0243V10.179C58.8985 10.179 58.7896 10.2114 58.6973 10.2764C58.6051 10.3393 58.4972 10.4765 58.3736 10.6882L57.7669 11.7223H57.1445L57.7638 10.6882C57.9985 10.3005 58.2384 10.0742 58.4836 10.0092C58.3159 9.93169 58.1986 9.84786 58.1315 9.75773C58.0645 9.66553 57.9639 9.44759 57.8298 9.10397C57.7837 8.98867 57.7345 8.91743 57.682 8.89018C57.6275 8.86292 57.5469 8.84933 57.44 8.84933C57.4127 8.84933 57.3572 8.85041 57.2734 8.85248V8.38412H57.352C57.57 8.38412 57.7229 8.39778 57.8109 8.42496C57.9011 8.45014 57.9807 8.50564 58.0498 8.59155C58.1211 8.67538 58.2133 8.85141 58.3264 9.11964C58.4647 9.44866 58.5695 9.6488 58.6407 9.72004C58.7141 9.79128 58.8419 9.8269 59.0243 9.8269V8.38412H59.6026ZM61.8909 8.38412H62.4567V10.9302L64.0252 8.38412H64.635V11.7223H64.0692V9.19195L62.5007 11.7223H61.8909V8.38412ZM65.182 8.38412H67.8946V8.85248H66.8196V11.7223H66.257V8.85248H65.182V8.38412ZM68.4353 8.38412H69.0011V10.9302L70.5696 8.38412H71.1794V11.7223H70.6136V9.19195L69.0451 11.7223H68.4353V8.38412ZM73.826 8.38412H75.1305C75.4511 8.38412 75.689 8.41137 75.8442 8.46587C76.0015 8.51823 76.1353 8.61565 76.2462 8.75821C76.3599 8.90069 76.4164 9.07143 76.4164 9.27056C76.4164 9.42978 76.3828 9.56912 76.3155 9.68857C76.2505 9.80594 76.1517 9.90444 76.0201 9.98405C76.1775 10.0365 76.307 10.135 76.41 10.2795C76.5144 10.422 76.5673 10.5917 76.5673 10.7887C76.5459 11.1052 76.4328 11.3399 76.2276 11.4929C76.0223 11.6458 75.7233 11.7223 75.3317 11.7223H73.826V8.38412ZM74.3918 9.78921H74.9954C75.2363 9.78921 75.4019 9.77662 75.492 9.75144C75.5821 9.72633 75.6625 9.67605 75.734 9.60059C75.8055 9.52305 75.8406 9.43085 75.8406 9.32399C75.8406 9.14796 75.7784 9.02536 75.6523 8.9562C75.5287 8.88703 75.3159 8.85248 75.0142 8.85248H74.3918V9.78921ZM74.3918 11.2571H75.1368C75.4574 11.2571 75.6775 11.2204 75.797 11.1471C75.9164 11.0716 75.9794 10.9428 75.9858 10.7605C75.9858 10.6536 75.9508 10.5551 75.8821 10.465C75.8127 10.3728 75.7226 10.3151 75.6114 10.2921C75.5003 10.2669 75.3222 10.2544 75.077 10.2544H74.3918V11.2571Z" fill="white"/>
</g>
<defs>
<clipPath id="clip0_565_559">
<rect width="96" height="32" rx="16" fill="white"/>
</clipPath>
</defs>
</svg>
