<svg width="93" height="19" viewBox="0 0 93 19" fill="none" xmlns="http://www.w3.org/2000/svg">
<g clip-path="url(#clip0_1459_1131)">
<path d="M15.1846 17.0808C10.8607 17.0808 7.35642 13.6698 7.35642 9.46245C7.35642 5.25486 10.8607 1.84718 15.1846 1.84718C16.7086 1.84718 18.1315 2.27005 19.3335 3.00302L15.1846 9.46245L22.9954 5.07481C22.1468 3.7594 20.9297 2.62596 19.4579 1.76587C17.5851 0.675065 14.98 0 12.0993 0C7.9901 0 4.38507 1.45271 2.37464 3.62821C0.886174 5.23642 0 7.26049 0 9.46234C0 11.6658 0.886174 13.6913 2.37464 15.3007C4.3903 17.4789 7.94162 18.9231 11.9831 18.9231C16.0239 18.9231 19.5742 17.4777 21.5911 15.3007C21.7016 15.1808 21.8085 15.0598 21.9096 14.9342L21.6051 13.8236C20.188 15.7915 17.8409 17.0808 15.1846 17.0808Z" fill="#898888"/>
<path d="M41.0814 18.4655L37.803 6.56792C37.2763 4.6453 35.4767 3.23218 33.3341 3.23218C32.7784 3.23218 32.246 3.32876 31.7519 3.50361L24.6941 6.0003H31.953L33.1935 10.5069C31.9902 9.49947 30.4231 8.88649 28.7072 8.88649C25.2997 8.88649 22.541 11.1078 22.541 13.8479C22.541 16.5882 25.2997 18.8127 28.7072 18.8127C31.1602 18.8127 33.3295 17.6445 34.6676 15.8497L35.3872 18.4655H41.0814ZM31.0811 16.6176C29.5093 16.6176 28.2352 15.3792 28.2352 13.8479C28.2352 12.3188 29.5093 11.0793 31.0811 11.0793C32.6529 11.0793 33.9282 12.3188 33.9282 13.8479C33.9282 15.3792 32.6529 16.6176 31.0811 16.6176Z" fill="#898888"/>
<path d="M54.448 3.23364C54.0178 3.23364 53.6109 3.32615 53.2482 3.49184L48.7166 5.54633C48.4922 4.23397 47.3204 3.23364 45.9067 3.23364C45.4789 3.23364 45.0708 3.32615 44.7035 3.49184L39.1709 5.99973H43.0608V18.4651H48.755V7.3865C48.755 6.62209 49.3909 5.99984 50.1791 5.99984C50.9626 5.99984 51.6032 6.62209 51.6032 7.3865V18.4651H57.2951V5.99973C57.2951 4.47102 56.0197 3.23376 54.448 3.23376" fill="#898888"/>
<path d="M75.7964 11.0786C75.7964 15.4114 72.1867 18.923 67.7341 18.923C63.2781 18.923 59.666 15.4114 59.666 11.0786C59.666 6.74695 63.2781 3.23364 67.7341 3.23364C72.1867 3.23364 75.7964 6.74706 75.7964 11.0786ZM68.0678 5.61452C67.8143 4.69144 66.8389 4.14349 65.8903 4.39162C64.9428 4.63874 64.3767 5.58817 64.6313 6.51114L67.397 16.5423C67.6527 17.4663 68.6258 18.0137 69.5744 17.7694C70.5231 17.5195 71.0869 16.5706 70.8323 15.6478L68.0678 5.61452Z" fill="#898888"/>
<path d="M90.1544 3.23364C89.7231 3.23364 89.3139 3.32615 88.9453 3.49184L84.4184 5.54633C84.1952 4.23397 83.0233 3.23364 81.6097 3.23364C81.1818 3.23364 80.7738 3.32615 80.4052 3.49184L74.875 5.99973H78.7637V18.4651H84.4567V7.3865C84.4567 6.62209 85.0938 5.99984 85.882 5.99984C86.6679 5.99984 87.3038 6.62209 87.3038 7.3865V18.4651H93.0003V5.99973C93.0003 4.47102 91.7238 3.23376 90.1544 3.23376" fill="#898888"/>
</g>
<defs>
<clipPath id="clip0_1459_1131">
<rect width="93" height="19" fill="white"/>
</clipPath>
</defs>
</svg>
