<svg width="32" height="32" viewBox="0 0 32 32" fill="none" xmlns="http://www.w3.org/2000/svg">
<g clip-path="url(#clip0_424_1092)">
<path d="M26.614 26.667C26.501 26.6662 26.3929 26.6209 26.313 26.541C26.2331 26.4611 26.1878 26.353 26.187 26.24V5.76096C26.1878 5.64795 26.2331 5.5398 26.313 5.45989C26.3929 5.37998 26.501 5.33474 26.614 5.33396H31.562C31.619 5.33276 31.6756 5.34291 31.7285 5.36381C31.7815 5.38471 31.8298 5.41594 31.8705 5.45568C31.9113 5.49543 31.9437 5.54289 31.966 5.5953C31.9882 5.64771 31.9998 5.70402 32 5.76096V26.24C32 26.48 31.802 26.672 31.562 26.667H26.614ZM18.317 26.667C18.317 26.667 17.921 26.547 17.921 26.24V13.667C17.9332 13.2749 17.866 12.8845 17.7234 12.5191C17.5809 12.1537 17.3659 11.8209 17.0915 11.5407C16.8171 11.2605 16.4888 11.0387 16.1265 10.8885C15.7642 10.7384 15.3752 10.663 14.983 10.667H5.73305C5.19705 10.667 5.33205 11.068 5.33205 11.068V26.24C5.33205 26.599 4.93105 26.667 4.93105 26.667H0.436047C0.379125 26.6682 0.322534 26.658 0.269574 26.6371C0.216614 26.6162 0.168343 26.585 0.127576 26.5452C0.0868082 26.5055 0.0543596 26.458 0.0321213 26.4056C0.00988296 26.3532 -0.00170024 26.2969 -0.00195312 26.24V5.76096C-0.00195312 5.52096 0.196047 5.32896 0.436047 5.33396H17.587C19.091 5.34528 20.5298 5.94953 21.5909 7.01547C22.652 8.08141 23.2496 9.52294 23.254 11.027L23.264 26.241C23.2642 26.2971 23.2532 26.3527 23.2318 26.4045C23.2104 26.4564 23.179 26.5035 23.1393 26.5432C23.0996 26.5829 23.0525 26.6143 23.0006 26.6357C22.9487 26.6571 22.8932 26.6681 22.837 26.668L18.317 26.667ZM9.11905 26.667C9.0127 26.667 8.9107 26.6247 8.8355 26.5495C8.7603 26.4743 8.71805 26.3723 8.71805 26.266V14.266C8.71805 14.047 8.90005 13.865 9.11905 13.865H14.145C14.364 13.875 14.53 14.053 14.53 14.266V26.266C14.5306 26.3183 14.5207 26.3703 14.5011 26.4189C14.4814 26.4674 14.4524 26.5116 14.4155 26.5489C14.3787 26.5862 14.3349 26.6158 14.2866 26.6361C14.2383 26.6563 14.1864 26.6668 14.134 26.667H9.11905Z" fill="#898888"/>
</g>
<defs>
<clipPath id="clip0_424_1092">
<rect width="32" height="32" fill="white"/>
</clipPath>
</defs>
</svg>
