<svg width="108" height="108" viewBox="0 0 108 108" fill="none" xmlns="http://www.w3.org/2000/svg">
<path d="M5.23941 62.7877H0.0351562V45.2782H9.01603L19.3334 58.3563V45.2782H24.5377V62.7877H15.7323L5.23941 49.4969V62.7877ZM49.3945 57.3742C49.3945 59.8008 48.9558 60.6445 48.2335 61.4512C47.1434 62.6459 45.5437 63.0172 42.4488 63.0172H33.5725C30.4777 63.0172 28.8779 62.6493 27.7709 61.4512C27.0487 60.6412 26.6099 59.8177 26.6099 57.3742V50.6242C26.6099 48.1975 27.0487 47.3538 27.7709 46.564C28.8779 45.3524 30.4777 44.998 33.5725 44.998H42.4488C45.5234 44.998 47.1434 45.349 48.2335 46.564C48.9558 47.3538 49.3945 48.1975 49.3945 50.641V57.3742ZM42.2227 58.5858C43.4174 58.5858 43.8224 58.5149 44.1228 58.2517C44.386 58.0053 44.5109 57.7083 44.5109 56.6688V51.3262C44.5109 50.3069 44.3894 49.9897 44.1228 49.7602C43.8224 49.4969 43.4208 49.426 42.2227 49.426H33.7852C32.6073 49.426 32.1854 49.4969 31.9053 49.7602C31.6252 49.9897 31.5172 50.3035 31.5172 51.3262V56.6688C31.5172 57.7049 31.6387 58.0053 31.9053 58.2517C32.1854 58.5149 32.6073 58.5858 33.7852 58.5858H42.2227ZM56.9545 45.2815V62.791H51.5242V45.2815H56.9545ZM66.1312 45.2815H73.2862L63.6168 53.4727L74.5315 62.7877H66.85L56.9545 53.665L66.1312 45.2984V45.2815ZM75.5339 45.2984H80.9643V62.7877H75.5339V45.2984ZM101.673 62.7877L100.057 59.7468H89.5435L87.9607 62.7877H81.9667L91.5821 45.2782H98.3321L107.964 62.7877H101.67H101.673ZM91.4437 55.9499H98.1937L94.8187 49.6049L91.4437 55.9499Z" fill="#898888"/>
</svg>
