<svg width="33" height="34" viewBox="0 0 33 34" fill="none" xmlns="http://www.w3.org/2000/svg">
<g clip-path="url(#clip0_1459_1114)">
<path d="M24.7016 20.6858V13.2101H26.3774V19.1643H29.3206V20.6805H24.7016V20.6858ZM11.2469 16.0257L15.3451 12.7776C15.7318 13.0985 16.1134 13.4247 16.5001 13.7519L12.6113 16.7843L13.4548 17.5429L17.3385 14.4001L18.4987 15.3797C17.2096 16.4316 15.9102 17.4771 14.6098 18.5173L15.4482 19.2759L19.3422 16.0278L19.3371 13.2111H21.018V19.1654H24.0684V20.6816H19.4443V17.8702C18.0748 18.9497 16.7105 20.0334 15.3461 21.1129L11.2479 17.8702C11.0489 18.8998 10.3508 19.7965 9.44326 20.2661C9.05139 20.4765 8.62136 20.6093 8.18617 20.6593C7.93351 20.6922 7.68086 20.6816 7.42923 20.6816H4.83461V13.2111H7.82626C8.60486 13.2218 9.36283 13.4991 9.97436 14.0027C10.5977 14.5203 11.0437 15.23 11.2469 16.0278V16.0257ZM6.41345 14.7252V19.2738H7.72417C7.9993 19.2634 8.26898 19.1917 8.51465 19.0637C8.76032 18.9357 8.97615 18.7543 9.14729 18.5321C9.436 18.1585 9.61349 17.7067 9.65833 17.2314C9.70317 16.756 9.61342 16.2775 9.39995 15.8536C9.26406 15.5846 9.07397 15.3487 8.84241 15.1616C8.61084 14.9746 8.34315 14.8406 8.05726 14.7688C7.82626 14.7135 7.59011 14.7241 7.35911 14.7241L6.41345 14.7252ZM16.2526 0H16.7146C19.3092 0.0329375 21.8544 0.702312 24.1479 1.94225C26.3857 3.157 28.3254 4.88117 29.8197 6.98381C31.8391 9.81806 32.9504 13.2305 32.9991 16.7461V17.255C32.9464 21.4883 31.36 25.5484 28.5513 28.6386C27.0353 30.304 25.2089 31.6373 23.1813 32.5587C21.1537 33.4801 18.9666 33.9706 16.7507 34.0011H16.2516C14.3014 33.9723 12.3718 33.5863 10.5529 32.861C8.26126 31.9396 6.19667 30.5056 4.50805 28.6625C2.81942 26.8195 1.54885 24.6133 0.787984 22.2031C0.289733 20.6031 0.0235494 18.9361 -0.00195312 17.2561V16.7471C0.0516719 13.5214 1.00248 10.3721 2.73705 7.68825C4.35543 5.16664 6.58931 3.12817 9.21433 1.77756C11.4003 0.648034 13.8054 0.0408128 16.2505 0.0010625L16.2526 0ZM16.0433 1.74356C12.8182 1.83793 9.71239 3.02005 7.20236 5.1085C5.1471 6.81063 3.5709 9.04794 2.63702 11.5887C1.27914 15.3128 1.37338 19.434 2.89998 23.0881C3.95597 25.5859 5.63941 27.7484 7.77676 29.3526C9.71752 30.813 11.9769 31.7595 14.3561 32.1088C16.3599 32.4073 18.4224 32.2862 20.3776 31.7433C23.0508 30.9983 25.4676 29.4957 27.3533 27.4061C29.239 25.3166 30.518 22.724 31.0449 19.9229C31.4573 17.7267 31.4007 15.4643 30.8788 13.2929C30.2725 10.7878 29.0591 8.48214 27.3522 6.59189C25.6452 4.70165 23.5006 3.28864 21.1191 2.48519C19.4819 1.9357 17.7642 1.68473 16.0433 1.74356Z" fill="#898888"/>
</g>
<defs>
<clipPath id="clip0_1459_1114">
<rect width="33" height="34" fill="white"/>
</clipPath>
</defs>
</svg>
