<svg width="94" height="93" viewBox="0 0 94 93" fill="none" xmlns="http://www.w3.org/2000/svg">
<g clip-path="url(#clip0_1459_1112)">
<path d="M77.6146 39.8392L77.7997 50.2697H77.7086L74.6478 39.8392H69.6305V52.9784H72.9499L72.7648 42.1846H72.8559L76.1312 52.9784H80.934V39.8392H77.6146ZM14.3673 39.8392L11.8587 53.115H15.4836L17.3342 41.0366H17.4106L19.2171 53.115H22.8126L20.3334 39.8392H14.3673ZM34.6537 39.8392L32.9999 49.9646H32.9088L31.2403 39.8392H25.7619L25.5004 53.115H28.8668L28.9579 41.1732H28.9872L31.2374 53.115H34.6478L36.8979 41.1732H36.989L37.0801 53.115H40.4464L40.1263 39.8392H34.6537ZM6.19519 49.3456C6.33325 49.6478 6.28625 50.1012 6.24219 50.3133C6.15112 50.7667 5.828 51.2055 4.94088 51.2055C4.08313 51.2055 3.5955 50.7202 3.5955 50.0111V48.7236H0V49.7379C0 52.7197 2.37056 53.5974 4.89681 53.5974C7.31438 53.5974 9.33244 52.7662 9.65556 50.5865C9.84062 49.4356 9.70256 48.68 9.65556 48.4068C9.02694 45.6052 3.90394 44.8205 3.55144 43.2599C3.50403 43.0248 3.50403 42.7829 3.55144 42.5478C3.6425 42.109 3.948 41.6556 4.75875 41.6556C5.5695 41.6556 6.01306 42.141 6.01306 42.8501V43.6522H9.37944V42.728C9.37944 39.8363 6.73275 39.3975 4.84981 39.3975C2.46163 39.3975 0.490562 40.1851 0.138062 42.3182C0.0165699 42.9098 0.0326417 43.521 0.185062 44.1056C0.719688 46.8462 5.52544 47.6483 6.19812 49.3426L6.19519 49.3456ZM49.8758 49.3456C50.0139 49.6478 49.9669 50.0576 49.9228 50.3133C49.8318 50.7667 49.5086 51.2055 48.6215 51.2055C47.7638 51.2055 47.2761 50.7202 47.2761 50.0111V48.7236H43.6806V49.7379C43.6806 52.6732 46.0071 53.5683 48.5304 53.5683C50.948 53.5683 52.922 52.7662 53.2422 50.54C53.4272 49.3891 53.2892 48.6771 53.2422 48.3603C52.7076 45.6052 47.6286 44.774 47.2761 43.2599C47.2287 43.0248 47.2287 42.7829 47.2761 42.5478C47.3525 42.109 47.6727 41.6556 48.4834 41.6556C49.2472 41.6556 49.7377 42.141 49.7377 42.8501V43.6522H53.0571V42.728C53.0571 39.8363 50.4574 39.3975 48.5745 39.3975C46.1863 39.3975 44.2593 40.1386 43.9068 42.3182C43.8158 42.8937 43.8158 43.4371 43.9362 44.1056C44.4884 46.8462 49.2002 47.6018 49.8729 49.3426L49.8758 49.3456ZM61.1822 51.1184C62.1311 51.1184 62.3896 50.4964 62.4836 50.1506C62.5306 50.014 62.5306 49.7873 62.5306 49.6507V39.8421H65.941V49.3921C65.941 49.6507 65.941 50.1477 65.894 50.2697C65.6796 52.7662 63.6909 53.5683 61.2263 53.5683C58.7618 53.5683 56.7907 52.7662 56.5586 50.2697C56.5586 50.1477 56.5116 49.6478 56.5116 49.3921V39.8421H59.9221V49.6507C59.9221 49.8338 59.9221 50.014 59.9691 50.1506C59.9691 50.4993 60.2452 51.1184 61.1764 51.1184H61.1822ZM89.1972 50.9818C90.193 50.9818 90.4985 50.3598 90.5896 50.014C90.6366 49.8774 90.6366 49.6507 90.6366 49.5286V47.6076H89.2442V45.6546H94.0029V49.2119C94.0029 49.4851 94.0029 49.6507 93.9559 50.1041C93.7268 52.5424 91.6148 53.3881 89.2442 53.3881C86.856 53.3881 84.7616 52.5395 84.5324 50.1041C84.4854 49.6507 84.4854 49.4821 84.4854 49.2119V43.6115C84.4854 43.3994 84.5324 42.946 84.5324 42.7338C84.8379 40.2374 86.8589 39.4352 89.2442 39.4352C91.6148 39.4352 93.6798 40.2374 93.9559 42.7338C94.0029 43.1262 94.0029 43.6115 94.0029 43.6115V44.0649H90.6366V43.3093C90.6366 43.3093 90.6366 42.9925 90.5896 42.8094C90.5426 42.5071 90.2694 41.8416 89.2442 41.8416C88.2484 41.8416 87.9899 42.4636 87.8988 42.8094C87.8518 42.9925 87.8518 43.2192 87.8518 43.4459V49.5315C87.8518 49.6972 87.8518 49.8803 87.8988 50.0169C87.8988 50.3656 88.2513 50.9847 89.2001 50.9847L89.1972 50.9818Z" fill="#898888"/>
</g>
<defs>
<clipPath id="clip0_1459_1112">
<rect width="94" height="93" fill="white"/>
</clipPath>
</defs>
</svg>
