<svg width="142" height="40" viewBox="0 0 142 40" fill="none" xmlns="http://www.w3.org/2000/svg">
<path d="M137.208 9.90025C135.971 8.46171 133.77 8.28476 132.324 9.49321C131.971 9.78273 131.68 10.138 131.468 10.5384C131.256 10.9388 131.127 11.3764 131.088 11.826C131.05 12.2756 131.102 12.7283 131.243 13.1578C131.384 13.5874 131.61 13.9853 131.909 14.3286C133.682 16.3901 134.66 18.9971 134.673 21.6943C134.663 28.0206 129.435 33.1487 123.016 33.1273C121.483 33.1415 119.963 32.8527 118.546 32.2781C117.129 31.7035 115.845 30.8549 114.77 29.7828C112.566 27.6405 111.354 24.7705 111.361 21.6943C111.355 20.1985 111.653 18.7165 112.239 17.3352C112.824 15.954 113.684 14.7011 114.77 13.6502C115.845 12.578 117.129 11.7293 118.546 11.1549C119.963 10.5804 121.483 10.2918 123.016 10.3065C124.17 10.2851 125.316 10.4509 126.426 10.758C128.255 11.3301 130.202 10.3121 130.758 8.49821C130.892 8.07098 130.94 7.62179 130.897 7.17653C130.854 6.73128 130.722 6.29876 130.507 5.90392C130.293 5.50908 130.001 5.15973 129.649 4.876C129.296 4.59228 128.89 4.37979 128.454 4.2508C126.692 3.71725 124.86 3.44316 123.016 3.4375C112.738 3.44702 104.382 11.6427 104.403 21.6943C104.382 26.5963 106.32 31.1841 109.84 34.619C113.356 38.0856 118.034 39.986 123.016 39.9963C127.984 39.9852 132.662 38.0856 136.194 34.619C139.698 31.1841 141.635 26.5963 141.63 21.6943C141.631 17.3725 140.063 13.1916 137.208 9.90025Z" fill="black"/>
<path d="M102.974 26.5289C101.344 25.5283 99.1985 26.0393 98.1824 27.6587C96.0605 31.0936 92.3351 33.1471 88.2303 33.1273C85.1214 33.1471 82.1953 31.9585 79.9835 29.7828C77.792 27.6405 76.5793 24.7697 76.5737 21.6943C76.5731 20.1991 76.874 18.7187 77.4593 17.3381C78.0445 15.9575 78.9024 14.7042 79.9835 13.6502C82.1945 11.4737 85.1214 10.2851 88.2303 10.3065C92.1126 10.2851 95.7264 12.1703 97.9058 15.322C98.1606 15.6956 98.4886 16.0158 98.8707 16.2639C99.2529 16.512 99.6815 16.6831 100.132 16.7672C100.582 16.8513 101.045 16.8467 101.493 16.7538C101.941 16.6608 102.366 16.4813 102.743 16.2257C104.336 15.1887 104.755 13.0638 103.665 11.4808C101.958 9.00491 99.6588 6.97707 96.9679 5.57485C94.277 4.17262 91.2766 3.43875 88.2295 3.4375C77.9635 3.44623 69.6083 11.6419 69.6172 21.6935C69.6083 26.5955 71.5458 31.1833 75.0536 34.6182C78.5824 38.084 83.2599 39.9852 88.2311 39.9955C94.7887 39.9844 100.739 36.7042 104.174 31.2285C105.153 29.5964 104.632 27.4929 102.974 26.5289Z" fill="black"/>
<path d="M68.0053 26.5296C67.616 26.2918 67.1824 26.1323 66.7297 26.0604C66.277 25.9885 65.8142 26.0056 65.3683 26.1107C64.9224 26.2159 64.5023 26.407 64.1324 26.6729C63.7625 26.9388 63.4502 27.2742 63.2137 27.6595C61.0699 31.0944 57.3453 33.1487 53.2616 33.1281C50.13 33.1487 47.2031 31.9593 45.0148 29.7836C42.8014 27.6413 41.5888 24.7713 41.6049 21.6951C41.5943 20.1985 41.8908 18.7151 42.4766 17.3332C43.0623 15.9513 43.9255 14.699 45.0148 13.651C47.2039 11.4745 50.1308 10.2859 53.2616 10.3073C55.164 10.2987 57.0391 10.7522 58.7193 11.6274C60.3995 12.5025 61.8327 13.7721 62.8909 15.3228C63.9879 16.893 66.1544 17.3041 67.7286 16.2265C69.345 15.1895 69.7648 13.0654 68.6962 11.4816C66.986 9.0093 64.6859 6.98413 61.996 5.58221C59.306 4.18028 56.3077 3.44404 53.2616 3.4375C42.9729 3.44702 34.6169 11.6427 34.6016 21.6943C34.6169 26.5963 36.5544 31.1841 40.084 34.619C43.591 38.0856 48.2677 39.986 53.2616 39.9963C59.7965 39.9852 65.7474 36.705 69.1573 31.2293C70.1621 29.5972 69.6411 27.4937 68.0053 26.5296Z" fill="black"/>
<path d="M33.3577 26.5294C31.7243 25.5289 29.5789 26.0399 28.5661 27.6593C26.4409 31.0942 22.7163 33.1477 18.614 33.1279C16.6687 33.1464 14.7505 32.6801 13.0393 31.7726L31.8368 15.8645C33.2315 14.6679 33.4523 12.6351 32.344 11.21C30.5115 8.8171 28.1079 6.90219 25.3443 5.63351C22.5807 4.36484 19.5418 3.78124 16.4944 3.93398C14.3919 4.05537 12.3443 4.50448 10.4125 5.29C8.62788 5.99698 7.7744 7.99254 8.52352 9.71912C8.69056 10.1364 8.94041 10.5169 9.25858 10.8387C9.57675 11.1605 9.95691 11.4171 10.377 11.5937C10.7971 11.7703 11.2487 11.8633 11.7057 11.8673C12.1628 11.8713 12.616 11.7862 13.0393 11.6171C14.2577 11.1281 15.5494 10.8379 16.8633 10.7578C19.6268 10.6332 22.3062 11.4639 24.4653 13.0628L8.20154 26.846C7.37969 25.2485 6.95342 23.4834 6.95733 21.6941C6.95916 19.6045 7.549 17.5559 8.66186 15.774C9.65367 14.1673 9.13268 12.0638 7.50986 11.0744C5.84417 10.0992 3.69955 10.6094 2.71826 12.2042C0.931566 15.0587 -0.0096328 18.3446 7.43341e-05 21.6941C-0.0120604 26.5961 1.92545 31.1839 5.43644 34.6188C8.96199 38.0846 13.6403 39.9858 18.614 39.9961C25.1692 39.985 31.1184 36.7048 34.5097 31.2291C35.533 29.597 35.0121 27.4935 33.3577 26.5294Z" fill="black"/>
</svg>
