<svg width="128" height="44" viewBox="0 0 128 44" fill="none" xmlns="http://www.w3.org/2000/svg">
<g clip-path="url(#clip0_1498_1335)">
<path d="M32.0047 1.22852C35.1761 1.22852 37.7475 3.83748 37.7475 7.05684C37.7475 10.2768 35.1761 12.8858 32.0047 12.8858H5.74279C2.57106 12.8858 0 10.2768 0 7.05684C0 3.83748 2.57106 1.22852 5.74279 1.22852H32.0047Z" fill="black"/>
<path d="M29.3658 16.502C32.5375 16.502 35.1086 19.1113 35.1086 22.3309C35.1086 25.55 32.5375 28.1593 29.3658 28.1593H14.4182C13.1435 28.164 12.0998 29.1875 12.051 30.4685V38.0655C12.051 41.2845 9.47997 43.8938 6.3092 43.8938C3.13744 43.8938 0.566406 41.2845 0.566406 38.0655V25.1372C0.566406 20.3685 4.3752 16.502 9.07357 16.502H29.3658Z" fill="black"/>
<path d="M40.3555 5.82874C40.3555 2.60972 42.9265 0 46.0979 0C49.27 0 51.8407 2.60972 51.8407 5.82874V38.1062C51.8407 41.3256 49.27 43.9352 46.0979 43.9352C42.9265 43.9352 40.3555 41.3256 40.3555 38.1062V5.82874Z" fill="black"/>
<path d="M111.033 32.3741L113.341 32.3681C113.813 32.3681 114.196 31.9793 114.196 31.501C114.198 31.3793 114.178 31.271 114.135 31.1687L105.554 16.5328L92.1485 40.0931C91.1132 41.9149 89.2537 42.9541 87.3239 43.0063C87.2672 43.0143 87.21 43.0186 87.15 43.0186H65.3337C60.6349 43.0186 56.8262 39.1525 56.8262 34.3838V5.82874C56.8262 2.60972 59.3973 0 62.569 0C65.7401 0 68.3115 2.60972 68.3115 5.82874V28.9579C68.3155 30.2525 69.3235 31.3122 70.5865 31.3606H82.7903C83.1045 31.2627 84.0642 30.9314 84.3566 30.4701L99.6856 3.53631C100.849 1.50927 103.012 0.144399 105.489 0.144399C107.967 0.144399 110.131 1.51128 111.289 3.54265L126.226 28.9973C127.338 30.4671 127.999 32.3059 127.999 34.3019C127.999 39.1161 124.154 43.0186 119.412 43.0186H102C99.1033 43.0186 96.7565 40.6353 96.7565 37.6957C96.7565 34.7568 99.1033 32.3741 102 32.3741H111.033Z" fill="black"/>
</g>
<defs>
<clipPath id="clip0_1498_1335">
<rect width="128" height="44" fill="white"/>
</clipPath>
</defs>
</svg>
