<svg width="129" height="27" viewBox="0 0 129 27" fill="none" xmlns="http://www.w3.org/2000/svg">
<path d="M70.1694 8.91011H73.0541V16.5859C73.0541 20.4821 70.8093 22.7169 66.8987 22.7169C63.0287 22.7169 60.8043 20.521 60.8043 16.6928V8.91982H63.689V16.6054C63.689 18.879 64.8571 20.0935 66.9394 20.0935C69.0216 20.0935 70.1694 18.9081 70.1694 16.7025V8.91011ZM53.9175 14.3901H47.3964V8.91011H44.5117V22.5128H47.3964V16.9843H53.9074V22.5128H56.7921V8.91011H53.9074V14.3901H53.9175ZM126.157 8.91011V22.4934H129.001V8.91011H126.157ZM114.832 16.6539H120.083V14.1763H114.832V11.3877H122.45V8.91982H111.988V22.5031H122.724V20.0255H114.832V16.6539ZM103.516 18.2571L100.286 8.90039H97.9297L94.6996 18.2571L91.561 8.91011H88.4934L93.4503 22.5031H95.8373L99.0673 13.5739L102.297 22.5031H104.705L109.651 8.91011H106.655L103.516 18.2571ZM83.3639 8.98784L89.5701 22.5031H86.5432L85.2634 19.6757H78.7525L78.661 19.87L77.4625 22.5031H74.5168L80.7839 8.91011H83.303L83.3639 8.98784ZM84.0546 16.8969L82.0028 12.3399L79.9612 16.8969L79.819 17.2078H84.1867L84.0546 16.8969Z" fill="#898888"/>
<path d="M16.1101 21.0648C16.1508 21.0356 16.1609 20.9773 16.1406 20.9287C13.3398 15.1703 9.84567 9.74425 5.72923 4.76095C5.72923 4.76095 2.45854 7.73411 2.69216 10.717C2.74688 11.4047 2.94281 12.0753 3.26874 12.6905C3.59466 13.3057 4.04419 13.8534 4.5916 14.3023C7.44584 16.9645 14.3529 20.3263 15.9578 21.0939C16.0086 21.1134 16.0695 21.1036 16.1101 21.0648ZM15.0436 23.3384C15.0233 23.2801 14.9624 23.2412 14.8913 23.2412L3.39302 23.6201C4.64239 25.748 6.74498 27.3997 8.92883 26.8945C10.4423 26.535 13.8552 24.2517 14.9827 23.4744C15.0741 23.4064 15.0436 23.3481 15.0436 23.3384ZM15.2163 22.357C15.2772 22.2696 15.1757 22.1919 15.1757 22.1919C10.1274 18.9272 0.335631 13.9136 0.335631 13.9136C0.0110786 14.8652 -0.0797129 15.8755 0.0703124 16.8661C0.220338 17.8567 0.607139 18.8009 1.20065 19.6252C1.79417 20.4495 2.57841 21.1319 3.49243 21.6191C4.40644 22.1064 5.42561 22.3855 6.47073 22.4348C6.6434 22.4639 13.3067 22.4348 15.0944 22.425C15.1452 22.4153 15.1858 22.3959 15.2163 22.357ZM15.9781 0.00971622C15.4804 0.0485811 14.1294 0.349784 14.1294 0.349784C11.0822 1.09793 10.361 3.75046 10.361 3.75046C9.80237 5.41194 10.3712 7.2483 10.3712 7.2483C11.3869 11.5623 16.3844 18.6649 17.4611 20.1514C17.5322 20.2292 17.5931 20.2 17.5931 20.2C17.6541 20.1806 17.7049 20.132 17.7049 20.064C19.3707 4.20712 15.9781 0.00971622 15.9781 0.00971622ZM19.7871 20.1806C19.8481 20.2 19.9192 20.1806 19.9497 20.1223C21.0568 18.5968 26.0238 11.5332 27.0396 7.23859C27.0396 7.23859 27.5881 5.15931 27.0599 3.74075C27.0599 3.74075 26.3082 1.04935 23.261 0.340068C23.261 0.340068 22.3874 0.126311 21.453 0C21.453 0 18.0401 4.19741 19.7059 20.0543C19.6957 20.1126 19.7364 20.1612 19.7871 20.1806ZM22.5093 23.2509C22.4823 23.2561 22.4566 23.2666 22.4339 23.2816C22.4112 23.2967 22.3919 23.316 22.3773 23.3384C22.3671 23.3967 22.3773 23.4452 22.4179 23.4841C23.5149 24.242 26.8567 26.4767 28.4616 26.9042C28.4616 26.9042 31.4377 27.8758 34.0177 23.6299L22.5093 23.2509ZM37.0853 13.8942C37.0853 13.8942 27.3138 18.9175 22.2554 22.1821C22.2046 22.221 22.1741 22.2793 22.1945 22.3376C22.1945 22.3376 22.2452 22.425 22.3163 22.425C24.1244 22.425 30.9705 22.4348 31.1533 22.4056C31.8339 22.357 32.5043 22.2113 33.134 21.9684C33.134 21.9684 35.5718 21.2299 36.8313 18.5774C36.8313 18.5774 37.9588 16.4204 37.0853 13.8942ZM21.3311 21.0648C21.3717 21.0939 21.4326 21.1036 21.4834 21.0745C23.1289 20.2875 29.9852 16.9548 32.8191 14.3023C32.8191 14.3023 34.617 12.9226 34.7084 10.6976C34.9116 7.61752 31.6714 4.76095 31.6714 4.76095C31.6714 4.76095 25.6785 11.708 21.2803 20.8899C21.2732 20.9208 21.2742 20.9529 21.283 20.9833C21.2919 21.0138 21.3084 21.0418 21.3311 21.0648Z" fill="#898888"/>
</svg>
