<svg width="126" height="12" viewBox="0 0 126 12" fill="none" xmlns="http://www.w3.org/2000/svg">
<path d="M0 0H2.74194C4.84571 0 6.29653 0.760036 6.29653 2.84638C6.29653 4.39911 5.4841 5.17535 4.20731 5.53118V5.5636C5.58566 5.69277 6.55758 6.69567 6.55758 8.28057C6.55758 10.7065 4.75869 11.2888 2.69854 11.2888H0V0ZM1.45061 9.96271H2.53884C3.84449 9.96271 5.01974 9.65526 5.01974 8.13519C5.01974 6.38846 3.6416 6.14584 2.39388 6.14584H1.45061V9.96271ZM1.45061 4.81953H2.24871C3.65593 4.81953 4.84571 4.6739 4.84571 3.00821C4.84571 1.66569 3.81563 1.32607 2.97413 1.32607H1.45061V4.81953Z" fill="#898888"/>
<path d="M12.4057 0H13.929L18.209 11.2888H16.6275L15.5974 8.4424H10.6356L9.60555 11.2888H8.08203L12.4057 0ZM13.1165 1.52031L11.0998 7.11608H15.1331L13.1165 1.52031Z" fill="#898888"/>
<path d="M20.4297 0H22.4026L26.8714 9.08922H26.9003V0H28.3511V11.2888H26.494L21.9094 2.00531H21.8805V11.2888H20.4297V0Z" fill="#898888"/>
<path d="M39.3055 2.19956C38.5946 1.68214 37.8256 1.42331 36.5199 1.42331C34.184 1.42331 32.6316 3.31566 32.6316 5.83863C32.6316 8.49102 34.3437 10.254 36.4474 10.254C37.4484 10.254 37.7097 10.1407 38.0723 10.06V6.63108H35.9397V5.30501H39.5231V11.1758C38.9717 11.386 38.0144 11.6773 36.4329 11.6773C33.2266 11.6773 31.0938 9.38047 31.0938 5.79026C31.0938 2.31276 33.3572 0 36.4474 0C37.9271 0 38.5801 0.242621 39.4216 0.566278L39.3055 2.19956Z" fill="#898888"/>
<path d="M64.8826 0C67.9585 0 69.7576 2.4908 69.7576 5.83863C69.7576 9.26726 67.973 11.6773 64.8826 11.6773C61.7924 11.6773 60.0078 9.26726 60.0078 5.83863C60.0078 2.4908 61.8069 0 64.8826 0ZM64.8826 10.254C67.2185 10.254 68.2195 8.08681 68.2195 5.83863C68.2195 3.54208 67.117 1.40711 64.8826 1.42331C62.6484 1.40711 61.5459 3.54208 61.5459 5.83863C61.5459 8.08681 62.5469 10.254 64.8826 10.254Z" fill="#898888"/>
<path d="M72.6484 0H74.0993V9.86571H78.3359V11.2888H72.6484V0Z" fill="#898888"/>
<path d="M88.1078 6.61488C88.1078 9.78468 86.6713 11.483 84.1759 11.483C81.6804 11.483 80.2441 9.78468 80.2441 6.61488V0H81.695V6.40443C81.695 8.57181 82.3045 10.0597 84.1759 10.0597C86.0474 10.0597 86.6568 8.57181 86.6568 6.40443V0H88.1078V6.61488Z" fill="#898888"/>
<path d="M91.6094 0H96.9919V1.42307H93.0602V4.72253H96.8179V6.14584H93.0602V11.2888H91.6094V0Z" fill="#898888"/>
<path d="M105.072 1.89235C104.332 1.56894 103.926 1.42331 103.171 1.42331C102.359 1.42331 101.401 1.74673 101.401 2.92742C101.401 5.09456 105.754 4.59336 105.754 8.31323C105.754 10.723 104.085 11.6773 102.054 11.6773C101.343 11.6773 100.647 11.4509 99.9794 11.2082L100.124 9.70413C100.618 9.93054 101.488 10.254 102.228 10.254C103.055 10.254 104.216 9.7363 104.216 8.41023C104.216 5.88701 99.8633 6.58271 99.8633 3.07304C99.8633 1.06749 101.285 0 103.113 0C103.78 0 104.578 0.129414 105.275 0.404449L105.072 1.89235Z" fill="#898888"/>
<path d="M109.051 0H114.723V1.42307H110.502V4.72253H114.346V6.14584H110.502V9.86571H114.723V11.2888H109.051V0Z" fill="#898888"/>
<path d="M118.078 0H120.051L124.52 9.08922H124.549V0H126V11.2888H124.143L119.558 2.00531H119.529V11.2888H118.078V0Z" fill="#898888"/>
<path d="M54.0212 11.3161C54.0212 11.3161 52.8742 10.0375 52.5873 9.71767C52.3465 9.97819 52.1093 10.2426 51.6597 10.7438C50.7698 11.7361 48.9345 12.2687 47.5737 10.7518C46.1927 9.21235 46.7168 7.13616 47.5665 6.1889C47.8959 5.82194 48.2889 5.39161 48.4942 5.16278C48.3171 4.94967 47.4461 4.19181 47.4461 2.81808C47.4461 1.39719 48.4729 0 49.9743 0C51.0719 0 51.6879 0.749876 51.7658 0.836717C51.6916 0.919687 50.8612 1.84131 50.7444 1.97145C50.6329 1.84131 50.3779 1.61635 49.9743 1.61635C49.4997 1.61635 48.8908 2.0445 48.8908 2.82413C48.8908 3.31494 49.1829 3.64101 49.22 3.68262C49.7035 4.22132 52.5819 7.44216 52.5819 7.44216L53.607 6.29945L54.6269 7.44216L53.6018 8.57883L55.0357 10.1775L54.0212 11.3161ZM49.5138 6.30743C49.5138 6.30743 49.0855 6.78493 48.5933 7.33355C48.1012 7.88217 47.956 8.89668 48.5933 9.60713C49.2307 10.3176 50.137 10.1596 50.6329 9.61511C51.1285 9.07036 51.5677 8.57302 51.5677 8.57302L49.5138 6.30743Z" fill="#898888"/>
</svg>
