<svg width="220" height="20" viewBox="0 0 220 20" fill="none" xmlns="http://www.w3.org/2000/svg">
<path d="M28.1864 9.42762C29.465 6.75534 27.7099 5.72074 23.5448 5.72074L16.5816 5.72632C15.0674 5.72277 14.7483 5.60855 15.0856 4.91662L15.5862 3.8876C15.892 3.22004 16.338 3.0911 17.8548 3.08957L26.9769 3.08602C28.8605 3.08399 29.6556 3.31954 30.6735 3.69114L31.5783 0.0416279L13.3824 0.0441609C9.9118 0.0421303 7.21647 1.53413 5.83828 4.41252L3.8813 8.51993C2.37247 11.5831 3.45617 12.4949 7.35729 12.4959L15.3592 12.4979C16.89 12.4964 17.1411 12.6406 16.8167 13.3066L16.2068 14.5681C15.8888 15.2514 15.4936 15.3641 13.9714 15.3661H4.49222C2.54006 15.3651 1.76905 15.0235 0.976082 14.6813L0 18.4232L17.7049 18.4192C22.4151 18.4161 24.6183 16.7997 26.011 13.9193L28.1864 9.42711V9.42762ZM75.6819 10.4165C77.9494 10.415 78.9453 10.68 79.8844 10.91L81.827 6.89951C80.6624 7.11476 79.4213 7.37873 77.1639 7.3767L70.1606 7.37619L72.2509 3.08145L80.2287 3.07688C82.5369 3.08094 83.5318 3.32665 84.4709 3.56474L85.3785 0.0335022L63.101 0.0314727C63.2504 0.757416 63.215 1.43869 62.3814 3.18247L56.5672 15.2458C56.0366 16.3337 55.5825 17.0038 55.1178 17.5369C54.524 16.5612 54.086 15.4489 53.7985 14.6478L50.6684 5.45727L57.1653 1.84734C59.0178 0.804626 60.0346 0.493944 61.4192 0.0314727L52.446 0.0355317C52.3737 0.271083 52.3191 0.494452 52.2088 0.722896C51.9133 1.33766 51.4351 1.78338 49.8803 2.71543L40.4691 8.28388L42.9213 3.18552C43.762 1.43665 44.4211 0.759954 45.2515 0.0324874L33.8191 0.0395984C33.9728 0.762496 33.9556 1.4397 33.1097 3.18552L27.2955 15.2534C26.4565 16.9982 25.8097 17.6765 24.9723 18.4197L36.3811 18.4207C36.2622 17.6775 36.2633 16.9937 37.0959 15.2514L38.4371 12.4949L41.6668 10.6231L43.6608 18.4151L76.8984 18.4075L79.4963 14.8676C78.3767 15.092 77.1292 15.3534 74.8514 15.355H66.3141L68.7085 10.417L75.6814 10.4155L75.6819 10.4165ZM105.072 13.9447C105.072 13.9447 101.969 14.6331 98.0702 14.6321C98.0702 14.6321 94.2638 14.6417 93.4757 14.6311C92.4798 14.626 92.1751 14.3666 92.5526 13.4635C92.9274 12.5593 96.7188 4.83336 96.7188 4.83336C96.8521 4.55466 97.327 3.79166 98.5494 3.79166L105.758 3.79369C107.551 3.78912 109.161 4.36429 109.161 4.36429L110.307 0.136046L110.248 0.140616L110.282 0.0269024L94.8341 0.0289319C90.6336 0.0289319 87.6171 1.46204 85.7013 5.43239L82.054 13.0071C80.1377 16.9531 81.7922 18.408 85.961 18.408L101.821 18.4019L105.072 13.9447H105.072ZM133.129 15.2311L138.952 3.16572C139.784 1.42396 140.446 0.744728 141.263 0.0187845L129.846 0.0238582C129.986 0.746248 129.979 1.42396 129.131 3.16775L127.115 7.37112L119.785 7.3701L121.821 3.1713C122.672 1.42092 123.314 0.743707 124.155 0.0223322L112.729 0.0284284C112.869 0.749295 112.855 1.42346 111.994 3.17283L106.19 15.2408C105.34 16.9754 104.69 17.6673 103.845 18.4024L115.273 18.3983C115.142 17.6648 115.147 16.9779 116.008 15.2372L118.339 10.4099L125.646 10.4064L123.321 15.2357C122.478 16.9749 121.825 17.6607 120.993 18.3989L132.401 18.3973C132.265 17.6617 132.281 16.9739 133.129 15.2301L133.129 15.2311ZM153.728 15.3408L145.217 15.3392L147.588 10.4043L154.585 10.4028C156.827 10.3993 157.846 10.6627 158.774 10.8917L160.713 6.88479C159.545 7.10358 158.309 7.36553 156.069 7.36401L149.052 7.363L151.137 3.06216L159.132 3.06063C161.44 3.06267 162.428 3.31243 163.369 3.54646L164.264 0.0157325L141.998 0.020814C142.129 0.745235 142.114 1.42295 141.264 3.1713L135.462 15.2306C134.608 16.9744 133.947 17.6607 133.13 18.3958L155.793 18.3918L158.387 14.8524C157.288 15.0839 156.016 15.3448 153.728 15.3403V15.3408ZM182.596 4.08407L181.529 6.32891C181.101 7.21831 180.67 7.35995 179.401 7.36097L173.859 7.36248L175.962 3.06266L181.482 3.05861C182.739 3.05607 183.04 3.1911 182.595 4.08407H182.596ZM185.425 10.3972C187.575 10.2937 189.49 10.1459 190.8 7.45031L192.422 4.06579C193.907 0.985356 192.207 0.01117 187.708 0.01117L166.561 0.0147177C166.937 0.742184 166.925 1.41533 166.074 3.16673L160.264 15.2311C159.423 16.9729 158.779 17.6557 157.924 18.3938L169.348 18.3912C169.214 17.6557 169.223 16.9688 170.066 15.2286L172.385 10.4023L175.409 10.3977L176.216 18.3897L187.19 18.3912C186.664 17.6932 186.653 16.7404 186.428 15.5687L185.424 10.3972H185.425ZM203.635 3.8541C203.966 3.18603 204.391 3.05251 205.929 3.04896L215.044 3.0515C216.939 3.05404 217.703 3.28857 218.734 3.65713L220 0L201.429 0.0101552C197.968 0.00913992 195.29 1.4991 193.895 4.37851L191.942 8.48593C190.44 11.5516 191.527 12.4639 195.42 12.4639L203.423 12.4619C204.942 12.4603 205.216 12.603 204.88 13.2751L204.27 14.5346C203.954 15.2169 203.569 15.3321 202.016 15.3342L192.544 15.3362C190.63 15.3362 189.82 14.991 189.022 14.6493L188.074 18.3882L205.756 18.3857C210.474 18.3831 212.682 16.7602 214.08 13.8792L216.248 9.39208C217.539 6.7203 215.787 5.68622 211.602 5.68825L204.641 5.68927C203.107 5.68825 202.798 5.57859 203.139 4.88209L203.635 3.85461L203.635 3.8541ZM216.753 17.9679H217.22C217.583 17.9679 217.749 17.8689 217.749 17.6709C217.749 17.4658 217.592 17.3744 217.262 17.3744H216.753V17.9679ZM217.323 17.08C217.843 17.08 218.124 17.2769 218.124 17.643C218.124 17.8212 218.069 17.9176 217.896 18.0592L217.905 18.1562L218 18.2633C218.019 18.2841 218.03 18.3227 218.049 18.3897C218.07 18.4378 218.081 18.4888 218.083 18.5405L218.102 18.6791L218.114 18.8065L218.124 18.8872C218.124 18.9253 218.124 18.9344 218.165 19.0537H217.792C217.749 18.9634 217.739 18.9441 217.726 18.7278C217.698 18.3141 217.634 18.244 217.22 18.244H216.762V19.0441H216.367V17.08H217.322H217.323ZM215.556 18.0872C215.556 18.9558 216.306 19.6655 217.231 19.6655C217.671 19.6633 218.093 19.4963 218.404 19.2007C218.716 18.9051 218.891 18.5049 218.893 18.0872C218.893 17.2079 218.152 16.5073 217.231 16.5073C216.306 16.5073 215.556 17.2079 215.556 18.0872ZM219.265 18.0872C219.265 19.1426 218.352 20 217.231 20C216.097 20 215.183 19.1426 215.183 18.0872C215.183 17.0216 216.097 16.1606 217.231 16.1606C217.77 16.1608 218.287 16.3637 218.668 16.7249C219.05 17.0861 219.264 17.5761 219.265 18.0872Z" fill="black"/>
</svg>
