<svg width="110" height="24" viewBox="0 0 110 24" fill="none" xmlns="http://www.w3.org/2000/svg">
<path fill-rule="evenodd" clip-rule="evenodd" d="M73.2661 13.8239H67.8597V20.6983H63.4039V3.32749H67.8597V9.83232H73.2661V3.32749H77.794V20.6983H73.2661V13.8239ZM61.8699 6.65383L58.3637 8.94529C57.7063 8.28003 56.9028 7.02342 54.9306 7.02342C53.6888 7.02342 51.4244 8.13219 51.4244 11.6064C51.4244 15.2284 52.9583 16.8546 55.2958 16.7806C57.122 16.7067 57.4872 16.3371 58.5829 15.0076L61.7969 17.4459C60.6282 18.9982 59.1672 21.0669 55.1497 20.995C50.84 20.9211 47.0416 17.4459 47.0416 11.6064C47.1147 6.80166 50.4017 2.88398 54.9306 2.88398C57.7794 2.9579 60.1168 4.21452 61.8699 6.65383ZM32.2863 17.7426L34.8429 15.0795C35.8656 16.1164 37.8378 17.0763 39.2257 17.0763C40.6866 17.0763 41.6362 16.9275 41.6362 15.599C41.6362 14.8588 41.344 14.4902 40.6136 14.2674C39.2257 13.8989 37.4726 13.3814 35.8656 12.7151C33.9664 11.7532 32.7976 10.7193 32.7976 7.98436C32.7976 3.40141 37.8378 2.66223 39.3718 2.73615C40.9788 2.73615 43.3893 3.40039 45.2155 5.39721C44.2659 6.21032 44.1198 6.50599 42.5858 8.28003C41.5632 7.09734 40.4675 6.43207 39.1526 6.43207C38.0569 6.43207 36.9613 6.9495 37.0343 8.05827C37.1074 8.87138 37.3265 9.31489 38.057 9.46273C38.8605 9.68448 39.664 9.98016 42.0745 10.5715C44.412 11.1629 45.7998 12.9359 45.7268 15.3023C45.6537 18.8514 43.1702 20.7722 39.8101 20.7722C36.8152 20.7722 34.4047 20.032 32.2863 17.7426ZM15.4127 11.6064C15.4127 9.83232 15.6318 8.28003 16.2893 7.09734C16.8736 5.84072 17.531 4.87978 18.4076 4.28844C19.2841 3.69709 20.1607 3.25358 20.9642 3.03182C21.7677 2.81007 22.5712 2.66223 23.3017 2.66223C24.0321 2.66223 24.8356 2.81007 25.7122 3.03182C26.636 3.28119 27.504 3.70779 28.2688 4.28844C29.1453 4.87978 29.8758 5.84072 30.3871 7.09734C30.9715 8.28003 31.2637 9.83232 31.2637 11.6064C31.2637 13.5282 30.9715 15.0795 30.3871 16.2632C29.8758 17.5209 29.1453 18.4808 28.2688 19.0721C27.3922 19.6635 26.5157 20.107 25.6391 20.3298C24.8356 20.5505 24.0321 20.6983 23.3017 20.6983C22.6443 20.6983 21.8407 20.5495 20.9642 20.3298C20.1607 20.107 19.2841 19.6645 18.4076 19.0721C17.531 18.4808 16.8736 17.5198 16.2893 16.2632C15.6318 15.0795 15.4127 13.5272 15.4127 11.6064ZM19.5763 11.8271C19.5763 12.7151 19.7224 13.5272 19.9416 14.1186C20.1607 14.7838 20.4529 15.3013 20.8911 15.598C21.1833 16.0415 21.6216 16.2612 22.0599 16.41C22.4251 16.5589 22.8634 16.6328 23.3017 16.6328C23.7399 16.6328 24.1782 16.5589 24.6165 16.41C25.0773 16.2631 25.4842 15.9803 25.7852 15.598C26.1505 15.3013 26.4426 14.7838 26.7348 14.1186C26.923 13.3694 27.0212 12.6 27.027 11.8271C27.027 10.8672 26.8799 10.128 26.7348 9.53664C26.4958 8.97462 26.1757 8.45151 25.7852 7.98436C25.42 7.68868 25.0548 7.39301 24.6165 7.24517C24.1782 7.09733 23.7399 7.09734 23.3017 7.09734C22.8634 7.09734 22.4251 7.09733 22.0599 7.24517C21.6216 7.40216 21.2227 7.65448 20.8911 7.98436C20.4529 8.42787 20.1607 8.87138 19.9416 9.53664C19.7224 10.128 19.5763 10.8672 19.5763 11.8271ZM0 20.032V2.95791H8.1081C10.6657 2.95791 13.4405 4.73195 13.4405 7.54085C13.4405 9.31489 13.0762 10.4976 11.3952 11.3846C13.2213 12.1977 14.244 12.6412 14.1709 15.9675C14.1709 19.22 11.3952 20.1809 7.08546 20.1809L0 20.032ZM4.30971 13.1586V16.8546H7.52374C8.91161 16.8546 9.71512 16.1893 9.71512 15.0076C9.71512 13.8249 8.76552 13.1586 7.66983 13.1586H4.30971ZM4.16362 6.50598V9.90624H7.15851C8.18115 9.90624 9.13075 9.24097 9.13075 8.20611C9.13075 7.17126 8.32724 6.50598 7.15851 6.50598H4.16362Z" fill="#898888"/>
<path fill-rule="evenodd" clip-rule="evenodd" d="M101.721 17.9622V15.7446H93.4657V19.2937L92.2229 18.4057C91.2826 17.5347 90.4929 16.5107 89.8864 15.3761C89.3751 14.1934 89.0819 13.0097 89.0819 11.6062C89.0819 10.2757 89.3751 9.09301 89.8864 7.91031C90.4708 6.80154 91.2733 5.69276 92.2229 4.87965L93.4657 3.99263V7.9832H101.721V3.84377L102.89 4.73079C103.948 5.5726 104.819 6.6304 105.446 7.83537C105.958 8.94414 106.249 10.2008 106.249 11.6052C106.249 13.0097 105.958 14.3412 105.446 15.45C104.819 16.6549 103.948 17.7124 102.89 18.5535L101.721 19.4395V17.9622ZM103.182 7.02227V16.2621C103.473 15.8186 103.839 15.3761 104.057 14.8586C104.569 13.8977 104.789 12.7889 104.789 11.6062C104.789 10.4975 104.569 9.38868 104.057 8.42774C103.839 7.90928 103.473 7.46578 103.182 7.02227ZM93.4667 9.46157V14.2663H101.575V9.46157H93.4667ZM91.9327 15.9664V7.31691C91.7126 7.76042 91.4214 8.13001 91.2013 8.57352C90.8371 9.46054 90.5459 10.5693 90.5459 11.6042C90.5459 12.714 90.8371 13.8228 91.2013 14.7088C91.4214 15.1523 91.7126 15.5239 91.9327 15.9664ZM97.7024 1.28672e-05C100.916 1.28672e-05 103.766 1.33055 105.81 3.40026C107.856 5.5439 109.171 8.42671 109.171 11.6052C109.171 14.8576 107.855 17.7415 105.81 19.8851C103.765 21.9548 100.916 23.2843 97.7024 23.2843C94.4883 23.2843 91.6385 21.9548 89.5943 19.8851C87.4759 17.7415 86.1621 14.8586 86.1621 11.6052C86.1621 8.42671 87.4759 5.5439 89.5943 3.40026C90.6574 2.32046 91.9211 1.46411 93.3127 0.880554C94.7042 0.296995 96.1961 -0.00226151 97.7024 1.28672e-05ZM104.789 4.43512C102.962 2.58716 100.479 1.47838 97.7034 1.47838C94.9276 1.47838 92.4441 2.58716 90.5459 4.43512C88.7918 6.357 87.623 8.7963 87.623 11.6052C87.623 14.4151 88.7918 16.9273 90.5459 18.8502C92.4441 20.6972 94.9266 21.8059 97.7034 21.8059C100.48 21.8059 102.963 20.6972 104.789 18.8502C106.616 16.9273 107.712 14.4151 107.712 11.6052C107.712 8.7963 106.616 6.357 104.789 4.43512Z" fill="#898888"/>
</svg>
