<svg width="25" height="25" viewBox="0 0 25 25" fill="none" xmlns="http://www.w3.org/2000/svg">
<g clip-path="url(#clip0_593_2847)">
<path d="M15.3007 7.17139H9.58823C9.27085 7.17138 8.95657 7.23389 8.66334 7.35535C8.37011 7.4768 8.10368 7.65482 7.87925 7.87925C7.65482 8.10368 7.4768 8.37011 7.35535 8.66334C7.23389 8.95657 7.17138 9.27085 7.17139 9.58823V15.3007C7.17139 15.9417 7.42602 16.5564 7.87927 17.0097C8.10369 17.2341 8.37012 17.4121 8.66335 17.5336C8.95657 17.6551 9.27085 17.7176 9.58823 17.7176H15.3007C15.9417 17.7176 16.5564 17.4629 17.0097 17.0097C17.4629 16.5564 17.7175 15.9417 17.7175 15.3007V9.58823C17.7175 9.27085 17.655 8.95658 17.5336 8.66335C17.4121 8.37013 17.2341 8.10369 17.0097 7.87927C16.7852 7.65484 16.5188 7.47682 16.2256 7.35536C15.9324 7.2339 15.6181 7.17139 15.3007 7.17139ZM12.4445 15.769C11.7869 15.769 11.1442 15.5741 10.5974 15.2087C10.0507 14.8434 9.62461 14.3242 9.37298 13.7167C9.12135 13.1092 9.05552 12.4408 9.18379 11.7959C9.31207 11.151 9.62871 10.5586 10.0937 10.0937C10.5586 9.62871 11.151 9.31207 11.7959 9.18379C12.4408 9.05552 13.1092 9.12135 13.7167 9.37298C14.3242 9.62461 14.8434 10.0507 15.2087 10.5974C15.5741 11.1442 15.769 11.7869 15.769 12.4445C15.769 12.8811 15.683 13.3134 15.516 13.7167C15.3489 14.1201 15.104 14.4866 14.7953 14.7953C14.4866 15.104 14.1201 15.3489 13.7167 15.516C13.3134 15.683 12.8811 15.769 12.4445 15.769ZM15.9076 9.79906C15.7512 9.79907 15.5983 9.75269 15.4682 9.66578C15.3381 9.57888 15.2367 9.45535 15.1769 9.31083C15.117 9.1663 15.1013 9.00726 15.1318 8.85383C15.1623 8.7004 15.2377 8.55946 15.3483 8.44884C15.4589 8.33822 15.5998 8.26288 15.7533 8.23236C15.9067 8.20184 16.0657 8.2175 16.2103 8.27736C16.3548 8.33722 16.4783 8.4386 16.5652 8.56867C16.6521 8.69875 16.6985 8.85167 16.6985 9.00811C16.6985 9.21787 16.6152 9.41905 16.4669 9.56738C16.3186 9.71571 16.1174 9.79905 15.9076 9.79906Z" fill="url(#paint0_linear_593_2847)"/>
<path d="M12.4445 10.2834C12.0171 10.2834 11.5992 10.4102 11.2439 10.6476C10.8885 10.8851 10.6115 11.2226 10.4479 11.6175C10.2844 12.0123 10.2416 12.4469 10.325 12.866C10.4084 13.2852 10.6142 13.6703 10.9164 13.9725C11.2186 14.2747 11.6037 14.4806 12.0229 14.5639C12.4421 14.6473 12.8766 14.6045 13.2714 14.441C13.6663 14.2774 14.0038 14.0004 14.2413 13.645C14.4787 13.2897 14.6055 12.8719 14.6055 12.4445C14.6055 11.8713 14.3778 11.3217 13.9725 10.9164C13.5673 10.5111 13.0176 10.2834 12.4445 10.2834Z" fill="url(#paint1_linear_593_2847)"/>
<path d="M12.4444 0C5.57156 0 0 5.57156 0 12.4444C0 19.3173 5.57156 24.8889 12.4444 24.8889C19.3173 24.8889 24.8889 19.3173 24.8889 12.4444C24.8889 5.57156 19.3173 0 12.4444 0ZM18.9259 15.191C18.9259 16.1815 18.5324 17.1315 17.8319 17.8319C17.1315 18.5324 16.1815 18.9259 15.191 18.9259H9.69792C8.70736 18.9259 7.75738 18.5324 7.05694 17.8319C6.35651 17.1315 5.96298 16.1815 5.96293 15.191V9.69792C5.96297 8.70735 6.35649 7.75737 7.05693 7.05694C7.75737 6.35651 8.70735 5.96301 9.69792 5.96298H15.191C16.1815 5.96302 17.1315 6.35653 17.8319 7.05696C18.5324 7.75739 18.9259 8.70736 18.9259 9.69792V15.191Z" fill="url(#paint2_linear_593_2847)"/>
</g>
<defs>
<linearGradient id="paint0_linear_593_2847" x1="0.388922" y1="24.5" x2="24.613" y2="0.275899" gradientUnits="userSpaceOnUse">
<stop stop-color="#FFCB52"/>
<stop offset="0.318" stop-color="#FF6341"/>
<stop offset="0.658" stop-color="#CD39A2"/>
<stop offset="1" stop-color="#515BCA"/>
</linearGradient>
<linearGradient id="paint1_linear_593_2847" x1="0.388889" y1="24.5" x2="24.613" y2="0.275851" gradientUnits="userSpaceOnUse">
<stop stop-color="#FFCB52"/>
<stop offset="0.318" stop-color="#FF6341"/>
<stop offset="0.658" stop-color="#CD39A2"/>
<stop offset="1" stop-color="#515BCA"/>
</linearGradient>
<linearGradient id="paint2_linear_593_2847" x1="199.111" y1="12544" x2="12601.9" y2="141.245" gradientUnits="userSpaceOnUse">
<stop stop-color="#FFCB52"/>
<stop offset="0.318" stop-color="#FF6341"/>
<stop offset="0.658" stop-color="#CD39A2"/>
<stop offset="1" stop-color="#515BCA"/>
</linearGradient>
<clipPath id="clip0_593_2847">
<rect width="24.8889" height="24.8889" fill="white"/>
</clipPath>
</defs>
</svg>
