<svg width="95" height="19" viewBox="0 0 95 19" fill="none" xmlns="http://www.w3.org/2000/svg">
<g clip-path="url(#clip0_1459_1116)">
<path d="M39.895 4.22266C38.1966 4.22266 36.2651 4.97242 35.085 6.47348L35.0858 6.47044L35.085 6.4712L35.0858 4.45838H31.0352V18.5063H35.085V10.5128C35.085 9.0741 36.2563 7.5449 38.425 7.5449C40.101 7.5449 41.8352 8.65511 41.8352 10.5128V18.5063H45.8859V9.79801C45.8859 6.56701 43.4585 4.22266 39.895 4.22266Z" fill="#898888"/>
<path d="M74.6733 4.45776L71.0116 14.0268L67.3498 4.45776H62.7227L68.7918 18.5011H73.2305L79.2997 4.45776H74.6733Z" fill="#898888"/>
<path d="M18.9429 8.69002C19.6328 7.80794 20.7315 7.2901 22.0585 7.2901C23.5181 7.2901 24.6256 8.08397 25.1981 9.25577L18.1213 12.0518C17.9281 10.6169 18.3137 9.49454 18.9429 8.69002ZM26.7248 14.1863C25.0201 15.3877 24.0459 15.6744 22.4913 15.6744C21.0924 15.6744 19.9969 15.2608 19.2248 14.5353L29.5801 10.4443C29.3541 8.91967 28.7465 7.55776 27.8115 6.52208C26.4509 5.01722 24.4372 4.22107 21.9851 4.22107C17.5312 4.22107 14.1729 7.35017 14.1729 11.483C14.1729 15.7231 17.5392 18.7442 22.4314 18.7442C25.1726 18.7442 27.9752 17.507 29.2863 16.0615L26.7248 14.1863Z" fill="#898888"/>
<path d="M13.7877 14.9635H4.58132V0.256348H0.475586V18.5055H13.7877V14.9635Z" fill="#898888"/>
<path d="M86.5718 7.52659C84.3097 7.52659 82.6672 9.1592 82.6672 11.4815C82.6672 13.6989 84.4071 15.4364 86.626 15.4364C88.8889 15.4364 90.5306 13.7589 90.5306 11.4815C90.5306 9.26413 88.7915 7.52659 86.5718 7.52659ZM86.5718 18.7419C82.1418 18.7419 78.6709 15.5991 78.6709 11.4815C78.6709 7.41025 82.1658 4.22107 86.626 4.22107C91.056 4.22107 94.5261 7.36386 94.5261 11.4815C94.5261 15.552 91.032 18.7419 86.5718 18.7419Z" fill="#898888"/>
<path d="M55.3874 7.52659C53.1253 7.52659 51.4836 9.1592 51.4836 11.4815C51.4836 13.6989 53.2227 15.4364 55.4424 15.4364C57.7045 15.4364 59.3462 13.7589 59.3462 11.4815C59.3462 9.26413 57.6071 7.52659 55.3874 7.52659ZM55.3874 18.7419C50.9574 18.7419 47.4873 15.5991 47.4873 11.4815C47.4873 7.41025 50.9814 4.22107 55.4424 4.22107C59.8716 4.22107 63.3425 7.36386 63.3425 11.4815C63.3425 15.552 59.8476 18.7419 55.3874 18.7419Z" fill="#898888"/>
</g>
<defs>
<clipPath id="clip0_1459_1116">
<rect width="95" height="19" fill="white"/>
</clipPath>
</defs>
</svg>
