<svg width="142" height="71" viewBox="0 0 142 71" fill="none" xmlns="http://www.w3.org/2000/svg">
<g clip-path="url(#clip0_1498_1145)">
<path d="M0.957031 0.955078L14.3969 64.4925L15.4188 63.964C29.7135 56.4559 43.9865 56.9042 53.4298 58.6057C63.7069 60.4452 70.6666 64.1124 70.7505 64.1378L71.1227 64.3488L71.5066 64.1647C88.3782 56.6614 102.312 57.0939 111.027 58.7723C120.465 60.6015 126.004 64.2512 126.061 64.2933L127.124 64.9972L127.397 63.7386L141.182 0.955078H0.957031Z" fill="black"/>
<path d="M98.0764 15.2363V20.0351H100.573L99.3369 23.626H100.464L103.193 20.327H103.194V15.2363H98.0764ZM50.3004 18.1581C42.8488 18.1581 38.3975 22.3204 38.3975 29.2817C38.3975 36.2454 42.6745 40.4164 50.7469 40.4164C58.0882 40.4164 61.4416 37.6262 62.2373 32.856H55.6747C55.3094 34.7011 53.5906 35.3375 51.3432 35.3375C48.7151 35.3375 47.059 33.5228 47.059 30.5596H62.1014C62.1659 30.2152 62.1999 29.7587 62.1999 29.2817C62.1999 23.2473 58.2486 18.1581 50.3004 18.1581ZM114.596 18.2233C107.977 18.2233 103.74 20.8838 103.74 25.4239C103.74 33.908 116.323 31.0327 116.323 34.034C116.323 35.168 115.406 35.7598 113.621 35.7598C111.599 35.7598 110.162 34.8389 110.162 33.0168H103.562V33.1382C103.562 36.9855 106.245 40.1626 113.468 40.1626C121.617 40.1626 124.735 36.9298 124.736 32.7714C124.736 24.1372 111.578 27.3831 111.578 24.0739C111.578 23.3938 112.427 22.622 114.61 22.622C116.756 22.622 118.016 23.6279 118.016 24.6341H124.059C124.059 21.1463 120.485 18.2233 114.596 18.2233ZM88.0351 18.6373V39.6897H95.9165V18.6373H88.0351ZM60.0206 18.6782L70.3621 39.7348H76.8415L86.8522 18.6782H80.3416L74.7878 30.8362H74.6436L69.0946 18.6782H60.0206ZM18.2305 18.8605V39.6994H38.0183V34.3786H26.1084V18.8605H18.2305ZM50.3614 22.6643C52.6041 22.6643 53.3623 24.5074 53.3623 26.8175H47.3474C47.3474 24.7494 48.1327 22.6643 50.3614 22.6643Z" fill="white"/>
</g>
<defs>
<clipPath id="clip0_1498_1145">
<rect width="142" height="71" fill="white"/>
</clipPath>
</defs>
</svg>
