<svg width="117" height="47" viewBox="0 0 117 47" fill="none" xmlns="http://www.w3.org/2000/svg">
<path d="M25.3699 28.5159C25.3619 29.0483 25.2743 29.5768 25.1099 30.085C24.9253 30.68 24.6168 31.2324 24.2032 31.7081C23.7896 32.1839 23.2798 32.5731 22.7049 32.8519C21.98 33.1911 21.181 33.3562 20.3758 33.333H4.71076C4.4287 33.3347 4.14903 33.2832 3.88742 33.1814C3.64956 33.0833 3.43278 32.9432 3.24826 32.7682C3.06091 32.5867 2.9119 32.3717 2.80951 32.1353C2.70336 31.8811 2.64999 31.6092 2.65242 31.3351V13.3792C2.64794 12.846 2.86214 12.3326 3.24826 11.9513C3.42866 11.7637 3.64594 11.6125 3.88742 11.5068C4.14903 11.4049 4.4287 11.3534 4.71076 11.3551H18.5178C19.0699 11.3645 19.6175 11.4526 20.1428 11.6166C20.733 11.7946 21.284 12.0766 21.7678 12.4482C22.2882 12.8573 22.7144 13.3668 23.0191 13.9441C23.3818 14.6482 23.5586 15.428 23.5337 16.2141V16.962C23.5225 17.7334 23.3985 18.4994 23.1653 19.2372C22.9158 20.0664 22.518 20.847 21.9899 21.5438C22.462 21.8269 22.8983 22.1622 23.2899 22.5428C23.7118 22.9439 24.0761 23.3978 24.3733 23.8923C24.6922 24.4388 24.938 25.0223 25.1045 25.6287C25.2892 26.324 25.3784 27.0397 25.3699 27.7575V28.5159ZM21.2478 27.7523C21.255 27.2737 21.1686 26.7982 20.9933 26.3505C20.8317 25.9582 20.5883 25.6021 20.2783 25.3044C19.9713 25.0061 19.602 24.7743 19.1949 24.6245C18.7271 24.4574 18.2312 24.3758 17.7324 24.3839H8.41034L11.0103 21.0103C11.1622 20.8114 11.3606 20.6499 11.5893 20.539C11.818 20.4281 12.0707 20.371 12.3266 20.3722H15.8528C16.3584 20.3758 16.8601 20.287 17.3316 20.1107C17.7386 19.9609 18.1079 19.7291 18.4149 19.4308C18.7234 19.1329 18.9649 18.7768 19.1245 18.3847C19.2936 17.9357 19.3762 17.4606 19.3683 16.9829V16.2141C19.3683 15.6387 19.0812 15.3563 18.5124 15.3563H6.75826V29.358H20.3758H20.6412C20.7433 29.3533 20.8424 29.3226 20.9283 29.2691C21.0261 29.2036 21.103 29.113 21.1503 29.0075C21.2257 28.8432 21.2591 28.6639 21.2478 28.4845V27.7523Z" fill="#98BE2B"/>
<path d="M54.274 18.3062C54.44 18.66 54.4855 19.0556 54.404 19.436C54.331 19.8123 54.1422 20.1586 53.8623 20.4298L44.486 29.4469H54.236V33.3644H39.1994H39.156C38.8429 33.2724 38.553 33.1183 38.305 32.9121C38.0569 32.7059 37.856 32.452 37.7152 32.1667C37.5616 31.8044 37.5228 31.4061 37.6038 31.0225C37.6848 30.6389 37.8819 30.2871 38.1702 30.0118L47.5031 20.9946H37.7531V17.0771H52.416C52.8118 17.0739 53.1998 17.183 53.5319 17.3909C53.8754 17.6103 54.1358 17.9316 54.274 18.3062Z" fill="#98BE2B"/>
<path d="M88.8333 26.3558H78V22.3755H88.8333V26.3558Z" fill="#98BE2B"/>
<path d="M114.42 18.7717C114.432 19.5968 114.314 20.4187 114.068 21.2091C113.857 21.8833 113.539 22.522 113.126 23.1025C112.745 23.6355 112.281 24.1083 111.75 24.5042C111.249 24.8834 110.703 25.2046 110.125 25.4614C109.578 25.7001 109.003 25.8757 108.413 25.9844C107.879 26.0931 107.334 26.1492 106.788 26.1518L115.406 33.3383H109.02L100.424 26.1518H97.4554L100.066 22.9456C100.216 22.7606 100.407 22.6111 100.626 22.5087C100.845 22.4062 101.085 22.3535 101.328 22.3545H105.943C106.727 22.3293 107.497 22.1514 108.207 21.8315C108.608 21.6681 108.975 21.436 109.291 21.1463C109.607 20.8527 109.853 20.4956 110.011 20.1003C110.187 19.6564 110.274 19.1842 110.266 18.709V16.1984C110.275 16.0201 110.245 15.842 110.179 15.6754C110.131 15.5706 110.054 15.4803 109.957 15.4139C109.871 15.3596 109.772 15.3255 109.67 15.3145H109.394H95.8033V33.3592H91.6758V13.3949C91.6742 13.1272 91.7295 12.8619 91.8383 12.6156C91.938 12.376 92.0852 12.1574 92.2717 11.9723C92.457 11.7846 92.6825 11.6383 92.9325 11.5434C93.193 11.4373 93.4732 11.3839 93.7558 11.3865H109.415C110.221 11.3618 111.021 11.5289 111.745 11.8729C112.347 12.1605 112.877 12.571 113.299 13.0759C113.685 13.5418 113.975 14.0743 114.155 14.645C114.321 15.1531 114.41 15.6815 114.42 16.2141V18.7717Z" fill="#98BE2B"/>
<path d="M24.0927 19.9538C23.738 19.878 23.3955 19.7566 23.0744 19.5929C22.4531 19.2704 21.9349 18.7903 21.5756 18.2043C21.2162 17.6183 21.0294 16.9487 21.0353 16.2677C21.0412 15.5867 21.2395 14.9202 21.609 14.3401C21.9784 13.7599 22.5048 13.2882 23.1315 12.9759C23.7582 12.6635 24.4614 12.5223 25.1651 12.5675C25.8688 12.6126 26.5464 12.8425 27.1247 13.2323C27.7031 13.6221 28.1602 14.157 28.4468 14.7792C28.7334 15.4015 28.8386 16.0875 28.751 16.7633C28.664 17.3884 28.4184 17.9831 28.036 18.4945" stroke="#0B1245" stroke-width="0.75" stroke-miterlimit="10" stroke-linecap="round"/>
<path d="M24.4034 18.4317C24.229 18.3938 24.0598 18.3359 23.8996 18.2591C23.5239 18.0796 23.207 17.8031 22.9841 17.4602C22.7612 17.1174 22.641 16.7216 22.6368 16.3169C22.6326 15.9121 22.7446 15.5141 22.9604 15.167C23.1762 14.82 23.4873 14.5374 23.8592 14.3506C24.2312 14.1639 24.6494 14.0802 25.0676 14.109C25.4857 14.1378 25.8875 14.2778 26.2282 14.5136C26.569 14.7493 26.8355 15.0717 26.9981 15.4447C27.1608 15.8178 27.2132 16.2271 27.1496 16.6273C27.0994 16.9348 26.9832 17.2287 26.8084 17.4903" stroke="#0B1245" stroke-width="0.5" stroke-miterlimit="10"/>
<path d="M31.702 28.0557L34.5999 30.6708L37.3082 29.6248L26.6266 20.8325L24.8824 34.5465L25.917 34.1333L26.9516 33.7306L28.4412 33.1343L28.2462 34.6668L24.1349 36.3092C24.0375 36.3519 23.93 36.3687 23.8236 36.3579C23.7172 36.3471 23.6158 36.3091 23.5296 36.2478C23.4435 36.1865 23.3759 36.1042 23.3338 36.0092C23.2916 35.9143 23.2765 35.8102 23.2899 35.7077L25.3916 19.2111C25.4036 19.1077 25.4446 19.0094 25.5103 18.9269C25.576 18.8444 25.6639 18.7809 25.7643 18.7432C25.8648 18.7055 25.974 18.695 26.0802 18.713C26.1863 18.7309 26.2854 18.7766 26.3666 18.845L39.2095 29.4156C39.2864 29.4804 39.345 29.563 39.3797 29.6557C39.4144 29.7485 39.4241 29.8482 39.4079 29.9455C39.3916 30.0429 39.3499 30.1346 39.2868 30.2121C39.2237 30.2896 39.1411 30.3502 39.047 30.3884L34.2857 32.2818L30.9112 29.2116L29.7303 29.698L29.9416 28.3015L30.9057 27.9144C31.0386 27.8623 31.1841 27.8479 31.3252 27.8729C31.4663 27.8979 31.597 27.9613 31.702 28.0557Z" fill="#0B1245"/>
<path d="M61.2102 29.4522V33.3592H57.1098V25.3202C57.0982 24.1814 57.3171 23.0514 57.7544 21.9937C58.1565 21.0176 58.7621 20.1319 59.5337 19.3913C60.3052 18.6508 61.2262 18.0714 62.2394 17.6891C63.3213 17.2733 64.4767 17.0655 65.6411 17.0771H73.6686C73.8768 17.0749 74.0833 17.114 74.2752 17.1922C74.6511 17.3458 74.9503 17.6347 75.1094 17.9977C75.1904 18.183 75.2309 18.3824 75.2286 18.5835V33.3592H71.0794V29.3162H62.5048L64.7744 26.7794C64.9025 26.6376 65.0607 26.524 65.2383 26.4464C65.4159 26.3688 65.6087 26.329 65.8036 26.3296H71.0577L71.0036 20.9685H66.8544C66.7569 20.9685 66.3127 20.9685 66.0202 21.0051C65.6532 21.0397 65.2905 21.1081 64.9369 21.2091C64.4979 21.3302 64.0731 21.4949 63.6694 21.7008C63.2091 21.9367 62.7949 22.2482 62.4452 22.6213C62.0469 23.0501 61.7346 23.5467 61.5244 24.0858C61.2648 24.7686 61.1417 25.4927 61.1615 26.2198L61.2102 29.4522Z" fill="#98BE2B"/>
</svg>
