<svg width="32" height="32" viewBox="0 0 32 32" fill="none" xmlns="http://www.w3.org/2000/svg">
<g clip-path="url(#clip0_1530_1414)">
<path fill-rule="evenodd" clip-rule="evenodd" d="M24.8422 11.7742C24.9022 11.7554 24.9822 11.793 25.0622 11.8965C25.0622 11.8965 25.0622 11.8965 28.6822 15.2095C28.8922 15.4071 28.8922 15.7083 28.6822 15.8589C28.6822 15.8589 28.6822 15.8589 25.0622 19.2283C24.9822 19.3224 24.9022 19.3507 24.8422 19.3224C24.7822 19.2942 24.7422 19.2001 24.7422 19.0777V11.9907C24.7422 11.8683 24.7822 11.793 24.8422 11.7742Z" fill="#ED1C24"/>
<path fill-rule="evenodd" clip-rule="evenodd" d="M18.6507 6.25H18.9107L19.1507 6.34412C19.1507 6.34412 19.1507 6.34412 22.8807 9.81706C23.0407 10.0147 22.9807 10.1559 22.7207 10.1559C22.7207 10.1559 22.7207 10.1559 21.1707 10.1559C20.9107 10.1559 20.6907 10.3629 20.6907 10.6076C20.6907 10.6076 20.6907 10.6076 20.6907 13.1865C20.6907 13.4312 20.4807 13.6288 20.1607 13.6288C20.1607 13.6288 20.1607 13.6288 17.4507 13.6288C17.1807 13.6288 16.9707 13.4312 16.9707 13.1865C16.9707 13.1865 16.9707 13.1865 16.9707 10.6076C16.9707 10.3629 16.7607 10.1559 16.4907 10.1559H14.8407C14.5707 10.1559 14.5207 10.0147 14.6807 9.81706C14.6807 9.81706 14.6807 9.81706 18.4107 6.34412L18.6507 6.25Z" fill="#ED1C24"/>
<path fill-rule="evenodd" clip-rule="evenodd" d="M12.8202 11.6979C12.8802 11.7356 12.9202 11.8203 12.9202 11.9427V19.1709C12.9202 19.3027 12.8802 19.3779 12.8202 19.3968C12.7502 19.425 12.6602 19.3968 12.5502 19.3215C12.5502 19.3215 12.5502 19.3215 8.88016 15.8579C8.67016 15.7074 8.67016 15.4062 8.88016 15.2085C8.88016 15.2085 8.88016 15.2085 12.5502 11.7921C12.6602 11.6979 12.7502 11.6697 12.8202 11.6979Z" fill="#ED1C24"/>
<path fill-rule="evenodd" clip-rule="evenodd" d="M17.4497 17.3945C17.4497 17.3945 17.4497 17.3945 20.1597 17.3945C20.4797 17.3945 20.6997 17.5922 20.6997 17.8463C20.6997 17.8463 20.6997 17.8463 20.6997 20.5663C20.6997 20.8675 20.9097 21.0651 21.1697 21.0651H22.6097C22.8797 21.0651 22.9797 21.2063 22.7697 21.3569C22.7697 21.3569 22.7697 21.3569 19.1497 24.7734C19.0397 24.8769 18.9097 24.9239 18.7797 24.9239C18.6497 24.9239 18.5097 24.8769 18.4097 24.7734C18.4097 24.7734 18.4097 24.7734 14.7897 21.3569C14.5697 21.2063 14.6797 21.0651 14.9397 21.0651C14.9397 21.0651 14.9397 21.0651 16.4897 21.0651C16.7597 21.0651 16.9697 20.8675 16.9697 20.5663C16.9697 20.5663 16.9697 20.5663 16.9697 17.8463C16.9697 17.5922 17.1797 17.3945 17.4497 17.3945Z" fill="#ED1C24"/>
</g>
<defs>
<clipPath id="clip0_1530_1414">
<rect width="32" height="32" fill="white"/>
</clipPath>
</defs>
</svg>
