<svg width="105" height="54" viewBox="0 0 105 54" fill="none" xmlns="http://www.w3.org/2000/svg">
<g clip-path="url(#clip0_1498_1138)">
<path d="M0 39.0941V26.3732H7.03644C10.9937 26.3732 14.4682 26.5866 14.9763 26.8609C15.8178 27.3152 15.8797 27.9263 15.8797 35.779C15.8797 45.9768 16.0278 45.6901 10.7587 45.6901C6.61019 45.6901 6.53868 45.7546 6.53868 49.4978V51.815H3.26934H0V39.0941ZM8.87393 36.0821C8.87393 30.9366 8.74595 29.7225 8.18048 29.5036C6.99071 29.043 6.53868 30.8212 6.53868 35.9621C6.53868 41.5319 6.73281 42.3921 7.9898 42.3921C8.81326 42.3921 8.87393 41.9591 8.87393 36.0821ZM18.6984 50.9037C18.402 50.345 18.2149 45.4224 18.2149 38.1828V26.3732H21.7178H25.2206V36.6483C25.2206 44.5243 25.3677 47.1263 25.8504 47.7922C27.2988 49.7904 27.5559 48.1907 27.5559 37.1817V26.3732H31.0588H34.5616V38.5287C34.5616 47.3548 34.4081 50.8391 34.0012 51.2496C33.6142 51.64 31.2337 51.815 26.3113 51.815C19.7406 51.815 19.144 51.7436 18.6984 50.9037ZM36.8969 39.6595C36.8969 30.8334 37.0504 27.3491 37.4573 26.9386C38.2538 26.1351 60.2935 26.1351 61.09 26.9386C61.4969 27.3491 61.6505 30.8334 61.6505 39.6595V51.815H58.1476H54.6447V40.7086C54.6447 30.3847 54.5871 29.6133 53.8274 29.7606C53.0813 29.9054 52.9991 30.8734 52.8847 40.8671L52.7593 51.815H49.265H45.7708V41.0364C45.7708 32.6678 45.6325 30.142 45.1525 29.7401C43.6779 28.5056 43.4355 30.1054 43.4355 41.0729V51.815H40.1662H36.8969V39.6595ZM64.4527 39.5818C64.4527 27.9694 64.4986 27.3239 65.3561 26.8609C66.6624 26.1557 79.0621 26.2225 79.7719 26.9386C80.1789 27.3491 80.3324 30.8334 80.3324 39.6595V51.815H76.8509H73.3694L73.2313 48.6348C73.1248 46.1839 72.9325 45.4545 72.3926 45.4545C71.8527 45.4545 71.6603 46.1839 71.5539 48.6348L71.4158 51.815H67.9343H64.4527V39.5818ZM73.0931 35.9924C73.0931 30.897 72.9791 29.9068 72.3926 29.9068C71.8163 29.9068 71.6685 30.9053 71.5596 35.5331C71.4193 41.4982 71.573 42.5891 72.5096 42.2742C72.9361 42.1308 73.0931 40.4407 73.0931 35.9924Z" fill="black"/>
<path d="M94.5642 40.7711C94.2688 40.4121 93.7522 39.1631 93.6497 37.8543C93.4697 35.555 93.9389 35.7225 91.1461 32.8936C88.8941 30.6124 87.4291 29.1138 86.4166 26.1089C84.8222 21.3767 82.7358 20.1363 80.181 20.1363C77.815 20.1363 74.0479 19.3709 72.0328 18.4807C71.0778 18.0588 69.2243 16.7386 67.9141 15.547L65.5318 13.3804L64.4374 14.2487C62.9846 15.4016 60.9389 15.344 57.8573 14.0634C54.9889 12.8714 54.4476 12.9447 54.4476 13.7827C54.4476 14.7705 53.6871 14.8152 52.6017 14.0978C50.3176 12.5881 52.2465 10.1306 56.0856 10.3234C58.3714 10.437 58.4793 10.4571 58.4793 9.51518C58.4793 8.40136 57.7981 8.00648 55.8766 8.00648C55.0518 8.00648 54.3328 7.73005 53.615 7.03635C53.1747 6.76877 52.7814 6.56033 52.5298 5.95057C52.7394 5.17654 52.9547 4.68383 53.3635 4.31162C53.761 3.52966 54.2327 2.68578 55.0711 2.1518C55.5538 1.84441 56.024 0.887044 56.3917 0.509477C56.717 0.175473 56.7033 0.0709044 57.2633 0.537227C57.8389 1.01657 58.0627 1.01917 58.6195 0.553015C59.1808 0.0830757 59.3617 0.0986855 59.7625 0.651663C60.0244 1.01296 60.972 1.99095 62.2776 2.30056C65.9162 3.16343 69.1329 5.10179 74.9925 9.97776C82.4576 16.1898 83.2014 15.922 86.7461 16.2809C90.9063 16.702 92.4711 15.1421 95.4552 8.50288C97.4145 4.14383 98.6837 2.47219 101.052 0.964045C103.064 -0.31701 104.819 -0.364826 104.959 1.08285C105.093 2.47125 105.078 3.13491 102.113 4.93992C98.8161 6.9473 97.8391 7.97107 95.7653 12.304C94.6974 14.5352 93.4008 16.528 92.4582 17.3871L90.9077 18.8002L91.9379 20.9C92.7005 22.4544 93.0188 23.9046 93.1633 26.4828C93.4314 31.2678 93.1127 30.8187 94.7144 32.352C95.4592 33.065 95.7515 32.4946 96.0543 33.9307C96.3417 35.2934 96.4163 35.9721 97.0432 37.6859C97.4354 38.7581 97.0761 38.1392 96.9277 39.6543C96.8148 40.8072 97.0834 40.3761 96.584 41.578C96.3662 42.1021 94.8595 41.1301 94.5642 40.7711Z" fill="black"/>
</g>
<defs>
<clipPath id="clip0_1498_1138">
<rect width="105" height="54" fill="white"/>
</clipPath>
</defs>
</svg>
