<svg width="106" height="27" viewBox="0 0 106 27" fill="none" xmlns="http://www.w3.org/2000/svg">
<g clip-path="url(#clip0_449_386)">
<path d="M95.3785 15.2889H89.7128C89.356 15.2889 89.0558 14.9997 89.0558 14.6868C89.0558 14.3714 89.356 14.0692 89.7128 14.0692H96.5589L96.5554 14.0727H96.5624C96.5624 14.7414 96.0331 15.285 95.3785 15.2889ZM98.2451 12.6097C98.2451 11.0386 97.039 9.98047 95.5018 9.98047H89.3252C88.8934 9.98047 88.5375 10.3822 88.5375 10.7926C88.5375 11.2038 88.8934 11.59 89.3252 11.59L95.6228 11.5924C96.1112 11.5924 96.5066 11.9977 96.5066 12.4964H96.5042L96.5066 12.4988H89.8541C88.361 12.4988 87.4238 13.3303 87.4238 14.6868C87.4238 15.8705 88.3895 16.8961 89.8541 16.8961H94.8734C97.1253 16.8961 98.2451 15.8705 98.2451 14.1175C98.2451 14.0363 98.2592 12.7995 98.2451 12.6097Z" fill="#898888"/>
<path d="M18.2098 12.7431H9.54126V11.6727C9.54126 11.082 10.0112 10.6019 10.5874 10.6019H18.2098C18.7887 10.6019 19.2583 11.082 19.2583 11.6727C19.2583 12.2633 18.7887 12.7431 18.2098 12.7431ZM20.1276 13.6665C20.6744 13.1749 21.0218 12.4503 21.0218 11.6461C21.0218 10.1609 19.843 8.95703 18.3913 8.95703H10.3898C8.93741 8.95703 7.75781 10.1609 7.75781 11.6461V16.0898C7.75781 16.5564 8.20709 16.9447 8.66573 16.9447C9.12477 16.9447 9.55414 16.5564 9.55414 16.0898V14.3812H17.7828C18.7504 14.3812 19.1552 14.4881 19.1697 15.5332V16.1876C19.1708 16.6448 19.6057 17.0207 20.0518 17.0207C20.4976 17.0207 20.9152 16.6448 20.9152 16.1876V15.2776C20.9152 14.5246 20.6471 14.002 20.1276 13.6665Z" fill="#898888"/>
<path d="M86.3974 9.97852H77.3658C76.9025 9.97852 76.5195 10.3897 76.5195 10.831C76.5195 11.2731 76.9025 11.703 77.3658 11.703L80.4276 11.7042C80.7211 11.7042 80.9592 11.9474 80.9592 12.2469V16.065C80.9592 16.542 81.421 16.927 81.8894 16.927C82.3558 16.927 82.8196 16.542 82.8196 16.065H82.8207V12.2453C82.8207 11.9454 83.0581 11.703 83.3496 11.703H86.3974C86.8615 11.703 87.2436 11.2731 87.2436 10.831C87.2436 10.3897 86.8615 9.97852 86.3974 9.97852Z" fill="#898888"/>
<path d="M72.8225 9.97656H68.6104C66.7657 10.0071 65.2773 11.541 65.2773 13.4318V16.0623C65.2773 16.5388 65.7344 16.9338 66.2013 16.9338C66.6685 16.9338 67.1049 16.5388 67.1068 16.0623V13.4318C67.1068 12.4775 67.8629 11.7026 68.7986 11.7026H72.6332C73.5696 11.7026 74.3265 12.4775 74.3265 13.4318V16.0623C74.3265 16.5388 74.7527 16.9267 75.2196 16.9267C75.688 16.9267 76.1521 16.5388 76.1521 16.0623V13.4318C76.1521 11.541 74.6676 10.0071 72.8225 9.97656Z" fill="#898888"/>
<path d="M50.6724 9.92883C50.2044 9.92883 49.7673 10.3226 49.7673 10.8008V13.4308C49.7673 14.3867 49.0096 15.1608 48.0751 15.1608L45.3994 15.1632C45.0649 15.1632 44.7944 14.8855 44.7944 14.5436V10.7841C44.7932 10.3044 44.3346 9.90625 43.8638 9.90625C43.3915 9.90625 42.9516 10.3044 42.9516 10.7841L42.9481 14.5436C42.9481 14.8855 42.678 15.1608 42.3435 15.1608H39.6712C38.7352 15.1608 37.9787 14.3867 37.9787 13.4308V10.8008C37.9787 10.3226 37.5232 9.92883 37.0568 9.92883C36.5895 9.92883 36.1523 10.3226 36.1523 10.8008V12.8402H36.1547V13.4352C36.1547 15.3272 37.6344 16.848 39.4788 16.8777H42.5925C43.4762 16.8777 43.8704 16.4234 43.8716 16.4234C43.8716 16.4234 44.3853 16.8869 45.0938 16.8869C45.8038 16.8869 48.2637 16.8777 48.2637 16.8777C50.1084 16.848 51.594 15.3272 51.594 13.4352V12.8402H51.5952V10.8008C51.594 10.3226 51.1397 9.92883 50.6724 9.92883Z" fill="#898888"/>
<path d="M31.1631 15.1614H25.9747C25.077 15.1614 24.349 14.3513 24.349 13.4326C24.349 12.5167 25.077 11.707 25.9747 11.707H31.1631C32.0609 11.707 32.7888 12.5167 32.7888 13.4326C32.7888 14.3513 32.0609 15.1614 31.1631 15.1614ZM31.2962 9.97656H25.8436C23.9739 9.97656 22.459 11.5239 22.459 13.4326C22.459 15.3432 23.9739 16.8918 25.8436 16.8918H31.2962C33.1651 16.8918 34.6796 15.3432 34.6796 13.4326C34.6796 11.5239 33.1651 9.97656 31.2962 9.97656Z" fill="#898888"/>
<path d="M56.4069 11.5853L56.4092 11.5842H61.5886C61.9461 11.5842 62.2455 11.8686 62.2455 12.1855C62.2455 12.5016 61.9461 12.8019 61.5886 12.8019H54.7117C54.9622 12.0924 55.6274 11.5853 56.4069 11.5853ZM58.4788 14.3743H61.4461C62.9395 14.3743 63.8759 13.5412 63.8759 12.1855C63.8759 11.001 62.9122 9.97656 61.4461 9.97656H56.426C54.5586 9.97656 53.043 11.5239 53.043 13.4326C53.043 15.3429 54.5586 16.8922 56.426 16.8922H62.0886C62.5203 16.8898 62.8775 16.4905 62.8775 16.0781C62.8775 15.6673 62.5203 15.2807 62.0886 15.2807H56.4092L56.4034 15.2771C55.7484 15.2759 55.1722 14.9158 54.858 14.3778H58.4788V14.3743Z" fill="#898888"/>
<path d="M8.78446 25.9771C4.47906 25.9771 0.990234 22.4351 0.990234 18.0687V8.93068C0.990234 4.56388 4.47906 1.02148 8.78446 1.02148H97.215C101.519 1.02148 105.008 4.56388 105.008 8.93068V18.0687C105.008 22.4351 101.519 25.9771 97.215 25.9771H8.78446Z" stroke="#898888" stroke-width="4.61545"/>
</g>
<defs>
<clipPath id="clip0_449_386">
<rect width="106" height="27" fill="white"/>
</clipPath>
</defs>
</svg>
