<svg width="91" height="91" viewBox="0 0 91 91" fill="none" xmlns="http://www.w3.org/2000/svg">
<g clip-path="url(#clip0_1459_1110)">
<path d="M90.784 35.5058C90.4617 35.0774 90.1394 34.7551 88.528 34.6489C88.0995 34.6489 86.8103 34.5389 84.5543 34.5389C78.6393 34.5389 74.5595 36.3665 72.5158 39.9117C73.0542 36.3665 69.6151 34.5389 62.0925 34.5389C53.2806 34.5389 47.6917 38.0841 45.4357 45.2845C44.5788 47.9728 44.5788 50.1227 45.2233 51.8441H43.0735C41.462 51.9465 39.3121 52.0564 37.9168 52.0564C34.6939 52.0564 32.6464 51.518 31.8956 50.445C31.2511 49.4781 31.2511 47.6505 32.1118 44.9622C33.5071 40.5563 36.84 38.6226 42.2128 38.6226C45.0072 38.6226 47.6917 38.9449 47.6917 38.9449C48.014 38.9449 48.2301 38.5164 48.2301 38.1941L48.124 37.8718L47.9078 36.3665C47.8017 35.3996 47.0471 34.8612 45.758 34.6489C44.5788 34.5389 43.6081 34.5389 42.3189 34.5389H42.2128C35.2285 34.5389 30.2842 36.9049 27.5997 41.417C28.5666 36.795 25.3398 34.5389 17.9271 34.5389C13.7373 34.5389 10.723 34.6489 9.00534 34.8612C7.61001 35.0774 6.7493 35.6158 6.42701 36.5826L5.78242 38.5164C5.67626 38.8387 5.89238 39.0548 6.32084 39.0548C6.64313 39.0548 7.9323 38.8387 10.0822 38.7287C12.1912 38.55 14.3056 38.4425 16.4218 38.4064C20.5055 38.4064 22.333 39.4833 21.6885 41.5232C21.5785 41.9554 21.2562 42.2777 20.7216 42.3839C16.8541 43.0285 13.7373 43.4607 11.4775 43.783C5.03167 44.6399 1.27034 46.5737 0.303466 49.8004C-1.09566 54.2063 2.34338 56.3524 10.6168 56.3524C14.7042 56.3524 18.2494 56.1401 21.0439 55.6016C22.6553 55.2794 23.5161 54.9571 23.8383 53.884L25.3398 48.9397C25.2337 53.884 28.5628 56.3524 35.657 56.3524C38.6676 56.3524 41.5682 56.2462 42.9635 56.0301C44.3626 55.8178 45.1134 55.4955 45.4357 54.4186L45.758 52.9171C47.2633 55.2794 50.5961 56.4624 55.6466 56.4624C61.0194 56.4624 64.1362 56.3524 64.9931 56.0301C65.3039 55.9604 65.5933 55.8168 65.8368 55.6115C66.0803 55.4063 66.2708 55.1454 66.3922 54.8509L66.4984 54.5286L67.143 52.4849C67.2529 52.1626 67.0368 51.9465 66.6046 51.9465L63.1693 52.1626C60.9095 52.2726 59.0857 52.3787 57.7927 52.3787C55.3243 52.3787 53.7129 52.1626 52.7422 51.8403C51.3469 51.3019 50.7023 50.335 50.8085 48.7236L61.664 47.3282C66.4984 46.6836 69.8313 45.1784 71.4427 42.8161L67.6814 55.3855C67.5752 55.6016 67.6814 55.8178 67.7876 55.9239C67.8975 56.0301 68.1098 56.1401 68.5421 56.1401H73.0542C73.8049 56.1401 74.1272 55.7078 74.2372 55.3855L78.2108 41.5232C78.7493 39.6994 80.3607 38.8387 83.3675 38.8387C86.0596 38.8387 87.9933 38.8387 89.2825 38.9449H89.3887C89.6048 38.9449 90.0333 38.8387 90.3556 38.3003L91.0001 36.3665C91.0001 36.0442 91.0001 35.7219 90.784 35.5058ZM18.3556 52.0602C16.9603 52.2764 14.9166 52.3825 12.3382 52.3825C7.71618 52.3825 5.78242 51.4156 6.32084 49.5881C6.7493 48.2989 7.9323 47.4382 9.86605 47.2221L20.2931 45.8267L18.3556 52.0602ZM66.3922 40.8748C65.96 42.2739 63.9201 43.2408 60.2649 43.7792L51.563 44.9584L51.7753 44.2077C52.5299 41.8417 53.4968 40.3402 54.7859 39.4795C56.0751 38.6188 58.225 38.1903 61.2318 38.1903C65.213 38.2965 66.9306 39.1572 66.3884 40.8748H66.3922Z" fill="#898888"/>
</g>
<defs>
<clipPath id="clip0_1459_1110">
<rect width="91" height="91" fill="white"/>
</clipPath>
</defs>
</svg>
