<svg width="72" height="72" viewBox="0 0 72 72" fill="none" xmlns="http://www.w3.org/2000/svg">
<path d="M15.858 20.1426C11.6522 20.1426 7.61865 21.8133 4.6447 24.7873C1.67075 27.7612 0 31.7948 0 36.0006C0 40.2064 1.67075 44.2399 4.6447 47.2139C7.61865 50.1878 11.6522 51.8586 15.858 51.8586C20.0104 51.7778 23.9654 50.0716 26.8735 47.1064C29.7815 44.1412 31.4105 40.1538 31.4105 36.0006C31.4105 31.8474 29.7815 27.8599 26.8735 24.8948C23.9654 21.9296 20.0104 20.2234 15.858 20.1426ZM15.858 22.7226C16.008 22.7226 16.326 22.7226 16.488 22.7286V23.9676C16.278 23.9631 16.068 23.9601 15.858 23.9586C14.2773 23.9546 12.7114 24.2641 11.251 24.8692C9.79068 25.4742 8.46477 26.3628 7.35 27.4836C6.22872 28.5979 5.33978 29.9238 4.73468 31.3842C4.12959 32.8447 3.82039 34.4107 3.825 35.9916C3.825 39.2076 5.076 42.2316 7.35 44.4996C8.46477 45.6203 9.79068 46.5089 11.251 47.114C12.7114 47.719 14.2773 48.0285 15.858 48.0246C18.9083 48.019 21.8431 46.858 24.0715 44.7756C26.2998 42.6931 27.656 39.8438 27.867 36.8016V36.6216H19.653V35.3916H28.596L29.127 35.3886V35.9916C29.1325 37.7347 28.7923 39.4616 28.1259 41.0724C27.4596 42.6832 26.4804 44.1458 25.245 45.3756C24.0144 46.612 22.5509 47.5922 20.9392 48.2595C19.3275 48.9269 17.5994 49.2681 15.855 49.2636C12.315 49.2636 8.985 47.8836 6.465 45.3756C5.23016 44.1455 4.25151 42.6828 3.58568 41.0721C2.91986 39.4613 2.58008 37.7345 2.586 35.9916C2.58997 32.4726 3.98944 29.0988 6.47748 26.6102C8.96552 24.1216 12.339 22.7213 15.858 22.7166V22.7226ZM64.047 25.3566C57.417 25.3566 53.931 28.9776 53.931 35.8806C53.931 42.7506 57.081 46.4706 64.011 46.4706C67.191 46.4706 70.308 45.6606 72 44.4756V34.5276H63.78V38.3496H67.635V41.9346C66.924 42.2046 65.535 42.4776 64.215 42.4776C59.955 42.4776 58.533 40.3116 58.533 35.9136C58.533 31.7196 59.883 29.2476 64.149 29.2476C66.519 29.2476 67.869 29.9916 68.988 31.4136L71.934 28.7076C70.14 26.1366 66.993 25.3566 64.044 25.3566H64.047ZM38.808 25.6626V46.1646H53.358V42.1746H43.548V25.6596L38.808 25.6626ZM10.794 29.0316C11.2992 29.0316 11.7838 29.2323 12.141 29.5895C12.4983 29.9468 12.699 30.4313 12.699 30.9366C12.699 31.4418 12.4983 31.9264 12.141 32.2836C11.7838 32.6409 11.2992 32.8416 10.794 32.8416C10.2888 32.8416 9.80422 32.6409 9.44696 32.2836C9.08971 31.9264 8.889 31.4418 8.889 30.9366C8.889 30.4313 9.08971 29.9468 9.44696 29.5895C9.80422 29.2323 10.2888 29.0316 10.794 29.0316ZM15.228 29.0376H16.488V41.6976H19.644V42.9396H15.228V29.0376Z" fill="#898888"/>
</svg>
