<svg width="116" height="116" viewBox="0 0 116 116" fill="none" xmlns="http://www.w3.org/2000/svg">
<g clip-path="url(#clip0_424_1094)">
<path d="M41.325 47.793C45.7765 47.793 49.3387 48.9046 52.0598 51.3793C53.9207 53.0661 54.9598 55.4683 54.9308 57.9865C54.924 59.229 54.6662 60.4573 54.1729 61.5977C53.6795 62.738 52.9608 63.767 52.0598 64.6226C49.5127 66.962 45.5445 68.209 41.3298 68.209C37.1103 68.209 33.2098 66.962 30.624 64.6226C29.6917 63.7894 28.9491 62.7658 28.4463 61.621C27.9435 60.4761 27.6923 59.2367 27.7095 57.9865C27.7095 55.4828 28.7632 53.0806 30.624 51.3793C33.0407 49.185 37.3134 47.793 41.325 47.793ZM41.3395 65.5313C43.5677 65.5313 45.6315 64.7531 47.0815 63.3176C48.5315 61.8676 49.1743 60.1276 49.1743 57.9865C49.1743 55.9371 48.459 54.0183 47.0815 52.6553C45.6605 51.2536 43.5387 50.4561 41.3395 50.4561C39.1404 50.4561 37.0233 51.2488 35.5878 52.6553C34.2103 54.0183 33.4902 55.9371 33.4902 57.9865C33.4608 59.9703 34.2144 61.8858 35.5878 63.3176C37.0233 64.7386 39.1307 65.5265 41.3395 65.5265V65.5313ZM17.9413 56.0193C18.7147 56.2223 19.4638 56.4736 20.1937 56.8071C20.8708 57.1155 21.4903 57.5372 22.0255 58.0541C22.9777 59.0498 23.519 60.3838 23.5045 61.7565C23.5149 62.4843 23.3546 63.2044 23.0365 63.8591C22.7183 64.5138 22.2513 65.0848 21.6727 65.5265C20.6492 66.3023 19.4857 66.8734 18.2458 67.2085C16.3796 67.7942 14.4304 68.0717 12.4748 68.0301C10.7735 68.0301 9.83585 67.832 8.54535 67.5613L8.17318 67.484C6.75112 67.1695 5.36245 66.7195 4.02618 66.1403C3.96643 66.0998 3.8953 66.0795 3.82318 66.0823C3.71719 66.0848 3.61638 66.1287 3.54232 66.2046C3.46826 66.2805 3.42682 66.3823 3.42685 66.4883V67.4695H0.584845V60.3258H3.11751C3.1331 61.05 3.36358 61.7532 3.77968 62.3461C4.80435 63.6028 5.90635 64.0861 6.95518 64.4728C8.72901 65.0528 10.5898 65.3621 12.4458 65.4201C15.1187 65.4201 16.6798 64.7725 17.0182 64.6323L17.0617 64.613L17.0907 64.6033C17.3903 64.4921 18.5987 64.0523 18.5987 62.7086C18.5987 61.3843 17.4677 61.0943 16.7282 60.9058L16.6218 60.8816C15.8002 60.6593 13.9055 60.4563 11.8368 60.2388L11.1022 60.1615C8.75801 59.915 6.41385 59.5476 5.31668 59.3156C2.90968 58.784 1.96235 57.9043 1.37268 57.3581L1.33401 57.3195C0.474417 56.4029 -0.00274882 55.1927 1.1913e-05 53.9361C1.1913e-05 51.5388 1.64335 50.0888 3.65885 49.1995C5.81451 48.2328 8.37618 47.8026 10.6188 47.8026C14.5822 47.8171 17.806 49.1076 18.966 49.707C19.4348 49.9583 19.6668 49.649 19.6668 49.417V48.6968H22.214V54.9221H19.9327C19.7279 53.9983 19.2293 53.1657 18.5117 52.549C18.0743 52.1972 17.5915 51.9062 17.0762 51.6838C15.1639 50.8764 13.1053 50.4732 11.0297 50.4996C8.88851 50.4996 6.83918 50.9105 5.80968 51.5388C5.17168 51.9351 4.84301 52.433 4.84301 53.0178C4.84301 53.854 5.54868 54.1875 5.90635 54.289C6.85368 54.579 8.96101 54.7868 10.5995 54.9511L11.5855 55.0526C13.166 55.2121 16.4768 55.652 17.9413 56.0193ZM105.749 51.2005V48.8853H116V51.157H113.699C112.868 51.157 112.53 51.3165 111.901 52.0221L105.004 59.9005C104.931 59.9974 104.899 60.1184 104.912 60.2388V63.8251C104.924 63.9919 104.943 64.158 104.97 64.323C105.011 64.4281 105.077 64.5222 105.161 64.5977C105.244 64.6732 105.345 64.7281 105.454 64.758C105.662 64.7887 105.872 64.8048 106.082 64.8063H108.431V67.078H95.99V64.8063H98.2133C98.4237 64.8048 98.6336 64.7887 98.8417 64.758C98.9521 64.7265 99.0543 64.6712 99.1411 64.5961C99.228 64.5209 99.2973 64.4277 99.3444 64.323C99.3732 64.1635 99.3878 64.0017 99.3878 63.8396V60.2533C99.3878 60.1325 99.3878 60.1325 99.2283 59.944C96.958 57.3574 94.6831 54.7747 92.4037 52.1961C92.0363 51.8143 91.408 51.2005 90.4413 51.2005H88.2277V48.9288H100.736V51.2005H99.2283C98.89 51.2005 98.658 51.5388 98.948 51.9061L103.197 56.986C103.24 57.044 103.269 57.044 103.327 57.0005C103.385 56.957 107.648 51.9496 107.677 51.9061C107.712 51.8599 107.738 51.8072 107.752 51.7509C107.767 51.6947 107.771 51.6362 107.762 51.5787C107.754 51.5212 107.735 51.4658 107.705 51.4158C107.676 51.3658 107.637 51.3222 107.59 51.2875C107.504 51.231 107.403 51.2008 107.3 51.2005H105.749ZM75.3759 51.186H77.72C78.7882 51.186 78.9767 51.5968 78.9912 52.5925L79.1265 60.1615L66.6469 48.9288H57.7294V51.2005H59.7207C61.1562 51.2005 61.2577 51.9931 61.2577 52.6988V63.395C61.2577 64.0136 61.2625 64.8208 60.378 64.8208H57.9324V67.078H68.3917V64.8063H65.8397C64.815 64.8063 64.7764 64.3375 64.757 63.3418V54.2455L79.1265 67.0586H82.7853L82.592 52.578C82.6113 51.5243 82.6838 51.1715 83.7665 51.1715H86.0527V48.8998H75.3759V51.186Z" fill="#898888"/>
</g>
<defs>
<clipPath id="clip0_424_1094">
<rect width="116" height="116" fill="white"/>
</clipPath>
</defs>
</svg>
