<svg width="116" height="25" viewBox="0 0 116 25" fill="none" xmlns="http://www.w3.org/2000/svg">
<path d="M111.311 24.2557C111.503 24.2557 111.659 24.0988 111.659 23.9053V21.4749C111.659 21.2823 111.503 21.1263 111.311 21.1263H108.097C107.345 21.1263 105.359 21.087 104.264 20.5468C103.907 20.3697 103.637 20.1689 103.46 19.9307C103.297 19.7117 103.214 19.4342 103.214 19.092V1.13665C103.214 0.944084 103.058 0.787109 102.867 0.787109H95.723C95.531 0.787109 95.3789 0.944084 95.3789 1.13665V18.5198C95.3789 19.4379 95.5854 20.2912 95.9812 20.8826C96.4095 21.5215 97.0634 22.1685 97.9283 22.644C100.579 24.0969 105.39 24.2649 107.213 24.2557H111.311Z" fill="#898888"/>
<path d="M63.2941 0.787582C61.4701 0.77663 56.6593 0.945469 54.0093 2.39931C53.1435 2.87389 52.4905 3.52095 52.0612 4.16071C51.6655 4.75211 51.459 5.60451 51.459 6.73802V23.9961C51.459 23.9961 51.6111 24.1531 51.8031 24.1531H58.9469C59.1389 24.1531 59.2938 23.9961 59.2938 23.8035V10.1604H63.5848C63.7759 10.1604 63.9317 10.0035 63.9317 9.80998V7.38143C63.9317 7.18795 63.7759 7.03098 63.5848 7.03098H59.2938V5.95041C59.2938 5.60817 59.3771 5.33163 59.5411 5.11169C59.7177 4.8744 59.9875 4.67271 60.3453 4.49657C61.4393 3.95537 63.4254 3.91704 64.178 3.91704H67.3913C67.5842 3.91704 67.74 3.76006 67.74 3.56658V1.13712C67.74 0.943644 67.5842 0.787582 67.3913 0.787582H63.2941Z" fill="#898888"/>
<path d="M17.0193 24.1531C17.2104 24.1531 17.3661 23.9961 17.3661 23.8035V3.96539H25.8811C26.074 3.96539 26.2289 3.80842 26.2289 3.61494V1.18639C26.2289 0.992912 26.074 0.835938 25.8811 0.835938H1.04894C0.856945 0.835938 0.701172 0.992912 0.701172 1.18639V3.61494C0.701172 3.80842 0.856945 3.96539 1.04894 3.96539H9.54762V23.8035C9.54762 23.9961 9.70249 24.1531 9.89449 24.1531H17.0193Z" fill="#898888"/>
<path d="M47.8203 24.1525C48.0132 24.1525 48.168 23.9955 48.168 23.802V21.3726C48.168 21.1791 48.0132 21.0221 47.8203 21.0221H34.105C33.3515 21.0221 31.3654 20.9838 30.2713 20.4426C29.9136 20.2664 29.6437 20.0657 29.4671 19.8275C29.3032 19.6066 29.2199 19.3301 29.2199 18.9896V17.6992H36.2152C38.0392 17.6992 42.85 17.6043 45.5 16.2955C46.3658 15.8684 47.0197 15.382 47.4471 14.8061C48.3582 13.5804 48.4379 11.1254 47.4535 9.79933C47.026 9.22345 46.3721 8.73701 45.5063 8.3099C42.8563 7.00025 38.0455 6.90625 36.2215 6.90625H33.2202C31.3962 6.90625 26.5853 7.04862 23.9363 8.35827C23.0705 8.7863 22.4166 9.36856 21.9882 9.94535C21.5924 10.4783 21.3887 11.2459 21.3887 12.0736V18.9851C21.3887 19.8129 21.5924 20.5804 21.9882 21.1134C22.4166 21.6902 23.0705 22.2724 23.9363 22.7005C26.5853 24.0092 31.3962 24.1616 33.2202 24.1525H47.8203ZM40.2209 12.5354C40.2209 12.8777 40.1367 13.1542 39.9727 13.3751C39.7961 13.6133 39.5262 13.8131 39.1685 13.9893C38.0745 14.5296 36.0884 14.5688 35.3349 14.5688H29.2108V11.8601C29.2108 11.5188 29.295 11.2422 29.4581 11.0214C29.6347 10.7841 29.9055 10.5824 30.2623 10.4062C31.3563 9.86595 33.3433 9.82671 34.0959 9.82671H35.3349C36.0884 9.82671 38.0745 9.86595 39.1685 10.4062C39.5262 10.5824 39.7961 10.7841 39.9727 11.0214C40.1367 11.2422 40.2209 11.5188 40.2209 11.8601V12.5354Z" fill="#898888"/>
<path d="M90.7823 10.0683C90.354 9.49148 89.701 8.9083 88.8343 8.48027C86.1852 7.17154 81.3744 7.01913 79.5504 7.02917L75.8028 7.02734L75.801 7.02917H67.5704C67.3784 7.02917 67.2226 7.18614 67.2226 7.37962V9.80817C67.2226 10.0016 67.3784 10.1586 67.5704 10.1586H78.6656C79.4191 10.1586 81.4061 10.1979 82.4992 10.7382C82.8569 10.9143 83.1268 11.1151 83.3034 11.3533C83.4674 11.5732 83.5507 11.8507 83.5507 12.192V13.3584H76.5554C74.7314 13.3584 69.9205 13.4533 67.2706 14.762C66.4048 15.1891 65.7518 15.6756 65.3225 16.2523C64.3499 17.5629 64.3435 20.0681 65.3162 21.3787C65.7446 21.9555 66.3993 22.441 67.2642 22.869C69.9142 24.1787 74.725 24.2717 76.5481 24.2717H79.5504C81.3744 24.2717 86.1852 24.1294 88.8343 22.8206C89.701 22.3935 90.354 21.8103 90.7823 21.2336C91.1781 20.7015 91.3819 19.933 91.3819 19.1053V12.1956C91.3819 11.3688 91.1781 10.6013 90.7823 10.0683ZM83.5597 19.3179C83.5597 19.6602 83.4764 19.9367 83.3125 20.1566C83.1359 20.3957 82.866 20.5956 82.5083 20.7727C81.4142 21.312 79.4281 21.3513 78.6746 21.3513H77.4357C76.6822 21.3513 74.6952 21.312 73.6011 20.7727C73.2443 20.5956 72.9744 20.3957 72.7978 20.1566C72.6339 19.9367 72.5506 19.6602 72.5506 19.3179V18.5221C72.5506 18.1798 72.6339 17.9024 72.7978 17.6834C72.9744 17.4452 73.2443 17.2444 73.6011 17.0673C74.6952 16.5271 76.6822 16.4887 77.4357 16.4887H83.5597V19.3179Z" fill="#898888"/>
</svg>
