<svg width="94" height="45" viewBox="0 0 94 45" fill="none" xmlns="http://www.w3.org/2000/svg">
<path d="M11.8131 39.1319C11.3002 39.0074 10.845 38.6405 10.5808 38.1387L10.4343 37.8606L10.403 34.2754L10.3717 30.6903L6.70551 30.6594L3.03935 30.6284L2.75027 30.4608C2.43721 30.2793 2.13517 29.9712 1.95948 29.6541C1.85756 29.4701 1.84863 29.2 1.84863 26.3015V23.149H9.93298H18.0173V31.1539V39.1587L15.0092 39.1681C13.3547 39.1733 11.9165 39.157 11.8131 39.1319Z" fill="#898888"/>
<path d="M20.6488 30.4046C20.6307 30.3581 20.6233 28.7623 20.6322 26.8584L20.6485 23.3969L22.4345 23.3586C24.2786 23.3191 24.4784 23.2944 25.3382 22.9998C27.5119 22.255 28.967 19.9429 28.8042 17.4925C28.6365 14.968 27.1274 13.1634 24.7394 12.6316C24.1366 12.4973 22.8699 12.4948 22.2688 12.6266C20.1063 13.1008 18.4906 14.6434 17.948 16.752C17.8689 17.0592 17.8375 17.5575 17.8144 18.8691C17.7873 20.4068 17.7735 20.5847 17.681 20.5872C17.1075 20.6026 10.6835 20.5731 10.6651 20.555C10.6103 20.5009 10.6603 16.8063 10.7225 16.3193C11.2441 12.2308 13.8892 8.59437 17.6874 6.74416C19.574 5.8251 21.312 5.42714 23.4685 5.42037C25.5819 5.41375 27.3637 5.78959 29.1085 6.61004C32.6324 8.26703 34.9853 11.2927 35.7495 15.1497C36.6318 19.6035 35.2749 23.967 32.0674 26.9904C30.2046 28.7463 28.0066 29.8358 25.3945 30.298C24.7843 30.406 24.3207 30.4333 22.6704 30.4587C21.0235 30.484 20.676 30.4747 20.6488 30.4046V30.4046Z" fill="#898888"/>
<path d="M47.8467 34.2489C47.7778 34.2211 47.665 34.1365 47.596 34.0609C47.4727 33.9257 47.4707 33.8365 47.4707 28.5898V23.256L47.791 22.894C48.4674 22.1294 49.6613 21.4205 50.7608 21.1306C51.1984 21.0153 51.4559 20.9902 52.2022 20.99C53.2696 20.9897 53.6384 21.0694 54.4897 21.4841C56.5771 22.5008 57.6194 24.8903 57.0013 27.2422C56.5404 28.9962 55.0642 30.3026 53.1761 30.6273C52.8417 30.6848 52.2461 30.7222 51.6635 30.7222C50.7776 30.7222 50.6975 30.7129 50.6377 30.6026C50.602 30.5369 50.5728 30.1595 50.5728 29.7641C50.5728 29.3686 50.602 28.9913 50.6377 28.9255C50.6974 28.8156 50.7772 28.806 51.629 28.806C52.9007 28.806 53.4103 28.6513 54.0338 28.0761C55.1797 27.0189 55.2531 25.0191 54.1881 23.8776C53.5712 23.2164 52.7145 22.9375 51.6844 23.0623C51.0859 23.1348 50.3166 23.5026 49.9557 23.8888L49.6955 24.1672V29.1631C49.6955 32.9664 49.6775 34.1767 49.6203 34.2332C49.5335 34.3187 48.0522 34.3319 47.8467 34.2489Z" fill="#898888"/>
<path d="M42.627 30.6273C42.1143 30.5175 41.645 30.2985 41.3152 30.0151C40.9648 29.714 40.6285 29.0355 40.5472 28.4654C40.4798 27.9932 40.4569 19.5489 40.5225 19.3803C40.5718 19.2535 42.5344 18.2776 42.6512 18.3218C42.7194 18.3476 42.7403 18.6357 42.7538 19.7319L42.7706 21.1097L44.1016 21.1263C45.6696 21.146 45.5108 21.0201 45.4837 22.2223L45.4657 23.0259L44.1182 23.0599C43.377 23.0786 42.7621 23.0995 42.7517 23.1062C42.7413 23.113 42.7413 24.2382 42.7517 25.6066C42.7697 27.9729 42.7768 28.1051 42.8974 28.3109C42.9725 28.439 43.1377 28.584 43.3024 28.6663C43.5642 28.7972 43.6571 28.8054 44.871 28.8054C45.791 28.8054 46.1829 28.8267 46.2366 28.8796C46.2874 28.9297 46.3118 29.2161 46.3118 29.7635C46.3118 30.3109 46.2874 30.5973 46.2366 30.6474C46.1256 30.7569 43.1546 30.7403 42.627 30.6273Z" fill="#898888"/>
<path d="M64.6147 30.561L64.4219 30.401V24.1457V17.8905L65.4322 17.3789C65.9879 17.0976 66.4815 16.8821 66.5291 16.9001C66.6018 16.9276 66.6155 18.018 66.6155 23.7894C66.6155 29.9847 66.6059 30.6496 66.5164 30.6835C66.4618 30.7042 66.0551 30.721 65.6124 30.721C64.838 30.721 64.8003 30.715 64.6147 30.561Z" fill="#898888"/>
<path d="M69.0158 30.6598C68.6694 30.5223 68.6809 30.6998 68.6984 25.7411L68.7144 21.1721H69.7799H70.8454L70.8615 25.8969C70.8742 29.6359 70.8608 30.632 70.7988 30.6711C70.6923 30.7378 69.1881 30.7283 69.0158 30.6598Z" fill="#898888"/>
<path d="M73.2645 30.6353C72.9447 30.4605 72.9488 30.5118 72.9464 26.6852C72.9446 23.709 72.9591 23.0846 73.0335 22.9455C73.1509 22.7261 73.8372 22.0748 74.2127 21.8264C74.6763 21.5197 75.4963 21.1546 76.0463 21.0099C76.7024 20.8374 77.9082 20.8218 78.5531 20.9777C80.2003 21.3756 81.4832 22.6318 81.9054 24.2601C82.0228 24.7129 82.0313 24.9438 82.0313 27.696C82.0313 30.3295 82.0206 30.6506 81.9321 30.6841C81.7387 30.7573 79.9923 30.7256 79.913 30.6474C79.8568 30.5919 79.8378 29.8769 79.8378 27.8105C79.8378 25.2336 79.8295 25.0212 79.714 24.6523C79.3933 23.6282 78.6142 23.0138 77.5537 22.9488C76.7271 22.8981 76.0353 23.1307 75.4432 23.6583L75.2003 23.8747V27.1786C75.2003 29.3378 75.1778 30.5239 75.1354 30.602C75.0762 30.7112 74.9983 30.7214 74.2424 30.7194C73.6759 30.7179 73.3669 30.6913 73.2645 30.6353Z" fill="#898888"/>
<path d="M84.3062 30.66C83.9555 30.5207 83.9715 30.8508 83.9888 24.1034L84.0048 17.8962L85.0509 17.3723C85.6263 17.0842 86.1199 16.8709 86.1477 16.8984C86.1756 16.9259 86.2125 18.7888 86.2298 21.0383L86.2611 25.1283L87.9731 23.1349L89.6851 21.1414H90.9345C91.973 21.1414 92.1839 21.1562 92.1839 21.2293C92.1839 21.2777 91.3222 22.2822 90.2691 23.4615C89.2159 24.6408 88.3627 25.6409 88.3731 25.6838C88.3835 25.7267 89.3477 26.8261 90.5157 28.127C91.6838 29.4279 92.6427 30.5371 92.6467 30.5919C92.6531 30.68 92.5065 30.6935 91.383 30.7083L90.112 30.725L89.9728 30.5748C89.8962 30.4922 89.0439 29.478 88.0787 28.3211C87.1135 27.1642 86.3026 26.216 86.2768 26.2139C86.2509 26.2118 86.2298 27.1715 86.2298 28.3467C86.2298 29.7013 86.206 30.5271 86.1649 30.6029C86.1056 30.7121 86.0287 30.7221 85.2718 30.7185C84.8162 30.7163 84.3817 30.69 84.3062 30.66Z" fill="#898888"/>
<path d="M59.6439 26.9046C59.4855 26.7292 58.6503 24.9546 58.6846 24.8665C58.7097 24.8019 59.1033 24.789 60.6449 24.8021L62.5738 24.8184L62.591 25.8646C62.6041 26.6603 62.5891 26.9228 62.5284 26.9609C62.4844 26.9884 61.8394 27.0113 61.095 27.0118C59.8842 27.0127 59.7312 27.0014 59.6439 26.9046Z" fill="#898888"/>
<path d="M68.6395 18.9463C68.4258 18.7987 68.2873 18.3588 68.3189 17.9281C68.3529 17.4654 68.5799 17.1172 69.0247 16.846C69.2915 16.6833 69.3887 16.6594 69.7749 16.661C70.267 16.663 70.5897 16.7906 70.889 17.1016C71.351 17.5817 71.3815 18.4492 70.9533 18.9308C70.869 19.0256 70.7291 19.0389 69.8154 19.0389C68.9913 19.0389 68.7455 19.0196 68.6395 18.9463Z" fill="#898888"/>
</svg>
