<svg width="130" height="67" viewBox="0 0 130 67" fill="none" xmlns="http://www.w3.org/2000/svg">
<g clip-path="url(#clip0_1498_1249)">
<path d="M129.5 45C129.4 45 129.4 45.1 129.3 45.2C127.1 49.9 125.1 50.7 124.2 50.7C123.5 50.7 123.1 50.3 123.1 49.1C123.1 47.7 123.7 45.8 124.2 44.1C124.9 41.6 125.3 40.3 125.3 39.2C125.3 37.8 124.2 36.7 122.6 36.7C120.1 36.7 118.2 38.7 116.1 41.9C116 42 115.9 42.1 115.9 42.1C115.9 42.1 115.8 42.1 115.8 42C115.8 41.9 115.9 41.7 115.9 41.6C116.3 39.9 116.8 38.3 117.2 36.8C123 31.9 129.7 25.5 129.7 20.1C129.7 18.3 128.8 16.8 126.8 16.8C122.4 16.8 117.6 23 113.6 38.3C112.3 39.3 111 40.2 109.8 41C109.5 41.2 109.2 41.4 108.9 41.6C108.9 41.5 108.9 41.4 108.9 41.3C108.9 39.1 108.2 36.7 105.6 36.7C103.4 36.7 101.1 38.3 99.2 41.9C99.2 42 99.1 42 99 42C99 42 98.9 42 98.9 41.9C98.9 41.9 98.9 41.8 98.9 41.7C99.1 41 99.6 39.3 99.6 38.6C99.6 37.5 97.7 36.5 97.4 36.5C97.2 36.5 97.2 36.6 97.1 36.8C96.7 38.3 96.6 39 96.2 40.2C94.4 45.7 91.7 50.4 90 50.4C89.5 50.4 89.2 49.9 89.2 49.1C89.2 46.7 91.4 41.2 91.4 39.1C91.4 37.7 90.6 36.5 88.6 36.5C86.8 36.5 84.5 38.1 82.4 41.6C82.3 41.7 82.3 41.9 82.2 41.9C82.2 41.9 82.1 41.9 82.1 41.8C82.1 41.7 82.1 41.6 82.2 41.6C82.3 41 82.5 40.2 82.5 39.3C82.5 38 81.9 36.6 80.1 36.6C78.3 36.6 76 38.1 73.9 41.6C73.8 41.7 73.7 41.9 73.6 41.9C73.6 41.9 73.5 41.9 73.5 41.8C73.5 41.7 73.5 41.6 73.5 41.5C73.7 40.7 74.2 39.2 74.2 38.5C74.2 37.4 72.3 36.4 72 36.4C71.8 36.4 71.8 36.5 71.7 36.7C70.6 41.8 68.5 50.2 68.5 50.6C68.5 51.4 70.6 52.1 71 52.1C71.3 52.1 71.3 52 71.4 51.7C72.2 48.8 73.2 45 74.6 42.5C75.9 40.2 77.3 38.6 78.7 38.6C79.2 38.6 79.5 39 79.5 39.6C79.5 40.3 79.1 41.8 78.9 42.8C78 46.7 77.1 50.4 77.1 50.6C77.1 51.4 79.2 52.1 79.6 52.1C79.9 52.1 79.9 52 80 51.7C80.8 48.8 81.8 45 83.2 42.5C84.5 40.2 85.9 38.6 87.2 38.6C87.6 38.6 88 38.8 88 39.5C88 41.5 86 45.8 86 49C86 50.8 86.9 52.1 88.7 52.1C91.1 52.1 93 49.8 94.8 46.1C94.8 46.1 94.8 46 94.9 46C94.9 46 94.9 46 94.9 46.1C94.9 46.1 94.9 46.1 94.9 46.2C94.4 49 90.6 65 90.6 65.2C90.6 66 92.7 66.7 93.1 66.7C93.4 66.7 93.4 66.6 93.5 66.3C96.6 54.2 97.7 47.6 99.9 43.3C101.4 40.4 102.6 38.8 104.1 38.8C105 38.8 105.7 39.6 105.7 41.2C105.7 42.1 105.6 43.1 105.4 44C104.1 44.8 102.9 45.6 101.9 46.3C100 47.7 98.6 49.1 98.6 50.6C98.6 51.8 99.6 52.5 100.7 52.5C105 52.5 108.4 47.9 109 43.1C110.5 42.2 112 41.2 113.4 40.2C113.3 40.5 113.2 40.8 113.2 41.1C111.8 46.9 110.9 50.7 110.9 51C110.9 51.8 113 52.5 113.4 52.5C113.7 52.5 113.7 52.4 113.8 52.1C114.6 49.2 115.6 45.7 116.9 43.4C118.2 41.1 119.8 39 121.3 39C121.9 39 122.2 39.2 122.2 39.9C122.2 40.8 121.8 42.1 121.2 44.2C120.6 46.1 120.2 47.9 120.2 49.3C120.2 51.2 121.3 52.6 123.2 52.6C127.2 52.6 130.4 47.6 130.4 45.9C130 45.4 129.6 45 129.5 45ZM126.8 17.9C127.5 17.9 127.9 18.5 127.9 19.5C127.9 24.1 123.3 30 117.7 35C121.1 24.2 124.6 17.9 126.8 17.9ZM100.4 51.1C99.9 51.1 99.7 50.8 99.7 50.3C99.7 48.9 101.9 47.3 104.8 45.4C103.8 48.6 101.9 51.1 100.4 51.1ZM48.1 36.9C48.1 36.8 48.2 36.7 48.4 36.7C48.8 36.7 50.8 37.8 50.8 38.6C50.8 39 50.7 39.4 50.4 40.2C49.6 42.7 48.3 47.4 48.3 49.4C48.3 50.1 48.5 50.6 49.1 50.6C50 50.6 51 49.3 51.6 48.4C51.7 48.3 51.7 48.3 51.8 48.3C52 48.3 52.3 48.6 52.3 49C52.3 49.7 50.3 52.5 48.1 52.5C46.1 52.5 45.2 51.3 45.2 49.1C45.1 46.6 47.5 38.7 48.1 36.9ZM62.5 42.5C61.2 46.3 58.6 50.6 57.1 50.6C56.5 50.6 56.2 50.1 56.2 49.1C56.2 46.7 57.4 42.7 58.2 40.3C58.4 39.5 58.6 39.1 58.6 38.7C58.6 37.9 56.6 36.8 56.2 36.8C56 36.8 56 36.9 55.9 37C55.3 38.8 53.1 45.7 53.1 48.7C53.1 51 54 52.5 55.8 52.5C58 52.5 60.1 50.3 61.3 47.9C61.3 47.8 61.3 47.8 61.4 47.8C61.4 47.8 61.4 47.8 61.4 47.9C61.4 48 61.3 48.6 61.3 49.1C61.3 51.3 62.2 52.5 64.2 52.5C66.4 52.5 68.4 49.7 68.4 49C68.4 48.7 68.1 48.3 67.9 48.3C67.8 48.3 67.8 48.3 67.7 48.4C67.1 49.3 66 50.6 65.2 50.6C64.7 50.6 64.4 50.1 64.4 49.4C64.4 47.4 65.7 42.7 66.5 40.2C66.8 39.4 66.9 39 66.9 38.6C66.9 37.8 64.9 36.7 64.5 36.7C64.3 36.7 64.3 36.8 64.2 36.9C63.9 37.8 63 40.9 62.5 42.5ZM51.3 33.7C52.3 33.7 53 32.9 53 32C53 31 52.2 30.3 51.3 30.3C50.3 30.3 49.6 31.1 49.6 32C49.6 32.9 50.3 33.7 51.3 33.7ZM59.6 21.5C51.6 21.5 41.6 24 32 26.6C31.2 21.7 27.3 18.2 19.8 18.2C9.6 18.1 0 24 0 29.1C0 32.5 4 33.9 8.6 33.9C13.6 33.9 20.8 32.1 28.9 30C27.6 37.4 24.2 50.5 24.2 51C24.2 51.7 26.7 52.5 27.2 52.5C27.4 52.5 27.5 52.5 27.5 52.2C28.6 47.3 31.9 34.8 32.2 29.1C42.7 26.4 54.1 23.4 63.3 23.4C70.1 23.4 71.1 25.8 71.1 27C71.1 27.9 70.4 28.1 70.4 28.4C70.4 28.6 70.6 28.7 70.8 28.7C71.7 28.7 73.6 27.9 73.6 26.5C73.5 24.5 70.2 21.5 59.6 21.5ZM29.3 27.3C20.3 29.7 11.9 32 6.3 32C3.1 32 1.3 30.9 1.3 29.2C1.3 24.8 12.8 19.4 20.7 19.4C27 19.4 29.4 21.9 29.4 26C29.3 26.4 29.3 26.8 29.3 27.3ZM32.2 50.9C32.2 51.7 34.3 52.4 34.7 52.4C35 52.4 35 52.3 35.1 52C35.9 49.1 36.7 45.4 38.1 43.1C39.7 40.3 41.1 39.3 42.3 39.3C43.2 39.3 43.5 39.9 43.5 40.7C43.5 41.3 43.4 41.6 43.4 41.8C43.4 42 43.5 42 43.7 42C44.4 42 45.7 39.9 45.7 38.3C45.7 37.2 44.9 36.6 43.8 36.6C42 36.6 39.6 38.3 37.6 41.9C37.6 42 37.5 42 37.4 42C37.3 42 37.3 42 37.3 41.9C37.3 41.8 37.3 41.7 37.3 41.7C37.5 40.9 38 39.4 38 38.7C38 37.6 36.1 36.6 35.8 36.6C35.6 36.6 35.6 36.7 35.5 36.9C34.3 42.1 32.2 50.5 32.2 50.9ZM98.6 23L102.7 25.6L108.2 14.2L99.5 23.4H99.4L100 5.4L95 22.9L90 5.4L90.6 23.4H90.5L81.8 14.2L87.3 25.6L91.4 23H98.6ZM98.4 27.1L100.9 28.7L102.1 27.9L102.5 26.4L98.4 23.8H95H91.6L87.5 26.4L87.9 27.9L89.1 28.7L91.6 27.1H95H98.4ZM80.6 11.9L81.3 11.1L81 10.1L80 9.9L79.3 10.7L79.6 11.7L80.6 11.9ZM89.2 2L90 1.2L89.7 0.2L88.7 0L88 0.8L88.3 1.8L89.2 2ZM110.4 11.6L110.7 10.6L110 9.8L109 10L108.7 11L109.4 11.8L110.4 11.6ZM101.8 1.8L102.1 0.8L101.4 0L100.4 0.2L100.1 1.2L100.8 2L101.8 1.8Z" fill="black"/>
</g>
<defs>
<clipPath id="clip0_1498_1249">
<rect width="130" height="66.7" fill="white"/>
</clipPath>
</defs>
</svg>
