<svg width="24" height="24" viewBox="0 0 24 24" fill="none" xmlns="http://www.w3.org/2000/svg">
<path d="M13.9415 11.7388L11.1465 10.4347C10.9026 10.3214 10.7022 10.4484 10.7022 10.7184V13.1749C10.7022 13.445 10.9026 13.5719 11.1465 13.4587L13.9403 12.1545C14.1854 12.04 14.1854 11.8533 13.9415 11.7388ZM11.9467 0C5.34862 0 0 5.34862 0 11.9467C0 18.5447 5.34862 23.8933 11.9467 23.8933C18.5447 23.8933 23.8933 18.5447 23.8933 11.9467C23.8933 5.34862 18.5447 0 11.9467 0ZM11.9467 16.8C5.83147 16.8 5.72445 16.2487 5.72445 11.9467C5.72445 7.64462 5.83147 7.09333 11.9467 7.09333C18.0619 7.09333 18.1689 7.64462 18.1689 11.9467C18.1689 16.2487 18.0619 16.8 11.9467 16.8Z" fill="#FF0000"/>
</svg>
